M48
; DRILL file {KiCad (5.1.6)-1} date 04/02/23 22:46:17
; FORMAT={-:-/ absolute / metric / decimal}
; #@! TF.CreationDate,2023-04-02T22:46:17-07:00
; #@! TF.GenerationSoftware,Kicad,Pcbnew,(5.1.6)-1
FMAT,2
METRIC
T1C0.300
T2C0.650
%
G90
G05
T1
X134.874Y-87.503
X134.874Y-89.027
X134.874Y-90.17
X135.509Y-81.026
X135.636Y-85.598
X135.636Y-86.487
X137.541Y-88.773
X138.049Y-89.535
X139.065Y-92.075
X139.192Y-89.535
X140.335Y-91.059
X140.449Y-90.17
X141.732Y-89.662
X142.113Y-85.598
X144.145Y-90.551
X146.812Y-90.918
X147.701Y-102.235
X148.463Y-90.297
X151.257Y-75.057
X151.257Y-97.155
X151.257Y-101.346
X154.432Y-76.962
X154.432Y-99.441
X156.972Y-96.774
X157.064Y-79.629
X158.877Y-93.599
X159.004Y-82.804
X159.893Y-86.36
X159.893Y-90.043
T2
X157.734Y-89.789
X155.702Y-84.709
X155.702Y-85.979
X157.734Y-86.614
X155.702Y-90.424
X155.702Y-91.694
T0
M30
