%TF.GenerationSoftware,KiCad,Pcbnew,(5.1.6)-1*%
%TF.CreationDate,2023-04-08T18:44:15-07:00*%
%TF.ProjectId,Watch,57617463-682e-46b6-9963-61645f706362,rev?*%
%TF.SameCoordinates,Original*%
%TF.FileFunction,Legend,Bot*%
%TF.FilePolarity,Positive*%
%FSLAX46Y46*%
G04 Gerber Fmt 4.6, Leading zero omitted, Abs format (unit mm)*
G04 Created by KiCad (PCBNEW (5.1.6)-1) date 2023-04-08 18:44:15*
%MOMM*%
%LPD*%
G01*
G04 APERTURE LIST*
%ADD10C,0.150000*%
%ADD11C,0.120000*%
%ADD12C,0.100000*%
%ADD13C,0.200000*%
G04 APERTURE END LIST*
D10*
X152296000Y-98591714D02*
X152057904Y-99258380D01*
X151819809Y-98591714D01*
X150915047Y-99258380D02*
X151486476Y-99258380D01*
X151200761Y-99258380D02*
X151200761Y-98258380D01*
X151296000Y-98401238D01*
X151391238Y-98496476D01*
X151486476Y-98544095D01*
X150486476Y-99163142D02*
X150438857Y-99210761D01*
X150486476Y-99258380D01*
X150534095Y-99210761D01*
X150486476Y-99163142D01*
X150486476Y-99258380D01*
X149819809Y-98258380D02*
X149724571Y-98258380D01*
X149629333Y-98306000D01*
X149581714Y-98353619D01*
X149534095Y-98448857D01*
X149486476Y-98639333D01*
X149486476Y-98877428D01*
X149534095Y-99067904D01*
X149581714Y-99163142D01*
X149629333Y-99210761D01*
X149724571Y-99258380D01*
X149819809Y-99258380D01*
X149915047Y-99210761D01*
X149962666Y-99163142D01*
X150010285Y-99067904D01*
X150057904Y-98877428D01*
X150057904Y-98639333D01*
X150010285Y-98448857D01*
X149962666Y-98353619D01*
X149915047Y-98306000D01*
X149819809Y-98258380D01*
X147724571Y-99163142D02*
X147772190Y-99210761D01*
X147915047Y-99258380D01*
X148010285Y-99258380D01*
X148153142Y-99210761D01*
X148248380Y-99115523D01*
X148296000Y-99020285D01*
X148343619Y-98829809D01*
X148343619Y-98686952D01*
X148296000Y-98496476D01*
X148248380Y-98401238D01*
X148153142Y-98306000D01*
X148010285Y-98258380D01*
X147915047Y-98258380D01*
X147772190Y-98306000D01*
X147724571Y-98353619D01*
X146867428Y-99258380D02*
X146867428Y-98734571D01*
X146915047Y-98639333D01*
X147010285Y-98591714D01*
X147200761Y-98591714D01*
X147296000Y-98639333D01*
X146867428Y-99210761D02*
X146962666Y-99258380D01*
X147200761Y-99258380D01*
X147296000Y-99210761D01*
X147343619Y-99115523D01*
X147343619Y-99020285D01*
X147296000Y-98925047D01*
X147200761Y-98877428D01*
X146962666Y-98877428D01*
X146867428Y-98829809D01*
X145962666Y-99258380D02*
X145962666Y-98258380D01*
X145962666Y-99210761D02*
X146057904Y-99258380D01*
X146248380Y-99258380D01*
X146343619Y-99210761D01*
X146391238Y-99163142D01*
X146438857Y-99067904D01*
X146438857Y-98782190D01*
X146391238Y-98686952D01*
X146343619Y-98639333D01*
X146248380Y-98591714D01*
X146057904Y-98591714D01*
X145962666Y-98639333D01*
X145105523Y-99210761D02*
X145200761Y-99258380D01*
X145391238Y-99258380D01*
X145486476Y-99210761D01*
X145534095Y-99115523D01*
X145534095Y-98734571D01*
X145486476Y-98639333D01*
X145391238Y-98591714D01*
X145200761Y-98591714D01*
X145105523Y-98639333D01*
X145057904Y-98734571D01*
X145057904Y-98829809D01*
X145534095Y-98925047D01*
X143962666Y-98258380D02*
X143724571Y-99258380D01*
X143534095Y-98544095D01*
X143343619Y-99258380D01*
X143105523Y-98258380D01*
X142296000Y-99258380D02*
X142296000Y-98734571D01*
X142343619Y-98639333D01*
X142438857Y-98591714D01*
X142629333Y-98591714D01*
X142724571Y-98639333D01*
X142296000Y-99210761D02*
X142391238Y-99258380D01*
X142629333Y-99258380D01*
X142724571Y-99210761D01*
X142772190Y-99115523D01*
X142772190Y-99020285D01*
X142724571Y-98925047D01*
X142629333Y-98877428D01*
X142391238Y-98877428D01*
X142296000Y-98829809D01*
X141676952Y-99258380D02*
X141772190Y-99210761D01*
X141819809Y-99115523D01*
X141819809Y-98258380D01*
X141438857Y-98591714D02*
X141057904Y-98591714D01*
X141296000Y-98258380D02*
X141296000Y-99115523D01*
X141248380Y-99210761D01*
X141153142Y-99258380D01*
X141057904Y-99258380D01*
X140581714Y-99258380D02*
X140676952Y-99210761D01*
X140724571Y-99163142D01*
X140772190Y-99067904D01*
X140772190Y-98782190D01*
X140724571Y-98686952D01*
X140676952Y-98639333D01*
X140581714Y-98591714D01*
X140438857Y-98591714D01*
X140343619Y-98639333D01*
X140296000Y-98686952D01*
X140248380Y-98782190D01*
X140248380Y-99067904D01*
X140296000Y-99163142D01*
X140343619Y-99210761D01*
X140438857Y-99258380D01*
X140581714Y-99258380D01*
X139819809Y-98591714D02*
X139819809Y-99258380D01*
X139819809Y-98686952D02*
X139772190Y-98639333D01*
X139676952Y-98591714D01*
X139534095Y-98591714D01*
X139438857Y-98639333D01*
X139391238Y-98734571D01*
X139391238Y-99258380D01*
D11*
X159330000Y-88265000D02*
G75*
G03*
X159330000Y-88265000I-13500000J0D01*
G01*
D12*
%TO.C,C106*%
X139328000Y-79883000D02*
X139328000Y-79883000D01*
X139428000Y-79883000D02*
X139428000Y-79883000D01*
D13*
X145928000Y-83283000D02*
X145928000Y-83283000D01*
X145928000Y-76483000D02*
X145928000Y-76483000D01*
D12*
X139428000Y-79883000D02*
G75*
G03*
X139328000Y-79883000I-50000J0D01*
G01*
X139328000Y-79883000D02*
G75*
G03*
X139428000Y-79883000I50000J0D01*
G01*
D13*
X145928000Y-76483000D02*
G75*
G03*
X145928000Y-83283000I0J-3400000D01*
G01*
X145928000Y-83283000D02*
G75*
G03*
X145928000Y-76483000I0J3400000D01*
G01*
D12*
%TO.C,Y101*%
X136852000Y-94961000D02*
X136452000Y-94961000D01*
X136852000Y-93761000D02*
X136452000Y-93761000D01*
D13*
%TO.C,IC102*%
X135507000Y-92902000D02*
X137057000Y-92902000D01*
X137407000Y-87847000D02*
X137407000Y-92747000D01*
X140607000Y-87847000D02*
X137407000Y-87847000D01*
X140607000Y-92747000D02*
X140607000Y-87847000D01*
X137407000Y-92747000D02*
X140607000Y-92747000D01*
%TO.C,D101*%
X148477000Y-84186000D02*
X150227000Y-84186000D01*
X147690000Y-85486000D02*
X150227000Y-85486000D01*
D11*
%TO.C,TP103*%
X154116000Y-88138000D02*
G75*
G03*
X154116000Y-88138000I-700000J0D01*
G01*
%TO.C,J103*%
X156974000Y-87724000D02*
X156974000Y-85504000D01*
X156974000Y-87724000D02*
X157039000Y-87724000D01*
X156974000Y-85504000D02*
X157039000Y-85504000D01*
X156974000Y-87724000D02*
X156974000Y-87177471D01*
X156974000Y-86050529D02*
X156974000Y-85504000D01*
X157734000Y-87724000D02*
X158494000Y-87724000D01*
X158494000Y-87724000D02*
X158494000Y-86614000D01*
%TO.C,J102*%
X156974000Y-90899000D02*
X156974000Y-88679000D01*
X156974000Y-90899000D02*
X157039000Y-90899000D01*
X156974000Y-88679000D02*
X157039000Y-88679000D01*
X156974000Y-90899000D02*
X156974000Y-90352471D01*
X156974000Y-89225529D02*
X156974000Y-88679000D01*
X157734000Y-90899000D02*
X158494000Y-90899000D01*
X158494000Y-90899000D02*
X158494000Y-89789000D01*
%TO.C,J105*%
X154592000Y-84014000D02*
X155394470Y-84014000D01*
X156009530Y-84014000D02*
X156812000Y-84014000D01*
X154592000Y-85219000D02*
X154592000Y-84014000D01*
X156812000Y-85219000D02*
X156812000Y-84014000D01*
X154592000Y-85219000D02*
X155138529Y-85219000D01*
X156265471Y-85219000D02*
X156812000Y-85219000D01*
X154592000Y-85979000D02*
X154592000Y-86739000D01*
X154592000Y-86739000D02*
X155702000Y-86739000D01*
%TO.C,J101*%
X156812000Y-92389000D02*
X156009530Y-92389000D01*
X155394470Y-92389000D02*
X154592000Y-92389000D01*
X156812000Y-91184000D02*
X156812000Y-92389000D01*
X154592000Y-91184000D02*
X154592000Y-92389000D01*
X156812000Y-91184000D02*
X156265471Y-91184000D01*
X155138529Y-91184000D02*
X154592000Y-91184000D01*
X156812000Y-90424000D02*
X156812000Y-89664000D01*
X156812000Y-89664000D02*
X155702000Y-89664000D01*
%TO.C,J104*%
X150527000Y-86427000D02*
X146997000Y-86427000D01*
X150527000Y-92897000D02*
X146997000Y-92897000D01*
X151852000Y-86492000D02*
X150527000Y-86492000D01*
X150527000Y-86427000D02*
X150527000Y-86492000D01*
X146997000Y-86427000D02*
X146997000Y-86492000D01*
X150527000Y-92832000D02*
X150527000Y-92897000D01*
X146997000Y-92832000D02*
X146997000Y-92897000D01*
%TD*%
M02*
