%TF.GenerationSoftware,KiCad,Pcbnew,(5.1.6)-1*%
%TF.CreationDate,2023-04-08T18:44:15-07:00*%
%TF.ProjectId,Watch,57617463-682e-46b6-9963-61645f706362,rev?*%
%TF.SameCoordinates,Original*%
%TF.FileFunction,Soldermask,Bot*%
%TF.FilePolarity,Negative*%
%FSLAX46Y46*%
G04 Gerber Fmt 4.6, Leading zero omitted, Abs format (unit mm)*
G04 Created by KiCad (PCBNEW (5.1.6)-1) date 2023-04-08 18:44:15*
%MOMM*%
%LPD*%
G01*
G04 APERTURE LIST*
%ADD10R,1.800000X4.100000*%
%ADD11R,2.100000X5.100000*%
%ADD12R,0.900000X1.600000*%
%ADD13R,1.650000X0.800000*%
%ADD14R,1.150000X0.600000*%
%ADD15R,0.720000X0.700000*%
%ADD16R,0.700000X0.720000*%
%ADD17C,1.100000*%
%ADD18R,1.100000X1.100000*%
%ADD19O,1.100000X1.100000*%
%ADD20R,2.500000X0.840000*%
G04 APERTURE END LIST*
%TO.C,R103*%
G36*
G01*
X138613500Y-79896000D02*
X139008500Y-79896000D01*
G75*
G02*
X139181000Y-80068500I0J-172500D01*
G01*
X139181000Y-80413500D01*
G75*
G02*
X139008500Y-80586000I-172500J0D01*
G01*
X138613500Y-80586000D01*
G75*
G02*
X138441000Y-80413500I0J172500D01*
G01*
X138441000Y-80068500D01*
G75*
G02*
X138613500Y-79896000I172500J0D01*
G01*
G37*
G36*
G01*
X138613500Y-78926000D02*
X139008500Y-78926000D01*
G75*
G02*
X139181000Y-79098500I0J-172500D01*
G01*
X139181000Y-79443500D01*
G75*
G02*
X139008500Y-79616000I-172500J0D01*
G01*
X138613500Y-79616000D01*
G75*
G02*
X138441000Y-79443500I0J172500D01*
G01*
X138441000Y-79098500D01*
G75*
G02*
X138613500Y-78926000I172500J0D01*
G01*
G37*
%TD*%
D10*
%TO.C,C106*%
X151003000Y-79883000D03*
D11*
X140853000Y-79883000D03*
%TD*%
D12*
%TO.C,Y101*%
X135902000Y-94361000D03*
X137402000Y-94361000D03*
%TD*%
D13*
%TO.C,IC102*%
X141732000Y-92202000D03*
X141732000Y-90932000D03*
X141732000Y-89662000D03*
X141732000Y-88392000D03*
X136282000Y-88392000D03*
X136282000Y-89662000D03*
X136282000Y-90932000D03*
X136282000Y-92202000D03*
%TD*%
D14*
%TO.C,D101*%
X150490000Y-84836000D03*
X148214000Y-84836000D03*
%TD*%
D15*
%TO.C,C202*%
X137668000Y-80216000D03*
X137668000Y-79296000D03*
%TD*%
D16*
%TO.C,C201*%
X140078200Y-85572600D03*
X140998200Y-85572600D03*
%TD*%
%TO.C,C105*%
X146558000Y-84455000D03*
X145638000Y-84455000D03*
%TD*%
%TO.C,R203*%
G36*
G01*
X141491000Y-87192500D02*
X141491000Y-86797500D01*
G75*
G02*
X141663500Y-86625000I172500J0D01*
G01*
X142008500Y-86625000D01*
G75*
G02*
X142181000Y-86797500I0J-172500D01*
G01*
X142181000Y-87192500D01*
G75*
G02*
X142008500Y-87365000I-172500J0D01*
G01*
X141663500Y-87365000D01*
G75*
G02*
X141491000Y-87192500I0J172500D01*
G01*
G37*
G36*
G01*
X140521000Y-87192500D02*
X140521000Y-86797500D01*
G75*
G02*
X140693500Y-86625000I172500J0D01*
G01*
X141038500Y-86625000D01*
G75*
G02*
X141211000Y-86797500I0J-172500D01*
G01*
X141211000Y-87192500D01*
G75*
G02*
X141038500Y-87365000I-172500J0D01*
G01*
X140693500Y-87365000D01*
G75*
G02*
X140521000Y-87192500I0J172500D01*
G01*
G37*
%TD*%
%TO.C,R112*%
G36*
G01*
X144539000Y-91510500D02*
X144539000Y-91115500D01*
G75*
G02*
X144711500Y-90943000I172500J0D01*
G01*
X145056500Y-90943000D01*
G75*
G02*
X145229000Y-91115500I0J-172500D01*
G01*
X145229000Y-91510500D01*
G75*
G02*
X145056500Y-91683000I-172500J0D01*
G01*
X144711500Y-91683000D01*
G75*
G02*
X144539000Y-91510500I0J172500D01*
G01*
G37*
G36*
G01*
X143569000Y-91510500D02*
X143569000Y-91115500D01*
G75*
G02*
X143741500Y-90943000I172500J0D01*
G01*
X144086500Y-90943000D01*
G75*
G02*
X144259000Y-91115500I0J-172500D01*
G01*
X144259000Y-91510500D01*
G75*
G02*
X144086500Y-91683000I-172500J0D01*
G01*
X143741500Y-91683000D01*
G75*
G02*
X143569000Y-91510500I0J172500D01*
G01*
G37*
%TD*%
%TO.C,R111*%
G36*
G01*
X144539000Y-89986500D02*
X144539000Y-89591500D01*
G75*
G02*
X144711500Y-89419000I172500J0D01*
G01*
X145056500Y-89419000D01*
G75*
G02*
X145229000Y-89591500I0J-172500D01*
G01*
X145229000Y-89986500D01*
G75*
G02*
X145056500Y-90159000I-172500J0D01*
G01*
X144711500Y-90159000D01*
G75*
G02*
X144539000Y-89986500I0J172500D01*
G01*
G37*
G36*
G01*
X143569000Y-89986500D02*
X143569000Y-89591500D01*
G75*
G02*
X143741500Y-89419000I172500J0D01*
G01*
X144086500Y-89419000D01*
G75*
G02*
X144259000Y-89591500I0J-172500D01*
G01*
X144259000Y-89986500D01*
G75*
G02*
X144086500Y-90159000I-172500J0D01*
G01*
X143741500Y-90159000D01*
G75*
G02*
X143569000Y-89986500I0J172500D01*
G01*
G37*
%TD*%
%TO.C,R110*%
G36*
G01*
X144539000Y-87319500D02*
X144539000Y-86924500D01*
G75*
G02*
X144711500Y-86752000I172500J0D01*
G01*
X145056500Y-86752000D01*
G75*
G02*
X145229000Y-86924500I0J-172500D01*
G01*
X145229000Y-87319500D01*
G75*
G02*
X145056500Y-87492000I-172500J0D01*
G01*
X144711500Y-87492000D01*
G75*
G02*
X144539000Y-87319500I0J172500D01*
G01*
G37*
G36*
G01*
X143569000Y-87319500D02*
X143569000Y-86924500D01*
G75*
G02*
X143741500Y-86752000I172500J0D01*
G01*
X144086500Y-86752000D01*
G75*
G02*
X144259000Y-86924500I0J-172500D01*
G01*
X144259000Y-87319500D01*
G75*
G02*
X144086500Y-87492000I-172500J0D01*
G01*
X143741500Y-87492000D01*
G75*
G02*
X143569000Y-87319500I0J172500D01*
G01*
G37*
%TD*%
%TO.C,R109*%
G36*
G01*
X144539000Y-88589500D02*
X144539000Y-88194500D01*
G75*
G02*
X144711500Y-88022000I172500J0D01*
G01*
X145056500Y-88022000D01*
G75*
G02*
X145229000Y-88194500I0J-172500D01*
G01*
X145229000Y-88589500D01*
G75*
G02*
X145056500Y-88762000I-172500J0D01*
G01*
X144711500Y-88762000D01*
G75*
G02*
X144539000Y-88589500I0J172500D01*
G01*
G37*
G36*
G01*
X143569000Y-88589500D02*
X143569000Y-88194500D01*
G75*
G02*
X143741500Y-88022000I172500J0D01*
G01*
X144086500Y-88022000D01*
G75*
G02*
X144259000Y-88194500I0J-172500D01*
G01*
X144259000Y-88589500D01*
G75*
G02*
X144086500Y-88762000I-172500J0D01*
G01*
X143741500Y-88762000D01*
G75*
G02*
X143569000Y-88589500I0J172500D01*
G01*
G37*
%TD*%
%TO.C,R108*%
G36*
G01*
X155565000Y-87700500D02*
X155565000Y-87305500D01*
G75*
G02*
X155737500Y-87133000I172500J0D01*
G01*
X156082500Y-87133000D01*
G75*
G02*
X156255000Y-87305500I0J-172500D01*
G01*
X156255000Y-87700500D01*
G75*
G02*
X156082500Y-87873000I-172500J0D01*
G01*
X155737500Y-87873000D01*
G75*
G02*
X155565000Y-87700500I0J172500D01*
G01*
G37*
G36*
G01*
X154595000Y-87700500D02*
X154595000Y-87305500D01*
G75*
G02*
X154767500Y-87133000I172500J0D01*
G01*
X155112500Y-87133000D01*
G75*
G02*
X155285000Y-87305500I0J-172500D01*
G01*
X155285000Y-87700500D01*
G75*
G02*
X155112500Y-87873000I-172500J0D01*
G01*
X154767500Y-87873000D01*
G75*
G02*
X154595000Y-87700500I0J172500D01*
G01*
G37*
%TD*%
%TO.C,R107*%
G36*
G01*
X155565000Y-88970500D02*
X155565000Y-88575500D01*
G75*
G02*
X155737500Y-88403000I172500J0D01*
G01*
X156082500Y-88403000D01*
G75*
G02*
X156255000Y-88575500I0J-172500D01*
G01*
X156255000Y-88970500D01*
G75*
G02*
X156082500Y-89143000I-172500J0D01*
G01*
X155737500Y-89143000D01*
G75*
G02*
X155565000Y-88970500I0J172500D01*
G01*
G37*
G36*
G01*
X154595000Y-88970500D02*
X154595000Y-88575500D01*
G75*
G02*
X154767500Y-88403000I172500J0D01*
G01*
X155112500Y-88403000D01*
G75*
G02*
X155285000Y-88575500I0J-172500D01*
G01*
X155285000Y-88970500D01*
G75*
G02*
X155112500Y-89143000I-172500J0D01*
G01*
X154767500Y-89143000D01*
G75*
G02*
X154595000Y-88970500I0J172500D01*
G01*
G37*
%TD*%
%TO.C,R105*%
G36*
G01*
X144335800Y-84652500D02*
X144335800Y-84257500D01*
G75*
G02*
X144508300Y-84085000I172500J0D01*
G01*
X144853300Y-84085000D01*
G75*
G02*
X145025800Y-84257500I0J-172500D01*
G01*
X145025800Y-84652500D01*
G75*
G02*
X144853300Y-84825000I-172500J0D01*
G01*
X144508300Y-84825000D01*
G75*
G02*
X144335800Y-84652500I0J172500D01*
G01*
G37*
G36*
G01*
X143365800Y-84652500D02*
X143365800Y-84257500D01*
G75*
G02*
X143538300Y-84085000I172500J0D01*
G01*
X143883300Y-84085000D01*
G75*
G02*
X144055800Y-84257500I0J-172500D01*
G01*
X144055800Y-84652500D01*
G75*
G02*
X143883300Y-84825000I-172500J0D01*
G01*
X143538300Y-84825000D01*
G75*
G02*
X143365800Y-84652500I0J172500D01*
G01*
G37*
%TD*%
%TO.C,R104*%
G36*
G01*
X140678200Y-84398500D02*
X140678200Y-84003500D01*
G75*
G02*
X140850700Y-83831000I172500J0D01*
G01*
X141195700Y-83831000D01*
G75*
G02*
X141368200Y-84003500I0J-172500D01*
G01*
X141368200Y-84398500D01*
G75*
G02*
X141195700Y-84571000I-172500J0D01*
G01*
X140850700Y-84571000D01*
G75*
G02*
X140678200Y-84398500I0J172500D01*
G01*
G37*
G36*
G01*
X139708200Y-84398500D02*
X139708200Y-84003500D01*
G75*
G02*
X139880700Y-83831000I172500J0D01*
G01*
X140225700Y-83831000D01*
G75*
G02*
X140398200Y-84003500I0J-172500D01*
G01*
X140398200Y-84398500D01*
G75*
G02*
X140225700Y-84571000I-172500J0D01*
G01*
X139880700Y-84571000D01*
G75*
G02*
X139708200Y-84398500I0J172500D01*
G01*
G37*
%TD*%
D17*
%TO.C,TP103*%
X153416000Y-88138000D03*
%TD*%
D18*
%TO.C,J103*%
X157734000Y-86614000D03*
%TD*%
%TO.C,J102*%
X157734000Y-89789000D03*
%TD*%
D19*
%TO.C,J105*%
X155702000Y-84709000D03*
D18*
X155702000Y-85979000D03*
%TD*%
D19*
%TO.C,J101*%
X155702000Y-91694000D03*
D18*
X155702000Y-90424000D03*
%TD*%
D20*
%TO.C,J104*%
X146812000Y-92202000D03*
X150712000Y-92202000D03*
X146812000Y-90932000D03*
X150712000Y-90932000D03*
X146812000Y-89662000D03*
X150712000Y-89662000D03*
X146812000Y-88392000D03*
X150712000Y-88392000D03*
X146812000Y-87122000D03*
X150712000Y-87122000D03*
%TD*%
M02*
