%TF.GenerationSoftware,KiCad,Pcbnew,(5.1.6)-1*%
%TF.CreationDate,2023-04-03T22:04:13-07:00*%
%TF.ProjectId,Watch,57617463-682e-46b6-9963-61645f706362,rev?*%
%TF.SameCoordinates,Original*%
%TF.FileFunction,Copper,L1,Top*%
%TF.FilePolarity,Positive*%
%FSLAX46Y46*%
G04 Gerber Fmt 4.6, Leading zero omitted, Abs format (unit mm)*
G04 Created by KiCad (PCBNEW (5.1.6)-1) date 2023-04-03 22:04:13*
%MOMM*%
%LPD*%
G01*
G04 APERTURE LIST*
%TA.AperFunction,SMDPad,CuDef*%
%ADD10C,0.100000*%
%TD*%
%TA.AperFunction,SMDPad,CuDef*%
%ADD11R,3.505200X3.505200*%
%TD*%
%TA.AperFunction,SMDPad,CuDef*%
%ADD12R,0.279400X1.346200*%
%TD*%
%TA.AperFunction,SMDPad,CuDef*%
%ADD13R,1.346200X0.279400*%
%TD*%
%TA.AperFunction,SMDPad,CuDef*%
%ADD14R,0.890000X0.550000*%
%TD*%
%TA.AperFunction,SMDPad,CuDef*%
%ADD15R,0.900000X0.950000*%
%TD*%
%TA.AperFunction,SMDPad,CuDef*%
%ADD16R,0.950000X0.900000*%
%TD*%
%TA.AperFunction,SMDPad,CuDef*%
%ADD17R,2.650000X2.650000*%
%TD*%
%TA.AperFunction,SMDPad,CuDef*%
%ADD18R,0.550000X0.200000*%
%TD*%
%TA.AperFunction,SMDPad,CuDef*%
%ADD19R,0.200000X0.550000*%
%TD*%
%TA.AperFunction,SMDPad,CuDef*%
%ADD20R,0.800000X0.800000*%
%TD*%
%TA.AperFunction,SMDPad,CuDef*%
%ADD21R,1.000000X0.800000*%
%TD*%
%TA.AperFunction,SMDPad,CuDef*%
%ADD22R,1.000000X0.600000*%
%TD*%
%TA.AperFunction,SMDPad,CuDef*%
%ADD23R,0.600000X0.620000*%
%TD*%
%TA.AperFunction,SMDPad,CuDef*%
%ADD24R,0.620000X0.600000*%
%TD*%
%TA.AperFunction,ComponentPad*%
%ADD25R,1.000000X1.000000*%
%TD*%
%TA.AperFunction,ComponentPad*%
%ADD26O,1.000000X1.000000*%
%TD*%
%TA.AperFunction,SMDPad,CuDef*%
%ADD27R,1.060000X0.650000*%
%TD*%
%TA.AperFunction,ViaPad*%
%ADD28C,0.540000*%
%TD*%
%TA.AperFunction,ViaPad*%
%ADD29C,0.500000*%
%TD*%
%TA.AperFunction,Conductor*%
%ADD30C,0.150000*%
%TD*%
%TA.AperFunction,Conductor*%
%ADD31C,0.250000*%
%TD*%
%TA.AperFunction,Conductor*%
%ADD32C,0.125000*%
%TD*%
%TA.AperFunction,Conductor*%
%ADD33C,0.254000*%
%TD*%
G04 APERTURE END LIST*
%TA.AperFunction,SMDPad,CuDef*%
D10*
%TO.P,LED211,2*%
%TO.N,+3V3*%
G36*
X149930785Y-102217043D02*
G01*
X149684907Y-101299414D01*
X150554241Y-101066477D01*
X150800119Y-101984106D01*
X149930785Y-102217043D01*
G37*
%TD.AperFunction*%
%TA.AperFunction,SMDPad,CuDef*%
%TO.P,LED211,1*%
%TO.N,/leds/OUT14*%
G36*
X148385303Y-102631153D02*
G01*
X148139425Y-101713524D01*
X149008759Y-101480587D01*
X149254637Y-102398216D01*
X148385303Y-102631153D01*
G37*
%TD.AperFunction*%
%TD*%
D11*
%TO.P,U101,EPAD*%
%TO.N,GND*%
X145830000Y-93091000D03*
D12*
%TO.P,U101,48*%
X143080000Y-88912700D03*
%TO.P,U101,47*%
%TO.N,Net-(U101-Pad47)*%
X143579999Y-88912700D03*
%TO.P,U101,46*%
%TO.N,Net-(U101-Pad46)*%
X144080001Y-88912700D03*
%TO.P,U101,45*%
%TO.N,+3V3*%
X144580000Y-88912700D03*
%TO.P,U101,44*%
%TO.N,/JTAG_TDI*%
X145079999Y-88912700D03*
%TO.P,U101,43*%
%TO.N,/JTAG_TDO*%
X145580000Y-88912700D03*
%TO.P,U101,42*%
%TO.N,/SCL*%
X146080000Y-88912700D03*
%TO.P,U101,41*%
%TO.N,/SDA*%
X146580001Y-88912700D03*
%TO.P,U101,40*%
%TO.N,+3V3*%
X147080000Y-88912700D03*
%TO.P,U101,39*%
%TO.N,/SDB*%
X147579999Y-88912700D03*
%TO.P,U101,38*%
%TO.N,Net-(U101-Pad38)*%
X148080001Y-88912700D03*
%TO.P,U101,37*%
%TO.N,Net-(U101-Pad37)*%
X148580000Y-88912700D03*
D13*
%TO.P,U101,36*%
%TO.N,/SW1*%
X150008300Y-90341000D03*
%TO.P,U101,35*%
%TO.N,/SW2*%
X150008300Y-90840999D03*
%TO.P,U101,34*%
%TO.N,Net-(U101-Pad34)*%
X150008300Y-91341001D03*
%TO.P,U101,33*%
%TO.N,Net-(U101-Pad33)*%
X150008300Y-91841000D03*
%TO.P,U101,32*%
%TO.N,Net-(U101-Pad32)*%
X150008300Y-92340999D03*
%TO.P,U101,31*%
%TO.N,Net-(U101-Pad31)*%
X150008300Y-92841000D03*
%TO.P,U101,30*%
%TO.N,Net-(U101-Pad30)*%
X150008300Y-93341000D03*
%TO.P,U101,29*%
%TO.N,+3V3*%
X150008300Y-93841001D03*
%TO.P,U101,28*%
%TO.N,GND*%
X150008300Y-94341000D03*
%TO.P,U101,27*%
%TO.N,Net-(U101-Pad27)*%
X150008300Y-94840999D03*
%TO.P,U101,26*%
%TO.N,Net-(U101-Pad26)*%
X150008300Y-95341001D03*
%TO.P,U101,25*%
%TO.N,Net-(U101-Pad25)*%
X150008300Y-95841000D03*
D12*
%TO.P,U101,24*%
%TO.N,Net-(U101-Pad24)*%
X148580000Y-97269300D03*
%TO.P,U101,23*%
%TO.N,Net-(U101-Pad23)*%
X148080001Y-97269300D03*
%TO.P,U101,22*%
%TO.N,Net-(U101-Pad22)*%
X147579999Y-97269300D03*
%TO.P,U101,21*%
%TO.N,Net-(U101-Pad21)*%
X147080000Y-97269300D03*
%TO.P,U101,20*%
%TO.N,Net-(U101-Pad20)*%
X146580001Y-97269300D03*
%TO.P,U101,19*%
%TO.N,+3V3*%
X146080000Y-97269300D03*
%TO.P,U101,18*%
X145580000Y-97269300D03*
%TO.P,U101,17*%
%TO.N,GND*%
X145079999Y-97269300D03*
%TO.P,U101,16*%
%TO.N,Net-(U101-Pad16)*%
X144580000Y-97269300D03*
%TO.P,U101,15*%
%TO.N,Net-(U101-Pad15)*%
X144080001Y-97269300D03*
%TO.P,U101,14*%
%TO.N,Net-(U101-Pad14)*%
X143579999Y-97269300D03*
%TO.P,U101,13*%
%TO.N,Net-(U101-Pad13)*%
X143080000Y-97269300D03*
D13*
%TO.P,U101,12*%
%TO.N,/BattSns*%
X141651700Y-95841000D03*
%TO.P,U101,11*%
%TO.N,/vLUX*%
X141651700Y-95341001D03*
%TO.P,U101,10*%
%TO.N,/JTAG_TMS*%
X141651700Y-94840999D03*
%TO.P,U101,9*%
%TO.N,/JTAG_TCK*%
X141651700Y-94341000D03*
%TO.P,U101,8*%
%TO.N,+3V3*%
X141651700Y-93841001D03*
%TO.P,U101,7*%
%TO.N,+1V8*%
X141651700Y-93341000D03*
%TO.P,U101,6*%
%TO.N,GND*%
X141651700Y-92841000D03*
%TO.P,U101,5*%
%TO.N,Net-(U101-Pad5)*%
X141651700Y-92340999D03*
%TO.P,U101,4*%
%TO.N,/JTAG_RESET*%
X141651700Y-91841000D03*
%TO.P,U101,3*%
%TO.N,/LED_STAT*%
X141651700Y-91341001D03*
%TO.P,U101,2*%
%TO.N,Net-(U101-Pad2)*%
X141651700Y-90840999D03*
%TO.P,U101,1*%
%TO.N,Net-(U101-Pad1)*%
X141651700Y-90341000D03*
%TD*%
%TA.AperFunction,SMDPad,CuDef*%
D10*
%TO.P,LED223,2*%
%TO.N,+3V3*%
G36*
X141729215Y-74312957D02*
G01*
X141975093Y-75230586D01*
X141105759Y-75463523D01*
X140859881Y-74545894D01*
X141729215Y-74312957D01*
G37*
%TD.AperFunction*%
%TA.AperFunction,SMDPad,CuDef*%
%TO.P,LED223,1*%
%TO.N,/leds/OUT2*%
G36*
X143274697Y-73898847D02*
G01*
X143520575Y-74816476D01*
X142651241Y-75049413D01*
X142405363Y-74131784D01*
X143274697Y-73898847D01*
G37*
%TD.AperFunction*%
%TD*%
D14*
%TO.P,LED225,6*%
%TO.N,+3V3*%
X147225000Y-86829000D03*
%TO.P,LED225,5*%
%TO.N,/leds/OUT25*%
X144435000Y-86829000D03*
%TO.P,LED225,4*%
%TO.N,+3V3*%
X147225000Y-85979000D03*
%TO.P,LED225,3*%
%TO.N,/leds/OUT26*%
X144435000Y-85979000D03*
%TO.P,LED225,2*%
%TO.N,+3V3*%
X147225000Y-85129000D03*
%TO.P,LED225,1*%
%TO.N,/leds/OUT27*%
X144435000Y-85129000D03*
%TD*%
D15*
%TO.P,LED224,2*%
%TO.N,+3V3*%
X145030000Y-74202000D03*
%TO.P,LED224,1*%
%TO.N,/leds/OUT1*%
X146630000Y-74202000D03*
%TD*%
%TA.AperFunction,SMDPad,CuDef*%
D10*
%TO.P,LED222,2*%
%TO.N,+3V3*%
G36*
X138257891Y-75849723D02*
G01*
X138732891Y-76672447D01*
X137953469Y-77122447D01*
X137478469Y-76299723D01*
X138257891Y-75849723D01*
G37*
%TD.AperFunction*%
%TA.AperFunction,SMDPad,CuDef*%
%TO.P,LED222,1*%
%TO.N,/leds/OUT3*%
G36*
X139643531Y-75049723D02*
G01*
X140118531Y-75872447D01*
X139339109Y-76322447D01*
X138864109Y-75499723D01*
X139643531Y-75049723D01*
G37*
%TD.AperFunction*%
%TD*%
%TA.AperFunction,SMDPad,CuDef*%
%TO.P,LED221,2*%
%TO.N,+3V3*%
G36*
X135302594Y-78232568D02*
G01*
X135974346Y-78904320D01*
X135337950Y-79540716D01*
X134666198Y-78868964D01*
X135302594Y-78232568D01*
G37*
%TD.AperFunction*%
%TA.AperFunction,SMDPad,CuDef*%
%TO.P,LED221,1*%
%TO.N,/leds/OUT4*%
G36*
X136433964Y-77101198D02*
G01*
X137105716Y-77772950D01*
X136469320Y-78409346D01*
X135797568Y-77737594D01*
X136433964Y-77101198D01*
G37*
%TD.AperFunction*%
%TD*%
%TA.AperFunction,SMDPad,CuDef*%
%TO.P,LED220,2*%
%TO.N,+3V3*%
G36*
X133064723Y-81299109D02*
G01*
X133887447Y-81774109D01*
X133437447Y-82553531D01*
X132614723Y-82078531D01*
X133064723Y-81299109D01*
G37*
%TD.AperFunction*%
%TA.AperFunction,SMDPad,CuDef*%
%TO.P,LED220,1*%
%TO.N,/leds/OUT5*%
G36*
X133864723Y-79913469D02*
G01*
X134687447Y-80388469D01*
X134237447Y-81167891D01*
X133414723Y-80692891D01*
X133864723Y-79913469D01*
G37*
%TD.AperFunction*%
%TD*%
%TA.AperFunction,SMDPad,CuDef*%
%TO.P,LED219,2*%
%TO.N,+3V3*%
G36*
X131696784Y-84840363D02*
G01*
X132614413Y-85086241D01*
X132381476Y-85955575D01*
X131463847Y-85709697D01*
X131696784Y-84840363D01*
G37*
%TD.AperFunction*%
%TA.AperFunction,SMDPad,CuDef*%
%TO.P,LED219,1*%
%TO.N,/leds/OUT6*%
G36*
X132110894Y-83294881D02*
G01*
X133028523Y-83540759D01*
X132795586Y-84410093D01*
X131877957Y-84164215D01*
X132110894Y-83294881D01*
G37*
%TD.AperFunction*%
%TD*%
D16*
%TO.P,LED218,2*%
%TO.N,+3V3*%
X131767000Y-89065000D03*
%TO.P,LED218,1*%
%TO.N,/leds/OUT7*%
X131767000Y-87465000D03*
%TD*%
%TA.AperFunction,SMDPad,CuDef*%
D10*
%TO.P,LED217,2*%
%TO.N,+3V3*%
G36*
X131877957Y-92365785D02*
G01*
X132795586Y-92119907D01*
X133028523Y-92989241D01*
X132110894Y-93235119D01*
X131877957Y-92365785D01*
G37*
%TD.AperFunction*%
%TA.AperFunction,SMDPad,CuDef*%
%TO.P,LED217,1*%
%TO.N,/leds/OUT8*%
G36*
X131463847Y-90820303D02*
G01*
X132381476Y-90574425D01*
X132614413Y-91443759D01*
X131696784Y-91689637D01*
X131463847Y-90820303D01*
G37*
%TD.AperFunction*%
%TD*%
%TA.AperFunction,SMDPad,CuDef*%
%TO.P,LED216,2*%
%TO.N,+3V3*%
G36*
X133414723Y-95837109D02*
G01*
X134237447Y-95362109D01*
X134687447Y-96141531D01*
X133864723Y-96616531D01*
X133414723Y-95837109D01*
G37*
%TD.AperFunction*%
%TA.AperFunction,SMDPad,CuDef*%
%TO.P,LED216,1*%
%TO.N,/leds/OUT9*%
G36*
X132614723Y-94451469D02*
G01*
X133437447Y-93976469D01*
X133887447Y-94755891D01*
X133064723Y-95230891D01*
X132614723Y-94451469D01*
G37*
%TD.AperFunction*%
%TD*%
%TA.AperFunction,SMDPad,CuDef*%
%TO.P,LED215,2*%
%TO.N,+3V3*%
G36*
X135797568Y-98792406D02*
G01*
X136469320Y-98120654D01*
X137105716Y-98757050D01*
X136433964Y-99428802D01*
X135797568Y-98792406D01*
G37*
%TD.AperFunction*%
%TA.AperFunction,SMDPad,CuDef*%
%TO.P,LED215,1*%
%TO.N,/leds/OUT10*%
G36*
X134666198Y-97661036D02*
G01*
X135337950Y-96989284D01*
X135974346Y-97625680D01*
X135302594Y-98297432D01*
X134666198Y-97661036D01*
G37*
%TD.AperFunction*%
%TD*%
%TA.AperFunction,SMDPad,CuDef*%
%TO.P,LED214,2*%
%TO.N,+3V3*%
G36*
X138864109Y-101030277D02*
G01*
X139339109Y-100207553D01*
X140118531Y-100657553D01*
X139643531Y-101480277D01*
X138864109Y-101030277D01*
G37*
%TD.AperFunction*%
%TA.AperFunction,SMDPad,CuDef*%
%TO.P,LED214,1*%
%TO.N,/leds/OUT11*%
G36*
X137478469Y-100230277D02*
G01*
X137953469Y-99407553D01*
X138732891Y-99857553D01*
X138257891Y-100680277D01*
X137478469Y-100230277D01*
G37*
%TD.AperFunction*%
%TD*%
%TA.AperFunction,SMDPad,CuDef*%
%TO.P,LED213,2*%
%TO.N,+3V3*%
G36*
X142405363Y-102398216D02*
G01*
X142651241Y-101480587D01*
X143520575Y-101713524D01*
X143274697Y-102631153D01*
X142405363Y-102398216D01*
G37*
%TD.AperFunction*%
%TA.AperFunction,SMDPad,CuDef*%
%TO.P,LED213,1*%
%TO.N,/leds/OUT12*%
G36*
X140859881Y-101984106D02*
G01*
X141105759Y-101066477D01*
X141975093Y-101299414D01*
X141729215Y-102217043D01*
X140859881Y-101984106D01*
G37*
%TD.AperFunction*%
%TD*%
D15*
%TO.P,LED212,2*%
%TO.N,+3V3*%
X146630000Y-102328000D03*
%TO.P,LED212,1*%
%TO.N,/leds/OUT13*%
X145030000Y-102328000D03*
%TD*%
%TA.AperFunction,SMDPad,CuDef*%
D10*
%TO.P,LED210,2*%
%TO.N,+3V3*%
G36*
X153402109Y-100680277D02*
G01*
X152927109Y-99857553D01*
X153706531Y-99407553D01*
X154181531Y-100230277D01*
X153402109Y-100680277D01*
G37*
%TD.AperFunction*%
%TA.AperFunction,SMDPad,CuDef*%
%TO.P,LED210,1*%
%TO.N,/leds/OUT15*%
G36*
X152016469Y-101480277D02*
G01*
X151541469Y-100657553D01*
X152320891Y-100207553D01*
X152795891Y-101030277D01*
X152016469Y-101480277D01*
G37*
%TD.AperFunction*%
%TD*%
%TA.AperFunction,SMDPad,CuDef*%
%TO.P,LED209,2*%
%TO.N,+3V3*%
G36*
X156357406Y-98297432D02*
G01*
X155685654Y-97625680D01*
X156322050Y-96989284D01*
X156993802Y-97661036D01*
X156357406Y-98297432D01*
G37*
%TD.AperFunction*%
%TA.AperFunction,SMDPad,CuDef*%
%TO.P,LED209,1*%
%TO.N,/leds/OUT16*%
G36*
X155226036Y-99428802D02*
G01*
X154554284Y-98757050D01*
X155190680Y-98120654D01*
X155862432Y-98792406D01*
X155226036Y-99428802D01*
G37*
%TD.AperFunction*%
%TD*%
%TA.AperFunction,SMDPad,CuDef*%
%TO.P,LED208,2*%
%TO.N,+3V3*%
G36*
X158595277Y-95230891D02*
G01*
X157772553Y-94755891D01*
X158222553Y-93976469D01*
X159045277Y-94451469D01*
X158595277Y-95230891D01*
G37*
%TD.AperFunction*%
%TA.AperFunction,SMDPad,CuDef*%
%TO.P,LED208,1*%
%TO.N,/leds/OUT17*%
G36*
X157795277Y-96616531D02*
G01*
X156972553Y-96141531D01*
X157422553Y-95362109D01*
X158245277Y-95837109D01*
X157795277Y-96616531D01*
G37*
%TD.AperFunction*%
%TD*%
%TA.AperFunction,SMDPad,CuDef*%
%TO.P,LED207,2*%
%TO.N,+3V3*%
G36*
X159963216Y-91689637D02*
G01*
X159045587Y-91443759D01*
X159278524Y-90574425D01*
X160196153Y-90820303D01*
X159963216Y-91689637D01*
G37*
%TD.AperFunction*%
%TA.AperFunction,SMDPad,CuDef*%
%TO.P,LED207,1*%
%TO.N,/leds/OUT18*%
G36*
X159549106Y-93235119D02*
G01*
X158631477Y-92989241D01*
X158864414Y-92119907D01*
X159782043Y-92365785D01*
X159549106Y-93235119D01*
G37*
%TD.AperFunction*%
%TD*%
D16*
%TO.P,LED206,2*%
%TO.N,+3V3*%
X159893000Y-87465000D03*
%TO.P,LED206,1*%
%TO.N,/leds/OUT19*%
X159893000Y-89065000D03*
%TD*%
%TA.AperFunction,SMDPad,CuDef*%
D10*
%TO.P,LED205,2*%
%TO.N,+3V3*%
G36*
X159782043Y-84164215D02*
G01*
X158864414Y-84410093D01*
X158631477Y-83540759D01*
X159549106Y-83294881D01*
X159782043Y-84164215D01*
G37*
%TD.AperFunction*%
%TA.AperFunction,SMDPad,CuDef*%
%TO.P,LED205,1*%
%TO.N,/leds/OUT20*%
G36*
X160196153Y-85709697D02*
G01*
X159278524Y-85955575D01*
X159045587Y-85086241D01*
X159963216Y-84840363D01*
X160196153Y-85709697D01*
G37*
%TD.AperFunction*%
%TD*%
%TA.AperFunction,SMDPad,CuDef*%
%TO.P,LED204,2*%
%TO.N,+3V3*%
G36*
X158245277Y-80692891D02*
G01*
X157422553Y-81167891D01*
X156972553Y-80388469D01*
X157795277Y-79913469D01*
X158245277Y-80692891D01*
G37*
%TD.AperFunction*%
%TA.AperFunction,SMDPad,CuDef*%
%TO.P,LED204,1*%
%TO.N,/leds/OUT21*%
G36*
X159045277Y-82078531D02*
G01*
X158222553Y-82553531D01*
X157772553Y-81774109D01*
X158595277Y-81299109D01*
X159045277Y-82078531D01*
G37*
%TD.AperFunction*%
%TD*%
%TA.AperFunction,SMDPad,CuDef*%
%TO.P,LED203,2*%
%TO.N,+3V3*%
G36*
X155862432Y-77737594D02*
G01*
X155190680Y-78409346D01*
X154554284Y-77772950D01*
X155226036Y-77101198D01*
X155862432Y-77737594D01*
G37*
%TD.AperFunction*%
%TA.AperFunction,SMDPad,CuDef*%
%TO.P,LED203,1*%
%TO.N,/leds/OUT22*%
G36*
X156993802Y-78868964D02*
G01*
X156322050Y-79540716D01*
X155685654Y-78904320D01*
X156357406Y-78232568D01*
X156993802Y-78868964D01*
G37*
%TD.AperFunction*%
%TD*%
%TA.AperFunction,SMDPad,CuDef*%
%TO.P,LED202,2*%
%TO.N,+3V3*%
G36*
X152795891Y-75499723D02*
G01*
X152320891Y-76322447D01*
X151541469Y-75872447D01*
X152016469Y-75049723D01*
X152795891Y-75499723D01*
G37*
%TD.AperFunction*%
%TA.AperFunction,SMDPad,CuDef*%
%TO.P,LED202,1*%
%TO.N,/leds/OUT23*%
G36*
X154181531Y-76299723D02*
G01*
X153706531Y-77122447D01*
X152927109Y-76672447D01*
X153402109Y-75849723D01*
X154181531Y-76299723D01*
G37*
%TD.AperFunction*%
%TD*%
%TA.AperFunction,SMDPad,CuDef*%
%TO.P,LED201,2*%
%TO.N,+3V3*%
G36*
X149254637Y-74131784D02*
G01*
X149008759Y-75049413D01*
X148139425Y-74816476D01*
X148385303Y-73898847D01*
X149254637Y-74131784D01*
G37*
%TD.AperFunction*%
%TA.AperFunction,SMDPad,CuDef*%
%TO.P,LED201,1*%
%TO.N,/leds/OUT24*%
G36*
X150800119Y-74545894D02*
G01*
X150554241Y-75463523D01*
X149684907Y-75230586D01*
X149930785Y-74312957D01*
X150800119Y-74545894D01*
G37*
%TD.AperFunction*%
%TD*%
D16*
%TO.P,LED102,2*%
%TO.N,+3V3*%
X136271000Y-90513000D03*
%TO.P,LED102,1*%
%TO.N,/LED_STAT*%
X136271000Y-92113000D03*
%TD*%
D15*
%TO.P,LED101,2*%
%TO.N,+5V*%
X152908000Y-81026000D03*
%TO.P,LED101,1*%
%TO.N,Net-(LED101-Pad1)*%
X151308000Y-81026000D03*
%TD*%
D17*
%TO.P,IC201,37*%
%TO.N,GND*%
X139192000Y-85852000D03*
D18*
%TO.P,IC201,36*%
%TO.N,/leds/OUT1*%
X141292000Y-84252000D03*
%TO.P,IC201,35*%
%TO.N,/SCL*%
X141292000Y-84652000D03*
%TO.P,IC201,34*%
%TO.N,/SDA*%
X141292000Y-85052000D03*
%TO.P,IC201,33*%
%TO.N,Net-(IC201-Pad33)*%
X141292000Y-85452000D03*
%TO.P,IC201,32*%
%TO.N,GND*%
X141292000Y-85852000D03*
%TO.P,IC201,31*%
%TO.N,+3V3*%
X141292000Y-86252000D03*
%TO.P,IC201,30*%
%TO.N,GND*%
X141292000Y-86652000D03*
%TO.P,IC201,29*%
%TO.N,/SDB*%
X141292000Y-87052000D03*
%TO.P,IC201,28*%
%TO.N,/leds/OUT28*%
X141292000Y-87452000D03*
D19*
%TO.P,IC201,27*%
%TO.N,/leds/OUT27*%
X140792000Y-87952000D03*
%TO.P,IC201,26*%
%TO.N,/leds/OUT26*%
X140392000Y-87952000D03*
%TO.P,IC201,25*%
%TO.N,/leds/OUT25*%
X139992000Y-87952000D03*
%TO.P,IC201,24*%
%TO.N,/leds/OUT24*%
X139592000Y-87952000D03*
%TO.P,IC201,23*%
%TO.N,/leds/OUT23*%
X139192000Y-87952000D03*
%TO.P,IC201,22*%
%TO.N,/leds/OUT22*%
X138792000Y-87952000D03*
%TO.P,IC201,21*%
%TO.N,/leds/OUT21*%
X138392000Y-87952000D03*
%TO.P,IC201,20*%
%TO.N,/leds/OUT20*%
X137992000Y-87952000D03*
%TO.P,IC201,19*%
%TO.N,/leds/OUT19*%
X137592000Y-87952000D03*
D18*
%TO.P,IC201,18*%
%TO.N,/leds/OUT18*%
X137092000Y-87452000D03*
%TO.P,IC201,17*%
%TO.N,/leds/OUT17*%
X137092000Y-87052000D03*
%TO.P,IC201,16*%
%TO.N,/leds/OUT16*%
X137092000Y-86652000D03*
%TO.P,IC201,15*%
%TO.N,/leds/OUT15*%
X137092000Y-86252000D03*
%TO.P,IC201,14*%
%TO.N,GND*%
X137092000Y-85852000D03*
%TO.P,IC201,13*%
%TO.N,/leds/OUT14*%
X137092000Y-85452000D03*
%TO.P,IC201,12*%
%TO.N,/leds/OUT13*%
X137092000Y-85052000D03*
%TO.P,IC201,11*%
%TO.N,/leds/OUT12*%
X137092000Y-84652000D03*
%TO.P,IC201,10*%
%TO.N,/leds/OUT11*%
X137092000Y-84252000D03*
D19*
%TO.P,IC201,9*%
%TO.N,/leds/OUT10*%
X137592000Y-83752000D03*
%TO.P,IC201,8*%
%TO.N,/leds/OUT9*%
X137992000Y-83752000D03*
%TO.P,IC201,7*%
%TO.N,/leds/OUT8*%
X138392000Y-83752000D03*
%TO.P,IC201,6*%
%TO.N,/leds/OUT7*%
X138792000Y-83752000D03*
%TO.P,IC201,5*%
%TO.N,/leds/OUT6*%
X139192000Y-83752000D03*
%TO.P,IC201,4*%
%TO.N,/leds/OUT5*%
X139592000Y-83752000D03*
%TO.P,IC201,3*%
%TO.N,/leds/OUT4*%
X139992000Y-83752000D03*
%TO.P,IC201,2*%
%TO.N,/leds/OUT3*%
X140392000Y-83752000D03*
%TO.P,IC201,1*%
%TO.N,/leds/OUT2*%
X140792000Y-83752000D03*
%TD*%
D20*
%TO.P,IC103,4*%
%TO.N,/vLUX*%
X139207000Y-93625000D03*
%TO.P,IC103,3*%
%TO.N,+3V3*%
X137907000Y-93625000D03*
%TO.P,IC103,2*%
%TO.N,GND*%
X137907000Y-90525000D03*
%TO.P,IC103,1*%
X139207000Y-90525000D03*
%TD*%
D21*
%TO.P,IC101,5*%
%TO.N,+3V3*%
X151073000Y-86929000D03*
%TO.P,IC101,4*%
%TO.N,Net-(IC101-Pad4)*%
X151073000Y-85029000D03*
%TO.P,IC101,3*%
%TO.N,+BATT*%
X153473000Y-85029000D03*
D22*
%TO.P,IC101,2*%
%TO.N,GND*%
X153473000Y-85979000D03*
D21*
%TO.P,IC101,1*%
%TO.N,+BATT*%
X153473000Y-86929000D03*
%TD*%
D23*
%TO.P,C107,2*%
%TO.N,+3V3*%
X152552000Y-97282000D03*
%TO.P,C107,1*%
%TO.N,GND*%
X153472000Y-97282000D03*
%TD*%
D24*
%TO.P,C104,2*%
%TO.N,+3V3*%
X148844000Y-86820000D03*
%TO.P,C104,1*%
%TO.N,GND*%
X148844000Y-85900000D03*
%TD*%
%TO.P,C103,2*%
%TO.N,+BATT*%
X154940000Y-88471000D03*
%TO.P,C103,1*%
%TO.N,GND*%
X154940000Y-87551000D03*
%TD*%
%TO.P,C102,2*%
%TO.N,+BATT*%
X157353000Y-91155000D03*
%TO.P,C102,1*%
%TO.N,GND*%
X157353000Y-92075000D03*
%TD*%
D23*
%TO.P,C101,2*%
%TO.N,+5V*%
X152860000Y-89154000D03*
%TO.P,C101,1*%
%TO.N,GND*%
X151940000Y-89154000D03*
%TD*%
%TO.P,R204,2*%
%TO.N,GND*%
%TA.AperFunction,SMDPad,CuDef*%
G36*
G01*
X141904500Y-81852000D02*
X141559500Y-81852000D01*
G75*
G02*
X141412000Y-81704500I0J147500D01*
G01*
X141412000Y-81409500D01*
G75*
G02*
X141559500Y-81262000I147500J0D01*
G01*
X141904500Y-81262000D01*
G75*
G02*
X142052000Y-81409500I0J-147500D01*
G01*
X142052000Y-81704500D01*
G75*
G02*
X141904500Y-81852000I-147500J0D01*
G01*
G37*
%TD.AperFunction*%
%TO.P,R204,1*%
%TO.N,/SDB*%
%TA.AperFunction,SMDPad,CuDef*%
G36*
G01*
X141904500Y-82822000D02*
X141559500Y-82822000D01*
G75*
G02*
X141412000Y-82674500I0J147500D01*
G01*
X141412000Y-82379500D01*
G75*
G02*
X141559500Y-82232000I147500J0D01*
G01*
X141904500Y-82232000D01*
G75*
G02*
X142052000Y-82379500I0J-147500D01*
G01*
X142052000Y-82674500D01*
G75*
G02*
X141904500Y-82822000I-147500J0D01*
G01*
G37*
%TD.AperFunction*%
%TD*%
%TO.P,R114,2*%
%TO.N,/BattSns*%
%TA.AperFunction,SMDPad,CuDef*%
G36*
G01*
X139024000Y-97454500D02*
X139024000Y-97109500D01*
G75*
G02*
X139171500Y-96962000I147500J0D01*
G01*
X139466500Y-96962000D01*
G75*
G02*
X139614000Y-97109500I0J-147500D01*
G01*
X139614000Y-97454500D01*
G75*
G02*
X139466500Y-97602000I-147500J0D01*
G01*
X139171500Y-97602000D01*
G75*
G02*
X139024000Y-97454500I0J147500D01*
G01*
G37*
%TD.AperFunction*%
%TO.P,R114,1*%
%TO.N,GND*%
%TA.AperFunction,SMDPad,CuDef*%
G36*
G01*
X138054000Y-97454500D02*
X138054000Y-97109500D01*
G75*
G02*
X138201500Y-96962000I147500J0D01*
G01*
X138496500Y-96962000D01*
G75*
G02*
X138644000Y-97109500I0J-147500D01*
G01*
X138644000Y-97454500D01*
G75*
G02*
X138496500Y-97602000I-147500J0D01*
G01*
X138201500Y-97602000D01*
G75*
G02*
X138054000Y-97454500I0J147500D01*
G01*
G37*
%TD.AperFunction*%
%TD*%
%TO.P,R113,2*%
%TO.N,+BATT*%
%TA.AperFunction,SMDPad,CuDef*%
G36*
G01*
X138621000Y-95966500D02*
X138621000Y-96311500D01*
G75*
G02*
X138473500Y-96459000I-147500J0D01*
G01*
X138178500Y-96459000D01*
G75*
G02*
X138031000Y-96311500I0J147500D01*
G01*
X138031000Y-95966500D01*
G75*
G02*
X138178500Y-95819000I147500J0D01*
G01*
X138473500Y-95819000D01*
G75*
G02*
X138621000Y-95966500I0J-147500D01*
G01*
G37*
%TD.AperFunction*%
%TO.P,R113,1*%
%TO.N,/BattSns*%
%TA.AperFunction,SMDPad,CuDef*%
G36*
G01*
X139591000Y-95966500D02*
X139591000Y-96311500D01*
G75*
G02*
X139443500Y-96459000I-147500J0D01*
G01*
X139148500Y-96459000D01*
G75*
G02*
X139001000Y-96311500I0J147500D01*
G01*
X139001000Y-95966500D01*
G75*
G02*
X139148500Y-95819000I147500J0D01*
G01*
X139443500Y-95819000D01*
G75*
G02*
X139591000Y-95966500I0J-147500D01*
G01*
G37*
%TD.AperFunction*%
%TD*%
%TO.P,R106,2*%
%TO.N,/vLUX*%
%TA.AperFunction,SMDPad,CuDef*%
G36*
G01*
X139001000Y-95168500D02*
X139001000Y-94823500D01*
G75*
G02*
X139148500Y-94676000I147500J0D01*
G01*
X139443500Y-94676000D01*
G75*
G02*
X139591000Y-94823500I0J-147500D01*
G01*
X139591000Y-95168500D01*
G75*
G02*
X139443500Y-95316000I-147500J0D01*
G01*
X139148500Y-95316000D01*
G75*
G02*
X139001000Y-95168500I0J147500D01*
G01*
G37*
%TD.AperFunction*%
%TO.P,R106,1*%
%TO.N,GND*%
%TA.AperFunction,SMDPad,CuDef*%
G36*
G01*
X138031000Y-95168500D02*
X138031000Y-94823500D01*
G75*
G02*
X138178500Y-94676000I147500J0D01*
G01*
X138473500Y-94676000D01*
G75*
G02*
X138621000Y-94823500I0J-147500D01*
G01*
X138621000Y-95168500D01*
G75*
G02*
X138473500Y-95316000I-147500J0D01*
G01*
X138178500Y-95316000D01*
G75*
G02*
X138031000Y-95168500I0J147500D01*
G01*
G37*
%TD.AperFunction*%
%TD*%
%TO.P,R102,2*%
%TO.N,Net-(R102-Pad2)*%
%TA.AperFunction,SMDPad,CuDef*%
G36*
G01*
X153202000Y-95168500D02*
X153202000Y-94823500D01*
G75*
G02*
X153349500Y-94676000I147500J0D01*
G01*
X153644500Y-94676000D01*
G75*
G02*
X153792000Y-94823500I0J-147500D01*
G01*
X153792000Y-95168500D01*
G75*
G02*
X153644500Y-95316000I-147500J0D01*
G01*
X153349500Y-95316000D01*
G75*
G02*
X153202000Y-95168500I0J147500D01*
G01*
G37*
%TD.AperFunction*%
%TO.P,R102,1*%
%TO.N,Net-(LED101-Pad1)*%
%TA.AperFunction,SMDPad,CuDef*%
G36*
G01*
X152232000Y-95168500D02*
X152232000Y-94823500D01*
G75*
G02*
X152379500Y-94676000I147500J0D01*
G01*
X152674500Y-94676000D01*
G75*
G02*
X152822000Y-94823500I0J-147500D01*
G01*
X152822000Y-95168500D01*
G75*
G02*
X152674500Y-95316000I-147500J0D01*
G01*
X152379500Y-95316000D01*
G75*
G02*
X152232000Y-95168500I0J147500D01*
G01*
G37*
%TD.AperFunction*%
%TD*%
%TO.P,R101,2*%
%TO.N,GND*%
%TA.AperFunction,SMDPad,CuDef*%
G36*
G01*
X153202000Y-96311500D02*
X153202000Y-95966500D01*
G75*
G02*
X153349500Y-95819000I147500J0D01*
G01*
X153644500Y-95819000D01*
G75*
G02*
X153792000Y-95966500I0J-147500D01*
G01*
X153792000Y-96311500D01*
G75*
G02*
X153644500Y-96459000I-147500J0D01*
G01*
X153349500Y-96459000D01*
G75*
G02*
X153202000Y-96311500I0J147500D01*
G01*
G37*
%TD.AperFunction*%
%TO.P,R101,1*%
%TO.N,Net-(R101-Pad1)*%
%TA.AperFunction,SMDPad,CuDef*%
G36*
G01*
X152232000Y-96311500D02*
X152232000Y-95966500D01*
G75*
G02*
X152379500Y-95819000I147500J0D01*
G01*
X152674500Y-95819000D01*
G75*
G02*
X152822000Y-95966500I0J-147500D01*
G01*
X152822000Y-96311500D01*
G75*
G02*
X152674500Y-96459000I-147500J0D01*
G01*
X152379500Y-96459000D01*
G75*
G02*
X152232000Y-96311500I0J147500D01*
G01*
G37*
%TD.AperFunction*%
%TD*%
D25*
%TO.P,J103,1*%
%TO.N,/SW1*%
X157734000Y-86614000D03*
%TD*%
%TO.P,J102,1*%
%TO.N,/SW2*%
X157734000Y-89789000D03*
%TD*%
D26*
%TO.P,J105,2*%
%TO.N,+5V*%
X155702000Y-84709000D03*
D25*
%TO.P,J105,1*%
%TO.N,GND*%
X155702000Y-85979000D03*
%TD*%
D26*
%TO.P,J101,2*%
%TO.N,+BATT*%
X155702000Y-91694000D03*
D25*
%TO.P,J101,1*%
%TO.N,GND*%
X155702000Y-90424000D03*
%TD*%
D27*
%TO.P,U102,5*%
%TO.N,Net-(R101-Pad1)*%
X151978000Y-93279000D03*
%TO.P,U102,4*%
%TO.N,+5V*%
X151978000Y-91379000D03*
%TO.P,U102,3*%
%TO.N,+BATT*%
X154178000Y-91379000D03*
%TO.P,U102,2*%
%TO.N,GND*%
X154178000Y-92329000D03*
%TO.P,U102,1*%
%TO.N,Net-(R102-Pad2)*%
X154178000Y-93279000D03*
%TD*%
D28*
%TO.N,Net-(IC201-Pad33)*%
X142748000Y-85344000D03*
%TO.N,GND*%
X149733000Y-76581000D03*
X149860000Y-96901000D03*
D29*
%TO.N,+3V3*%
X135509000Y-81026000D03*
D28*
X149860000Y-85852000D03*
X155575000Y-80264000D03*
X142240000Y-86106000D03*
X144145000Y-90551000D03*
X141097000Y-97282000D03*
X137287000Y-81661000D03*
%TO.N,/leds/OUT24*%
X140449000Y-90170000D03*
X151257000Y-75057000D03*
%TO.N,/leds/OUT23*%
X154432000Y-76962000D03*
X140335000Y-91059000D03*
%TO.N,/leds/OUT22*%
X139192000Y-89535000D03*
X157063915Y-79629000D03*
%TO.N,/leds/OUT21*%
X139065000Y-92075000D03*
X159004000Y-82804000D03*
%TO.N,/leds/OUT20*%
X138049000Y-89535000D03*
X159893000Y-86360000D03*
%TO.N,/leds/OUT19*%
X137541000Y-88773000D03*
X159893000Y-90043000D03*
%TO.N,/leds/OUT18*%
X134874000Y-90170000D03*
X158877000Y-93599000D03*
%TO.N,/leds/OUT17*%
X156972000Y-96774000D03*
X134874000Y-89027000D03*
%TO.N,/leds/OUT16*%
X154432000Y-99441000D03*
X134874000Y-87503000D03*
%TO.N,/leds/OUT15*%
X135636000Y-86487000D03*
X151257000Y-101346000D03*
%TO.N,/leds/OUT14*%
X135636000Y-85598000D03*
X147701000Y-102235000D03*
%TO.N,/SCL*%
X141732000Y-89662000D03*
X142113000Y-83820000D03*
%TO.N,/SDA*%
X142875000Y-84328000D03*
X145542000Y-85852000D03*
%TO.N,+BATT*%
X151257000Y-97155000D03*
%TO.N,/SW2*%
X152908000Y-92329000D03*
%TO.N,/SW1*%
X151511000Y-83947000D03*
%TO.N,/JTAG_RESET*%
X143256000Y-93599000D03*
%TO.N,/JTAG_TDI*%
X146812000Y-90918398D03*
%TO.N,/JTAG_TDO*%
X148463001Y-90932000D03*
%TO.N,/JTAG_TCK*%
X143383000Y-95758000D03*
%TO.N,/JTAG_TMS*%
X141859000Y-96901000D03*
%TD*%
D30*
%TO.N,Net-(IC201-Pad33)*%
X141292000Y-85452000D02*
X142640000Y-85452000D01*
X142640000Y-85452000D02*
X142748000Y-85344000D01*
D31*
%TO.N,+3V3*%
X152516404Y-75338361D02*
X152168680Y-75686085D01*
X153679805Y-75338361D02*
X152516404Y-75338361D01*
X155208358Y-76866914D02*
X153679805Y-75338361D01*
X155208358Y-77755272D02*
X155208358Y-76866914D01*
X149183214Y-73987947D02*
X148697031Y-74474130D01*
X151019024Y-73987947D02*
X149183214Y-73987947D01*
X152168680Y-75137603D02*
X151019024Y-73987947D01*
X152168680Y-75686085D02*
X152168680Y-75137603D01*
X145830001Y-73401999D02*
X145030000Y-74202000D01*
X147624900Y-73401999D02*
X145830001Y-73401999D01*
X148697031Y-74474130D02*
X147624900Y-73401999D01*
X142503675Y-73573837D02*
X141417487Y-74660025D01*
X141417487Y-74660025D02*
X141417487Y-74888240D01*
X144401837Y-73573837D02*
X142503675Y-73573837D01*
X145030000Y-74202000D02*
X144401837Y-73573837D01*
X138105680Y-75798516D02*
X138105680Y-76486085D01*
X139403791Y-74500405D02*
X138105680Y-75798516D01*
X141029652Y-74500405D02*
X139403791Y-74500405D01*
X141417487Y-74888240D02*
X141029652Y-74500405D01*
X135320272Y-77755254D02*
X135320272Y-78886642D01*
X136589441Y-76486085D02*
X135320272Y-77755254D01*
X138105680Y-76486085D02*
X136589441Y-76486085D01*
X132903361Y-81578596D02*
X133251085Y-81926320D01*
X132903361Y-80415195D02*
X132903361Y-81578596D01*
X134431914Y-78886642D02*
X132903361Y-80415195D01*
X135320272Y-78886642D02*
X134431914Y-78886642D01*
X131552947Y-84911786D02*
X132039130Y-85397969D01*
X131552947Y-83075976D02*
X131552947Y-84911786D01*
X132702603Y-81926320D02*
X131552947Y-83075976D01*
X133251085Y-81926320D02*
X132702603Y-81926320D01*
X130966999Y-86470100D02*
X130966999Y-88264999D01*
X130966999Y-88264999D02*
X131767000Y-89065000D01*
X132039130Y-85397969D02*
X130966999Y-86470100D01*
X131961485Y-92677513D02*
X132453240Y-92677513D01*
X131138837Y-91854865D02*
X131961485Y-92677513D01*
X131138837Y-89693163D02*
X131138837Y-91854865D01*
X131767000Y-89065000D02*
X131138837Y-89693163D01*
X133363516Y-95989320D02*
X134051085Y-95989320D01*
X132065405Y-94691209D02*
X133363516Y-95989320D01*
X132065405Y-93065348D02*
X132065405Y-94691209D01*
X132453240Y-92677513D02*
X132065405Y-93065348D01*
X134051085Y-97505559D02*
X134051085Y-95989320D01*
X135320254Y-98774728D02*
X134051085Y-97505559D01*
X136451642Y-98774728D02*
X135320254Y-98774728D01*
X139329948Y-101005287D02*
X139491320Y-100843915D01*
X137793843Y-101005287D02*
X139329948Y-101005287D01*
X136451642Y-99663086D02*
X137793843Y-101005287D01*
X136451642Y-98774728D02*
X136451642Y-99663086D01*
X140640976Y-102542053D02*
X142476786Y-102542053D01*
X139491320Y-101392397D02*
X140640976Y-102542053D01*
X142476786Y-102542053D02*
X142962969Y-102055870D01*
X139491320Y-100843915D02*
X139491320Y-101392397D01*
X145829999Y-103128001D02*
X146630000Y-102328000D01*
X144035100Y-103128001D02*
X145829999Y-103128001D01*
X142962969Y-102055870D02*
X144035100Y-103128001D01*
X149419865Y-102956163D02*
X147258163Y-102956163D01*
X150242513Y-102133515D02*
X149419865Y-102956163D01*
X147258163Y-102956163D02*
X146630000Y-102328000D01*
X150242513Y-101641760D02*
X150242513Y-102133515D01*
X153554320Y-100731484D02*
X153554320Y-100043915D01*
X152256209Y-102029595D02*
X153554320Y-100731484D01*
X150630348Y-102029595D02*
X152256209Y-102029595D01*
X150242513Y-101641760D02*
X150630348Y-102029595D01*
X156339728Y-98774746D02*
X156339728Y-97643358D01*
X155070559Y-100043915D02*
X156339728Y-98774746D01*
X153554320Y-100043915D02*
X155070559Y-100043915D01*
X158756639Y-94951404D02*
X158408915Y-94603680D01*
X158756639Y-96114805D02*
X158756639Y-94951404D01*
X157228086Y-97643358D02*
X158756639Y-96114805D01*
X156339728Y-97643358D02*
X157228086Y-97643358D01*
X160107053Y-91618214D02*
X159620870Y-91132031D01*
X160107053Y-93454024D02*
X160107053Y-91618214D01*
X158957397Y-94603680D02*
X160107053Y-93454024D01*
X158408915Y-94603680D02*
X158957397Y-94603680D01*
X160693001Y-88265001D02*
X159893000Y-87465000D01*
X160693001Y-90059900D02*
X160693001Y-88265001D01*
X159620870Y-91132031D02*
X160693001Y-90059900D01*
X159698515Y-83852487D02*
X159206760Y-83852487D01*
X160521163Y-84675135D02*
X159698515Y-83852487D01*
X160521163Y-86836837D02*
X160521163Y-84675135D01*
X159893000Y-87465000D02*
X160521163Y-86836837D01*
X158296484Y-80540680D02*
X157608915Y-80540680D01*
X159594595Y-83464652D02*
X159594595Y-81838791D01*
X159594595Y-81838791D02*
X158296484Y-80540680D01*
X159206760Y-83852487D02*
X159594595Y-83464652D01*
X156339746Y-77755272D02*
X155208358Y-77755272D01*
X157608915Y-79024441D02*
X156339746Y-77755272D01*
X157608915Y-80540680D02*
X157608915Y-79024441D01*
X133251085Y-81926320D02*
X134608680Y-81926320D01*
X134608680Y-81926320D02*
X135509000Y-81026000D01*
D30*
X152552000Y-99041595D02*
X153554320Y-100043915D01*
X152552000Y-97282000D02*
X152552000Y-99041595D01*
D31*
X147225000Y-85129000D02*
X147225000Y-86829000D01*
X147234000Y-86820000D02*
X147225000Y-86829000D01*
X148844000Y-86820000D02*
X147234000Y-86820000D01*
X150964000Y-86820000D02*
X151073000Y-86929000D01*
X148844000Y-86820000D02*
X150964000Y-86820000D01*
X136271000Y-90513000D02*
X135128000Y-91656000D01*
X136362998Y-93625000D02*
X137907000Y-93625000D01*
X135128000Y-92390002D02*
X136362998Y-93625000D01*
X135128000Y-91656000D02*
X135128000Y-92390002D01*
X146080000Y-97269300D02*
X145580000Y-97269300D01*
X147225000Y-75946161D02*
X148697031Y-74474130D01*
X147225000Y-85129000D02*
X147225000Y-75946161D01*
X147029498Y-96012000D02*
X149200497Y-93841001D01*
X149200497Y-93841001D02*
X150008300Y-93841001D01*
X146080000Y-96042000D02*
X146050000Y-96012000D01*
X146080000Y-97269300D02*
X146080000Y-96042000D01*
X146050000Y-96012000D02*
X147029498Y-96012000D01*
X137907000Y-93625000D02*
X137907000Y-92975000D01*
X140843899Y-93841001D02*
X141651700Y-93841001D01*
X137907000Y-92975000D02*
X137961989Y-92920011D01*
X139922909Y-92920011D02*
X140843899Y-93841001D01*
X137961989Y-92920011D02*
X139922909Y-92920011D01*
X145914200Y-96012000D02*
X146050000Y-96012000D01*
X145245800Y-96012000D02*
X145914200Y-96012000D01*
X144653000Y-96012000D02*
X142482001Y-93841001D01*
X145245800Y-96012000D02*
X144653000Y-96012000D01*
X142482001Y-93841001D02*
X141651700Y-93841001D01*
X150816103Y-93841001D02*
X151384000Y-94408898D01*
X150008300Y-93841001D02*
X150816103Y-93841001D01*
X152190602Y-97282000D02*
X152552000Y-97282000D01*
X151384000Y-96475398D02*
X152190602Y-97282000D01*
X151384000Y-94408898D02*
X151384000Y-96475398D01*
X151073000Y-86929000D02*
X150937000Y-86929000D01*
X150937000Y-86929000D02*
X149860000Y-85852000D01*
X157332235Y-80264000D02*
X157608915Y-80540680D01*
X155575000Y-80264000D02*
X157332235Y-80264000D01*
X148939701Y-89860801D02*
X151073000Y-87727502D01*
X147220298Y-89860801D02*
X148939701Y-89860801D01*
X147080000Y-89720503D02*
X147220298Y-89860801D01*
X151073000Y-87727502D02*
X151073000Y-86929000D01*
X147080000Y-88912700D02*
X147080000Y-89720503D01*
D30*
X141311000Y-86233000D02*
X141292000Y-86252000D01*
X142094000Y-86252000D02*
X141292000Y-86252000D01*
X142240000Y-86106000D02*
X142094000Y-86252000D01*
X144145000Y-90551000D02*
X144580000Y-90116000D01*
X144580000Y-90116000D02*
X144580000Y-88912700D01*
D31*
X145439700Y-98217401D02*
X145580000Y-98077101D01*
X145580000Y-98077101D02*
X145580000Y-97269300D01*
X142032401Y-98217401D02*
X145439700Y-98217401D01*
X141097000Y-97282000D02*
X142032401Y-98217401D01*
X136144000Y-81661000D02*
X135509000Y-81026000D01*
X137287000Y-81661000D02*
X136144000Y-81661000D01*
D30*
%TO.N,/leds/OUT1*%
X141177991Y-79654009D02*
X146630000Y-74202000D01*
X141292000Y-84252000D02*
X141292000Y-83384990D01*
X141186990Y-79663008D02*
X141177991Y-79654009D01*
X141186990Y-83279980D02*
X141186990Y-79663008D01*
X141292000Y-83384990D02*
X141186990Y-83279980D01*
%TO.N,/leds/OUT27*%
X140792000Y-87952000D02*
X141572002Y-87952000D01*
X141572002Y-87952000D02*
X142257501Y-87266501D01*
X142257501Y-87266501D02*
X142321011Y-87202991D01*
X144159998Y-85129000D02*
X144435000Y-85129000D01*
X142448012Y-87075990D02*
X143302010Y-87075990D01*
X143302010Y-87075990D02*
X143464990Y-86913010D01*
X142257501Y-87266501D02*
X142448012Y-87075990D01*
X143464990Y-86913010D02*
X143464990Y-85824008D01*
X143464990Y-85824008D02*
X144159998Y-85129000D01*
%TO.N,/leds/OUT26*%
X141496279Y-88452001D02*
X140467001Y-88452001D01*
X142572280Y-87376000D02*
X141496279Y-88452001D01*
X140467001Y-88452001D02*
X140392000Y-88377000D01*
X144435000Y-85979000D02*
X143840000Y-85979000D01*
X140392000Y-88377000D02*
X140392000Y-87952000D01*
X143764999Y-86054001D02*
X143764999Y-87121001D01*
X143840000Y-85979000D02*
X143764999Y-86054001D01*
X143764999Y-87121001D02*
X143510000Y-87376000D01*
X143510000Y-87376000D02*
X142572280Y-87376000D01*
%TO.N,/leds/OUT25*%
X139992000Y-88401278D02*
X139992000Y-87952000D01*
X140342733Y-88752011D02*
X139992000Y-88401278D01*
X141620548Y-88752010D02*
X140342733Y-88752011D01*
X142696548Y-87676010D02*
X141620548Y-88752010D01*
X144311000Y-86829000D02*
X144065009Y-87074991D01*
X144435000Y-86829000D02*
X144311000Y-86829000D01*
X143634268Y-87676010D02*
X142696548Y-87676010D01*
X144065009Y-87074991D02*
X144065008Y-87245270D01*
X144065008Y-87245270D02*
X143634268Y-87676010D01*
%TO.N,/leds/OUT24*%
X139592000Y-87952000D02*
X139592000Y-88778120D01*
X140449000Y-89635120D02*
X140449000Y-90170000D01*
X139592000Y-88778120D02*
X140449000Y-89635120D01*
X150411273Y-75057000D02*
X150242513Y-74888240D01*
X151257000Y-75057000D02*
X150411273Y-75057000D01*
D32*
%TO.N,/leds/OUT23*%
X139192000Y-87952000D02*
X139192000Y-88011000D01*
D30*
X154030235Y-76962000D02*
X153554320Y-76486085D01*
X154432000Y-76962000D02*
X154030235Y-76962000D01*
X139192000Y-87952000D02*
X139192000Y-88802398D01*
X139192000Y-88802398D02*
X139954000Y-89564398D01*
X139954000Y-90678000D02*
X139954000Y-89564398D01*
X140335000Y-91059000D02*
X139954000Y-90678000D01*
%TO.N,/leds/OUT22*%
X138792000Y-87952000D02*
X138792000Y-89008000D01*
X138792000Y-89008000D02*
X139192000Y-89408000D01*
X139192000Y-89408000D02*
X139192000Y-89535000D01*
X157063915Y-79610829D02*
X156339728Y-78886642D01*
X157063915Y-79629000D02*
X157063915Y-79610829D01*
%TO.N,/leds/OUT21*%
X138557000Y-89310398D02*
X138557000Y-91567000D01*
X138392000Y-87952000D02*
X138392000Y-89145398D01*
X138392000Y-89145398D02*
X138557000Y-89310398D01*
X138557000Y-91567000D02*
X139065000Y-92075000D01*
X159004000Y-82521405D02*
X158408915Y-81926320D01*
X159004000Y-82804000D02*
X159004000Y-82521405D01*
%TO.N,/leds/OUT20*%
X137992000Y-87952000D02*
X138049000Y-88009000D01*
X138049000Y-88009000D02*
X138049000Y-89535000D01*
X159893000Y-85670099D02*
X159620870Y-85397969D01*
X159893000Y-86360000D02*
X159893000Y-85670099D01*
%TO.N,/leds/OUT19*%
X137592000Y-87952000D02*
X137592000Y-88722000D01*
X137592000Y-88722000D02*
X137541000Y-88773000D01*
X159893000Y-90043000D02*
X159893000Y-89065000D01*
%TO.N,/leds/OUT18*%
X137092000Y-87952000D02*
X134874000Y-90170000D01*
X137092000Y-87452000D02*
X137092000Y-87952000D01*
X158877000Y-93007273D02*
X159206760Y-92677513D01*
X158877000Y-93599000D02*
X158877000Y-93007273D01*
%TO.N,/leds/OUT17*%
X156972000Y-96626235D02*
X157608915Y-95989320D01*
X156972000Y-96774000D02*
X156972000Y-96626235D01*
X134874000Y-89027000D02*
X134874000Y-88532880D01*
X134874000Y-88532880D02*
X136354880Y-87052000D01*
X137092000Y-87052000D02*
X136354880Y-87052000D01*
%TO.N,/leds/OUT16*%
X155177086Y-98806000D02*
X155208358Y-98774728D01*
X154542086Y-99441000D02*
X155208358Y-98774728D01*
X154432000Y-99441000D02*
X154542086Y-99441000D01*
X137092000Y-86652000D02*
X136330602Y-86652000D01*
X136330602Y-86652000D02*
X135479602Y-87503000D01*
X135479602Y-87503000D02*
X134874000Y-87503000D01*
%TO.N,/leds/OUT15*%
X137092000Y-86252000D02*
X135871000Y-86252000D01*
X135871000Y-86252000D02*
X135636000Y-86487000D01*
X151666595Y-101346000D02*
X152168680Y-100843915D01*
X151257000Y-101346000D02*
X151666595Y-101346000D01*
%TO.N,/leds/OUT14*%
X137092000Y-85452000D02*
X135782000Y-85452000D01*
X135782000Y-85452000D02*
X135636000Y-85598000D01*
X148517901Y-102235000D02*
X148697031Y-102055870D01*
X147701000Y-102235000D02*
X148517901Y-102235000D01*
%TO.N,/leds/OUT13*%
X143543467Y-100841467D02*
X145030000Y-102328000D01*
X141044937Y-100841467D02*
X143543467Y-100841467D01*
X139725460Y-99521990D02*
X141044937Y-100841467D01*
X135023054Y-86470614D02*
X134077020Y-87416648D01*
X134077020Y-91061732D02*
X134505501Y-91490213D01*
X134077020Y-87416648D02*
X134077020Y-91061732D01*
X139139820Y-99521990D02*
X139725460Y-99521990D01*
X135212112Y-85052000D02*
X135023055Y-85241057D01*
X134505501Y-91490213D02*
X134505501Y-93453475D01*
X135023055Y-85241057D02*
X135023054Y-86470614D01*
X135901030Y-94849004D02*
X135901030Y-96283200D01*
X137092000Y-85052000D02*
X135212112Y-85052000D01*
X134505501Y-93453475D02*
X135901030Y-94849004D01*
X135901030Y-96283200D02*
X139139820Y-99521990D01*
%TO.N,/leds/OUT12*%
X137092000Y-84652000D02*
X135187834Y-84652000D01*
X134723046Y-85116788D02*
X134723045Y-86346345D01*
X135187834Y-84652000D02*
X134723046Y-85116788D01*
X134723045Y-86346345D02*
X133777010Y-87292380D01*
X133777010Y-87292380D02*
X133777010Y-91186000D01*
X134205491Y-93577743D02*
X135601020Y-94973272D01*
X133777010Y-91186000D02*
X134205491Y-91614481D01*
X134205491Y-91614481D02*
X134205491Y-93577743D01*
X135601020Y-96407468D02*
X139015552Y-99822000D01*
X135601020Y-94973272D02*
X135601020Y-96407468D01*
X141417487Y-101638295D02*
X141417487Y-101641760D01*
X139601192Y-99822000D02*
X141417487Y-101638295D01*
X139015552Y-99822000D02*
X139601192Y-99822000D01*
%TO.N,/leds/OUT11*%
X135301010Y-96634130D02*
X138105680Y-99438800D01*
X135301010Y-95097540D02*
X135301010Y-96634130D01*
X133853553Y-93650083D02*
X135301010Y-95097540D01*
X133853553Y-91856997D02*
X133853553Y-93650083D01*
X133477000Y-91480444D02*
X133853553Y-91856997D01*
X137092000Y-84252000D02*
X135163556Y-84252000D01*
X138105680Y-99438800D02*
X138105680Y-100043915D01*
X134423036Y-86222076D02*
X133477000Y-87168112D01*
X135163556Y-84252000D02*
X134423037Y-84992519D01*
X134423037Y-84992519D02*
X134423036Y-86222076D01*
X133477000Y-87168112D02*
X133477000Y-91480444D01*
%TO.N,/leds/OUT10*%
X135001000Y-97324086D02*
X135320272Y-97643358D01*
X133142010Y-87078824D02*
X133142010Y-87246268D01*
X133139433Y-87248845D02*
X133139433Y-91567155D01*
X134123028Y-84868250D02*
X134123027Y-86097807D01*
X135001000Y-95221808D02*
X135001000Y-97324086D01*
X133553543Y-93774351D02*
X135001000Y-95221808D01*
X133142010Y-87246268D02*
X133139433Y-87248845D01*
X134123027Y-86097807D02*
X133142010Y-87078824D01*
X133139433Y-91567155D02*
X133553543Y-91981265D01*
X133553543Y-91981265D02*
X133553543Y-93774351D01*
X135239278Y-83752000D02*
X134123028Y-84868250D01*
X137592000Y-83752000D02*
X135239278Y-83752000D01*
%TO.N,/leds/OUT9*%
X133823019Y-84743981D02*
X133823018Y-85973538D01*
X133823018Y-85973538D02*
X132842000Y-86954556D01*
X132842000Y-87122000D02*
X132839423Y-87124577D01*
X132842000Y-86954556D02*
X132842000Y-87122000D01*
X132839423Y-87124577D02*
X132839423Y-91691423D01*
X133253533Y-94601232D02*
X133251085Y-94603680D01*
X133253533Y-92105533D02*
X133253533Y-94601232D01*
X132839423Y-91691423D02*
X133253533Y-92105533D01*
X137916999Y-83251999D02*
X135315001Y-83251999D01*
X135315001Y-83251999D02*
X133823019Y-84743981D01*
X137992000Y-83327000D02*
X137916999Y-83251999D01*
X137992000Y-83752000D02*
X137992000Y-83327000D01*
%TO.N,/leds/OUT8*%
X133523010Y-84579268D02*
X133523009Y-85849269D01*
X133523009Y-85849269D02*
X132467001Y-86905277D01*
X132467001Y-90704160D02*
X132039130Y-91132031D01*
X132467001Y-86905277D02*
X132467001Y-90704160D01*
X138041267Y-82951989D02*
X135150289Y-82951989D01*
X138392000Y-83302722D02*
X138041267Y-82951989D01*
X135150289Y-82951989D02*
X133523010Y-84579268D01*
X138392000Y-83752000D02*
X138392000Y-83302722D01*
%TO.N,/leds/OUT7*%
X131767000Y-87181000D02*
X131767000Y-87465000D01*
X138792000Y-83278444D02*
X138165535Y-82651979D01*
X133223000Y-85725000D02*
X131767000Y-87181000D01*
X138792000Y-83752000D02*
X138792000Y-83278444D01*
X138165535Y-82651979D02*
X135026021Y-82651979D01*
X133223000Y-84455000D02*
X133223000Y-85725000D01*
X135026021Y-82651979D02*
X133223000Y-84455000D01*
%TO.N,/leds/OUT6*%
X133190513Y-83852487D02*
X132453240Y-83852487D01*
X134691031Y-82351969D02*
X133190513Y-83852487D01*
X139192000Y-83254166D02*
X138289803Y-82351969D01*
X138289803Y-82351969D02*
X134691031Y-82351969D01*
X139192000Y-83752000D02*
X139192000Y-83254166D01*
%TO.N,/leds/OUT5*%
X134265766Y-80325999D02*
X134051085Y-80540680D01*
X139592000Y-82026132D02*
X138106548Y-80540680D01*
X138106548Y-80540680D02*
X134051085Y-80540680D01*
X139592000Y-83752000D02*
X139592000Y-82026132D01*
%TO.N,/leds/OUT4*%
X136451642Y-78461496D02*
X136451642Y-77755272D01*
X139992000Y-82001854D02*
X136451642Y-78461496D01*
X139992000Y-83752000D02*
X139992000Y-82001854D01*
%TO.N,/leds/OUT3*%
X140392000Y-76586765D02*
X139491320Y-75686085D01*
X140392000Y-83752000D02*
X140392000Y-76586765D01*
D32*
%TO.N,/leds/OUT2*%
X142962969Y-74715031D02*
X142962969Y-74474130D01*
X142962969Y-74715030D02*
X142962969Y-74474130D01*
D30*
X142962969Y-74965885D02*
X142962969Y-74474130D01*
X140792000Y-77136854D02*
X142962969Y-74965885D01*
X140792000Y-83752000D02*
X140792000Y-77136854D01*
%TO.N,/SCL*%
X146080000Y-88168000D02*
X145923000Y-88011000D01*
X146080000Y-88912700D02*
X146080000Y-88168000D01*
X142052999Y-89341001D02*
X141732000Y-89662000D01*
X145923000Y-88011000D02*
X142785836Y-88011000D01*
X142785836Y-88011000D02*
X142052999Y-88743837D01*
X142052999Y-88743837D02*
X142052999Y-89341001D01*
X141672002Y-84652000D02*
X141292000Y-84652000D01*
X142113000Y-84211002D02*
X141672002Y-84652000D01*
X142113000Y-83820000D02*
X142113000Y-84211002D01*
%TO.N,/SDA*%
X142151000Y-85052000D02*
X142875000Y-84328000D01*
X141292000Y-85052000D02*
X142151000Y-85052000D01*
X145542000Y-86695280D02*
X145542000Y-85852000D01*
X146580001Y-88912700D02*
X146580001Y-87733281D01*
X146580001Y-87733281D02*
X145542000Y-86695280D01*
%TO.N,Net-(R101-Pad1)*%
X151978000Y-95590000D02*
X151978000Y-93279000D01*
X152527000Y-96139000D02*
X151978000Y-95590000D01*
D31*
%TO.N,+5V*%
X155702000Y-84709000D02*
X155702000Y-83820000D01*
X155702000Y-83820000D02*
X154495500Y-82613500D01*
X154495500Y-82613500D02*
X152908000Y-81026000D01*
X152860000Y-88594000D02*
X152654000Y-88388000D01*
X152860000Y-89154000D02*
X152860000Y-88594000D01*
X152654000Y-84455000D02*
X154495500Y-82613500D01*
X152654000Y-88388000D02*
X152654000Y-84455000D01*
X152860000Y-90497000D02*
X152860000Y-89154000D01*
X151978000Y-91379000D02*
X152860000Y-90497000D01*
%TO.N,+BATT*%
X156948106Y-91155000D02*
X157353000Y-91155000D01*
X156409106Y-91694000D02*
X156948106Y-91155000D01*
X155702000Y-91694000D02*
X156409106Y-91694000D01*
X154178000Y-89233000D02*
X154940000Y-88471000D01*
X154178000Y-91379000D02*
X154178000Y-89233000D01*
X153473000Y-87144002D02*
X153473000Y-86929000D01*
X154799998Y-88471000D02*
X153473000Y-87144002D01*
X154940000Y-88471000D02*
X154799998Y-88471000D01*
X154248001Y-85054001D02*
X154223000Y-85029000D01*
X154248001Y-86903999D02*
X154248001Y-85054001D01*
X154223000Y-86929000D02*
X154248001Y-86903999D01*
X154223000Y-85029000D02*
X153473000Y-85029000D01*
X153473000Y-86929000D02*
X154223000Y-86929000D01*
X154493000Y-91694000D02*
X154178000Y-91379000D01*
X155702000Y-91694000D02*
X154493000Y-91694000D01*
D30*
X138326000Y-96139000D02*
X137686554Y-96778446D01*
X137686554Y-96778446D02*
X137686554Y-97644446D01*
X139861980Y-99221980D02*
X141181457Y-100541457D01*
X137686554Y-97644446D02*
X139264088Y-99221980D01*
X139264088Y-99221980D02*
X139861980Y-99221980D01*
X141181457Y-100541457D02*
X147870543Y-100541457D01*
X147870543Y-100541457D02*
X151257000Y-97155000D01*
%TO.N,Net-(LED101-Pad1)*%
X152527000Y-94996000D02*
X152733001Y-94789999D01*
X152008001Y-80325999D02*
X151308000Y-81026000D01*
X154366999Y-80325999D02*
X152008001Y-80325999D01*
X152527000Y-94996000D02*
X153072010Y-95541010D01*
X153072010Y-95541010D02*
X155029990Y-95541010D01*
X155029990Y-95541010D02*
X158623000Y-91948000D01*
X158623000Y-91948000D02*
X158623000Y-84582000D01*
X158623000Y-84582000D02*
X154366999Y-80325999D01*
%TO.N,Net-(R102-Pad2)*%
X154178000Y-94315000D02*
X153497000Y-94996000D01*
X154178000Y-93279000D02*
X154178000Y-94315000D01*
%TO.N,/vLUX*%
X139387001Y-95341001D02*
X141651700Y-95341001D01*
X139207000Y-93625000D02*
X139207000Y-94831000D01*
X139387001Y-95087001D02*
X139296000Y-94996000D01*
X139387001Y-95341001D02*
X139387001Y-95087001D01*
%TO.N,/SW2*%
X151189999Y-90840999D02*
X151222999Y-90873999D01*
X150008300Y-90840999D02*
X151189999Y-90840999D01*
X151222999Y-91884001D02*
X151667998Y-92329000D01*
X151222999Y-90873999D02*
X151222999Y-91884001D01*
X151667998Y-92329000D02*
X152908000Y-92329000D01*
%TO.N,/SW1*%
X150008300Y-90341000D02*
X150008300Y-89513700D01*
X151798001Y-84234001D02*
X151511000Y-83947000D01*
X150008300Y-89513700D02*
X151798001Y-87723999D01*
X151798001Y-87723999D02*
X151798001Y-84234001D01*
%TO.N,/SDB*%
X141806602Y-82527000D02*
X141732000Y-82527000D01*
X143637000Y-83058000D02*
X143106000Y-82527000D01*
X143164981Y-85699739D02*
X143637000Y-85227720D01*
X143106000Y-82527000D02*
X141732000Y-82527000D01*
X142047724Y-87052000D02*
X142323744Y-86775980D01*
X142323744Y-86775980D02*
X142713020Y-86775980D01*
X141292000Y-87052000D02*
X142047724Y-87052000D01*
X142713020Y-86775980D02*
X143164980Y-86324020D01*
X143164980Y-86324020D02*
X143164981Y-85699739D01*
X147285597Y-88014599D02*
X146431000Y-87160002D01*
X147579999Y-88912700D02*
X147579999Y-88089600D01*
X147504998Y-88014599D02*
X147285597Y-88014599D01*
X147579999Y-88089600D02*
X147504998Y-88014599D01*
X143717001Y-84628999D02*
X143637000Y-84709000D01*
X145060001Y-84628999D02*
X143717001Y-84628999D01*
X146431000Y-85999998D02*
X145060001Y-84628999D01*
X146431000Y-87160002D02*
X146431000Y-85999998D01*
X143637000Y-84709000D02*
X143637000Y-83058000D01*
X143637000Y-85227720D02*
X143637000Y-84709000D01*
%TO.N,/JTAG_RESET*%
X142369503Y-91841000D02*
X141651700Y-91841000D01*
X143256000Y-92727497D02*
X142369503Y-91841000D01*
X143256000Y-93599000D02*
X143256000Y-92727497D01*
%TO.N,/JTAG_TDI*%
X146262597Y-90918398D02*
X146812000Y-90918398D01*
X145079999Y-88912700D02*
X145079999Y-89735800D01*
X145079999Y-89735800D02*
X146262597Y-90918398D01*
%TO.N,/JTAG_TDO*%
X145580000Y-89700000D02*
X145580000Y-88912700D01*
X147954398Y-90423397D02*
X146303397Y-90423397D01*
X146303397Y-90423397D02*
X145580000Y-89700000D01*
X148463001Y-90932000D02*
X147954398Y-90423397D01*
%TO.N,/JTAG_TCK*%
X143383000Y-95249200D02*
X143383000Y-95758000D01*
X141651700Y-94341000D02*
X142474800Y-94341000D01*
X142474800Y-94341000D02*
X143383000Y-95249200D01*
%TO.N,/JTAG_TMS*%
X142549801Y-96210199D02*
X141859000Y-96901000D01*
X142549801Y-94916000D02*
X142549801Y-96210199D01*
X141651700Y-94840999D02*
X142474800Y-94840999D01*
X142474800Y-94840999D02*
X142549801Y-94916000D01*
%TO.N,/LED_STAT*%
X136728001Y-92570001D02*
X136271000Y-92113000D01*
X139556601Y-92570001D02*
X136728001Y-92570001D01*
X141651700Y-91341001D02*
X140785601Y-91341001D01*
X139556601Y-92570001D02*
X140785601Y-91341001D01*
%TO.N,/BattSns*%
X141353700Y-96139000D02*
X141651700Y-95841000D01*
X139296000Y-96139000D02*
X141353700Y-96139000D01*
X139319000Y-96162000D02*
X139296000Y-96139000D01*
X139319000Y-97282000D02*
X139319000Y-96162000D01*
%TD*%
D33*
%TO.N,GND*%
G36*
X157219967Y-94436855D02*
G01*
X157168343Y-94550789D01*
X157139940Y-94672606D01*
X157136014Y-94792530D01*
X157034120Y-94855892D01*
X156942825Y-94941399D01*
X156869967Y-95043073D01*
X156419967Y-95822495D01*
X156368343Y-95936429D01*
X156339940Y-96058246D01*
X156337640Y-96128497D01*
X156269041Y-96197096D01*
X156169999Y-96345322D01*
X156157439Y-96375645D01*
X156077870Y-96399782D01*
X155967556Y-96458747D01*
X155870865Y-96538099D01*
X155234469Y-97174495D01*
X155155117Y-97271186D01*
X155096152Y-97381500D01*
X155061321Y-97496321D01*
X154946500Y-97531152D01*
X154836186Y-97590117D01*
X154739495Y-97669469D01*
X154103099Y-98305865D01*
X154023747Y-98402556D01*
X153964782Y-98512870D01*
X153928472Y-98632568D01*
X153922521Y-98692989D01*
X153855096Y-98738041D01*
X153811800Y-98781337D01*
X153748263Y-98770847D01*
X153623246Y-98774940D01*
X153501429Y-98803343D01*
X153387495Y-98854967D01*
X153376063Y-98861567D01*
X153262000Y-98747504D01*
X153262000Y-98151250D01*
X153345000Y-98068250D01*
X153345000Y-97992233D01*
X153382537Y-97946494D01*
X153441502Y-97836180D01*
X153477812Y-97716482D01*
X153490072Y-97592000D01*
X153490072Y-97409000D01*
X153599000Y-97409000D01*
X153599000Y-98068250D01*
X153757750Y-98227000D01*
X153772000Y-98230072D01*
X153896482Y-98217812D01*
X154016180Y-98181502D01*
X154126494Y-98122537D01*
X154223185Y-98043185D01*
X154302537Y-97946494D01*
X154361502Y-97836180D01*
X154397812Y-97716482D01*
X154410072Y-97592000D01*
X154407000Y-97567750D01*
X154248250Y-97409000D01*
X153599000Y-97409000D01*
X153490072Y-97409000D01*
X153490072Y-96972000D01*
X153477812Y-96847518D01*
X153441502Y-96727820D01*
X153389967Y-96631407D01*
X153400274Y-96612125D01*
X153444977Y-96464757D01*
X153460072Y-96311500D01*
X153460072Y-96251010D01*
X153644000Y-96251010D01*
X153644000Y-96266000D01*
X153624000Y-96266000D01*
X153624000Y-96470750D01*
X153599000Y-96495750D01*
X153599000Y-97155000D01*
X154248250Y-97155000D01*
X154407000Y-96996250D01*
X154410072Y-96972000D01*
X154397812Y-96847518D01*
X154363975Y-96735971D01*
X154381502Y-96703180D01*
X154417812Y-96583482D01*
X154430072Y-96459000D01*
X154427000Y-96424750D01*
X154268252Y-96266002D01*
X154427000Y-96266002D01*
X154427000Y-96251010D01*
X154995115Y-96251010D01*
X155029990Y-96254445D01*
X155064865Y-96251010D01*
X155064867Y-96251010D01*
X155169174Y-96240737D01*
X155303010Y-96200138D01*
X155426353Y-96134210D01*
X155534465Y-96045485D01*
X155556702Y-96018389D01*
X157331613Y-94243478D01*
X157219967Y-94436855D01*
G37*
X157219967Y-94436855D02*
X157168343Y-94550789D01*
X157139940Y-94672606D01*
X157136014Y-94792530D01*
X157034120Y-94855892D01*
X156942825Y-94941399D01*
X156869967Y-95043073D01*
X156419967Y-95822495D01*
X156368343Y-95936429D01*
X156339940Y-96058246D01*
X156337640Y-96128497D01*
X156269041Y-96197096D01*
X156169999Y-96345322D01*
X156157439Y-96375645D01*
X156077870Y-96399782D01*
X155967556Y-96458747D01*
X155870865Y-96538099D01*
X155234469Y-97174495D01*
X155155117Y-97271186D01*
X155096152Y-97381500D01*
X155061321Y-97496321D01*
X154946500Y-97531152D01*
X154836186Y-97590117D01*
X154739495Y-97669469D01*
X154103099Y-98305865D01*
X154023747Y-98402556D01*
X153964782Y-98512870D01*
X153928472Y-98632568D01*
X153922521Y-98692989D01*
X153855096Y-98738041D01*
X153811800Y-98781337D01*
X153748263Y-98770847D01*
X153623246Y-98774940D01*
X153501429Y-98803343D01*
X153387495Y-98854967D01*
X153376063Y-98861567D01*
X153262000Y-98747504D01*
X153262000Y-98151250D01*
X153345000Y-98068250D01*
X153345000Y-97992233D01*
X153382537Y-97946494D01*
X153441502Y-97836180D01*
X153477812Y-97716482D01*
X153490072Y-97592000D01*
X153490072Y-97409000D01*
X153599000Y-97409000D01*
X153599000Y-98068250D01*
X153757750Y-98227000D01*
X153772000Y-98230072D01*
X153896482Y-98217812D01*
X154016180Y-98181502D01*
X154126494Y-98122537D01*
X154223185Y-98043185D01*
X154302537Y-97946494D01*
X154361502Y-97836180D01*
X154397812Y-97716482D01*
X154410072Y-97592000D01*
X154407000Y-97567750D01*
X154248250Y-97409000D01*
X153599000Y-97409000D01*
X153490072Y-97409000D01*
X153490072Y-96972000D01*
X153477812Y-96847518D01*
X153441502Y-96727820D01*
X153389967Y-96631407D01*
X153400274Y-96612125D01*
X153444977Y-96464757D01*
X153460072Y-96311500D01*
X153460072Y-96251010D01*
X153644000Y-96251010D01*
X153644000Y-96266000D01*
X153624000Y-96266000D01*
X153624000Y-96470750D01*
X153599000Y-96495750D01*
X153599000Y-97155000D01*
X154248250Y-97155000D01*
X154407000Y-96996250D01*
X154410072Y-96972000D01*
X154397812Y-96847518D01*
X154363975Y-96735971D01*
X154381502Y-96703180D01*
X154417812Y-96583482D01*
X154430072Y-96459000D01*
X154427000Y-96424750D01*
X154268252Y-96266002D01*
X154427000Y-96266002D01*
X154427000Y-96251010D01*
X154995115Y-96251010D01*
X155029990Y-96254445D01*
X155064865Y-96251010D01*
X155064867Y-96251010D01*
X155169174Y-96240737D01*
X155303010Y-96200138D01*
X155426353Y-96134210D01*
X155534465Y-96045485D01*
X155556702Y-96018389D01*
X157331613Y-94243478D01*
X157219967Y-94436855D01*
G36*
X150454999Y-96726322D02*
G01*
X150386779Y-96891021D01*
X150354472Y-97053436D01*
X149346002Y-98061906D01*
X149357772Y-97942400D01*
X149357772Y-96618772D01*
X150526862Y-96618772D01*
X150454999Y-96726322D01*
G37*
X150454999Y-96726322D02*
X150386779Y-96891021D01*
X150354472Y-97053436D01*
X149346002Y-98061906D01*
X149357772Y-97942400D01*
X149357772Y-96618772D01*
X150526862Y-96618772D01*
X150454999Y-96726322D01*
G36*
X137055815Y-94476185D02*
G01*
X137152506Y-94555537D01*
X137262820Y-94614502D01*
X137382518Y-94650812D01*
X137395285Y-94652069D01*
X137392928Y-94676000D01*
X137396000Y-94710250D01*
X137554750Y-94869000D01*
X138199000Y-94869000D01*
X138199000Y-94849000D01*
X138362928Y-94849000D01*
X138362928Y-95143000D01*
X138199000Y-95143000D01*
X138199000Y-95123000D01*
X137554750Y-95123000D01*
X137396000Y-95281750D01*
X137392928Y-95316000D01*
X137405188Y-95440482D01*
X137441498Y-95560180D01*
X137475360Y-95623530D01*
X137452726Y-95665875D01*
X137408023Y-95813243D01*
X137392928Y-95966500D01*
X137392928Y-96067981D01*
X137209171Y-96251738D01*
X137182079Y-96273972D01*
X137093354Y-96382084D01*
X137062231Y-96440310D01*
X136611030Y-95989109D01*
X136611030Y-94883878D01*
X136614465Y-94849003D01*
X136611016Y-94813982D01*
X136600757Y-94709820D01*
X136560158Y-94575984D01*
X136494230Y-94452641D01*
X136477197Y-94431886D01*
X136438718Y-94385000D01*
X136980982Y-94385000D01*
X137055815Y-94476185D01*
G37*
X137055815Y-94476185D02*
X137152506Y-94555537D01*
X137262820Y-94614502D01*
X137382518Y-94650812D01*
X137395285Y-94652069D01*
X137392928Y-94676000D01*
X137396000Y-94710250D01*
X137554750Y-94869000D01*
X138199000Y-94869000D01*
X138199000Y-94849000D01*
X138362928Y-94849000D01*
X138362928Y-95143000D01*
X138199000Y-95143000D01*
X138199000Y-95123000D01*
X137554750Y-95123000D01*
X137396000Y-95281750D01*
X137392928Y-95316000D01*
X137405188Y-95440482D01*
X137441498Y-95560180D01*
X137475360Y-95623530D01*
X137452726Y-95665875D01*
X137408023Y-95813243D01*
X137392928Y-95966500D01*
X137392928Y-96067981D01*
X137209171Y-96251738D01*
X137182079Y-96273972D01*
X137093354Y-96382084D01*
X137062231Y-96440310D01*
X136611030Y-95989109D01*
X136611030Y-94883878D01*
X136614465Y-94849003D01*
X136611016Y-94813982D01*
X136600757Y-94709820D01*
X136560158Y-94575984D01*
X136494230Y-94452641D01*
X136477197Y-94431886D01*
X136438718Y-94385000D01*
X136980982Y-94385000D01*
X137055815Y-94476185D01*
G36*
X148373866Y-91837000D02*
G01*
X148552136Y-91837000D01*
X148697128Y-91808159D01*
X148697128Y-91980700D01*
X148707991Y-92090999D01*
X148697128Y-92201299D01*
X148697128Y-92480699D01*
X148707991Y-92591000D01*
X148697128Y-92701300D01*
X148697128Y-92980700D01*
X148707991Y-93091000D01*
X148697128Y-93201300D01*
X148697128Y-93270937D01*
X148660496Y-93301000D01*
X148636698Y-93329998D01*
X148218378Y-93748318D01*
X148217600Y-93376750D01*
X148058850Y-93218000D01*
X145957000Y-93218000D01*
X145957000Y-93238000D01*
X145703000Y-93238000D01*
X145703000Y-93218000D01*
X145683000Y-93218000D01*
X145683000Y-92964000D01*
X145703000Y-92964000D01*
X145703000Y-92944000D01*
X145957000Y-92944000D01*
X145957000Y-92964000D01*
X148058850Y-92964000D01*
X148217600Y-92805250D01*
X148219692Y-91806333D01*
X148373866Y-91837000D01*
G37*
X148373866Y-91837000D02*
X148552136Y-91837000D01*
X148697128Y-91808159D01*
X148697128Y-91980700D01*
X148707991Y-92090999D01*
X148697128Y-92201299D01*
X148697128Y-92480699D01*
X148707991Y-92591000D01*
X148697128Y-92701300D01*
X148697128Y-92980700D01*
X148707991Y-93091000D01*
X148697128Y-93201300D01*
X148697128Y-93270937D01*
X148660496Y-93301000D01*
X148636698Y-93329998D01*
X148218378Y-93748318D01*
X148217600Y-93376750D01*
X148058850Y-93218000D01*
X145957000Y-93218000D01*
X145957000Y-93238000D01*
X145703000Y-93238000D01*
X145703000Y-93218000D01*
X145683000Y-93218000D01*
X145683000Y-92964000D01*
X145703000Y-92964000D01*
X145703000Y-92944000D01*
X145957000Y-92944000D01*
X145957000Y-92964000D01*
X148058850Y-92964000D01*
X148217600Y-92805250D01*
X148219692Y-91806333D01*
X148373866Y-91837000D01*
G36*
X157344908Y-92222000D02*
G01*
X157226000Y-92222000D01*
X157226000Y-92202000D01*
X157206000Y-92202000D01*
X157206000Y-92093072D01*
X157473836Y-92093072D01*
X157344908Y-92222000D01*
G37*
X157344908Y-92222000D02*
X157226000Y-92222000D01*
X157226000Y-92202000D01*
X157206000Y-92202000D01*
X157206000Y-92093072D01*
X157473836Y-92093072D01*
X157344908Y-92222000D01*
G36*
X137785021Y-90405221D02*
G01*
X137847000Y-90417550D01*
X137847000Y-90672000D01*
X137780000Y-90672000D01*
X137780000Y-90652000D01*
X137760000Y-90652000D01*
X137760000Y-90398000D01*
X137767588Y-90398000D01*
X137785021Y-90405221D01*
G37*
X137785021Y-90405221D02*
X137847000Y-90417550D01*
X137847000Y-90672000D01*
X137780000Y-90672000D01*
X137780000Y-90652000D01*
X137760000Y-90652000D01*
X137760000Y-90398000D01*
X137767588Y-90398000D01*
X137785021Y-90405221D01*
G36*
X155987750Y-87114000D02*
G01*
X156202000Y-87117072D01*
X156326482Y-87104812D01*
X156446180Y-87068502D01*
X156556494Y-87009537D01*
X156595928Y-86977174D01*
X156595928Y-87114000D01*
X156608188Y-87238482D01*
X156644498Y-87358180D01*
X156703463Y-87468494D01*
X156782815Y-87565185D01*
X156879506Y-87644537D01*
X156989820Y-87703502D01*
X157109518Y-87739812D01*
X157234000Y-87752072D01*
X157913001Y-87752072D01*
X157913000Y-88650928D01*
X157234000Y-88650928D01*
X157109518Y-88663188D01*
X156989820Y-88699498D01*
X156879506Y-88758463D01*
X156782815Y-88837815D01*
X156703463Y-88934506D01*
X156644498Y-89044820D01*
X156608188Y-89164518D01*
X156595928Y-89289000D01*
X156595928Y-89425826D01*
X156556494Y-89393463D01*
X156446180Y-89334498D01*
X156326482Y-89298188D01*
X156202000Y-89285928D01*
X155987750Y-89289000D01*
X155829000Y-89447750D01*
X155829000Y-90297000D01*
X155849000Y-90297000D01*
X155849000Y-90551000D01*
X155829000Y-90551000D01*
X155829000Y-90562026D01*
X155813788Y-90559000D01*
X155590212Y-90559000D01*
X155575000Y-90562026D01*
X155575000Y-90551000D01*
X155555000Y-90551000D01*
X155555000Y-90297000D01*
X155575000Y-90297000D01*
X155575000Y-89447750D01*
X155489248Y-89361998D01*
X155494180Y-89360502D01*
X155604494Y-89301537D01*
X155701185Y-89222185D01*
X155780537Y-89125494D01*
X155839502Y-89015180D01*
X155875812Y-88895482D01*
X155888072Y-88771000D01*
X155888072Y-88171000D01*
X155875812Y-88046518D01*
X155865038Y-88011000D01*
X155875812Y-87975482D01*
X155888072Y-87851000D01*
X155885000Y-87836750D01*
X155726250Y-87678000D01*
X155650233Y-87678000D01*
X155604494Y-87640463D01*
X155494180Y-87581498D01*
X155374482Y-87545188D01*
X155250000Y-87532928D01*
X154936728Y-87532928D01*
X154814956Y-87411156D01*
X154820829Y-87404000D01*
X155067000Y-87404000D01*
X155067000Y-87424000D01*
X155726250Y-87424000D01*
X155885000Y-87265250D01*
X155888072Y-87251000D01*
X155875812Y-87126518D01*
X155839502Y-87006820D01*
X155829002Y-86987176D01*
X155829002Y-86955252D01*
X155987750Y-87114000D01*
G37*
X155987750Y-87114000D02*
X156202000Y-87117072D01*
X156326482Y-87104812D01*
X156446180Y-87068502D01*
X156556494Y-87009537D01*
X156595928Y-86977174D01*
X156595928Y-87114000D01*
X156608188Y-87238482D01*
X156644498Y-87358180D01*
X156703463Y-87468494D01*
X156782815Y-87565185D01*
X156879506Y-87644537D01*
X156989820Y-87703502D01*
X157109518Y-87739812D01*
X157234000Y-87752072D01*
X157913001Y-87752072D01*
X157913000Y-88650928D01*
X157234000Y-88650928D01*
X157109518Y-88663188D01*
X156989820Y-88699498D01*
X156879506Y-88758463D01*
X156782815Y-88837815D01*
X156703463Y-88934506D01*
X156644498Y-89044820D01*
X156608188Y-89164518D01*
X156595928Y-89289000D01*
X156595928Y-89425826D01*
X156556494Y-89393463D01*
X156446180Y-89334498D01*
X156326482Y-89298188D01*
X156202000Y-89285928D01*
X155987750Y-89289000D01*
X155829000Y-89447750D01*
X155829000Y-90297000D01*
X155849000Y-90297000D01*
X155849000Y-90551000D01*
X155829000Y-90551000D01*
X155829000Y-90562026D01*
X155813788Y-90559000D01*
X155590212Y-90559000D01*
X155575000Y-90562026D01*
X155575000Y-90551000D01*
X155555000Y-90551000D01*
X155555000Y-90297000D01*
X155575000Y-90297000D01*
X155575000Y-89447750D01*
X155489248Y-89361998D01*
X155494180Y-89360502D01*
X155604494Y-89301537D01*
X155701185Y-89222185D01*
X155780537Y-89125494D01*
X155839502Y-89015180D01*
X155875812Y-88895482D01*
X155888072Y-88771000D01*
X155888072Y-88171000D01*
X155875812Y-88046518D01*
X155865038Y-88011000D01*
X155875812Y-87975482D01*
X155888072Y-87851000D01*
X155885000Y-87836750D01*
X155726250Y-87678000D01*
X155650233Y-87678000D01*
X155604494Y-87640463D01*
X155494180Y-87581498D01*
X155374482Y-87545188D01*
X155250000Y-87532928D01*
X154936728Y-87532928D01*
X154814956Y-87411156D01*
X154820829Y-87404000D01*
X155067000Y-87404000D01*
X155067000Y-87424000D01*
X155726250Y-87424000D01*
X155885000Y-87265250D01*
X155888072Y-87251000D01*
X155875812Y-87126518D01*
X155839502Y-87006820D01*
X155829002Y-86987176D01*
X155829002Y-86955252D01*
X155987750Y-87114000D01*
G36*
X151921928Y-89464000D02*
G01*
X151934188Y-89588482D01*
X151970498Y-89708180D01*
X152029463Y-89818494D01*
X152067000Y-89864233D01*
X152067000Y-89940250D01*
X152100000Y-89973250D01*
X152100000Y-90182198D01*
X151866271Y-90415928D01*
X151765556Y-90415928D01*
X151727473Y-90369524D01*
X151709351Y-90354652D01*
X151694474Y-90336524D01*
X151586362Y-90247799D01*
X151463019Y-90181871D01*
X151329183Y-90141272D01*
X151313407Y-90139718D01*
X151307212Y-90076818D01*
X151281174Y-89990982D01*
X151285506Y-89994537D01*
X151395820Y-90053502D01*
X151515518Y-90089812D01*
X151640000Y-90102072D01*
X151654250Y-90099000D01*
X151813000Y-89940250D01*
X151813000Y-89281000D01*
X151793000Y-89281000D01*
X151793000Y-89027000D01*
X151813000Y-89027000D01*
X151813000Y-89007000D01*
X151921928Y-89007000D01*
X151921928Y-89464000D01*
G37*
X151921928Y-89464000D02*
X151934188Y-89588482D01*
X151970498Y-89708180D01*
X152029463Y-89818494D01*
X152067000Y-89864233D01*
X152067000Y-89940250D01*
X152100000Y-89973250D01*
X152100000Y-90182198D01*
X151866271Y-90415928D01*
X151765556Y-90415928D01*
X151727473Y-90369524D01*
X151709351Y-90354652D01*
X151694474Y-90336524D01*
X151586362Y-90247799D01*
X151463019Y-90181871D01*
X151329183Y-90141272D01*
X151313407Y-90139718D01*
X151307212Y-90076818D01*
X151281174Y-89990982D01*
X151285506Y-89994537D01*
X151395820Y-90053502D01*
X151515518Y-90089812D01*
X151640000Y-90102072D01*
X151654250Y-90099000D01*
X151813000Y-89940250D01*
X151813000Y-89281000D01*
X151793000Y-89281000D01*
X151793000Y-89027000D01*
X151813000Y-89027000D01*
X151813000Y-89007000D01*
X151921928Y-89007000D01*
X151921928Y-89464000D01*
G36*
X155829000Y-85852000D02*
G01*
X155849000Y-85852000D01*
X155849000Y-86106000D01*
X155829000Y-86106000D01*
X155829000Y-86126000D01*
X155575000Y-86126000D01*
X155575000Y-86106000D01*
X155555000Y-86106000D01*
X155555000Y-85852000D01*
X155575000Y-85852000D01*
X155575000Y-85840974D01*
X155590212Y-85844000D01*
X155813788Y-85844000D01*
X155829000Y-85840974D01*
X155829000Y-85852000D01*
G37*
X155829000Y-85852000D02*
X155849000Y-85852000D01*
X155849000Y-86106000D01*
X155829000Y-86106000D01*
X155829000Y-86126000D01*
X155575000Y-86126000D01*
X155575000Y-86106000D01*
X155555000Y-86106000D01*
X155555000Y-85852000D01*
X155575000Y-85852000D01*
X155575000Y-85840974D01*
X155590212Y-85844000D01*
X155813788Y-85844000D01*
X155829000Y-85840974D01*
X155829000Y-85852000D01*
G36*
X139319000Y-85725000D02*
G01*
X139339000Y-85725000D01*
X139339000Y-85979000D01*
X139319000Y-85979000D01*
X139319000Y-85999000D01*
X139065000Y-85999000D01*
X139065000Y-85979000D01*
X139045000Y-85979000D01*
X139045000Y-85725000D01*
X139065000Y-85725000D01*
X139065000Y-85705000D01*
X139319000Y-85705000D01*
X139319000Y-85725000D01*
G37*
X139319000Y-85725000D02*
X139339000Y-85725000D01*
X139339000Y-85979000D01*
X139319000Y-85979000D01*
X139319000Y-85999000D01*
X139065000Y-85999000D01*
X139065000Y-85979000D01*
X139045000Y-85979000D01*
X139045000Y-85725000D01*
X139065000Y-85725000D01*
X139065000Y-85705000D01*
X139319000Y-85705000D01*
X139319000Y-85725000D01*
G36*
X148843614Y-75665743D02*
G01*
X148967027Y-75686119D01*
X149092044Y-75682026D01*
X149208899Y-75654780D01*
X149296474Y-75736803D01*
X149402695Y-75802855D01*
X149519762Y-75846916D01*
X150389096Y-76079853D01*
X150512509Y-76100229D01*
X150637526Y-76096136D01*
X150759342Y-76067733D01*
X150873277Y-76016110D01*
X150916481Y-75985150D01*
X150925139Y-76037592D01*
X150969199Y-76154659D01*
X151035252Y-76260880D01*
X151120759Y-76352175D01*
X151222433Y-76425033D01*
X152001855Y-76875033D01*
X152115789Y-76926657D01*
X152237606Y-76955060D01*
X152357530Y-76958986D01*
X152420892Y-77060880D01*
X152506399Y-77152175D01*
X152608073Y-77225033D01*
X153387495Y-77675033D01*
X153501429Y-77726657D01*
X153623246Y-77755060D01*
X153748263Y-77759153D01*
X153871676Y-77738777D01*
X153921422Y-77720054D01*
X153916212Y-77772950D01*
X153928472Y-77897432D01*
X153964782Y-78017130D01*
X154023747Y-78127444D01*
X154103099Y-78224135D01*
X154739495Y-78860531D01*
X154836186Y-78939883D01*
X154946500Y-78998848D01*
X155061321Y-79033679D01*
X155096152Y-79148500D01*
X155155117Y-79258814D01*
X155234469Y-79355505D01*
X155283954Y-79404990D01*
X155146322Y-79461999D01*
X154998096Y-79561041D01*
X154872041Y-79687096D01*
X154813829Y-79774216D01*
X154763362Y-79732799D01*
X154640019Y-79666871D01*
X154506183Y-79626272D01*
X154401876Y-79615999D01*
X154401874Y-79615999D01*
X154366999Y-79612564D01*
X154332124Y-79615999D01*
X152042876Y-79615999D01*
X152008001Y-79612564D01*
X151973126Y-79615999D01*
X151973124Y-79615999D01*
X151868817Y-79626272D01*
X151734981Y-79666871D01*
X151611638Y-79732799D01*
X151503526Y-79821524D01*
X151481289Y-79848620D01*
X151416981Y-79912928D01*
X150858000Y-79912928D01*
X150733518Y-79925188D01*
X150613820Y-79961498D01*
X150503506Y-80020463D01*
X150406815Y-80099815D01*
X150327463Y-80196506D01*
X150268498Y-80306820D01*
X150232188Y-80426518D01*
X150219928Y-80551000D01*
X150219928Y-81501000D01*
X150232188Y-81625482D01*
X150268498Y-81745180D01*
X150327463Y-81855494D01*
X150406815Y-81952185D01*
X150503506Y-82031537D01*
X150613820Y-82090502D01*
X150733518Y-82126812D01*
X150858000Y-82139072D01*
X151758000Y-82139072D01*
X151882482Y-82126812D01*
X152002180Y-82090502D01*
X152108000Y-82033939D01*
X152213820Y-82090502D01*
X152333518Y-82126812D01*
X152458000Y-82139072D01*
X152946271Y-82139072D01*
X153420698Y-82613500D01*
X152372422Y-83661777D01*
X152313001Y-83518322D01*
X152213959Y-83370096D01*
X152087904Y-83244041D01*
X151939678Y-83144999D01*
X151774979Y-83076779D01*
X151600135Y-83042000D01*
X151421865Y-83042000D01*
X151247021Y-83076779D01*
X151082322Y-83144999D01*
X150934096Y-83244041D01*
X150808041Y-83370096D01*
X150708999Y-83518322D01*
X150640779Y-83683021D01*
X150606000Y-83857865D01*
X150606000Y-83990928D01*
X150573000Y-83990928D01*
X150448518Y-84003188D01*
X150328820Y-84039498D01*
X150218506Y-84098463D01*
X150121815Y-84177815D01*
X150042463Y-84274506D01*
X149983498Y-84384820D01*
X149947188Y-84504518D01*
X149934928Y-84629000D01*
X149934928Y-84947000D01*
X149770865Y-84947000D01*
X149596021Y-84981779D01*
X149454285Y-85040487D01*
X149398180Y-85010498D01*
X149278482Y-84974188D01*
X149154000Y-84961928D01*
X149129750Y-84965000D01*
X148971000Y-85123750D01*
X148971000Y-85682428D01*
X148955000Y-85762865D01*
X148955000Y-85881928D01*
X148697000Y-85881928D01*
X148697000Y-85773000D01*
X148717000Y-85773000D01*
X148717000Y-85123750D01*
X148558250Y-84965000D01*
X148534000Y-84961928D01*
X148409518Y-84974188D01*
X148308072Y-85004961D01*
X148308072Y-84854000D01*
X148295812Y-84729518D01*
X148259502Y-84609820D01*
X148200537Y-84499506D01*
X148121185Y-84402815D01*
X148024494Y-84323463D01*
X147985000Y-84302353D01*
X147985000Y-76260962D01*
X148635881Y-75610081D01*
X148843614Y-75665743D01*
G37*
X148843614Y-75665743D02*
X148967027Y-75686119D01*
X149092044Y-75682026D01*
X149208899Y-75654780D01*
X149296474Y-75736803D01*
X149402695Y-75802855D01*
X149519762Y-75846916D01*
X150389096Y-76079853D01*
X150512509Y-76100229D01*
X150637526Y-76096136D01*
X150759342Y-76067733D01*
X150873277Y-76016110D01*
X150916481Y-75985150D01*
X150925139Y-76037592D01*
X150969199Y-76154659D01*
X151035252Y-76260880D01*
X151120759Y-76352175D01*
X151222433Y-76425033D01*
X152001855Y-76875033D01*
X152115789Y-76926657D01*
X152237606Y-76955060D01*
X152357530Y-76958986D01*
X152420892Y-77060880D01*
X152506399Y-77152175D01*
X152608073Y-77225033D01*
X153387495Y-77675033D01*
X153501429Y-77726657D01*
X153623246Y-77755060D01*
X153748263Y-77759153D01*
X153871676Y-77738777D01*
X153921422Y-77720054D01*
X153916212Y-77772950D01*
X153928472Y-77897432D01*
X153964782Y-78017130D01*
X154023747Y-78127444D01*
X154103099Y-78224135D01*
X154739495Y-78860531D01*
X154836186Y-78939883D01*
X154946500Y-78998848D01*
X155061321Y-79033679D01*
X155096152Y-79148500D01*
X155155117Y-79258814D01*
X155234469Y-79355505D01*
X155283954Y-79404990D01*
X155146322Y-79461999D01*
X154998096Y-79561041D01*
X154872041Y-79687096D01*
X154813829Y-79774216D01*
X154763362Y-79732799D01*
X154640019Y-79666871D01*
X154506183Y-79626272D01*
X154401876Y-79615999D01*
X154401874Y-79615999D01*
X154366999Y-79612564D01*
X154332124Y-79615999D01*
X152042876Y-79615999D01*
X152008001Y-79612564D01*
X151973126Y-79615999D01*
X151973124Y-79615999D01*
X151868817Y-79626272D01*
X151734981Y-79666871D01*
X151611638Y-79732799D01*
X151503526Y-79821524D01*
X151481289Y-79848620D01*
X151416981Y-79912928D01*
X150858000Y-79912928D01*
X150733518Y-79925188D01*
X150613820Y-79961498D01*
X150503506Y-80020463D01*
X150406815Y-80099815D01*
X150327463Y-80196506D01*
X150268498Y-80306820D01*
X150232188Y-80426518D01*
X150219928Y-80551000D01*
X150219928Y-81501000D01*
X150232188Y-81625482D01*
X150268498Y-81745180D01*
X150327463Y-81855494D01*
X150406815Y-81952185D01*
X150503506Y-82031537D01*
X150613820Y-82090502D01*
X150733518Y-82126812D01*
X150858000Y-82139072D01*
X151758000Y-82139072D01*
X151882482Y-82126812D01*
X152002180Y-82090502D01*
X152108000Y-82033939D01*
X152213820Y-82090502D01*
X152333518Y-82126812D01*
X152458000Y-82139072D01*
X152946271Y-82139072D01*
X153420698Y-82613500D01*
X152372422Y-83661777D01*
X152313001Y-83518322D01*
X152213959Y-83370096D01*
X152087904Y-83244041D01*
X151939678Y-83144999D01*
X151774979Y-83076779D01*
X151600135Y-83042000D01*
X151421865Y-83042000D01*
X151247021Y-83076779D01*
X151082322Y-83144999D01*
X150934096Y-83244041D01*
X150808041Y-83370096D01*
X150708999Y-83518322D01*
X150640779Y-83683021D01*
X150606000Y-83857865D01*
X150606000Y-83990928D01*
X150573000Y-83990928D01*
X150448518Y-84003188D01*
X150328820Y-84039498D01*
X150218506Y-84098463D01*
X150121815Y-84177815D01*
X150042463Y-84274506D01*
X149983498Y-84384820D01*
X149947188Y-84504518D01*
X149934928Y-84629000D01*
X149934928Y-84947000D01*
X149770865Y-84947000D01*
X149596021Y-84981779D01*
X149454285Y-85040487D01*
X149398180Y-85010498D01*
X149278482Y-84974188D01*
X149154000Y-84961928D01*
X149129750Y-84965000D01*
X148971000Y-85123750D01*
X148971000Y-85682428D01*
X148955000Y-85762865D01*
X148955000Y-85881928D01*
X148697000Y-85881928D01*
X148697000Y-85773000D01*
X148717000Y-85773000D01*
X148717000Y-85123750D01*
X148558250Y-84965000D01*
X148534000Y-84961928D01*
X148409518Y-84974188D01*
X148308072Y-85004961D01*
X148308072Y-84854000D01*
X148295812Y-84729518D01*
X148259502Y-84609820D01*
X148200537Y-84499506D01*
X148121185Y-84402815D01*
X148024494Y-84323463D01*
X147985000Y-84302353D01*
X147985000Y-76260962D01*
X148635881Y-75610081D01*
X148843614Y-75665743D01*
%TD*%
M02*
