%TF.GenerationSoftware,KiCad,Pcbnew,(5.1.6)-1*%
%TF.CreationDate,2023-04-03T22:04:13-07:00*%
%TF.ProjectId,Watch,57617463-682e-46b6-9963-61645f706362,rev?*%
%TF.SameCoordinates,Original*%
%TF.FileFunction,Paste,Top*%
%TF.FilePolarity,Positive*%
%FSLAX46Y46*%
G04 Gerber Fmt 4.6, Leading zero omitted, Abs format (unit mm)*
G04 Created by KiCad (PCBNEW (5.1.6)-1) date 2023-04-03 22:04:13*
%MOMM*%
%LPD*%
G01*
G04 APERTURE LIST*
%ADD10C,0.100000*%
%ADD11R,0.279400X1.346200*%
%ADD12R,1.346200X0.279400*%
%ADD13R,0.890000X0.550000*%
%ADD14R,0.900000X0.950000*%
%ADD15R,0.950000X0.900000*%
%ADD16R,2.650000X2.650000*%
%ADD17R,0.550000X0.200000*%
%ADD18R,0.200000X0.550000*%
%ADD19R,0.800000X0.800000*%
%ADD20R,1.000000X0.800000*%
%ADD21R,1.000000X0.600000*%
%ADD22R,0.600000X0.620000*%
%ADD23R,0.620000X0.600000*%
%ADD24R,1.060000X0.650000*%
G04 APERTURE END LIST*
D10*
%TO.C,U101*%
G36*
X145930000Y-93191000D02*
G01*
X145930000Y-94743600D01*
X147482600Y-94743600D01*
X147482600Y-93191000D01*
X145930000Y-93191000D01*
G37*
X145930000Y-93191000D02*
X145930000Y-94743600D01*
X147482600Y-94743600D01*
X147482600Y-93191000D01*
X145930000Y-93191000D01*
G36*
X145930000Y-91438400D02*
G01*
X145930000Y-92991000D01*
X147482600Y-92991000D01*
X147482600Y-91438400D01*
X145930000Y-91438400D01*
G37*
X145930000Y-91438400D02*
X145930000Y-92991000D01*
X147482600Y-92991000D01*
X147482600Y-91438400D01*
X145930000Y-91438400D01*
G36*
X144177400Y-93191000D02*
G01*
X144177400Y-94743600D01*
X145730000Y-94743600D01*
X145730000Y-93191000D01*
X144177400Y-93191000D01*
G37*
X144177400Y-93191000D02*
X144177400Y-94743600D01*
X145730000Y-94743600D01*
X145730000Y-93191000D01*
X144177400Y-93191000D01*
G36*
X144177400Y-91438400D02*
G01*
X144177400Y-92991000D01*
X145730000Y-92991000D01*
X145730000Y-91438400D01*
X144177400Y-91438400D01*
G37*
X144177400Y-91438400D02*
X144177400Y-92991000D01*
X145730000Y-92991000D01*
X145730000Y-91438400D01*
X144177400Y-91438400D01*
%TD*%
%TO.C,LED211*%
G36*
X149930785Y-102217043D02*
G01*
X149684907Y-101299414D01*
X150554241Y-101066477D01*
X150800119Y-101984106D01*
X149930785Y-102217043D01*
G37*
G36*
X148385303Y-102631153D02*
G01*
X148139425Y-101713524D01*
X149008759Y-101480587D01*
X149254637Y-102398216D01*
X148385303Y-102631153D01*
G37*
%TD*%
D11*
%TO.C,U101*%
X143080000Y-88912700D03*
X143579999Y-88912700D03*
X144080001Y-88912700D03*
X144580000Y-88912700D03*
X145079999Y-88912700D03*
X145580000Y-88912700D03*
X146080000Y-88912700D03*
X146580001Y-88912700D03*
X147080000Y-88912700D03*
X147579999Y-88912700D03*
X148080001Y-88912700D03*
X148580000Y-88912700D03*
D12*
X150008300Y-90341000D03*
X150008300Y-90840999D03*
X150008300Y-91341001D03*
X150008300Y-91841000D03*
X150008300Y-92340999D03*
X150008300Y-92841000D03*
X150008300Y-93341000D03*
X150008300Y-93841001D03*
X150008300Y-94341000D03*
X150008300Y-94840999D03*
X150008300Y-95341001D03*
X150008300Y-95841000D03*
D11*
X148580000Y-97269300D03*
X148080001Y-97269300D03*
X147579999Y-97269300D03*
X147080000Y-97269300D03*
X146580001Y-97269300D03*
X146080000Y-97269300D03*
X145580000Y-97269300D03*
X145079999Y-97269300D03*
X144580000Y-97269300D03*
X144080001Y-97269300D03*
X143579999Y-97269300D03*
X143080000Y-97269300D03*
D12*
X141651700Y-95841000D03*
X141651700Y-95341001D03*
X141651700Y-94840999D03*
X141651700Y-94341000D03*
X141651700Y-93841001D03*
X141651700Y-93341000D03*
X141651700Y-92841000D03*
X141651700Y-92340999D03*
X141651700Y-91841000D03*
X141651700Y-91341001D03*
X141651700Y-90840999D03*
X141651700Y-90341000D03*
%TD*%
D10*
%TO.C,LED223*%
G36*
X141729215Y-74312957D02*
G01*
X141975093Y-75230586D01*
X141105759Y-75463523D01*
X140859881Y-74545894D01*
X141729215Y-74312957D01*
G37*
G36*
X143274697Y-73898847D02*
G01*
X143520575Y-74816476D01*
X142651241Y-75049413D01*
X142405363Y-74131784D01*
X143274697Y-73898847D01*
G37*
%TD*%
D13*
%TO.C,LED225*%
X147225000Y-86829000D03*
X144435000Y-86829000D03*
X147225000Y-85979000D03*
X144435000Y-85979000D03*
X147225000Y-85129000D03*
X144435000Y-85129000D03*
%TD*%
D14*
%TO.C,LED224*%
X145030000Y-74202000D03*
X146630000Y-74202000D03*
%TD*%
D10*
%TO.C,LED222*%
G36*
X138257891Y-75849723D02*
G01*
X138732891Y-76672447D01*
X137953469Y-77122447D01*
X137478469Y-76299723D01*
X138257891Y-75849723D01*
G37*
G36*
X139643531Y-75049723D02*
G01*
X140118531Y-75872447D01*
X139339109Y-76322447D01*
X138864109Y-75499723D01*
X139643531Y-75049723D01*
G37*
%TD*%
%TO.C,LED221*%
G36*
X135302594Y-78232568D02*
G01*
X135974346Y-78904320D01*
X135337950Y-79540716D01*
X134666198Y-78868964D01*
X135302594Y-78232568D01*
G37*
G36*
X136433964Y-77101198D02*
G01*
X137105716Y-77772950D01*
X136469320Y-78409346D01*
X135797568Y-77737594D01*
X136433964Y-77101198D01*
G37*
%TD*%
%TO.C,LED220*%
G36*
X133064723Y-81299109D02*
G01*
X133887447Y-81774109D01*
X133437447Y-82553531D01*
X132614723Y-82078531D01*
X133064723Y-81299109D01*
G37*
G36*
X133864723Y-79913469D02*
G01*
X134687447Y-80388469D01*
X134237447Y-81167891D01*
X133414723Y-80692891D01*
X133864723Y-79913469D01*
G37*
%TD*%
%TO.C,LED219*%
G36*
X131696784Y-84840363D02*
G01*
X132614413Y-85086241D01*
X132381476Y-85955575D01*
X131463847Y-85709697D01*
X131696784Y-84840363D01*
G37*
G36*
X132110894Y-83294881D02*
G01*
X133028523Y-83540759D01*
X132795586Y-84410093D01*
X131877957Y-84164215D01*
X132110894Y-83294881D01*
G37*
%TD*%
D15*
%TO.C,LED218*%
X131767000Y-89065000D03*
X131767000Y-87465000D03*
%TD*%
D10*
%TO.C,LED217*%
G36*
X131877957Y-92365785D02*
G01*
X132795586Y-92119907D01*
X133028523Y-92989241D01*
X132110894Y-93235119D01*
X131877957Y-92365785D01*
G37*
G36*
X131463847Y-90820303D02*
G01*
X132381476Y-90574425D01*
X132614413Y-91443759D01*
X131696784Y-91689637D01*
X131463847Y-90820303D01*
G37*
%TD*%
%TO.C,LED216*%
G36*
X133414723Y-95837109D02*
G01*
X134237447Y-95362109D01*
X134687447Y-96141531D01*
X133864723Y-96616531D01*
X133414723Y-95837109D01*
G37*
G36*
X132614723Y-94451469D02*
G01*
X133437447Y-93976469D01*
X133887447Y-94755891D01*
X133064723Y-95230891D01*
X132614723Y-94451469D01*
G37*
%TD*%
%TO.C,LED215*%
G36*
X135797568Y-98792406D02*
G01*
X136469320Y-98120654D01*
X137105716Y-98757050D01*
X136433964Y-99428802D01*
X135797568Y-98792406D01*
G37*
G36*
X134666198Y-97661036D02*
G01*
X135337950Y-96989284D01*
X135974346Y-97625680D01*
X135302594Y-98297432D01*
X134666198Y-97661036D01*
G37*
%TD*%
%TO.C,LED214*%
G36*
X138864109Y-101030277D02*
G01*
X139339109Y-100207553D01*
X140118531Y-100657553D01*
X139643531Y-101480277D01*
X138864109Y-101030277D01*
G37*
G36*
X137478469Y-100230277D02*
G01*
X137953469Y-99407553D01*
X138732891Y-99857553D01*
X138257891Y-100680277D01*
X137478469Y-100230277D01*
G37*
%TD*%
%TO.C,LED213*%
G36*
X142405363Y-102398216D02*
G01*
X142651241Y-101480587D01*
X143520575Y-101713524D01*
X143274697Y-102631153D01*
X142405363Y-102398216D01*
G37*
G36*
X140859881Y-101984106D02*
G01*
X141105759Y-101066477D01*
X141975093Y-101299414D01*
X141729215Y-102217043D01*
X140859881Y-101984106D01*
G37*
%TD*%
D14*
%TO.C,LED212*%
X146630000Y-102328000D03*
X145030000Y-102328000D03*
%TD*%
D10*
%TO.C,LED210*%
G36*
X153402109Y-100680277D02*
G01*
X152927109Y-99857553D01*
X153706531Y-99407553D01*
X154181531Y-100230277D01*
X153402109Y-100680277D01*
G37*
G36*
X152016469Y-101480277D02*
G01*
X151541469Y-100657553D01*
X152320891Y-100207553D01*
X152795891Y-101030277D01*
X152016469Y-101480277D01*
G37*
%TD*%
%TO.C,LED209*%
G36*
X156357406Y-98297432D02*
G01*
X155685654Y-97625680D01*
X156322050Y-96989284D01*
X156993802Y-97661036D01*
X156357406Y-98297432D01*
G37*
G36*
X155226036Y-99428802D02*
G01*
X154554284Y-98757050D01*
X155190680Y-98120654D01*
X155862432Y-98792406D01*
X155226036Y-99428802D01*
G37*
%TD*%
%TO.C,LED208*%
G36*
X158595277Y-95230891D02*
G01*
X157772553Y-94755891D01*
X158222553Y-93976469D01*
X159045277Y-94451469D01*
X158595277Y-95230891D01*
G37*
G36*
X157795277Y-96616531D02*
G01*
X156972553Y-96141531D01*
X157422553Y-95362109D01*
X158245277Y-95837109D01*
X157795277Y-96616531D01*
G37*
%TD*%
%TO.C,LED207*%
G36*
X159963216Y-91689637D02*
G01*
X159045587Y-91443759D01*
X159278524Y-90574425D01*
X160196153Y-90820303D01*
X159963216Y-91689637D01*
G37*
G36*
X159549106Y-93235119D02*
G01*
X158631477Y-92989241D01*
X158864414Y-92119907D01*
X159782043Y-92365785D01*
X159549106Y-93235119D01*
G37*
%TD*%
D15*
%TO.C,LED206*%
X159893000Y-87465000D03*
X159893000Y-89065000D03*
%TD*%
D10*
%TO.C,LED205*%
G36*
X159782043Y-84164215D02*
G01*
X158864414Y-84410093D01*
X158631477Y-83540759D01*
X159549106Y-83294881D01*
X159782043Y-84164215D01*
G37*
G36*
X160196153Y-85709697D02*
G01*
X159278524Y-85955575D01*
X159045587Y-85086241D01*
X159963216Y-84840363D01*
X160196153Y-85709697D01*
G37*
%TD*%
%TO.C,LED204*%
G36*
X158245277Y-80692891D02*
G01*
X157422553Y-81167891D01*
X156972553Y-80388469D01*
X157795277Y-79913469D01*
X158245277Y-80692891D01*
G37*
G36*
X159045277Y-82078531D02*
G01*
X158222553Y-82553531D01*
X157772553Y-81774109D01*
X158595277Y-81299109D01*
X159045277Y-82078531D01*
G37*
%TD*%
%TO.C,LED203*%
G36*
X155862432Y-77737594D02*
G01*
X155190680Y-78409346D01*
X154554284Y-77772950D01*
X155226036Y-77101198D01*
X155862432Y-77737594D01*
G37*
G36*
X156993802Y-78868964D02*
G01*
X156322050Y-79540716D01*
X155685654Y-78904320D01*
X156357406Y-78232568D01*
X156993802Y-78868964D01*
G37*
%TD*%
%TO.C,LED202*%
G36*
X152795891Y-75499723D02*
G01*
X152320891Y-76322447D01*
X151541469Y-75872447D01*
X152016469Y-75049723D01*
X152795891Y-75499723D01*
G37*
G36*
X154181531Y-76299723D02*
G01*
X153706531Y-77122447D01*
X152927109Y-76672447D01*
X153402109Y-75849723D01*
X154181531Y-76299723D01*
G37*
%TD*%
%TO.C,LED201*%
G36*
X149254637Y-74131784D02*
G01*
X149008759Y-75049413D01*
X148139425Y-74816476D01*
X148385303Y-73898847D01*
X149254637Y-74131784D01*
G37*
G36*
X150800119Y-74545894D02*
G01*
X150554241Y-75463523D01*
X149684907Y-75230586D01*
X149930785Y-74312957D01*
X150800119Y-74545894D01*
G37*
%TD*%
D15*
%TO.C,LED102*%
X136271000Y-90513000D03*
X136271000Y-92113000D03*
%TD*%
D14*
%TO.C,LED101*%
X152908000Y-81026000D03*
X151308000Y-81026000D03*
%TD*%
D16*
%TO.C,IC201*%
X139192000Y-85852000D03*
D17*
X141292000Y-84252000D03*
X141292000Y-84652000D03*
X141292000Y-85052000D03*
X141292000Y-85452000D03*
X141292000Y-85852000D03*
X141292000Y-86252000D03*
X141292000Y-86652000D03*
X141292000Y-87052000D03*
X141292000Y-87452000D03*
D18*
X140792000Y-87952000D03*
X140392000Y-87952000D03*
X139992000Y-87952000D03*
X139592000Y-87952000D03*
X139192000Y-87952000D03*
X138792000Y-87952000D03*
X138392000Y-87952000D03*
X137992000Y-87952000D03*
X137592000Y-87952000D03*
D17*
X137092000Y-87452000D03*
X137092000Y-87052000D03*
X137092000Y-86652000D03*
X137092000Y-86252000D03*
X137092000Y-85852000D03*
X137092000Y-85452000D03*
X137092000Y-85052000D03*
X137092000Y-84652000D03*
X137092000Y-84252000D03*
D18*
X137592000Y-83752000D03*
X137992000Y-83752000D03*
X138392000Y-83752000D03*
X138792000Y-83752000D03*
X139192000Y-83752000D03*
X139592000Y-83752000D03*
X139992000Y-83752000D03*
X140392000Y-83752000D03*
X140792000Y-83752000D03*
%TD*%
D19*
%TO.C,IC103*%
X139207000Y-93625000D03*
X137907000Y-93625000D03*
X137907000Y-90525000D03*
X139207000Y-90525000D03*
%TD*%
D20*
%TO.C,IC101*%
X151073000Y-86929000D03*
X151073000Y-85029000D03*
X153473000Y-85029000D03*
D21*
X153473000Y-85979000D03*
D20*
X153473000Y-86929000D03*
%TD*%
D22*
%TO.C,C107*%
X152552000Y-97282000D03*
X153472000Y-97282000D03*
%TD*%
D23*
%TO.C,C104*%
X148844000Y-86820000D03*
X148844000Y-85900000D03*
%TD*%
%TO.C,C103*%
X154940000Y-88471000D03*
X154940000Y-87551000D03*
%TD*%
%TO.C,C102*%
X157353000Y-91155000D03*
X157353000Y-92075000D03*
%TD*%
D22*
%TO.C,C101*%
X152860000Y-89154000D03*
X151940000Y-89154000D03*
%TD*%
%TO.C,R204*%
G36*
G01*
X141904500Y-81852000D02*
X141559500Y-81852000D01*
G75*
G02*
X141412000Y-81704500I0J147500D01*
G01*
X141412000Y-81409500D01*
G75*
G02*
X141559500Y-81262000I147500J0D01*
G01*
X141904500Y-81262000D01*
G75*
G02*
X142052000Y-81409500I0J-147500D01*
G01*
X142052000Y-81704500D01*
G75*
G02*
X141904500Y-81852000I-147500J0D01*
G01*
G37*
G36*
G01*
X141904500Y-82822000D02*
X141559500Y-82822000D01*
G75*
G02*
X141412000Y-82674500I0J147500D01*
G01*
X141412000Y-82379500D01*
G75*
G02*
X141559500Y-82232000I147500J0D01*
G01*
X141904500Y-82232000D01*
G75*
G02*
X142052000Y-82379500I0J-147500D01*
G01*
X142052000Y-82674500D01*
G75*
G02*
X141904500Y-82822000I-147500J0D01*
G01*
G37*
%TD*%
%TO.C,R114*%
G36*
G01*
X139024000Y-97454500D02*
X139024000Y-97109500D01*
G75*
G02*
X139171500Y-96962000I147500J0D01*
G01*
X139466500Y-96962000D01*
G75*
G02*
X139614000Y-97109500I0J-147500D01*
G01*
X139614000Y-97454500D01*
G75*
G02*
X139466500Y-97602000I-147500J0D01*
G01*
X139171500Y-97602000D01*
G75*
G02*
X139024000Y-97454500I0J147500D01*
G01*
G37*
G36*
G01*
X138054000Y-97454500D02*
X138054000Y-97109500D01*
G75*
G02*
X138201500Y-96962000I147500J0D01*
G01*
X138496500Y-96962000D01*
G75*
G02*
X138644000Y-97109500I0J-147500D01*
G01*
X138644000Y-97454500D01*
G75*
G02*
X138496500Y-97602000I-147500J0D01*
G01*
X138201500Y-97602000D01*
G75*
G02*
X138054000Y-97454500I0J147500D01*
G01*
G37*
%TD*%
%TO.C,R113*%
G36*
G01*
X138621000Y-95966500D02*
X138621000Y-96311500D01*
G75*
G02*
X138473500Y-96459000I-147500J0D01*
G01*
X138178500Y-96459000D01*
G75*
G02*
X138031000Y-96311500I0J147500D01*
G01*
X138031000Y-95966500D01*
G75*
G02*
X138178500Y-95819000I147500J0D01*
G01*
X138473500Y-95819000D01*
G75*
G02*
X138621000Y-95966500I0J-147500D01*
G01*
G37*
G36*
G01*
X139591000Y-95966500D02*
X139591000Y-96311500D01*
G75*
G02*
X139443500Y-96459000I-147500J0D01*
G01*
X139148500Y-96459000D01*
G75*
G02*
X139001000Y-96311500I0J147500D01*
G01*
X139001000Y-95966500D01*
G75*
G02*
X139148500Y-95819000I147500J0D01*
G01*
X139443500Y-95819000D01*
G75*
G02*
X139591000Y-95966500I0J-147500D01*
G01*
G37*
%TD*%
%TO.C,R106*%
G36*
G01*
X139001000Y-95168500D02*
X139001000Y-94823500D01*
G75*
G02*
X139148500Y-94676000I147500J0D01*
G01*
X139443500Y-94676000D01*
G75*
G02*
X139591000Y-94823500I0J-147500D01*
G01*
X139591000Y-95168500D01*
G75*
G02*
X139443500Y-95316000I-147500J0D01*
G01*
X139148500Y-95316000D01*
G75*
G02*
X139001000Y-95168500I0J147500D01*
G01*
G37*
G36*
G01*
X138031000Y-95168500D02*
X138031000Y-94823500D01*
G75*
G02*
X138178500Y-94676000I147500J0D01*
G01*
X138473500Y-94676000D01*
G75*
G02*
X138621000Y-94823500I0J-147500D01*
G01*
X138621000Y-95168500D01*
G75*
G02*
X138473500Y-95316000I-147500J0D01*
G01*
X138178500Y-95316000D01*
G75*
G02*
X138031000Y-95168500I0J147500D01*
G01*
G37*
%TD*%
%TO.C,R102*%
G36*
G01*
X153202000Y-95168500D02*
X153202000Y-94823500D01*
G75*
G02*
X153349500Y-94676000I147500J0D01*
G01*
X153644500Y-94676000D01*
G75*
G02*
X153792000Y-94823500I0J-147500D01*
G01*
X153792000Y-95168500D01*
G75*
G02*
X153644500Y-95316000I-147500J0D01*
G01*
X153349500Y-95316000D01*
G75*
G02*
X153202000Y-95168500I0J147500D01*
G01*
G37*
G36*
G01*
X152232000Y-95168500D02*
X152232000Y-94823500D01*
G75*
G02*
X152379500Y-94676000I147500J0D01*
G01*
X152674500Y-94676000D01*
G75*
G02*
X152822000Y-94823500I0J-147500D01*
G01*
X152822000Y-95168500D01*
G75*
G02*
X152674500Y-95316000I-147500J0D01*
G01*
X152379500Y-95316000D01*
G75*
G02*
X152232000Y-95168500I0J147500D01*
G01*
G37*
%TD*%
%TO.C,R101*%
G36*
G01*
X153202000Y-96311500D02*
X153202000Y-95966500D01*
G75*
G02*
X153349500Y-95819000I147500J0D01*
G01*
X153644500Y-95819000D01*
G75*
G02*
X153792000Y-95966500I0J-147500D01*
G01*
X153792000Y-96311500D01*
G75*
G02*
X153644500Y-96459000I-147500J0D01*
G01*
X153349500Y-96459000D01*
G75*
G02*
X153202000Y-96311500I0J147500D01*
G01*
G37*
G36*
G01*
X152232000Y-96311500D02*
X152232000Y-95966500D01*
G75*
G02*
X152379500Y-95819000I147500J0D01*
G01*
X152674500Y-95819000D01*
G75*
G02*
X152822000Y-95966500I0J-147500D01*
G01*
X152822000Y-96311500D01*
G75*
G02*
X152674500Y-96459000I-147500J0D01*
G01*
X152379500Y-96459000D01*
G75*
G02*
X152232000Y-96311500I0J147500D01*
G01*
G37*
%TD*%
D24*
%TO.C,U102*%
X151978000Y-93279000D03*
X151978000Y-91379000D03*
X154178000Y-91379000D03*
X154178000Y-92329000D03*
X154178000Y-93279000D03*
%TD*%
M02*
