M48
; DRILL file {KiCad (5.1.6)-1} date 04/08/23 18:44:29
; FORMAT={-:-/ absolute / metric / decimal}
; #@! TF.CreationDate,2023-04-08T18:44:29-07:00
; #@! TF.GenerationSoftware,Kicad,Pcbnew,(5.1.6)-1
FMAT,2
METRIC
T1C0.300
T2C0.650
%
G90
G05
T1
X134.874Y-87.503
X134.874Y-89.027
X134.874Y-90.17
X135.052Y-93.142
X135.509Y-81.026
X135.636Y-85.598
X135.636Y-86.487
X136.271Y-88.392
X136.906Y-96.114
X137.287Y-81.661
X137.541Y-88.773
X138.049Y-89.535
X138.379Y-86.614
X138.608Y-85.014
X139.014Y-91.745
X139.192Y-89.535
X140.018Y-86.652
X140.335Y-91.059
X140.437Y-92.507
X140.449Y-90.17
X140.564Y-96.749
X141.732Y-89.662
X141.859Y-96.901
X142.113Y-83.972
X142.24Y-86.106
X142.596Y-78.867
X142.748Y-85.344
X142.875Y-84.328
X142.977Y-76.733
X143.256Y-93.599
X143.383Y-95.758
X144.145Y-90.551
X145.542Y-85.852
X145.821Y-93.091
X146.812Y-90.918
X147.701Y-102.235
X148.387Y-76.733
X148.463Y-90.932
X149.86Y-85.852
X149.86Y-96.901
X151.105Y-97.231
X151.257Y-75.057
X151.257Y-101.346
X151.511Y-83.947
X152.908Y-92.329
X153.06Y-94.005
X153.111Y-90.322
X154.432Y-76.962
X154.432Y-99.441
X155.169Y-97.587
X155.575Y-80.264
X156.972Y-96.774
X157.064Y-79.629
X157.404Y-84.963
X158.877Y-93.599
X159.004Y-82.804
X159.893Y-86.36
X159.893Y-90.043
T2
X155.702Y-84.709
X155.702Y-85.979
X157.734Y-86.614
X157.734Y-89.789
X155.702Y-90.424
X155.702Y-91.694
T0
M30
