%TF.GenerationSoftware,KiCad,Pcbnew,(5.1.6)-1*%
%TF.CreationDate,2023-04-08T18:44:15-07:00*%
%TF.ProjectId,Watch,57617463-682e-46b6-9963-61645f706362,rev?*%
%TF.SameCoordinates,Original*%
%TF.FileFunction,Copper,L1,Top*%
%TF.FilePolarity,Positive*%
%FSLAX46Y46*%
G04 Gerber Fmt 4.6, Leading zero omitted, Abs format (unit mm)*
G04 Created by KiCad (PCBNEW (5.1.6)-1) date 2023-04-08 18:44:15*
%MOMM*%
%LPD*%
G01*
G04 APERTURE LIST*
%TA.AperFunction,SMDPad,CuDef*%
%ADD10C,0.100000*%
%TD*%
%TA.AperFunction,SMDPad,CuDef*%
%ADD11R,3.505200X3.505200*%
%TD*%
%TA.AperFunction,SMDPad,CuDef*%
%ADD12R,0.279400X1.346200*%
%TD*%
%TA.AperFunction,SMDPad,CuDef*%
%ADD13R,1.346200X0.279400*%
%TD*%
%TA.AperFunction,SMDPad,CuDef*%
%ADD14R,0.890000X0.550000*%
%TD*%
%TA.AperFunction,SMDPad,CuDef*%
%ADD15R,0.900000X0.950000*%
%TD*%
%TA.AperFunction,SMDPad,CuDef*%
%ADD16R,0.950000X0.900000*%
%TD*%
%TA.AperFunction,SMDPad,CuDef*%
%ADD17R,2.650000X2.650000*%
%TD*%
%TA.AperFunction,SMDPad,CuDef*%
%ADD18R,0.550000X0.200000*%
%TD*%
%TA.AperFunction,SMDPad,CuDef*%
%ADD19R,0.200000X0.550000*%
%TD*%
%TA.AperFunction,SMDPad,CuDef*%
%ADD20R,0.800000X0.800000*%
%TD*%
%TA.AperFunction,SMDPad,CuDef*%
%ADD21R,1.000000X0.800000*%
%TD*%
%TA.AperFunction,SMDPad,CuDef*%
%ADD22R,1.000000X0.600000*%
%TD*%
%TA.AperFunction,SMDPad,CuDef*%
%ADD23R,0.600000X0.620000*%
%TD*%
%TA.AperFunction,SMDPad,CuDef*%
%ADD24R,0.620000X0.600000*%
%TD*%
%TA.AperFunction,ComponentPad*%
%ADD25R,1.000000X1.000000*%
%TD*%
%TA.AperFunction,ComponentPad*%
%ADD26O,1.000000X1.000000*%
%TD*%
%TA.AperFunction,SMDPad,CuDef*%
%ADD27R,1.060000X0.650000*%
%TD*%
%TA.AperFunction,ViaPad*%
%ADD28C,0.540000*%
%TD*%
%TA.AperFunction,ViaPad*%
%ADD29C,0.500000*%
%TD*%
%TA.AperFunction,Conductor*%
%ADD30C,0.150000*%
%TD*%
%TA.AperFunction,Conductor*%
%ADD31C,0.250000*%
%TD*%
%TA.AperFunction,Conductor*%
%ADD32C,0.200000*%
%TD*%
G04 APERTURE END LIST*
%TA.AperFunction,SMDPad,CuDef*%
D10*
%TO.P,LED211,2*%
%TO.N,+3V3*%
G36*
X149930785Y-102217043D02*
G01*
X149684907Y-101299414D01*
X150554241Y-101066477D01*
X150800119Y-101984106D01*
X149930785Y-102217043D01*
G37*
%TD.AperFunction*%
%TA.AperFunction,SMDPad,CuDef*%
%TO.P,LED211,1*%
%TO.N,/leds/OUT14*%
G36*
X148385303Y-102631153D02*
G01*
X148139425Y-101713524D01*
X149008759Y-101480587D01*
X149254637Y-102398216D01*
X148385303Y-102631153D01*
G37*
%TD.AperFunction*%
%TD*%
D11*
%TO.P,U101,EPAD*%
%TO.N,GND*%
X145830000Y-93091000D03*
D12*
%TO.P,U101,48*%
X143080000Y-88912700D03*
%TO.P,U101,47*%
%TO.N,Net-(U101-Pad47)*%
X143579999Y-88912700D03*
%TO.P,U101,46*%
%TO.N,Net-(U101-Pad46)*%
X144080001Y-88912700D03*
%TO.P,U101,45*%
%TO.N,+3V3*%
X144580000Y-88912700D03*
%TO.P,U101,44*%
%TO.N,/JTAG_TDI*%
X145079999Y-88912700D03*
%TO.P,U101,43*%
%TO.N,/JTAG_TDO*%
X145580000Y-88912700D03*
%TO.P,U101,42*%
%TO.N,/SCL*%
X146080000Y-88912700D03*
%TO.P,U101,41*%
%TO.N,/SDA*%
X146580001Y-88912700D03*
%TO.P,U101,40*%
%TO.N,+3V3*%
X147080000Y-88912700D03*
%TO.P,U101,39*%
%TO.N,/SDB*%
X147579999Y-88912700D03*
%TO.P,U101,38*%
%TO.N,Net-(U101-Pad38)*%
X148080001Y-88912700D03*
%TO.P,U101,37*%
%TO.N,Net-(U101-Pad37)*%
X148580000Y-88912700D03*
D13*
%TO.P,U101,36*%
%TO.N,/SW1*%
X150008300Y-90341000D03*
%TO.P,U101,35*%
%TO.N,/SW2*%
X150008300Y-90840999D03*
%TO.P,U101,34*%
%TO.N,Net-(U101-Pad34)*%
X150008300Y-91341001D03*
%TO.P,U101,33*%
%TO.N,Net-(U101-Pad33)*%
X150008300Y-91841000D03*
%TO.P,U101,32*%
%TO.N,Net-(U101-Pad32)*%
X150008300Y-92340999D03*
%TO.P,U101,31*%
%TO.N,Net-(U101-Pad31)*%
X150008300Y-92841000D03*
%TO.P,U101,30*%
%TO.N,Net-(U101-Pad30)*%
X150008300Y-93341000D03*
%TO.P,U101,29*%
%TO.N,+3V3*%
X150008300Y-93841001D03*
%TO.P,U101,28*%
%TO.N,GND*%
X150008300Y-94341000D03*
%TO.P,U101,27*%
%TO.N,Net-(U101-Pad27)*%
X150008300Y-94840999D03*
%TO.P,U101,26*%
%TO.N,Net-(U101-Pad26)*%
X150008300Y-95341001D03*
%TO.P,U101,25*%
%TO.N,Net-(U101-Pad25)*%
X150008300Y-95841000D03*
D12*
%TO.P,U101,24*%
%TO.N,Net-(U101-Pad24)*%
X148580000Y-97269300D03*
%TO.P,U101,23*%
%TO.N,Net-(U101-Pad23)*%
X148080001Y-97269300D03*
%TO.P,U101,22*%
%TO.N,Net-(U101-Pad22)*%
X147579999Y-97269300D03*
%TO.P,U101,21*%
%TO.N,Net-(U101-Pad21)*%
X147080000Y-97269300D03*
%TO.P,U101,20*%
%TO.N,Net-(U101-Pad20)*%
X146580001Y-97269300D03*
%TO.P,U101,19*%
%TO.N,+3V3*%
X146080000Y-97269300D03*
%TO.P,U101,18*%
X145580000Y-97269300D03*
%TO.P,U101,17*%
%TO.N,GND*%
X145079999Y-97269300D03*
%TO.P,U101,16*%
%TO.N,Net-(U101-Pad16)*%
X144580000Y-97269300D03*
%TO.P,U101,15*%
%TO.N,Net-(U101-Pad15)*%
X144080001Y-97269300D03*
%TO.P,U101,14*%
%TO.N,Net-(U101-Pad14)*%
X143579999Y-97269300D03*
%TO.P,U101,13*%
%TO.N,Net-(U101-Pad13)*%
X143080000Y-97269300D03*
D13*
%TO.P,U101,12*%
%TO.N,/BattSns*%
X141651700Y-95841000D03*
%TO.P,U101,11*%
%TO.N,/vLUX*%
X141651700Y-95341001D03*
%TO.P,U101,10*%
%TO.N,/JTAG_TMS*%
X141651700Y-94840999D03*
%TO.P,U101,9*%
%TO.N,/JTAG_TCK*%
X141651700Y-94341000D03*
%TO.P,U101,8*%
%TO.N,+3V3*%
X141651700Y-93841001D03*
%TO.P,U101,7*%
%TO.N,+1V8*%
X141651700Y-93341000D03*
%TO.P,U101,6*%
%TO.N,GND*%
X141651700Y-92841000D03*
%TO.P,U101,5*%
%TO.N,Net-(U101-Pad5)*%
X141651700Y-92340999D03*
%TO.P,U101,4*%
%TO.N,/JTAG_RESET*%
X141651700Y-91841000D03*
%TO.P,U101,3*%
%TO.N,/LED_STAT*%
X141651700Y-91341001D03*
%TO.P,U101,2*%
%TO.N,Net-(U101-Pad2)*%
X141651700Y-90840999D03*
%TO.P,U101,1*%
%TO.N,Net-(U101-Pad1)*%
X141651700Y-90341000D03*
%TD*%
%TA.AperFunction,SMDPad,CuDef*%
D10*
%TO.P,LED223,2*%
%TO.N,+3V3*%
G36*
X141729215Y-74312957D02*
G01*
X141975093Y-75230586D01*
X141105759Y-75463523D01*
X140859881Y-74545894D01*
X141729215Y-74312957D01*
G37*
%TD.AperFunction*%
%TA.AperFunction,SMDPad,CuDef*%
%TO.P,LED223,1*%
%TO.N,/leds/OUT2*%
G36*
X143274697Y-73898847D02*
G01*
X143520575Y-74816476D01*
X142651241Y-75049413D01*
X142405363Y-74131784D01*
X143274697Y-73898847D01*
G37*
%TD.AperFunction*%
%TD*%
D14*
%TO.P,LED225,6*%
%TO.N,+3V3*%
X147225000Y-86829000D03*
%TO.P,LED225,5*%
%TO.N,/leds/OUT25*%
X144435000Y-86829000D03*
%TO.P,LED225,4*%
%TO.N,+3V3*%
X147225000Y-85979000D03*
%TO.P,LED225,3*%
%TO.N,/leds/OUT26*%
X144435000Y-85979000D03*
%TO.P,LED225,2*%
%TO.N,+3V3*%
X147225000Y-85129000D03*
%TO.P,LED225,1*%
%TO.N,/leds/OUT27*%
X144435000Y-85129000D03*
%TD*%
D15*
%TO.P,LED224,2*%
%TO.N,+3V3*%
X145030000Y-74202000D03*
%TO.P,LED224,1*%
%TO.N,/leds/OUT1*%
X146630000Y-74202000D03*
%TD*%
%TA.AperFunction,SMDPad,CuDef*%
D10*
%TO.P,LED222,2*%
%TO.N,+3V3*%
G36*
X138257891Y-75849723D02*
G01*
X138732891Y-76672447D01*
X137953469Y-77122447D01*
X137478469Y-76299723D01*
X138257891Y-75849723D01*
G37*
%TD.AperFunction*%
%TA.AperFunction,SMDPad,CuDef*%
%TO.P,LED222,1*%
%TO.N,/leds/OUT3*%
G36*
X139643531Y-75049723D02*
G01*
X140118531Y-75872447D01*
X139339109Y-76322447D01*
X138864109Y-75499723D01*
X139643531Y-75049723D01*
G37*
%TD.AperFunction*%
%TD*%
%TA.AperFunction,SMDPad,CuDef*%
%TO.P,LED221,2*%
%TO.N,+3V3*%
G36*
X135302594Y-78232568D02*
G01*
X135974346Y-78904320D01*
X135337950Y-79540716D01*
X134666198Y-78868964D01*
X135302594Y-78232568D01*
G37*
%TD.AperFunction*%
%TA.AperFunction,SMDPad,CuDef*%
%TO.P,LED221,1*%
%TO.N,/leds/OUT4*%
G36*
X136433964Y-77101198D02*
G01*
X137105716Y-77772950D01*
X136469320Y-78409346D01*
X135797568Y-77737594D01*
X136433964Y-77101198D01*
G37*
%TD.AperFunction*%
%TD*%
%TA.AperFunction,SMDPad,CuDef*%
%TO.P,LED220,2*%
%TO.N,+3V3*%
G36*
X133064723Y-81299109D02*
G01*
X133887447Y-81774109D01*
X133437447Y-82553531D01*
X132614723Y-82078531D01*
X133064723Y-81299109D01*
G37*
%TD.AperFunction*%
%TA.AperFunction,SMDPad,CuDef*%
%TO.P,LED220,1*%
%TO.N,/leds/OUT5*%
G36*
X133864723Y-79913469D02*
G01*
X134687447Y-80388469D01*
X134237447Y-81167891D01*
X133414723Y-80692891D01*
X133864723Y-79913469D01*
G37*
%TD.AperFunction*%
%TD*%
%TA.AperFunction,SMDPad,CuDef*%
%TO.P,LED219,2*%
%TO.N,+3V3*%
G36*
X131696784Y-84840363D02*
G01*
X132614413Y-85086241D01*
X132381476Y-85955575D01*
X131463847Y-85709697D01*
X131696784Y-84840363D01*
G37*
%TD.AperFunction*%
%TA.AperFunction,SMDPad,CuDef*%
%TO.P,LED219,1*%
%TO.N,/leds/OUT6*%
G36*
X132110894Y-83294881D02*
G01*
X133028523Y-83540759D01*
X132795586Y-84410093D01*
X131877957Y-84164215D01*
X132110894Y-83294881D01*
G37*
%TD.AperFunction*%
%TD*%
D16*
%TO.P,LED218,2*%
%TO.N,+3V3*%
X131767000Y-89065000D03*
%TO.P,LED218,1*%
%TO.N,/leds/OUT7*%
X131767000Y-87465000D03*
%TD*%
%TA.AperFunction,SMDPad,CuDef*%
D10*
%TO.P,LED217,2*%
%TO.N,+3V3*%
G36*
X131877957Y-92365785D02*
G01*
X132795586Y-92119907D01*
X133028523Y-92989241D01*
X132110894Y-93235119D01*
X131877957Y-92365785D01*
G37*
%TD.AperFunction*%
%TA.AperFunction,SMDPad,CuDef*%
%TO.P,LED217,1*%
%TO.N,/leds/OUT8*%
G36*
X131463847Y-90820303D02*
G01*
X132381476Y-90574425D01*
X132614413Y-91443759D01*
X131696784Y-91689637D01*
X131463847Y-90820303D01*
G37*
%TD.AperFunction*%
%TD*%
%TA.AperFunction,SMDPad,CuDef*%
%TO.P,LED216,2*%
%TO.N,+3V3*%
G36*
X133414723Y-95837109D02*
G01*
X134237447Y-95362109D01*
X134687447Y-96141531D01*
X133864723Y-96616531D01*
X133414723Y-95837109D01*
G37*
%TD.AperFunction*%
%TA.AperFunction,SMDPad,CuDef*%
%TO.P,LED216,1*%
%TO.N,/leds/OUT9*%
G36*
X132614723Y-94451469D02*
G01*
X133437447Y-93976469D01*
X133887447Y-94755891D01*
X133064723Y-95230891D01*
X132614723Y-94451469D01*
G37*
%TD.AperFunction*%
%TD*%
%TA.AperFunction,SMDPad,CuDef*%
%TO.P,LED215,2*%
%TO.N,+3V3*%
G36*
X135797568Y-98792406D02*
G01*
X136469320Y-98120654D01*
X137105716Y-98757050D01*
X136433964Y-99428802D01*
X135797568Y-98792406D01*
G37*
%TD.AperFunction*%
%TA.AperFunction,SMDPad,CuDef*%
%TO.P,LED215,1*%
%TO.N,/leds/OUT10*%
G36*
X134666198Y-97661036D02*
G01*
X135337950Y-96989284D01*
X135974346Y-97625680D01*
X135302594Y-98297432D01*
X134666198Y-97661036D01*
G37*
%TD.AperFunction*%
%TD*%
%TA.AperFunction,SMDPad,CuDef*%
%TO.P,LED214,2*%
%TO.N,+3V3*%
G36*
X138864109Y-101030277D02*
G01*
X139339109Y-100207553D01*
X140118531Y-100657553D01*
X139643531Y-101480277D01*
X138864109Y-101030277D01*
G37*
%TD.AperFunction*%
%TA.AperFunction,SMDPad,CuDef*%
%TO.P,LED214,1*%
%TO.N,/leds/OUT11*%
G36*
X137478469Y-100230277D02*
G01*
X137953469Y-99407553D01*
X138732891Y-99857553D01*
X138257891Y-100680277D01*
X137478469Y-100230277D01*
G37*
%TD.AperFunction*%
%TD*%
%TA.AperFunction,SMDPad,CuDef*%
%TO.P,LED213,2*%
%TO.N,+3V3*%
G36*
X142405363Y-102398216D02*
G01*
X142651241Y-101480587D01*
X143520575Y-101713524D01*
X143274697Y-102631153D01*
X142405363Y-102398216D01*
G37*
%TD.AperFunction*%
%TA.AperFunction,SMDPad,CuDef*%
%TO.P,LED213,1*%
%TO.N,/leds/OUT12*%
G36*
X140859881Y-101984106D02*
G01*
X141105759Y-101066477D01*
X141975093Y-101299414D01*
X141729215Y-102217043D01*
X140859881Y-101984106D01*
G37*
%TD.AperFunction*%
%TD*%
D15*
%TO.P,LED212,2*%
%TO.N,+3V3*%
X146630000Y-102328000D03*
%TO.P,LED212,1*%
%TO.N,/leds/OUT13*%
X145030000Y-102328000D03*
%TD*%
%TA.AperFunction,SMDPad,CuDef*%
D10*
%TO.P,LED210,2*%
%TO.N,+3V3*%
G36*
X153402109Y-100680277D02*
G01*
X152927109Y-99857553D01*
X153706531Y-99407553D01*
X154181531Y-100230277D01*
X153402109Y-100680277D01*
G37*
%TD.AperFunction*%
%TA.AperFunction,SMDPad,CuDef*%
%TO.P,LED210,1*%
%TO.N,/leds/OUT15*%
G36*
X152016469Y-101480277D02*
G01*
X151541469Y-100657553D01*
X152320891Y-100207553D01*
X152795891Y-101030277D01*
X152016469Y-101480277D01*
G37*
%TD.AperFunction*%
%TD*%
%TA.AperFunction,SMDPad,CuDef*%
%TO.P,LED209,2*%
%TO.N,+3V3*%
G36*
X156357406Y-98297432D02*
G01*
X155685654Y-97625680D01*
X156322050Y-96989284D01*
X156993802Y-97661036D01*
X156357406Y-98297432D01*
G37*
%TD.AperFunction*%
%TA.AperFunction,SMDPad,CuDef*%
%TO.P,LED209,1*%
%TO.N,/leds/OUT16*%
G36*
X155226036Y-99428802D02*
G01*
X154554284Y-98757050D01*
X155190680Y-98120654D01*
X155862432Y-98792406D01*
X155226036Y-99428802D01*
G37*
%TD.AperFunction*%
%TD*%
%TA.AperFunction,SMDPad,CuDef*%
%TO.P,LED208,2*%
%TO.N,+3V3*%
G36*
X158595277Y-95230891D02*
G01*
X157772553Y-94755891D01*
X158222553Y-93976469D01*
X159045277Y-94451469D01*
X158595277Y-95230891D01*
G37*
%TD.AperFunction*%
%TA.AperFunction,SMDPad,CuDef*%
%TO.P,LED208,1*%
%TO.N,/leds/OUT17*%
G36*
X157795277Y-96616531D02*
G01*
X156972553Y-96141531D01*
X157422553Y-95362109D01*
X158245277Y-95837109D01*
X157795277Y-96616531D01*
G37*
%TD.AperFunction*%
%TD*%
%TA.AperFunction,SMDPad,CuDef*%
%TO.P,LED207,2*%
%TO.N,+3V3*%
G36*
X159963216Y-91689637D02*
G01*
X159045587Y-91443759D01*
X159278524Y-90574425D01*
X160196153Y-90820303D01*
X159963216Y-91689637D01*
G37*
%TD.AperFunction*%
%TA.AperFunction,SMDPad,CuDef*%
%TO.P,LED207,1*%
%TO.N,/leds/OUT18*%
G36*
X159549106Y-93235119D02*
G01*
X158631477Y-92989241D01*
X158864414Y-92119907D01*
X159782043Y-92365785D01*
X159549106Y-93235119D01*
G37*
%TD.AperFunction*%
%TD*%
D16*
%TO.P,LED206,2*%
%TO.N,+3V3*%
X159893000Y-87465000D03*
%TO.P,LED206,1*%
%TO.N,/leds/OUT19*%
X159893000Y-89065000D03*
%TD*%
%TA.AperFunction,SMDPad,CuDef*%
D10*
%TO.P,LED205,2*%
%TO.N,+3V3*%
G36*
X159782043Y-84164215D02*
G01*
X158864414Y-84410093D01*
X158631477Y-83540759D01*
X159549106Y-83294881D01*
X159782043Y-84164215D01*
G37*
%TD.AperFunction*%
%TA.AperFunction,SMDPad,CuDef*%
%TO.P,LED205,1*%
%TO.N,/leds/OUT20*%
G36*
X160196153Y-85709697D02*
G01*
X159278524Y-85955575D01*
X159045587Y-85086241D01*
X159963216Y-84840363D01*
X160196153Y-85709697D01*
G37*
%TD.AperFunction*%
%TD*%
%TA.AperFunction,SMDPad,CuDef*%
%TO.P,LED204,2*%
%TO.N,+3V3*%
G36*
X158245277Y-80692891D02*
G01*
X157422553Y-81167891D01*
X156972553Y-80388469D01*
X157795277Y-79913469D01*
X158245277Y-80692891D01*
G37*
%TD.AperFunction*%
%TA.AperFunction,SMDPad,CuDef*%
%TO.P,LED204,1*%
%TO.N,/leds/OUT21*%
G36*
X159045277Y-82078531D02*
G01*
X158222553Y-82553531D01*
X157772553Y-81774109D01*
X158595277Y-81299109D01*
X159045277Y-82078531D01*
G37*
%TD.AperFunction*%
%TD*%
%TA.AperFunction,SMDPad,CuDef*%
%TO.P,LED203,2*%
%TO.N,+3V3*%
G36*
X155862432Y-77737594D02*
G01*
X155190680Y-78409346D01*
X154554284Y-77772950D01*
X155226036Y-77101198D01*
X155862432Y-77737594D01*
G37*
%TD.AperFunction*%
%TA.AperFunction,SMDPad,CuDef*%
%TO.P,LED203,1*%
%TO.N,/leds/OUT22*%
G36*
X156993802Y-78868964D02*
G01*
X156322050Y-79540716D01*
X155685654Y-78904320D01*
X156357406Y-78232568D01*
X156993802Y-78868964D01*
G37*
%TD.AperFunction*%
%TD*%
%TA.AperFunction,SMDPad,CuDef*%
%TO.P,LED202,2*%
%TO.N,+3V3*%
G36*
X152795891Y-75499723D02*
G01*
X152320891Y-76322447D01*
X151541469Y-75872447D01*
X152016469Y-75049723D01*
X152795891Y-75499723D01*
G37*
%TD.AperFunction*%
%TA.AperFunction,SMDPad,CuDef*%
%TO.P,LED202,1*%
%TO.N,/leds/OUT23*%
G36*
X154181531Y-76299723D02*
G01*
X153706531Y-77122447D01*
X152927109Y-76672447D01*
X153402109Y-75849723D01*
X154181531Y-76299723D01*
G37*
%TD.AperFunction*%
%TD*%
%TA.AperFunction,SMDPad,CuDef*%
%TO.P,LED201,2*%
%TO.N,+3V3*%
G36*
X149254637Y-74131784D02*
G01*
X149008759Y-75049413D01*
X148139425Y-74816476D01*
X148385303Y-73898847D01*
X149254637Y-74131784D01*
G37*
%TD.AperFunction*%
%TA.AperFunction,SMDPad,CuDef*%
%TO.P,LED201,1*%
%TO.N,/leds/OUT24*%
G36*
X150800119Y-74545894D02*
G01*
X150554241Y-75463523D01*
X149684907Y-75230586D01*
X149930785Y-74312957D01*
X150800119Y-74545894D01*
G37*
%TD.AperFunction*%
%TD*%
D16*
%TO.P,LED102,2*%
%TO.N,+3V3*%
X136271000Y-90513000D03*
%TO.P,LED102,1*%
%TO.N,/LED_STAT*%
X136271000Y-92113000D03*
%TD*%
D15*
%TO.P,LED101,2*%
%TO.N,+5V*%
X152908000Y-81026000D03*
%TO.P,LED101,1*%
%TO.N,Net-(LED101-Pad1)*%
X151308000Y-81026000D03*
%TD*%
D17*
%TO.P,IC201,37*%
%TO.N,GND*%
X139192000Y-85852000D03*
D18*
%TO.P,IC201,36*%
%TO.N,/leds/OUT1*%
X141292000Y-84252000D03*
%TO.P,IC201,35*%
%TO.N,/SCL*%
X141292000Y-84652000D03*
%TO.P,IC201,34*%
%TO.N,/SDA*%
X141292000Y-85052000D03*
%TO.P,IC201,33*%
%TO.N,Net-(IC201-Pad33)*%
X141292000Y-85452000D03*
%TO.P,IC201,32*%
%TO.N,GND*%
X141292000Y-85852000D03*
%TO.P,IC201,31*%
%TO.N,+3V3*%
X141292000Y-86252000D03*
%TO.P,IC201,30*%
%TO.N,GND*%
X141292000Y-86652000D03*
%TO.P,IC201,29*%
%TO.N,/SDB*%
X141292000Y-87052000D03*
%TO.P,IC201,28*%
%TO.N,/leds/OUT28*%
X141292000Y-87452000D03*
D19*
%TO.P,IC201,27*%
%TO.N,/leds/OUT27*%
X140792000Y-87952000D03*
%TO.P,IC201,26*%
%TO.N,/leds/OUT26*%
X140392000Y-87952000D03*
%TO.P,IC201,25*%
%TO.N,/leds/OUT25*%
X139992000Y-87952000D03*
%TO.P,IC201,24*%
%TO.N,/leds/OUT24*%
X139592000Y-87952000D03*
%TO.P,IC201,23*%
%TO.N,/leds/OUT23*%
X139192000Y-87952000D03*
%TO.P,IC201,22*%
%TO.N,/leds/OUT22*%
X138792000Y-87952000D03*
%TO.P,IC201,21*%
%TO.N,/leds/OUT21*%
X138392000Y-87952000D03*
%TO.P,IC201,20*%
%TO.N,/leds/OUT20*%
X137992000Y-87952000D03*
%TO.P,IC201,19*%
%TO.N,/leds/OUT19*%
X137592000Y-87952000D03*
D18*
%TO.P,IC201,18*%
%TO.N,/leds/OUT18*%
X137092000Y-87452000D03*
%TO.P,IC201,17*%
%TO.N,/leds/OUT17*%
X137092000Y-87052000D03*
%TO.P,IC201,16*%
%TO.N,/leds/OUT16*%
X137092000Y-86652000D03*
%TO.P,IC201,15*%
%TO.N,/leds/OUT15*%
X137092000Y-86252000D03*
%TO.P,IC201,14*%
%TO.N,GND*%
X137092000Y-85852000D03*
%TO.P,IC201,13*%
%TO.N,/leds/OUT14*%
X137092000Y-85452000D03*
%TO.P,IC201,12*%
%TO.N,/leds/OUT13*%
X137092000Y-85052000D03*
%TO.P,IC201,11*%
%TO.N,/leds/OUT12*%
X137092000Y-84652000D03*
%TO.P,IC201,10*%
%TO.N,/leds/OUT11*%
X137092000Y-84252000D03*
D19*
%TO.P,IC201,9*%
%TO.N,/leds/OUT10*%
X137592000Y-83752000D03*
%TO.P,IC201,8*%
%TO.N,/leds/OUT9*%
X137992000Y-83752000D03*
%TO.P,IC201,7*%
%TO.N,/leds/OUT8*%
X138392000Y-83752000D03*
%TO.P,IC201,6*%
%TO.N,/leds/OUT7*%
X138792000Y-83752000D03*
%TO.P,IC201,5*%
%TO.N,/leds/OUT6*%
X139192000Y-83752000D03*
%TO.P,IC201,4*%
%TO.N,/leds/OUT5*%
X139592000Y-83752000D03*
%TO.P,IC201,3*%
%TO.N,/leds/OUT4*%
X139992000Y-83752000D03*
%TO.P,IC201,2*%
%TO.N,/leds/OUT3*%
X140392000Y-83752000D03*
%TO.P,IC201,1*%
%TO.N,/leds/OUT2*%
X140792000Y-83752000D03*
%TD*%
D20*
%TO.P,IC103,4*%
%TO.N,/vLUX*%
X139207000Y-93625000D03*
%TO.P,IC103,3*%
%TO.N,+3V3*%
X137907000Y-93625000D03*
%TO.P,IC103,2*%
%TO.N,GND*%
X137907000Y-90525000D03*
%TO.P,IC103,1*%
X139207000Y-90525000D03*
%TD*%
D21*
%TO.P,IC101,5*%
%TO.N,+3V3*%
X151073000Y-86929000D03*
%TO.P,IC101,4*%
%TO.N,Net-(IC101-Pad4)*%
X151073000Y-85029000D03*
%TO.P,IC101,3*%
%TO.N,+BATT*%
X153473000Y-85029000D03*
D22*
%TO.P,IC101,2*%
%TO.N,GND*%
X153473000Y-85979000D03*
D21*
%TO.P,IC101,1*%
%TO.N,+BATT*%
X153473000Y-86929000D03*
%TD*%
D23*
%TO.P,C107,2*%
%TO.N,+3V3*%
X152552000Y-97282000D03*
%TO.P,C107,1*%
%TO.N,GND*%
X153472000Y-97282000D03*
%TD*%
D24*
%TO.P,C104,2*%
%TO.N,+3V3*%
X148844000Y-86820000D03*
%TO.P,C104,1*%
%TO.N,GND*%
X148844000Y-85900000D03*
%TD*%
%TO.P,C103,2*%
%TO.N,+BATT*%
X154940000Y-88471000D03*
%TO.P,C103,1*%
%TO.N,GND*%
X154940000Y-87551000D03*
%TD*%
%TO.P,C102,2*%
%TO.N,+BATT*%
X157353000Y-91155000D03*
%TO.P,C102,1*%
%TO.N,GND*%
X157353000Y-92075000D03*
%TD*%
D23*
%TO.P,C101,2*%
%TO.N,+5V*%
X151940000Y-89154000D03*
%TO.P,C101,1*%
%TO.N,GND*%
X152860000Y-89154000D03*
%TD*%
%TO.P,R204,2*%
%TO.N,GND*%
%TA.AperFunction,SMDPad,CuDef*%
G36*
G01*
X141904500Y-81852000D02*
X141559500Y-81852000D01*
G75*
G02*
X141412000Y-81704500I0J147500D01*
G01*
X141412000Y-81409500D01*
G75*
G02*
X141559500Y-81262000I147500J0D01*
G01*
X141904500Y-81262000D01*
G75*
G02*
X142052000Y-81409500I0J-147500D01*
G01*
X142052000Y-81704500D01*
G75*
G02*
X141904500Y-81852000I-147500J0D01*
G01*
G37*
%TD.AperFunction*%
%TO.P,R204,1*%
%TO.N,/SDB*%
%TA.AperFunction,SMDPad,CuDef*%
G36*
G01*
X141904500Y-82822000D02*
X141559500Y-82822000D01*
G75*
G02*
X141412000Y-82674500I0J147500D01*
G01*
X141412000Y-82379500D01*
G75*
G02*
X141559500Y-82232000I147500J0D01*
G01*
X141904500Y-82232000D01*
G75*
G02*
X142052000Y-82379500I0J-147500D01*
G01*
X142052000Y-82674500D01*
G75*
G02*
X141904500Y-82822000I-147500J0D01*
G01*
G37*
%TD.AperFunction*%
%TD*%
%TO.P,R114,2*%
%TO.N,/BattSns*%
%TA.AperFunction,SMDPad,CuDef*%
G36*
G01*
X139026400Y-95930500D02*
X139026400Y-95585500D01*
G75*
G02*
X139173900Y-95438000I147500J0D01*
G01*
X139468900Y-95438000D01*
G75*
G02*
X139616400Y-95585500I0J-147500D01*
G01*
X139616400Y-95930500D01*
G75*
G02*
X139468900Y-96078000I-147500J0D01*
G01*
X139173900Y-96078000D01*
G75*
G02*
X139026400Y-95930500I0J147500D01*
G01*
G37*
%TD.AperFunction*%
%TO.P,R114,1*%
%TO.N,GND*%
%TA.AperFunction,SMDPad,CuDef*%
G36*
G01*
X138056400Y-95930500D02*
X138056400Y-95585500D01*
G75*
G02*
X138203900Y-95438000I147500J0D01*
G01*
X138498900Y-95438000D01*
G75*
G02*
X138646400Y-95585500I0J-147500D01*
G01*
X138646400Y-95930500D01*
G75*
G02*
X138498900Y-96078000I-147500J0D01*
G01*
X138203900Y-96078000D01*
G75*
G02*
X138056400Y-95930500I0J147500D01*
G01*
G37*
%TD.AperFunction*%
%TD*%
%TO.P,R113,2*%
%TO.N,+BATT*%
%TA.AperFunction,SMDPad,CuDef*%
G36*
G01*
X138646400Y-96626900D02*
X138646400Y-96971900D01*
G75*
G02*
X138498900Y-97119400I-147500J0D01*
G01*
X138203900Y-97119400D01*
G75*
G02*
X138056400Y-96971900I0J147500D01*
G01*
X138056400Y-96626900D01*
G75*
G02*
X138203900Y-96479400I147500J0D01*
G01*
X138498900Y-96479400D01*
G75*
G02*
X138646400Y-96626900I0J-147500D01*
G01*
G37*
%TD.AperFunction*%
%TO.P,R113,1*%
%TO.N,/BattSns*%
%TA.AperFunction,SMDPad,CuDef*%
G36*
G01*
X139616400Y-96626900D02*
X139616400Y-96971900D01*
G75*
G02*
X139468900Y-97119400I-147500J0D01*
G01*
X139173900Y-97119400D01*
G75*
G02*
X139026400Y-96971900I0J147500D01*
G01*
X139026400Y-96626900D01*
G75*
G02*
X139173900Y-96479400I147500J0D01*
G01*
X139468900Y-96479400D01*
G75*
G02*
X139616400Y-96626900I0J-147500D01*
G01*
G37*
%TD.AperFunction*%
%TD*%
%TO.P,R106,2*%
%TO.N,/vLUX*%
%TA.AperFunction,SMDPad,CuDef*%
G36*
G01*
X138975600Y-94914500D02*
X138975600Y-94569500D01*
G75*
G02*
X139123100Y-94422000I147500J0D01*
G01*
X139418100Y-94422000D01*
G75*
G02*
X139565600Y-94569500I0J-147500D01*
G01*
X139565600Y-94914500D01*
G75*
G02*
X139418100Y-95062000I-147500J0D01*
G01*
X139123100Y-95062000D01*
G75*
G02*
X138975600Y-94914500I0J147500D01*
G01*
G37*
%TD.AperFunction*%
%TO.P,R106,1*%
%TO.N,GND*%
%TA.AperFunction,SMDPad,CuDef*%
G36*
G01*
X138005600Y-94914500D02*
X138005600Y-94569500D01*
G75*
G02*
X138153100Y-94422000I147500J0D01*
G01*
X138448100Y-94422000D01*
G75*
G02*
X138595600Y-94569500I0J-147500D01*
G01*
X138595600Y-94914500D01*
G75*
G02*
X138448100Y-95062000I-147500J0D01*
G01*
X138153100Y-95062000D01*
G75*
G02*
X138005600Y-94914500I0J147500D01*
G01*
G37*
%TD.AperFunction*%
%TD*%
%TO.P,R102,2*%
%TO.N,Net-(R102-Pad2)*%
%TA.AperFunction,SMDPad,CuDef*%
G36*
G01*
X153202000Y-95168500D02*
X153202000Y-94823500D01*
G75*
G02*
X153349500Y-94676000I147500J0D01*
G01*
X153644500Y-94676000D01*
G75*
G02*
X153792000Y-94823500I0J-147500D01*
G01*
X153792000Y-95168500D01*
G75*
G02*
X153644500Y-95316000I-147500J0D01*
G01*
X153349500Y-95316000D01*
G75*
G02*
X153202000Y-95168500I0J147500D01*
G01*
G37*
%TD.AperFunction*%
%TO.P,R102,1*%
%TO.N,Net-(LED101-Pad1)*%
%TA.AperFunction,SMDPad,CuDef*%
G36*
G01*
X152232000Y-95168500D02*
X152232000Y-94823500D01*
G75*
G02*
X152379500Y-94676000I147500J0D01*
G01*
X152674500Y-94676000D01*
G75*
G02*
X152822000Y-94823500I0J-147500D01*
G01*
X152822000Y-95168500D01*
G75*
G02*
X152674500Y-95316000I-147500J0D01*
G01*
X152379500Y-95316000D01*
G75*
G02*
X152232000Y-95168500I0J147500D01*
G01*
G37*
%TD.AperFunction*%
%TD*%
%TO.P,R101,2*%
%TO.N,GND*%
%TA.AperFunction,SMDPad,CuDef*%
G36*
G01*
X153202000Y-96311500D02*
X153202000Y-95966500D01*
G75*
G02*
X153349500Y-95819000I147500J0D01*
G01*
X153644500Y-95819000D01*
G75*
G02*
X153792000Y-95966500I0J-147500D01*
G01*
X153792000Y-96311500D01*
G75*
G02*
X153644500Y-96459000I-147500J0D01*
G01*
X153349500Y-96459000D01*
G75*
G02*
X153202000Y-96311500I0J147500D01*
G01*
G37*
%TD.AperFunction*%
%TO.P,R101,1*%
%TO.N,Net-(R101-Pad1)*%
%TA.AperFunction,SMDPad,CuDef*%
G36*
G01*
X152232000Y-96311500D02*
X152232000Y-95966500D01*
G75*
G02*
X152379500Y-95819000I147500J0D01*
G01*
X152674500Y-95819000D01*
G75*
G02*
X152822000Y-95966500I0J-147500D01*
G01*
X152822000Y-96311500D01*
G75*
G02*
X152674500Y-96459000I-147500J0D01*
G01*
X152379500Y-96459000D01*
G75*
G02*
X152232000Y-96311500I0J147500D01*
G01*
G37*
%TD.AperFunction*%
%TD*%
D25*
%TO.P,J103,1*%
%TO.N,/SW1*%
X157734000Y-86614000D03*
%TD*%
%TO.P,J102,1*%
%TO.N,/SW2*%
X157734000Y-89789000D03*
%TD*%
D26*
%TO.P,J105,2*%
%TO.N,+5V*%
X155702000Y-84709000D03*
D25*
%TO.P,J105,1*%
%TO.N,GND*%
X155702000Y-85979000D03*
%TD*%
D26*
%TO.P,J101,2*%
%TO.N,+BATT*%
X155702000Y-91694000D03*
D25*
%TO.P,J101,1*%
%TO.N,GND*%
X155702000Y-90424000D03*
%TD*%
D27*
%TO.P,U102,5*%
%TO.N,Net-(R101-Pad1)*%
X151978000Y-93279000D03*
%TO.P,U102,4*%
%TO.N,+5V*%
X151978000Y-91379000D03*
%TO.P,U102,3*%
%TO.N,+BATT*%
X154178000Y-91379000D03*
%TO.P,U102,2*%
%TO.N,GND*%
X154178000Y-92329000D03*
%TO.P,U102,1*%
%TO.N,Net-(R102-Pad2)*%
X154178000Y-93279000D03*
%TD*%
D28*
%TO.N,Net-(IC201-Pad33)*%
X142748000Y-85344000D03*
%TO.N,GND*%
X145821400Y-93091000D03*
X138379200Y-86614000D03*
X138607800Y-85013800D03*
X136271000Y-88392000D03*
X148386800Y-76733400D03*
X149860000Y-96901000D03*
X142976600Y-76733400D03*
X136906000Y-96113600D03*
X135051800Y-93141800D03*
X153060400Y-94005400D03*
X153111200Y-90322400D03*
X155168600Y-97586800D03*
X140436600Y-92506800D03*
X140017600Y-86652000D03*
X142595600Y-78867000D03*
X157403800Y-84963000D03*
D29*
%TO.N,+3V3*%
X135509000Y-81026000D03*
D28*
X149860000Y-85852000D03*
X155575000Y-80264000D03*
X142240000Y-86106000D03*
X144145000Y-90551000D03*
X140563600Y-96748600D03*
X137287000Y-81661000D03*
%TO.N,/leds/OUT24*%
X140449000Y-90170000D03*
X151257000Y-75057000D03*
%TO.N,/leds/OUT23*%
X154432000Y-76962000D03*
X140335000Y-91059000D03*
%TO.N,/leds/OUT22*%
X139192000Y-89535000D03*
X157063915Y-79629000D03*
%TO.N,/leds/OUT21*%
X139014200Y-91744800D03*
X159004000Y-82804000D03*
%TO.N,/leds/OUT20*%
X138049000Y-89535000D03*
X159893000Y-86360000D03*
%TO.N,/leds/OUT19*%
X137541000Y-88773000D03*
X159893000Y-90043000D03*
%TO.N,/leds/OUT18*%
X134874000Y-90170000D03*
X158877000Y-93599000D03*
%TO.N,/leds/OUT17*%
X156972000Y-96774000D03*
X134874000Y-89027000D03*
%TO.N,/leds/OUT16*%
X154432000Y-99441000D03*
X134874000Y-87503000D03*
%TO.N,/leds/OUT15*%
X135636000Y-86487000D03*
X151257000Y-101346000D03*
%TO.N,/leds/OUT14*%
X135636000Y-85598000D03*
X147701000Y-102235000D03*
%TO.N,/SCL*%
X142113000Y-83972400D03*
X141732000Y-89662000D03*
%TO.N,/SDA*%
X142875000Y-84328000D03*
X145542000Y-85852000D03*
%TO.N,+BATT*%
X151104600Y-97231200D03*
%TO.N,/SW2*%
X152908000Y-92329000D03*
%TO.N,/SW1*%
X151511000Y-83947000D03*
%TO.N,/JTAG_RESET*%
X143256000Y-93599000D03*
%TO.N,/JTAG_TDI*%
X146812000Y-90918398D03*
%TO.N,/JTAG_TDO*%
X148463001Y-90932000D03*
%TO.N,/JTAG_TCK*%
X143383000Y-95758000D03*
%TO.N,/JTAG_TMS*%
X141859000Y-96901000D03*
%TD*%
D30*
%TO.N,Net-(IC201-Pad33)*%
X141292000Y-85452000D02*
X142640000Y-85452000D01*
X142640000Y-85452000D02*
X142748000Y-85344000D01*
%TO.N,GND*%
X137092000Y-85852000D02*
X139192000Y-85852000D01*
X139992000Y-86652000D02*
X139192000Y-85852000D01*
X141292000Y-86652000D02*
X140017600Y-86652000D01*
X141071600Y-85852000D02*
X139192000Y-85852000D01*
X141292000Y-85852000D02*
X141071600Y-85852000D01*
X150008300Y-94341000D02*
X149295800Y-94341000D01*
X149295800Y-94341000D02*
X148869400Y-94767400D01*
X142813079Y-96371199D02*
X142595600Y-96588678D01*
X145079999Y-97269300D02*
X145079999Y-96446200D01*
X145004998Y-96371199D02*
X142813079Y-96371199D01*
X145079999Y-96446200D02*
X145004998Y-96371199D01*
X142595600Y-96588678D02*
X142595600Y-97536000D01*
X142595600Y-97536000D02*
X142570200Y-97536000D01*
X142570200Y-97536000D02*
X142316200Y-97790000D01*
X142316200Y-97790000D02*
X141960600Y-97790000D01*
D31*
X152723000Y-85979000D02*
X152679400Y-85935400D01*
X153473000Y-85979000D02*
X152723000Y-85979000D01*
X152679400Y-85935400D02*
X152679400Y-83896200D01*
X138300600Y-95707200D02*
X138351400Y-95758000D01*
X138300600Y-94742000D02*
X138300600Y-95707200D01*
D30*
X139509201Y-90827201D02*
X139509201Y-91198401D01*
X139207000Y-90525000D02*
X139509201Y-90827201D01*
X139458999Y-92239801D02*
X138213801Y-92239801D01*
X139509201Y-91198401D02*
X139852400Y-91541600D01*
X138213801Y-92239801D02*
X138213801Y-91985801D01*
X137907000Y-91679000D02*
X137907000Y-90525000D01*
X138213801Y-91985801D02*
X137907000Y-91679000D01*
X154178000Y-92329000D02*
X153867998Y-92329000D01*
X139852400Y-91541600D02*
X139852400Y-91846400D01*
X139852400Y-91846400D02*
X139458999Y-92239801D01*
X140017600Y-86652000D02*
X139992000Y-86652000D01*
X153867998Y-92329000D02*
X153111200Y-93085798D01*
D31*
%TO.N,+3V3*%
X152516404Y-75338361D02*
X152168680Y-75686085D01*
X153679805Y-75338361D02*
X152516404Y-75338361D01*
X155208358Y-76866914D02*
X153679805Y-75338361D01*
X155208358Y-77755272D02*
X155208358Y-76866914D01*
X149183214Y-73987947D02*
X148697031Y-74474130D01*
X151019024Y-73987947D02*
X149183214Y-73987947D01*
X152168680Y-75137603D02*
X151019024Y-73987947D01*
X152168680Y-75686085D02*
X152168680Y-75137603D01*
X145830001Y-73401999D02*
X145030000Y-74202000D01*
X147624900Y-73401999D02*
X145830001Y-73401999D01*
X148697031Y-74474130D02*
X147624900Y-73401999D01*
X142503675Y-73573837D02*
X141417487Y-74660025D01*
X141417487Y-74660025D02*
X141417487Y-74888240D01*
X144401837Y-73573837D02*
X142503675Y-73573837D01*
X145030000Y-74202000D02*
X144401837Y-73573837D01*
X138105680Y-75798516D02*
X138105680Y-76486085D01*
X139403791Y-74500405D02*
X138105680Y-75798516D01*
X141029652Y-74500405D02*
X139403791Y-74500405D01*
X141417487Y-74888240D02*
X141029652Y-74500405D01*
X135320272Y-77755254D02*
X135320272Y-78886642D01*
X136589441Y-76486085D02*
X135320272Y-77755254D01*
X138105680Y-76486085D02*
X136589441Y-76486085D01*
X132903361Y-81578596D02*
X133251085Y-81926320D01*
X132903361Y-80415195D02*
X132903361Y-81578596D01*
X134431914Y-78886642D02*
X132903361Y-80415195D01*
X135320272Y-78886642D02*
X134431914Y-78886642D01*
X131552947Y-84911786D02*
X132039130Y-85397969D01*
X131552947Y-83075976D02*
X131552947Y-84911786D01*
X132702603Y-81926320D02*
X131552947Y-83075976D01*
X133251085Y-81926320D02*
X132702603Y-81926320D01*
X130966999Y-86470100D02*
X130966999Y-88264999D01*
X130966999Y-88264999D02*
X131767000Y-89065000D01*
X132039130Y-85397969D02*
X130966999Y-86470100D01*
X131961485Y-92677513D02*
X132453240Y-92677513D01*
X131138837Y-91854865D02*
X131961485Y-92677513D01*
X131138837Y-89693163D02*
X131138837Y-91854865D01*
X131767000Y-89065000D02*
X131138837Y-89693163D01*
X133363516Y-95989320D02*
X134051085Y-95989320D01*
X132065405Y-94691209D02*
X133363516Y-95989320D01*
X132065405Y-93065348D02*
X132065405Y-94691209D01*
X132453240Y-92677513D02*
X132065405Y-93065348D01*
X134051085Y-97505559D02*
X134051085Y-95989320D01*
X135320254Y-98774728D02*
X134051085Y-97505559D01*
X136451642Y-98774728D02*
X135320254Y-98774728D01*
X139329948Y-101005287D02*
X139491320Y-100843915D01*
X137793843Y-101005287D02*
X139329948Y-101005287D01*
X136451642Y-99663086D02*
X137793843Y-101005287D01*
X136451642Y-98774728D02*
X136451642Y-99663086D01*
X140640976Y-102542053D02*
X142476786Y-102542053D01*
X139491320Y-101392397D02*
X140640976Y-102542053D01*
X142476786Y-102542053D02*
X142962969Y-102055870D01*
X139491320Y-100843915D02*
X139491320Y-101392397D01*
X145829999Y-103128001D02*
X146630000Y-102328000D01*
X144035100Y-103128001D02*
X145829999Y-103128001D01*
X142962969Y-102055870D02*
X144035100Y-103128001D01*
X149419865Y-102956163D02*
X147258163Y-102956163D01*
X150242513Y-102133515D02*
X149419865Y-102956163D01*
X147258163Y-102956163D02*
X146630000Y-102328000D01*
X150242513Y-101641760D02*
X150242513Y-102133515D01*
X153554320Y-100731484D02*
X153554320Y-100043915D01*
X152256209Y-102029595D02*
X153554320Y-100731484D01*
X150630348Y-102029595D02*
X152256209Y-102029595D01*
X150242513Y-101641760D02*
X150630348Y-102029595D01*
X156339728Y-98774746D02*
X156339728Y-97643358D01*
X155070559Y-100043915D02*
X156339728Y-98774746D01*
X153554320Y-100043915D02*
X155070559Y-100043915D01*
X158756639Y-94951404D02*
X158408915Y-94603680D01*
X158756639Y-96114805D02*
X158756639Y-94951404D01*
X157228086Y-97643358D02*
X158756639Y-96114805D01*
X156339728Y-97643358D02*
X157228086Y-97643358D01*
X160107053Y-91618214D02*
X159620870Y-91132031D01*
X160107053Y-93454024D02*
X160107053Y-91618214D01*
X158957397Y-94603680D02*
X160107053Y-93454024D01*
X158408915Y-94603680D02*
X158957397Y-94603680D01*
X160693001Y-88265001D02*
X159893000Y-87465000D01*
X160693001Y-90059900D02*
X160693001Y-88265001D01*
X159620870Y-91132031D02*
X160693001Y-90059900D01*
X159698515Y-83852487D02*
X159206760Y-83852487D01*
X160521163Y-84675135D02*
X159698515Y-83852487D01*
X160521163Y-86836837D02*
X160521163Y-84675135D01*
X159893000Y-87465000D02*
X160521163Y-86836837D01*
X158296484Y-80540680D02*
X157608915Y-80540680D01*
X159594595Y-83464652D02*
X159594595Y-81838791D01*
X159594595Y-81838791D02*
X158296484Y-80540680D01*
X159206760Y-83852487D02*
X159594595Y-83464652D01*
X156339746Y-77755272D02*
X155208358Y-77755272D01*
X157608915Y-79024441D02*
X156339746Y-77755272D01*
X157608915Y-80540680D02*
X157608915Y-79024441D01*
X133251085Y-81926320D02*
X134608680Y-81926320D01*
X134608680Y-81926320D02*
X135509000Y-81026000D01*
D30*
X152552000Y-99041595D02*
X153554320Y-100043915D01*
X152552000Y-97282000D02*
X152552000Y-99041595D01*
D31*
X147225000Y-85129000D02*
X147225000Y-86829000D01*
X147234000Y-86820000D02*
X147225000Y-86829000D01*
X148844000Y-86820000D02*
X147234000Y-86820000D01*
X150964000Y-86820000D02*
X151073000Y-86929000D01*
X148844000Y-86820000D02*
X150964000Y-86820000D01*
X136362998Y-93625000D02*
X137907000Y-93625000D01*
X135128000Y-92390002D02*
X136362998Y-93625000D01*
X146080000Y-97269300D02*
X145580000Y-97269300D01*
X147225000Y-75946161D02*
X148697031Y-74474130D01*
X147225000Y-85129000D02*
X147225000Y-75946161D01*
X149200497Y-93841001D02*
X150008300Y-93841001D01*
X146080000Y-96042000D02*
X146050000Y-96012000D01*
X146080000Y-97269300D02*
X146080000Y-96042000D01*
X146050000Y-96012000D02*
X147029498Y-96012000D01*
X137907000Y-93625000D02*
X137907000Y-92975000D01*
X140843899Y-93841001D02*
X141651700Y-93841001D01*
X137907000Y-92975000D02*
X137961989Y-92920011D01*
X139922909Y-92920011D02*
X140843899Y-93841001D01*
X137961989Y-92920011D02*
X139922909Y-92920011D01*
X145914200Y-96012000D02*
X146050000Y-96012000D01*
X145245800Y-96012000D02*
X145914200Y-96012000D01*
X144653000Y-96012000D02*
X142482001Y-93841001D01*
X145245800Y-96012000D02*
X144653000Y-96012000D01*
X142482001Y-93841001D02*
X141651700Y-93841001D01*
X150816103Y-93841001D02*
X151384000Y-94408898D01*
X150008300Y-93841001D02*
X150816103Y-93841001D01*
X152190602Y-97282000D02*
X152552000Y-97282000D01*
X151384000Y-96475398D02*
X152190602Y-97282000D01*
X151384000Y-94408898D02*
X151384000Y-96475398D01*
X151073000Y-86929000D02*
X150937000Y-86929000D01*
X150937000Y-86929000D02*
X149860000Y-85852000D01*
X157332235Y-80264000D02*
X157608915Y-80540680D01*
X155575000Y-80264000D02*
X157332235Y-80264000D01*
X148939701Y-89860801D02*
X151073000Y-87727502D01*
X147220298Y-89860801D02*
X148939701Y-89860801D01*
X147080000Y-89720503D02*
X147220298Y-89860801D01*
X151073000Y-87727502D02*
X151073000Y-86929000D01*
X147080000Y-88912700D02*
X147080000Y-89720503D01*
D30*
X141311000Y-86233000D02*
X141292000Y-86252000D01*
X142094000Y-86252000D02*
X141292000Y-86252000D01*
X142240000Y-86106000D02*
X142094000Y-86252000D01*
X144145000Y-90551000D02*
X144580000Y-90116000D01*
X144580000Y-90116000D02*
X144580000Y-88912700D01*
D31*
X136144000Y-81661000D02*
X135509000Y-81026000D01*
X137287000Y-81661000D02*
X136144000Y-81661000D01*
X147029498Y-96012000D02*
X149200497Y-93841001D01*
X145580000Y-97269300D02*
X145580000Y-98077101D01*
X145439700Y-98217401D02*
X141499001Y-98217401D01*
X145580000Y-98077101D02*
X145439700Y-98217401D01*
X135128000Y-91656000D02*
X135128000Y-92390002D01*
X136271000Y-90513000D02*
X135128000Y-91656000D01*
X141499001Y-98217401D02*
X141499001Y-98192001D01*
X140492992Y-97185992D02*
X140492992Y-96748600D01*
X141499001Y-98192001D02*
X140492992Y-97185992D01*
D30*
%TO.N,/leds/OUT1*%
X141292000Y-84252000D02*
X141292000Y-83384990D01*
X141186990Y-79663008D02*
X141177991Y-79654009D01*
X141186990Y-83279980D02*
X141186990Y-79663008D01*
X141292000Y-83384990D02*
X141186990Y-83279980D01*
X141186990Y-79663008D02*
X141186990Y-77202210D01*
X141186990Y-77202210D02*
X143078200Y-75311000D01*
X145521000Y-75311000D02*
X146630000Y-74202000D01*
X143078200Y-75311000D02*
X145521000Y-75311000D01*
%TO.N,/leds/OUT27*%
X140792000Y-87952000D02*
X141572002Y-87952000D01*
X141572002Y-87952000D02*
X142257501Y-87266501D01*
X142257501Y-87266501D02*
X142321011Y-87202991D01*
X144159998Y-85129000D02*
X144435000Y-85129000D01*
X142448012Y-87075990D02*
X143302010Y-87075990D01*
X143302010Y-87075990D02*
X143464990Y-86913010D01*
X142257501Y-87266501D02*
X142448012Y-87075990D01*
X143464990Y-86913010D02*
X143464990Y-85824008D01*
X143464990Y-85824008D02*
X144159998Y-85129000D01*
%TO.N,/leds/OUT26*%
X141496279Y-88452001D02*
X140467001Y-88452001D01*
X142572280Y-87376000D02*
X141496279Y-88452001D01*
X140467001Y-88452001D02*
X140392000Y-88377000D01*
X144435000Y-85979000D02*
X143840000Y-85979000D01*
X140392000Y-88377000D02*
X140392000Y-87952000D01*
X143764999Y-86054001D02*
X143764999Y-87121001D01*
X143840000Y-85979000D02*
X143764999Y-86054001D01*
X143764999Y-87121001D02*
X143510000Y-87376000D01*
X143510000Y-87376000D02*
X142572280Y-87376000D01*
%TO.N,/leds/OUT25*%
X139992000Y-88401278D02*
X139992000Y-87952000D01*
X140342733Y-88752011D02*
X139992000Y-88401278D01*
X141620548Y-88752010D02*
X140342733Y-88752011D01*
X142696548Y-87676010D02*
X141620548Y-88752010D01*
X144311000Y-86829000D02*
X144065009Y-87074991D01*
X144435000Y-86829000D02*
X144311000Y-86829000D01*
X143634268Y-87676010D02*
X142696548Y-87676010D01*
X144065009Y-87074991D02*
X144065008Y-87245270D01*
X144065008Y-87245270D02*
X143634268Y-87676010D01*
%TO.N,/leds/OUT24*%
X139592000Y-87952000D02*
X139592000Y-88778120D01*
X140449000Y-89635120D02*
X140449000Y-90170000D01*
X139592000Y-88778120D02*
X140449000Y-89635120D01*
X150411273Y-75057000D02*
X150242513Y-74888240D01*
X151257000Y-75057000D02*
X150411273Y-75057000D01*
%TO.N,/leds/OUT23*%
X154030235Y-76962000D02*
X153554320Y-76486085D01*
X154432000Y-76962000D02*
X154030235Y-76962000D01*
X139192000Y-87952000D02*
X139192000Y-88802398D01*
X139192000Y-88802398D02*
X139954000Y-89564398D01*
X139954000Y-90678000D02*
X139954000Y-89564398D01*
X140335000Y-91059000D02*
X139954000Y-90678000D01*
%TO.N,/leds/OUT22*%
X138792000Y-87952000D02*
X138792000Y-89008000D01*
X138792000Y-89008000D02*
X139192000Y-89408000D01*
X139192000Y-89408000D02*
X139192000Y-89535000D01*
X157063915Y-79610829D02*
X156339728Y-78886642D01*
X157063915Y-79629000D02*
X157063915Y-79610829D01*
%TO.N,/leds/OUT21*%
X138557000Y-89310398D02*
X138557000Y-91567000D01*
X138392000Y-87952000D02*
X138392000Y-89145398D01*
X138392000Y-89145398D02*
X138557000Y-89310398D01*
X159004000Y-82521405D02*
X158408915Y-81926320D01*
X159004000Y-82804000D02*
X159004000Y-82521405D01*
X138734800Y-91744800D02*
X138557000Y-91567000D01*
X139014200Y-91744800D02*
X138734800Y-91744800D01*
%TO.N,/leds/OUT20*%
X137992000Y-87952000D02*
X138049000Y-88009000D01*
X138049000Y-88009000D02*
X138049000Y-89535000D01*
X159893000Y-85670099D02*
X159620870Y-85397969D01*
X159893000Y-86360000D02*
X159893000Y-85670099D01*
%TO.N,/leds/OUT19*%
X137592000Y-87952000D02*
X137592000Y-88722000D01*
X137592000Y-88722000D02*
X137541000Y-88773000D01*
X159893000Y-90043000D02*
X159893000Y-89065000D01*
%TO.N,/leds/OUT18*%
X158877000Y-93007273D02*
X159206760Y-92677513D01*
X158877000Y-93599000D02*
X158877000Y-93007273D01*
X136478398Y-87452000D02*
X137092000Y-87452000D01*
X135369001Y-88561397D02*
X136478398Y-87452000D01*
X135369001Y-89674999D02*
X135369001Y-88561397D01*
X134874000Y-90170000D02*
X135369001Y-89674999D01*
%TO.N,/leds/OUT17*%
X156972000Y-96626235D02*
X157608915Y-95989320D01*
X156972000Y-96774000D02*
X156972000Y-96626235D01*
X134874000Y-89027000D02*
X134874000Y-88532880D01*
X134874000Y-88532880D02*
X136354880Y-87052000D01*
X137092000Y-87052000D02*
X136354880Y-87052000D01*
%TO.N,/leds/OUT16*%
X155177086Y-98806000D02*
X155208358Y-98774728D01*
X154542086Y-99441000D02*
X155208358Y-98774728D01*
X154432000Y-99441000D02*
X154542086Y-99441000D01*
X137092000Y-86652000D02*
X136330602Y-86652000D01*
X136330602Y-86652000D02*
X135479602Y-87503000D01*
X135479602Y-87503000D02*
X134874000Y-87503000D01*
%TO.N,/leds/OUT15*%
X137092000Y-86252000D02*
X135871000Y-86252000D01*
X135871000Y-86252000D02*
X135636000Y-86487000D01*
X151666595Y-101346000D02*
X152168680Y-100843915D01*
X151257000Y-101346000D02*
X151666595Y-101346000D01*
%TO.N,/leds/OUT14*%
X137092000Y-85452000D02*
X135782000Y-85452000D01*
X135782000Y-85452000D02*
X135636000Y-85598000D01*
X148517901Y-102235000D02*
X148697031Y-102055870D01*
X147701000Y-102235000D02*
X148517901Y-102235000D01*
%TO.N,/leds/OUT13*%
X143543467Y-100841467D02*
X145030000Y-102328000D01*
X141044937Y-100841467D02*
X143543467Y-100841467D01*
X139725460Y-99521990D02*
X141044937Y-100841467D01*
X135023054Y-86470614D02*
X134077020Y-87416648D01*
X134077020Y-91061732D02*
X134505501Y-91490213D01*
X134077020Y-87416648D02*
X134077020Y-91061732D01*
X139139820Y-99521990D02*
X139725460Y-99521990D01*
X135212112Y-85052000D02*
X135023055Y-85241057D01*
X134505501Y-91490213D02*
X134505501Y-93453475D01*
X135023055Y-85241057D02*
X135023054Y-86470614D01*
X135901030Y-94849004D02*
X135901030Y-96283200D01*
X137092000Y-85052000D02*
X135212112Y-85052000D01*
X134505501Y-93453475D02*
X135901030Y-94849004D01*
X135901030Y-96283200D02*
X139139820Y-99521990D01*
%TO.N,/leds/OUT12*%
X137092000Y-84652000D02*
X135187834Y-84652000D01*
X134723046Y-85116788D02*
X134723045Y-86346345D01*
X135187834Y-84652000D02*
X134723046Y-85116788D01*
X134723045Y-86346345D02*
X133777010Y-87292380D01*
X133777010Y-87292380D02*
X133777010Y-91186000D01*
X134205491Y-93577743D02*
X135601020Y-94973272D01*
X133777010Y-91186000D02*
X134205491Y-91614481D01*
X134205491Y-91614481D02*
X134205491Y-93577743D01*
X135601020Y-96407468D02*
X139015552Y-99822000D01*
X135601020Y-94973272D02*
X135601020Y-96407468D01*
X141417487Y-101638295D02*
X141417487Y-101641760D01*
X139601192Y-99822000D02*
X141417487Y-101638295D01*
X139015552Y-99822000D02*
X139601192Y-99822000D01*
%TO.N,/leds/OUT11*%
X135301010Y-96634130D02*
X138105680Y-99438800D01*
X135301010Y-95097540D02*
X135301010Y-96634130D01*
X133853553Y-93650083D02*
X135301010Y-95097540D01*
X133853553Y-91856997D02*
X133853553Y-93650083D01*
X133477000Y-91480444D02*
X133853553Y-91856997D01*
X137092000Y-84252000D02*
X135163556Y-84252000D01*
X138105680Y-99438800D02*
X138105680Y-100043915D01*
X134423036Y-86222076D02*
X133477000Y-87168112D01*
X135163556Y-84252000D02*
X134423037Y-84992519D01*
X134423037Y-84992519D02*
X134423036Y-86222076D01*
X133477000Y-87168112D02*
X133477000Y-91480444D01*
%TO.N,/leds/OUT10*%
X135001000Y-97324086D02*
X135320272Y-97643358D01*
X133142010Y-87078824D02*
X133142010Y-87246268D01*
X133139433Y-87248845D02*
X133139433Y-91567155D01*
X134123028Y-84868250D02*
X134123027Y-86097807D01*
X135001000Y-95221808D02*
X135001000Y-97324086D01*
X133553543Y-93774351D02*
X135001000Y-95221808D01*
X133142010Y-87246268D02*
X133139433Y-87248845D01*
X134123027Y-86097807D02*
X133142010Y-87078824D01*
X133139433Y-91567155D02*
X133553543Y-91981265D01*
X133553543Y-91981265D02*
X133553543Y-93774351D01*
X135239278Y-83752000D02*
X134123028Y-84868250D01*
X137592000Y-83752000D02*
X135239278Y-83752000D01*
%TO.N,/leds/OUT9*%
X133823019Y-84743981D02*
X133823018Y-85973538D01*
X133823018Y-85973538D02*
X132842000Y-86954556D01*
X132842000Y-87122000D02*
X132839423Y-87124577D01*
X132842000Y-86954556D02*
X132842000Y-87122000D01*
X132839423Y-87124577D02*
X132839423Y-91691423D01*
X133253533Y-94601232D02*
X133251085Y-94603680D01*
X133253533Y-92105533D02*
X133253533Y-94601232D01*
X132839423Y-91691423D02*
X133253533Y-92105533D01*
X137916999Y-83251999D02*
X135315001Y-83251999D01*
X135315001Y-83251999D02*
X133823019Y-84743981D01*
X137992000Y-83327000D02*
X137916999Y-83251999D01*
X137992000Y-83752000D02*
X137992000Y-83327000D01*
%TO.N,/leds/OUT8*%
X133523010Y-84579268D02*
X133523009Y-85849269D01*
X133523009Y-85849269D02*
X132467001Y-86905277D01*
X132467001Y-90704160D02*
X132039130Y-91132031D01*
X132467001Y-86905277D02*
X132467001Y-90704160D01*
X138041267Y-82951989D02*
X135150289Y-82951989D01*
X138392000Y-83302722D02*
X138041267Y-82951989D01*
X135150289Y-82951989D02*
X133523010Y-84579268D01*
X138392000Y-83752000D02*
X138392000Y-83302722D01*
%TO.N,/leds/OUT7*%
X131767000Y-87181000D02*
X131767000Y-87465000D01*
X138792000Y-83278444D02*
X138165535Y-82651979D01*
X133223000Y-85725000D02*
X131767000Y-87181000D01*
X138792000Y-83752000D02*
X138792000Y-83278444D01*
X138165535Y-82651979D02*
X135026021Y-82651979D01*
X133223000Y-84455000D02*
X133223000Y-85725000D01*
X135026021Y-82651979D02*
X133223000Y-84455000D01*
%TO.N,/leds/OUT6*%
X133190513Y-83852487D02*
X132453240Y-83852487D01*
X134691031Y-82351969D02*
X133190513Y-83852487D01*
X139192000Y-83254166D02*
X138289803Y-82351969D01*
X138289803Y-82351969D02*
X134691031Y-82351969D01*
X139192000Y-83752000D02*
X139192000Y-83254166D01*
%TO.N,/leds/OUT5*%
X134265766Y-80325999D02*
X134051085Y-80540680D01*
X139592000Y-82026132D02*
X138106548Y-80540680D01*
X138106548Y-80540680D02*
X134051085Y-80540680D01*
X139592000Y-83752000D02*
X139592000Y-82026132D01*
%TO.N,/leds/OUT4*%
X136451642Y-78461496D02*
X136451642Y-77755272D01*
X139992000Y-82001854D02*
X136451642Y-78461496D01*
X139992000Y-83752000D02*
X139992000Y-82001854D01*
%TO.N,/leds/OUT3*%
X140392000Y-76586765D02*
X139491320Y-75686085D01*
X140392000Y-83752000D02*
X140392000Y-76586765D01*
%TO.N,/leds/OUT2*%
X140792000Y-77136854D02*
X142962969Y-74965885D01*
X140792000Y-83752000D02*
X140792000Y-77136854D01*
X142962969Y-74965885D02*
X142962969Y-74474130D01*
%TO.N,/SCL*%
X146080000Y-88168000D02*
X145923000Y-88011000D01*
X146080000Y-88912700D02*
X146080000Y-88168000D01*
X142052999Y-89341001D02*
X141732000Y-89662000D01*
X145923000Y-88011000D02*
X142785836Y-88011000D01*
X142785836Y-88011000D02*
X142052999Y-88743837D01*
X142052999Y-88743837D02*
X142052999Y-89341001D01*
X141672002Y-84652000D02*
X141292000Y-84652000D01*
X142113000Y-84211002D02*
X141672002Y-84652000D01*
X142113000Y-83820000D02*
X142113000Y-84211002D01*
%TO.N,/SDA*%
X142151000Y-85052000D02*
X142875000Y-84328000D01*
X141292000Y-85052000D02*
X142151000Y-85052000D01*
X145542000Y-86695280D02*
X145542000Y-85852000D01*
X146580001Y-88912700D02*
X146580001Y-87733281D01*
X146580001Y-87733281D02*
X145542000Y-86695280D01*
%TO.N,Net-(R101-Pad1)*%
X151978000Y-95590000D02*
X151978000Y-93279000D01*
X152527000Y-96139000D02*
X151978000Y-95590000D01*
D31*
%TO.N,+5V*%
X155702000Y-84709000D02*
X155702000Y-83820000D01*
X155702000Y-83820000D02*
X154495500Y-82613500D01*
X152247600Y-83566000D02*
X153847800Y-81965800D01*
X152247600Y-88333200D02*
X152247600Y-83566000D01*
X154495500Y-82613500D02*
X153847800Y-81965800D01*
X153847800Y-81965800D02*
X152908000Y-81026000D01*
X151940000Y-88640800D02*
X152247600Y-88333200D01*
X151940000Y-89154000D02*
X151940000Y-88640800D01*
X151940000Y-91341000D02*
X151978000Y-91379000D01*
X151940000Y-89154000D02*
X151940000Y-91341000D01*
%TO.N,+BATT*%
X156948106Y-91155000D02*
X157353000Y-91155000D01*
X156409106Y-91694000D02*
X156948106Y-91155000D01*
X155702000Y-91694000D02*
X156409106Y-91694000D01*
X154178000Y-89233000D02*
X154940000Y-88471000D01*
X154178000Y-91379000D02*
X154178000Y-89233000D01*
X153473000Y-87144002D02*
X153473000Y-86929000D01*
X154799998Y-88471000D02*
X153473000Y-87144002D01*
X154940000Y-88471000D02*
X154799998Y-88471000D01*
X154248001Y-85054001D02*
X154223000Y-85029000D01*
X154248001Y-86903999D02*
X154248001Y-85054001D01*
X154223000Y-86929000D02*
X154248001Y-86903999D01*
X154223000Y-85029000D02*
X153473000Y-85029000D01*
X153473000Y-86929000D02*
X154223000Y-86929000D01*
X154493000Y-91694000D02*
X154178000Y-91379000D01*
X155702000Y-91694000D02*
X154493000Y-91694000D01*
D30*
X151104600Y-97231200D02*
X147870543Y-100465257D01*
X142155543Y-100465257D02*
X142151100Y-100469700D01*
X142151100Y-100469700D02*
X141109700Y-100469700D01*
X147870543Y-100465257D02*
X142155543Y-100465257D01*
X139264088Y-99221980D02*
X139861980Y-99221980D01*
X139861980Y-99221980D02*
X141109700Y-100469700D01*
X136296400Y-96240600D02*
X136282708Y-96240600D01*
X137831390Y-97775590D02*
X136296400Y-96240600D01*
X139264088Y-99221980D02*
X137831390Y-97789282D01*
X137831390Y-97789282D02*
X137831390Y-97775590D01*
X136282708Y-96004290D02*
X136271000Y-95992582D01*
X136282708Y-96240600D02*
X136282708Y-96004290D01*
X136271000Y-95992582D02*
X136271000Y-95605600D01*
X136271000Y-95605600D02*
X136423400Y-95453200D01*
X136423400Y-95453200D02*
X137109200Y-95453200D01*
X137109200Y-95453200D02*
X137831390Y-96175390D01*
X138351400Y-96604810D02*
X137921980Y-96175390D01*
X137921980Y-96175390D02*
X137831390Y-96175390D01*
X138351400Y-96799400D02*
X138351400Y-96604810D01*
%TO.N,Net-(LED101-Pad1)*%
X152527000Y-94996000D02*
X152733001Y-94789999D01*
X152008001Y-80325999D02*
X151308000Y-81026000D01*
X154366999Y-80325999D02*
X152008001Y-80325999D01*
X152527000Y-94996000D02*
X153072010Y-95541010D01*
X153072010Y-95541010D02*
X155029990Y-95541010D01*
X155029990Y-95541010D02*
X158623000Y-91948000D01*
X158623000Y-91948000D02*
X158623000Y-84582000D01*
X158623000Y-84582000D02*
X154366999Y-80325999D01*
%TO.N,Net-(R102-Pad2)*%
X154178000Y-94315000D02*
X153497000Y-94996000D01*
X154178000Y-93279000D02*
X154178000Y-94315000D01*
%TO.N,/vLUX*%
X139270600Y-93688600D02*
X139207000Y-93625000D01*
X139270600Y-94742000D02*
X139270600Y-93688600D01*
X139869601Y-95341001D02*
X141651700Y-95341001D01*
X139270600Y-94742000D02*
X139869601Y-95341001D01*
%TO.N,/SW2*%
X151189999Y-90840999D02*
X151222999Y-90873999D01*
X150008300Y-90840999D02*
X151189999Y-90840999D01*
X151222999Y-91884001D02*
X151667998Y-92329000D01*
X151222999Y-90873999D02*
X151222999Y-91884001D01*
X151667998Y-92329000D02*
X152908000Y-92329000D01*
%TO.N,/SW1*%
X150008300Y-90341000D02*
X150008300Y-89513700D01*
X151798001Y-84234001D02*
X151511000Y-83947000D01*
X150008300Y-89513700D02*
X151798001Y-87723999D01*
X151798001Y-87723999D02*
X151798001Y-84234001D01*
%TO.N,/SDB*%
X141806602Y-82527000D02*
X141732000Y-82527000D01*
X143637000Y-83058000D02*
X143106000Y-82527000D01*
X143164981Y-85699739D02*
X143637000Y-85227720D01*
X143106000Y-82527000D02*
X141732000Y-82527000D01*
X142047724Y-87052000D02*
X142323744Y-86775980D01*
X142323744Y-86775980D02*
X142713020Y-86775980D01*
X141292000Y-87052000D02*
X142047724Y-87052000D01*
X142713020Y-86775980D02*
X143164980Y-86324020D01*
X143164980Y-86324020D02*
X143164981Y-85699739D01*
X147285597Y-88014599D02*
X146431000Y-87160002D01*
X147579999Y-88912700D02*
X147579999Y-88089600D01*
X147504998Y-88014599D02*
X147285597Y-88014599D01*
X147579999Y-88089600D02*
X147504998Y-88014599D01*
X143717001Y-84628999D02*
X143637000Y-84709000D01*
X145060001Y-84628999D02*
X143717001Y-84628999D01*
X146431000Y-85999998D02*
X145060001Y-84628999D01*
X146431000Y-87160002D02*
X146431000Y-85999998D01*
X143637000Y-84709000D02*
X143637000Y-83058000D01*
X143637000Y-85227720D02*
X143637000Y-84709000D01*
%TO.N,/JTAG_RESET*%
X142369503Y-91841000D02*
X141651700Y-91841000D01*
X143256000Y-92727497D02*
X142369503Y-91841000D01*
X143256000Y-93599000D02*
X143256000Y-92727497D01*
%TO.N,/JTAG_TDI*%
X146262597Y-90918398D02*
X146812000Y-90918398D01*
X145079999Y-88912700D02*
X145079999Y-89735800D01*
X145079999Y-89735800D02*
X146262597Y-90918398D01*
%TO.N,/JTAG_TDO*%
X145580000Y-89700000D02*
X145580000Y-88912700D01*
X147954398Y-90423397D02*
X146303397Y-90423397D01*
X146303397Y-90423397D02*
X145580000Y-89700000D01*
X148463001Y-90932000D02*
X147954398Y-90423397D01*
%TO.N,/JTAG_TCK*%
X143383000Y-95249200D02*
X143383000Y-95758000D01*
X141651700Y-94341000D02*
X142474800Y-94341000D01*
X142474800Y-94341000D02*
X143383000Y-95249200D01*
%TO.N,/JTAG_TMS*%
X142549801Y-96210199D02*
X141859000Y-96901000D01*
X142549801Y-94916000D02*
X142549801Y-96210199D01*
X141651700Y-94840999D02*
X142474800Y-94840999D01*
X142474800Y-94840999D02*
X142549801Y-94916000D01*
%TO.N,/LED_STAT*%
X136728001Y-92570001D02*
X136271000Y-92113000D01*
X139556601Y-92570001D02*
X136728001Y-92570001D01*
X141651700Y-91341001D02*
X140785601Y-91341001D01*
X139556601Y-92570001D02*
X140785601Y-91341001D01*
%TO.N,/BattSns*%
X141568700Y-95758000D02*
X141651700Y-95841000D01*
X139321400Y-95758000D02*
X141568700Y-95758000D01*
X139321400Y-96799400D02*
X139321400Y-95758000D01*
%TD*%
D32*
%TO.N,GND*%
G36*
X149037250Y-94665751D02*
G01*
X149033749Y-94701299D01*
X149033749Y-94980699D01*
X149039541Y-95039509D01*
X149055161Y-95091000D01*
X149039541Y-95142491D01*
X149033749Y-95201301D01*
X149033749Y-95480701D01*
X149039541Y-95539511D01*
X149055161Y-95591000D01*
X149039541Y-95642490D01*
X149033749Y-95701300D01*
X149033749Y-95980700D01*
X149039541Y-96039510D01*
X149056696Y-96096060D01*
X149084553Y-96148177D01*
X149122042Y-96193858D01*
X149167723Y-96231347D01*
X149219840Y-96259204D01*
X149276390Y-96276359D01*
X149335200Y-96282151D01*
X150681400Y-96282151D01*
X150740210Y-96276359D01*
X150796760Y-96259204D01*
X150848877Y-96231347D01*
X150894558Y-96193858D01*
X150932047Y-96148177D01*
X150959001Y-96097750D01*
X150959001Y-96454521D01*
X150956945Y-96475398D01*
X150965150Y-96558712D01*
X150987180Y-96631331D01*
X150989453Y-96638825D01*
X151005934Y-96669659D01*
X150938337Y-96683105D01*
X150834604Y-96726073D01*
X150741246Y-96788452D01*
X150661852Y-96867846D01*
X150599473Y-96961204D01*
X150556505Y-97064937D01*
X150534600Y-97175060D01*
X150534600Y-97270869D01*
X147715214Y-100090257D01*
X142173958Y-100090257D01*
X142155542Y-100088443D01*
X142137126Y-100090257D01*
X142137124Y-100090257D01*
X142092011Y-100094700D01*
X141265030Y-100094700D01*
X140140175Y-98969846D01*
X140128428Y-98955532D01*
X140071327Y-98908671D01*
X140006180Y-98873849D01*
X139935493Y-98852406D01*
X139880399Y-98846980D01*
X139880396Y-98846980D01*
X139861980Y-98845166D01*
X139843564Y-98846980D01*
X139419418Y-98846980D01*
X138151612Y-97579175D01*
X138144700Y-97566243D01*
X138109579Y-97523449D01*
X138097838Y-97509142D01*
X138083529Y-97497399D01*
X136657708Y-96071579D01*
X136657708Y-96022706D01*
X136659522Y-96004290D01*
X136657367Y-95982414D01*
X136652282Y-95930777D01*
X136646000Y-95910068D01*
X136646000Y-95828200D01*
X136953871Y-95828200D01*
X137553199Y-96427529D01*
X137564942Y-96441838D01*
X137622043Y-96488699D01*
X137687190Y-96523521D01*
X137757877Y-96544964D01*
X137761590Y-96545330D01*
X137762858Y-96546597D01*
X137754949Y-96626900D01*
X137754949Y-96971900D01*
X137763575Y-97059486D01*
X137789123Y-97143706D01*
X137830611Y-97221324D01*
X137886444Y-97289356D01*
X137954476Y-97345189D01*
X138032094Y-97386677D01*
X138116314Y-97412225D01*
X138203900Y-97420851D01*
X138498900Y-97420851D01*
X138586486Y-97412225D01*
X138670706Y-97386677D01*
X138748324Y-97345189D01*
X138816356Y-97289356D01*
X138836400Y-97264933D01*
X138856444Y-97289356D01*
X138924476Y-97345189D01*
X139002094Y-97386677D01*
X139086314Y-97412225D01*
X139173900Y-97420851D01*
X139468900Y-97420851D01*
X139556486Y-97412225D01*
X139640706Y-97386677D01*
X139718324Y-97345189D01*
X139786356Y-97289356D01*
X139842189Y-97221324D01*
X139883677Y-97143706D01*
X139909225Y-97059486D01*
X139917851Y-96971900D01*
X139917851Y-96626900D01*
X139909225Y-96539314D01*
X139883677Y-96455094D01*
X139842189Y-96377476D01*
X139786356Y-96309444D01*
X139748895Y-96278700D01*
X139786356Y-96247956D01*
X139842189Y-96179924D01*
X139867271Y-96133000D01*
X140719841Y-96133000D01*
X140727953Y-96148177D01*
X140765442Y-96193858D01*
X140811123Y-96231347D01*
X140863240Y-96259204D01*
X140919790Y-96276359D01*
X140978600Y-96282151D01*
X141947519Y-96282151D01*
X141898671Y-96331000D01*
X141802860Y-96331000D01*
X141692737Y-96352905D01*
X141589004Y-96395873D01*
X141495646Y-96458252D01*
X141416252Y-96537646D01*
X141353873Y-96631004D01*
X141310905Y-96734737D01*
X141289000Y-96844860D01*
X141289000Y-96957140D01*
X141310905Y-97067263D01*
X141353873Y-97170996D01*
X141416252Y-97264354D01*
X141495646Y-97343748D01*
X141589004Y-97406127D01*
X141692737Y-97449095D01*
X141802860Y-97471000D01*
X141915140Y-97471000D01*
X142025263Y-97449095D01*
X142128996Y-97406127D01*
X142222354Y-97343748D01*
X142301748Y-97264354D01*
X142364127Y-97170996D01*
X142407095Y-97067263D01*
X142429000Y-96957140D01*
X142429000Y-96861329D01*
X142638849Y-96651481D01*
X142638849Y-97792401D01*
X141700441Y-97792401D01*
X141011814Y-97103774D01*
X141068727Y-97018596D01*
X141111695Y-96914863D01*
X141133600Y-96804740D01*
X141133600Y-96692460D01*
X141111695Y-96582337D01*
X141068727Y-96478604D01*
X141006348Y-96385246D01*
X140926954Y-96305852D01*
X140833596Y-96243473D01*
X140729863Y-96200505D01*
X140619740Y-96178600D01*
X140507460Y-96178600D01*
X140397337Y-96200505D01*
X140293604Y-96243473D01*
X140200246Y-96305852D01*
X140120852Y-96385246D01*
X140058473Y-96478604D01*
X140015505Y-96582337D01*
X139993600Y-96692460D01*
X139993600Y-96804740D01*
X140015505Y-96914863D01*
X140058473Y-97018596D01*
X140067992Y-97032842D01*
X140067992Y-97165125D01*
X140065937Y-97185992D01*
X140067992Y-97206859D01*
X140067992Y-97206865D01*
X140069730Y-97224508D01*
X140074142Y-97269306D01*
X140081514Y-97293608D01*
X140098444Y-97349418D01*
X140137908Y-97423251D01*
X140191018Y-97487966D01*
X140207236Y-97501276D01*
X141124737Y-98418777D01*
X141143917Y-98454661D01*
X141178286Y-98496539D01*
X141197027Y-98519375D01*
X141261741Y-98572485D01*
X141335574Y-98611949D01*
X141415687Y-98636251D01*
X141499001Y-98644457D01*
X141519875Y-98642401D01*
X145418833Y-98642401D01*
X145439700Y-98644456D01*
X145460567Y-98642401D01*
X145460574Y-98642401D01*
X145523014Y-98636251D01*
X145603127Y-98611949D01*
X145676960Y-98572485D01*
X145741674Y-98519375D01*
X145754984Y-98503157D01*
X145865756Y-98392385D01*
X145881974Y-98379075D01*
X145935084Y-98314361D01*
X145972772Y-98243851D01*
X146219700Y-98243851D01*
X146278510Y-98238059D01*
X146330001Y-98222439D01*
X146381491Y-98238059D01*
X146440301Y-98243851D01*
X146719701Y-98243851D01*
X146778511Y-98238059D01*
X146830001Y-98222439D01*
X146881490Y-98238059D01*
X146940300Y-98243851D01*
X147219700Y-98243851D01*
X147278510Y-98238059D01*
X147330000Y-98222439D01*
X147381489Y-98238059D01*
X147440299Y-98243851D01*
X147719699Y-98243851D01*
X147778509Y-98238059D01*
X147830000Y-98222439D01*
X147881491Y-98238059D01*
X147940301Y-98243851D01*
X148219701Y-98243851D01*
X148278511Y-98238059D01*
X148330001Y-98222439D01*
X148381490Y-98238059D01*
X148440300Y-98243851D01*
X148719700Y-98243851D01*
X148778510Y-98238059D01*
X148835060Y-98220904D01*
X148887177Y-98193047D01*
X148932858Y-98155558D01*
X148970347Y-98109877D01*
X148998204Y-98057760D01*
X149015359Y-98001210D01*
X149021151Y-97942400D01*
X149021151Y-96596200D01*
X149015359Y-96537390D01*
X148998204Y-96480840D01*
X148970347Y-96428723D01*
X148932858Y-96383042D01*
X148887177Y-96345553D01*
X148835060Y-96317696D01*
X148778510Y-96300541D01*
X148719700Y-96294749D01*
X148440300Y-96294749D01*
X148381490Y-96300541D01*
X148330001Y-96316161D01*
X148278511Y-96300541D01*
X148219701Y-96294749D01*
X147940301Y-96294749D01*
X147881491Y-96300541D01*
X147830000Y-96316161D01*
X147778509Y-96300541D01*
X147719699Y-96294749D01*
X147440299Y-96294749D01*
X147381489Y-96300541D01*
X147330000Y-96316161D01*
X147329129Y-96315897D01*
X147331472Y-96313974D01*
X147344781Y-96297757D01*
X149016190Y-94626349D01*
X149037250Y-94665751D01*
G37*
X149037250Y-94665751D02*
X149033749Y-94701299D01*
X149033749Y-94980699D01*
X149039541Y-95039509D01*
X149055161Y-95091000D01*
X149039541Y-95142491D01*
X149033749Y-95201301D01*
X149033749Y-95480701D01*
X149039541Y-95539511D01*
X149055161Y-95591000D01*
X149039541Y-95642490D01*
X149033749Y-95701300D01*
X149033749Y-95980700D01*
X149039541Y-96039510D01*
X149056696Y-96096060D01*
X149084553Y-96148177D01*
X149122042Y-96193858D01*
X149167723Y-96231347D01*
X149219840Y-96259204D01*
X149276390Y-96276359D01*
X149335200Y-96282151D01*
X150681400Y-96282151D01*
X150740210Y-96276359D01*
X150796760Y-96259204D01*
X150848877Y-96231347D01*
X150894558Y-96193858D01*
X150932047Y-96148177D01*
X150959001Y-96097750D01*
X150959001Y-96454521D01*
X150956945Y-96475398D01*
X150965150Y-96558712D01*
X150987180Y-96631331D01*
X150989453Y-96638825D01*
X151005934Y-96669659D01*
X150938337Y-96683105D01*
X150834604Y-96726073D01*
X150741246Y-96788452D01*
X150661852Y-96867846D01*
X150599473Y-96961204D01*
X150556505Y-97064937D01*
X150534600Y-97175060D01*
X150534600Y-97270869D01*
X147715214Y-100090257D01*
X142173958Y-100090257D01*
X142155542Y-100088443D01*
X142137126Y-100090257D01*
X142137124Y-100090257D01*
X142092011Y-100094700D01*
X141265030Y-100094700D01*
X140140175Y-98969846D01*
X140128428Y-98955532D01*
X140071327Y-98908671D01*
X140006180Y-98873849D01*
X139935493Y-98852406D01*
X139880399Y-98846980D01*
X139880396Y-98846980D01*
X139861980Y-98845166D01*
X139843564Y-98846980D01*
X139419418Y-98846980D01*
X138151612Y-97579175D01*
X138144700Y-97566243D01*
X138109579Y-97523449D01*
X138097838Y-97509142D01*
X138083529Y-97497399D01*
X136657708Y-96071579D01*
X136657708Y-96022706D01*
X136659522Y-96004290D01*
X136657367Y-95982414D01*
X136652282Y-95930777D01*
X136646000Y-95910068D01*
X136646000Y-95828200D01*
X136953871Y-95828200D01*
X137553199Y-96427529D01*
X137564942Y-96441838D01*
X137622043Y-96488699D01*
X137687190Y-96523521D01*
X137757877Y-96544964D01*
X137761590Y-96545330D01*
X137762858Y-96546597D01*
X137754949Y-96626900D01*
X137754949Y-96971900D01*
X137763575Y-97059486D01*
X137789123Y-97143706D01*
X137830611Y-97221324D01*
X137886444Y-97289356D01*
X137954476Y-97345189D01*
X138032094Y-97386677D01*
X138116314Y-97412225D01*
X138203900Y-97420851D01*
X138498900Y-97420851D01*
X138586486Y-97412225D01*
X138670706Y-97386677D01*
X138748324Y-97345189D01*
X138816356Y-97289356D01*
X138836400Y-97264933D01*
X138856444Y-97289356D01*
X138924476Y-97345189D01*
X139002094Y-97386677D01*
X139086314Y-97412225D01*
X139173900Y-97420851D01*
X139468900Y-97420851D01*
X139556486Y-97412225D01*
X139640706Y-97386677D01*
X139718324Y-97345189D01*
X139786356Y-97289356D01*
X139842189Y-97221324D01*
X139883677Y-97143706D01*
X139909225Y-97059486D01*
X139917851Y-96971900D01*
X139917851Y-96626900D01*
X139909225Y-96539314D01*
X139883677Y-96455094D01*
X139842189Y-96377476D01*
X139786356Y-96309444D01*
X139748895Y-96278700D01*
X139786356Y-96247956D01*
X139842189Y-96179924D01*
X139867271Y-96133000D01*
X140719841Y-96133000D01*
X140727953Y-96148177D01*
X140765442Y-96193858D01*
X140811123Y-96231347D01*
X140863240Y-96259204D01*
X140919790Y-96276359D01*
X140978600Y-96282151D01*
X141947519Y-96282151D01*
X141898671Y-96331000D01*
X141802860Y-96331000D01*
X141692737Y-96352905D01*
X141589004Y-96395873D01*
X141495646Y-96458252D01*
X141416252Y-96537646D01*
X141353873Y-96631004D01*
X141310905Y-96734737D01*
X141289000Y-96844860D01*
X141289000Y-96957140D01*
X141310905Y-97067263D01*
X141353873Y-97170996D01*
X141416252Y-97264354D01*
X141495646Y-97343748D01*
X141589004Y-97406127D01*
X141692737Y-97449095D01*
X141802860Y-97471000D01*
X141915140Y-97471000D01*
X142025263Y-97449095D01*
X142128996Y-97406127D01*
X142222354Y-97343748D01*
X142301748Y-97264354D01*
X142364127Y-97170996D01*
X142407095Y-97067263D01*
X142429000Y-96957140D01*
X142429000Y-96861329D01*
X142638849Y-96651481D01*
X142638849Y-97792401D01*
X141700441Y-97792401D01*
X141011814Y-97103774D01*
X141068727Y-97018596D01*
X141111695Y-96914863D01*
X141133600Y-96804740D01*
X141133600Y-96692460D01*
X141111695Y-96582337D01*
X141068727Y-96478604D01*
X141006348Y-96385246D01*
X140926954Y-96305852D01*
X140833596Y-96243473D01*
X140729863Y-96200505D01*
X140619740Y-96178600D01*
X140507460Y-96178600D01*
X140397337Y-96200505D01*
X140293604Y-96243473D01*
X140200246Y-96305852D01*
X140120852Y-96385246D01*
X140058473Y-96478604D01*
X140015505Y-96582337D01*
X139993600Y-96692460D01*
X139993600Y-96804740D01*
X140015505Y-96914863D01*
X140058473Y-97018596D01*
X140067992Y-97032842D01*
X140067992Y-97165125D01*
X140065937Y-97185992D01*
X140067992Y-97206859D01*
X140067992Y-97206865D01*
X140069730Y-97224508D01*
X140074142Y-97269306D01*
X140081514Y-97293608D01*
X140098444Y-97349418D01*
X140137908Y-97423251D01*
X140191018Y-97487966D01*
X140207236Y-97501276D01*
X141124737Y-98418777D01*
X141143917Y-98454661D01*
X141178286Y-98496539D01*
X141197027Y-98519375D01*
X141261741Y-98572485D01*
X141335574Y-98611949D01*
X141415687Y-98636251D01*
X141499001Y-98644457D01*
X141519875Y-98642401D01*
X145418833Y-98642401D01*
X145439700Y-98644456D01*
X145460567Y-98642401D01*
X145460574Y-98642401D01*
X145523014Y-98636251D01*
X145603127Y-98611949D01*
X145676960Y-98572485D01*
X145741674Y-98519375D01*
X145754984Y-98503157D01*
X145865756Y-98392385D01*
X145881974Y-98379075D01*
X145935084Y-98314361D01*
X145972772Y-98243851D01*
X146219700Y-98243851D01*
X146278510Y-98238059D01*
X146330001Y-98222439D01*
X146381491Y-98238059D01*
X146440301Y-98243851D01*
X146719701Y-98243851D01*
X146778511Y-98238059D01*
X146830001Y-98222439D01*
X146881490Y-98238059D01*
X146940300Y-98243851D01*
X147219700Y-98243851D01*
X147278510Y-98238059D01*
X147330000Y-98222439D01*
X147381489Y-98238059D01*
X147440299Y-98243851D01*
X147719699Y-98243851D01*
X147778509Y-98238059D01*
X147830000Y-98222439D01*
X147881491Y-98238059D01*
X147940301Y-98243851D01*
X148219701Y-98243851D01*
X148278511Y-98238059D01*
X148330001Y-98222439D01*
X148381490Y-98238059D01*
X148440300Y-98243851D01*
X148719700Y-98243851D01*
X148778510Y-98238059D01*
X148835060Y-98220904D01*
X148887177Y-98193047D01*
X148932858Y-98155558D01*
X148970347Y-98109877D01*
X148998204Y-98057760D01*
X149015359Y-98001210D01*
X149021151Y-97942400D01*
X149021151Y-96596200D01*
X149015359Y-96537390D01*
X148998204Y-96480840D01*
X148970347Y-96428723D01*
X148932858Y-96383042D01*
X148887177Y-96345553D01*
X148835060Y-96317696D01*
X148778510Y-96300541D01*
X148719700Y-96294749D01*
X148440300Y-96294749D01*
X148381490Y-96300541D01*
X148330001Y-96316161D01*
X148278511Y-96300541D01*
X148219701Y-96294749D01*
X147940301Y-96294749D01*
X147881491Y-96300541D01*
X147830000Y-96316161D01*
X147778509Y-96300541D01*
X147719699Y-96294749D01*
X147440299Y-96294749D01*
X147381489Y-96300541D01*
X147330000Y-96316161D01*
X147329129Y-96315897D01*
X147331472Y-96313974D01*
X147344781Y-96297757D01*
X149016190Y-94626349D01*
X149037250Y-94665751D01*
G36*
X158340298Y-92911220D02*
G01*
X158330671Y-92969525D01*
X158332605Y-93028588D01*
X158346024Y-93086139D01*
X158370413Y-93139966D01*
X158404834Y-93188001D01*
X158444627Y-93225271D01*
X158434252Y-93235646D01*
X158371873Y-93329004D01*
X158328905Y-93432737D01*
X158307000Y-93542860D01*
X158307000Y-93655140D01*
X158313878Y-93689717D01*
X158261900Y-93677597D01*
X158202837Y-93675663D01*
X158144532Y-93685290D01*
X158089225Y-93706106D01*
X158039041Y-93737312D01*
X157995910Y-93777708D01*
X157961489Y-93825743D01*
X157511489Y-94605165D01*
X157487100Y-94658993D01*
X157473681Y-94716544D01*
X157471747Y-94775607D01*
X157481374Y-94833912D01*
X157502190Y-94889219D01*
X157533396Y-94939403D01*
X157573793Y-94982534D01*
X157621827Y-95016955D01*
X158331640Y-95426766D01*
X158331639Y-95538885D01*
X157573279Y-95101045D01*
X157519451Y-95076656D01*
X157461900Y-95063237D01*
X157402837Y-95061303D01*
X157344532Y-95070930D01*
X157289225Y-95091746D01*
X157239041Y-95122952D01*
X157195910Y-95163348D01*
X157161489Y-95211383D01*
X156711489Y-95990805D01*
X156687100Y-96044633D01*
X156673681Y-96102184D01*
X156671747Y-96161247D01*
X156681374Y-96219552D01*
X156700352Y-96269977D01*
X156608646Y-96331252D01*
X156529252Y-96410646D01*
X156466873Y-96504004D01*
X156423905Y-96607737D01*
X156405343Y-96701052D01*
X156380860Y-96693625D01*
X156322050Y-96687833D01*
X156263240Y-96693625D01*
X156206690Y-96710780D01*
X156154573Y-96738637D01*
X156108892Y-96776126D01*
X155472496Y-97412522D01*
X155435007Y-97458203D01*
X155407150Y-97510320D01*
X155389995Y-97566870D01*
X155384203Y-97625680D01*
X155389995Y-97684490D01*
X155407150Y-97741040D01*
X155435007Y-97793157D01*
X155472496Y-97838838D01*
X155914728Y-98281070D01*
X155914728Y-98418386D01*
X155403838Y-97907496D01*
X155358157Y-97870007D01*
X155306040Y-97842150D01*
X155249490Y-97824995D01*
X155190680Y-97819203D01*
X155131870Y-97824995D01*
X155075320Y-97842150D01*
X155023203Y-97870007D01*
X154977522Y-97907496D01*
X154341126Y-98543892D01*
X154303637Y-98589573D01*
X154275780Y-98641690D01*
X154258625Y-98698240D01*
X154252833Y-98757050D01*
X154258625Y-98815860D01*
X154275780Y-98872410D01*
X154284717Y-98889130D01*
X154265737Y-98892905D01*
X154162004Y-98935873D01*
X154068646Y-98998252D01*
X153989252Y-99077646D01*
X153926873Y-99171004D01*
X153917357Y-99193978D01*
X153890043Y-99168396D01*
X153839859Y-99137190D01*
X153784552Y-99116374D01*
X153726247Y-99106747D01*
X153667184Y-99108681D01*
X153609633Y-99122100D01*
X153555805Y-99146489D01*
X153322134Y-99281399D01*
X152927000Y-98886266D01*
X152927000Y-97882748D01*
X152961730Y-97872212D01*
X152976609Y-97884423D01*
X153037413Y-97916923D01*
X153103388Y-97936936D01*
X153172000Y-97943694D01*
X153359500Y-97942000D01*
X153447000Y-97854500D01*
X153447000Y-97307000D01*
X153497000Y-97307000D01*
X153497000Y-97854500D01*
X153584500Y-97942000D01*
X153772000Y-97943694D01*
X153840612Y-97936936D01*
X153906587Y-97916923D01*
X153967391Y-97884423D01*
X154020685Y-97840685D01*
X154064423Y-97787391D01*
X154096923Y-97726587D01*
X154116936Y-97660612D01*
X154123694Y-97592000D01*
X154122000Y-97394500D01*
X154034500Y-97307000D01*
X153497000Y-97307000D01*
X153447000Y-97307000D01*
X153427000Y-97307000D01*
X153427000Y-97257000D01*
X153447000Y-97257000D01*
X153447000Y-97237000D01*
X153497000Y-97237000D01*
X153497000Y-97257000D01*
X154034500Y-97257000D01*
X154122000Y-97169500D01*
X154123694Y-96972000D01*
X154116936Y-96903388D01*
X154096923Y-96837413D01*
X154064423Y-96776609D01*
X154021069Y-96723783D01*
X154040685Y-96707685D01*
X154084423Y-96654391D01*
X154116923Y-96593587D01*
X154136936Y-96527612D01*
X154143694Y-96459000D01*
X154142000Y-96251500D01*
X154054500Y-96164000D01*
X153522000Y-96164000D01*
X153522000Y-96684500D01*
X153497002Y-96709498D01*
X153497002Y-96622000D01*
X153472000Y-96622000D01*
X153472000Y-96164000D01*
X153452000Y-96164000D01*
X153452000Y-96114000D01*
X153472000Y-96114000D01*
X153472000Y-96094000D01*
X153522000Y-96094000D01*
X153522000Y-96114000D01*
X154054500Y-96114000D01*
X154142000Y-96026500D01*
X154142902Y-95916010D01*
X155011574Y-95916010D01*
X155029990Y-95917824D01*
X155048406Y-95916010D01*
X155048409Y-95916010D01*
X155103503Y-95910584D01*
X155174190Y-95889141D01*
X155239337Y-95854319D01*
X155296438Y-95807458D01*
X155308185Y-95793144D01*
X158395271Y-92706059D01*
X158340298Y-92911220D01*
G37*
X158340298Y-92911220D02*
X158330671Y-92969525D01*
X158332605Y-93028588D01*
X158346024Y-93086139D01*
X158370413Y-93139966D01*
X158404834Y-93188001D01*
X158444627Y-93225271D01*
X158434252Y-93235646D01*
X158371873Y-93329004D01*
X158328905Y-93432737D01*
X158307000Y-93542860D01*
X158307000Y-93655140D01*
X158313878Y-93689717D01*
X158261900Y-93677597D01*
X158202837Y-93675663D01*
X158144532Y-93685290D01*
X158089225Y-93706106D01*
X158039041Y-93737312D01*
X157995910Y-93777708D01*
X157961489Y-93825743D01*
X157511489Y-94605165D01*
X157487100Y-94658993D01*
X157473681Y-94716544D01*
X157471747Y-94775607D01*
X157481374Y-94833912D01*
X157502190Y-94889219D01*
X157533396Y-94939403D01*
X157573793Y-94982534D01*
X157621827Y-95016955D01*
X158331640Y-95426766D01*
X158331639Y-95538885D01*
X157573279Y-95101045D01*
X157519451Y-95076656D01*
X157461900Y-95063237D01*
X157402837Y-95061303D01*
X157344532Y-95070930D01*
X157289225Y-95091746D01*
X157239041Y-95122952D01*
X157195910Y-95163348D01*
X157161489Y-95211383D01*
X156711489Y-95990805D01*
X156687100Y-96044633D01*
X156673681Y-96102184D01*
X156671747Y-96161247D01*
X156681374Y-96219552D01*
X156700352Y-96269977D01*
X156608646Y-96331252D01*
X156529252Y-96410646D01*
X156466873Y-96504004D01*
X156423905Y-96607737D01*
X156405343Y-96701052D01*
X156380860Y-96693625D01*
X156322050Y-96687833D01*
X156263240Y-96693625D01*
X156206690Y-96710780D01*
X156154573Y-96738637D01*
X156108892Y-96776126D01*
X155472496Y-97412522D01*
X155435007Y-97458203D01*
X155407150Y-97510320D01*
X155389995Y-97566870D01*
X155384203Y-97625680D01*
X155389995Y-97684490D01*
X155407150Y-97741040D01*
X155435007Y-97793157D01*
X155472496Y-97838838D01*
X155914728Y-98281070D01*
X155914728Y-98418386D01*
X155403838Y-97907496D01*
X155358157Y-97870007D01*
X155306040Y-97842150D01*
X155249490Y-97824995D01*
X155190680Y-97819203D01*
X155131870Y-97824995D01*
X155075320Y-97842150D01*
X155023203Y-97870007D01*
X154977522Y-97907496D01*
X154341126Y-98543892D01*
X154303637Y-98589573D01*
X154275780Y-98641690D01*
X154258625Y-98698240D01*
X154252833Y-98757050D01*
X154258625Y-98815860D01*
X154275780Y-98872410D01*
X154284717Y-98889130D01*
X154265737Y-98892905D01*
X154162004Y-98935873D01*
X154068646Y-98998252D01*
X153989252Y-99077646D01*
X153926873Y-99171004D01*
X153917357Y-99193978D01*
X153890043Y-99168396D01*
X153839859Y-99137190D01*
X153784552Y-99116374D01*
X153726247Y-99106747D01*
X153667184Y-99108681D01*
X153609633Y-99122100D01*
X153555805Y-99146489D01*
X153322134Y-99281399D01*
X152927000Y-98886266D01*
X152927000Y-97882748D01*
X152961730Y-97872212D01*
X152976609Y-97884423D01*
X153037413Y-97916923D01*
X153103388Y-97936936D01*
X153172000Y-97943694D01*
X153359500Y-97942000D01*
X153447000Y-97854500D01*
X153447000Y-97307000D01*
X153497000Y-97307000D01*
X153497000Y-97854500D01*
X153584500Y-97942000D01*
X153772000Y-97943694D01*
X153840612Y-97936936D01*
X153906587Y-97916923D01*
X153967391Y-97884423D01*
X154020685Y-97840685D01*
X154064423Y-97787391D01*
X154096923Y-97726587D01*
X154116936Y-97660612D01*
X154123694Y-97592000D01*
X154122000Y-97394500D01*
X154034500Y-97307000D01*
X153497000Y-97307000D01*
X153447000Y-97307000D01*
X153427000Y-97307000D01*
X153427000Y-97257000D01*
X153447000Y-97257000D01*
X153447000Y-97237000D01*
X153497000Y-97237000D01*
X153497000Y-97257000D01*
X154034500Y-97257000D01*
X154122000Y-97169500D01*
X154123694Y-96972000D01*
X154116936Y-96903388D01*
X154096923Y-96837413D01*
X154064423Y-96776609D01*
X154021069Y-96723783D01*
X154040685Y-96707685D01*
X154084423Y-96654391D01*
X154116923Y-96593587D01*
X154136936Y-96527612D01*
X154143694Y-96459000D01*
X154142000Y-96251500D01*
X154054500Y-96164000D01*
X153522000Y-96164000D01*
X153522000Y-96684500D01*
X153497002Y-96709498D01*
X153497002Y-96622000D01*
X153472000Y-96622000D01*
X153472000Y-96164000D01*
X153452000Y-96164000D01*
X153452000Y-96114000D01*
X153472000Y-96114000D01*
X153472000Y-96094000D01*
X153522000Y-96094000D01*
X153522000Y-96114000D01*
X154054500Y-96114000D01*
X154142000Y-96026500D01*
X154142902Y-95916010D01*
X155011574Y-95916010D01*
X155029990Y-95917824D01*
X155048406Y-95916010D01*
X155048409Y-95916010D01*
X155103503Y-95910584D01*
X155174190Y-95889141D01*
X155239337Y-95854319D01*
X155296438Y-95807458D01*
X155308185Y-95793144D01*
X158395271Y-92706059D01*
X158340298Y-92911220D01*
G36*
X145104999Y-97244300D02*
G01*
X145124999Y-97244300D01*
X145124999Y-97294300D01*
X145104999Y-97294300D01*
X145104999Y-97314300D01*
X145054999Y-97314300D01*
X145054999Y-97294300D01*
X145034999Y-97294300D01*
X145034999Y-97244300D01*
X145054999Y-97244300D01*
X145054999Y-97224300D01*
X145104999Y-97224300D01*
X145104999Y-97244300D01*
G37*
X145104999Y-97244300D02*
X145124999Y-97244300D01*
X145124999Y-97294300D01*
X145104999Y-97294300D01*
X145104999Y-97314300D01*
X145054999Y-97314300D01*
X145054999Y-97294300D01*
X145034999Y-97294300D01*
X145034999Y-97244300D01*
X145054999Y-97244300D01*
X145054999Y-97224300D01*
X145104999Y-97224300D01*
X145104999Y-97244300D01*
G36*
X138376400Y-95733000D02*
G01*
X138396400Y-95733000D01*
X138396400Y-95783000D01*
X138376400Y-95783000D01*
X138376400Y-95803000D01*
X138326400Y-95803000D01*
X138326400Y-95783000D01*
X138306400Y-95783000D01*
X138306400Y-95733000D01*
X138326400Y-95733000D01*
X138326400Y-95713000D01*
X138376400Y-95713000D01*
X138376400Y-95733000D01*
G37*
X138376400Y-95733000D02*
X138396400Y-95733000D01*
X138396400Y-95783000D01*
X138376400Y-95783000D01*
X138376400Y-95803000D01*
X138326400Y-95803000D01*
X138326400Y-95783000D01*
X138306400Y-95783000D01*
X138306400Y-95733000D01*
X138326400Y-95733000D01*
X138326400Y-95713000D01*
X138376400Y-95713000D01*
X138376400Y-95733000D01*
G36*
X142590300Y-88800200D02*
G01*
X142677800Y-88887700D01*
X143055000Y-88887700D01*
X143055000Y-88867700D01*
X143105000Y-88867700D01*
X143105000Y-88887700D01*
X143125000Y-88887700D01*
X143125000Y-88937700D01*
X143105000Y-88937700D01*
X143105000Y-89848300D01*
X143192500Y-89935800D01*
X143219700Y-89937494D01*
X143288312Y-89930736D01*
X143354287Y-89910723D01*
X143404751Y-89883750D01*
X143440299Y-89887251D01*
X143719699Y-89887251D01*
X143778509Y-89881459D01*
X143830000Y-89865839D01*
X143881491Y-89881459D01*
X143940301Y-89887251D01*
X144205000Y-89887251D01*
X144205000Y-89960670D01*
X144184670Y-89981000D01*
X144088860Y-89981000D01*
X143978737Y-90002905D01*
X143875004Y-90045873D01*
X143781646Y-90108252D01*
X143702252Y-90187646D01*
X143639873Y-90281004D01*
X143596905Y-90384737D01*
X143575000Y-90494860D01*
X143575000Y-90607140D01*
X143596905Y-90717263D01*
X143639873Y-90820996D01*
X143702252Y-90914354D01*
X143781646Y-90993748D01*
X143872048Y-91054152D01*
X143828715Y-91089715D01*
X143784977Y-91143009D01*
X143752477Y-91203813D01*
X143732464Y-91269788D01*
X143725706Y-91338400D01*
X143727400Y-92978500D01*
X143814900Y-93066000D01*
X145805000Y-93066000D01*
X145805000Y-93046000D01*
X145855000Y-93046000D01*
X145855000Y-93066000D01*
X147845100Y-93066000D01*
X147932600Y-92978500D01*
X147934294Y-91338400D01*
X147927536Y-91269788D01*
X147907523Y-91203813D01*
X147875023Y-91143009D01*
X147831285Y-91089715D01*
X147777991Y-91045977D01*
X147717187Y-91013477D01*
X147651212Y-90993464D01*
X147582600Y-90986706D01*
X147379538Y-90986916D01*
X147382000Y-90974538D01*
X147382000Y-90862258D01*
X147369297Y-90798397D01*
X147799069Y-90798397D01*
X147893001Y-90892330D01*
X147893001Y-90988140D01*
X147914906Y-91098263D01*
X147957874Y-91201996D01*
X148020253Y-91295354D01*
X148099647Y-91374748D01*
X148193005Y-91437127D01*
X148296738Y-91480095D01*
X148406861Y-91502000D01*
X148519141Y-91502000D01*
X148629264Y-91480095D01*
X148732997Y-91437127D01*
X148826355Y-91374748D01*
X148905749Y-91295354D01*
X148968128Y-91201996D01*
X149011096Y-91098263D01*
X149033001Y-90988140D01*
X149033001Y-90875860D01*
X149011096Y-90765737D01*
X148968128Y-90662004D01*
X148905749Y-90568646D01*
X148826355Y-90489252D01*
X148732997Y-90426873D01*
X148629264Y-90383905D01*
X148519141Y-90362000D01*
X148423331Y-90362000D01*
X148347132Y-90285801D01*
X148918834Y-90285801D01*
X148939701Y-90287856D01*
X148960568Y-90285801D01*
X148960575Y-90285801D01*
X149023015Y-90279651D01*
X149033749Y-90276395D01*
X149033749Y-90480700D01*
X149039541Y-90539510D01*
X149055161Y-90590999D01*
X149039541Y-90642489D01*
X149033749Y-90701299D01*
X149033749Y-90980699D01*
X149039541Y-91039509D01*
X149055161Y-91091000D01*
X149039541Y-91142491D01*
X149033749Y-91201301D01*
X149033749Y-91480701D01*
X149039541Y-91539511D01*
X149055161Y-91591000D01*
X149039541Y-91642490D01*
X149033749Y-91701300D01*
X149033749Y-91980700D01*
X149039541Y-92039510D01*
X149055161Y-92091000D01*
X149039541Y-92142489D01*
X149033749Y-92201299D01*
X149033749Y-92480699D01*
X149039541Y-92539509D01*
X149055161Y-92591000D01*
X149039541Y-92642490D01*
X149033749Y-92701300D01*
X149033749Y-92980700D01*
X149039541Y-93039510D01*
X149055161Y-93091000D01*
X149039541Y-93142490D01*
X149033749Y-93201300D01*
X149033749Y-93448228D01*
X148963237Y-93485917D01*
X148898523Y-93539027D01*
X148885218Y-93555239D01*
X147933946Y-94506512D01*
X147932600Y-93203500D01*
X147845100Y-93116000D01*
X145855000Y-93116000D01*
X145855000Y-95106100D01*
X145942500Y-95193600D01*
X147245512Y-95194946D01*
X146853458Y-95587000D01*
X146070867Y-95587000D01*
X146050000Y-95584945D01*
X146029133Y-95587000D01*
X144829041Y-95587000D01*
X144436963Y-95194923D01*
X145717500Y-95193600D01*
X145805000Y-95106100D01*
X145805000Y-93116000D01*
X143814900Y-93116000D01*
X143727400Y-93203500D01*
X143727323Y-93278412D01*
X143698748Y-93235646D01*
X143631000Y-93167898D01*
X143631000Y-92745912D01*
X143632814Y-92727496D01*
X143631000Y-92709078D01*
X143625574Y-92653984D01*
X143604131Y-92583297D01*
X143569309Y-92518150D01*
X143522448Y-92461049D01*
X143508139Y-92449306D01*
X142647698Y-91588866D01*
X142635951Y-91574552D01*
X142615036Y-91557388D01*
X142620459Y-91539511D01*
X142626251Y-91480701D01*
X142626251Y-91201301D01*
X142620459Y-91142491D01*
X142604839Y-91091000D01*
X142620459Y-91039509D01*
X142626251Y-90980699D01*
X142626251Y-90701299D01*
X142620459Y-90642489D01*
X142604839Y-90590999D01*
X142620459Y-90539510D01*
X142626251Y-90480700D01*
X142626251Y-90201300D01*
X142620459Y-90142490D01*
X142603304Y-90085940D01*
X142575447Y-90033823D01*
X142537958Y-89988142D01*
X142492277Y-89950653D01*
X142440160Y-89922796D01*
X142383610Y-89905641D01*
X142324800Y-89899849D01*
X142250443Y-89899849D01*
X142280095Y-89828263D01*
X142302000Y-89718140D01*
X142302000Y-89622330D01*
X142305138Y-89619192D01*
X142319447Y-89607449D01*
X142337213Y-89585800D01*
X142588606Y-89585800D01*
X142595364Y-89654412D01*
X142615377Y-89720387D01*
X142647877Y-89781191D01*
X142691615Y-89834485D01*
X142744909Y-89878223D01*
X142805713Y-89910723D01*
X142871688Y-89930736D01*
X142940300Y-89937494D01*
X142967500Y-89935800D01*
X143055000Y-89848300D01*
X143055000Y-88937700D01*
X142677800Y-88937700D01*
X142590300Y-89025200D01*
X142588606Y-89585800D01*
X142337213Y-89585800D01*
X142366308Y-89550348D01*
X142396679Y-89493529D01*
X142401129Y-89485203D01*
X142401130Y-89485201D01*
X142422573Y-89414514D01*
X142427999Y-89359420D01*
X142427999Y-89359418D01*
X142429813Y-89341002D01*
X142427999Y-89322586D01*
X142427999Y-88899166D01*
X142590109Y-88737056D01*
X142590300Y-88800200D01*
G37*
X142590300Y-88800200D02*
X142677800Y-88887700D01*
X143055000Y-88887700D01*
X143055000Y-88867700D01*
X143105000Y-88867700D01*
X143105000Y-88887700D01*
X143125000Y-88887700D01*
X143125000Y-88937700D01*
X143105000Y-88937700D01*
X143105000Y-89848300D01*
X143192500Y-89935800D01*
X143219700Y-89937494D01*
X143288312Y-89930736D01*
X143354287Y-89910723D01*
X143404751Y-89883750D01*
X143440299Y-89887251D01*
X143719699Y-89887251D01*
X143778509Y-89881459D01*
X143830000Y-89865839D01*
X143881491Y-89881459D01*
X143940301Y-89887251D01*
X144205000Y-89887251D01*
X144205000Y-89960670D01*
X144184670Y-89981000D01*
X144088860Y-89981000D01*
X143978737Y-90002905D01*
X143875004Y-90045873D01*
X143781646Y-90108252D01*
X143702252Y-90187646D01*
X143639873Y-90281004D01*
X143596905Y-90384737D01*
X143575000Y-90494860D01*
X143575000Y-90607140D01*
X143596905Y-90717263D01*
X143639873Y-90820996D01*
X143702252Y-90914354D01*
X143781646Y-90993748D01*
X143872048Y-91054152D01*
X143828715Y-91089715D01*
X143784977Y-91143009D01*
X143752477Y-91203813D01*
X143732464Y-91269788D01*
X143725706Y-91338400D01*
X143727400Y-92978500D01*
X143814900Y-93066000D01*
X145805000Y-93066000D01*
X145805000Y-93046000D01*
X145855000Y-93046000D01*
X145855000Y-93066000D01*
X147845100Y-93066000D01*
X147932600Y-92978500D01*
X147934294Y-91338400D01*
X147927536Y-91269788D01*
X147907523Y-91203813D01*
X147875023Y-91143009D01*
X147831285Y-91089715D01*
X147777991Y-91045977D01*
X147717187Y-91013477D01*
X147651212Y-90993464D01*
X147582600Y-90986706D01*
X147379538Y-90986916D01*
X147382000Y-90974538D01*
X147382000Y-90862258D01*
X147369297Y-90798397D01*
X147799069Y-90798397D01*
X147893001Y-90892330D01*
X147893001Y-90988140D01*
X147914906Y-91098263D01*
X147957874Y-91201996D01*
X148020253Y-91295354D01*
X148099647Y-91374748D01*
X148193005Y-91437127D01*
X148296738Y-91480095D01*
X148406861Y-91502000D01*
X148519141Y-91502000D01*
X148629264Y-91480095D01*
X148732997Y-91437127D01*
X148826355Y-91374748D01*
X148905749Y-91295354D01*
X148968128Y-91201996D01*
X149011096Y-91098263D01*
X149033001Y-90988140D01*
X149033001Y-90875860D01*
X149011096Y-90765737D01*
X148968128Y-90662004D01*
X148905749Y-90568646D01*
X148826355Y-90489252D01*
X148732997Y-90426873D01*
X148629264Y-90383905D01*
X148519141Y-90362000D01*
X148423331Y-90362000D01*
X148347132Y-90285801D01*
X148918834Y-90285801D01*
X148939701Y-90287856D01*
X148960568Y-90285801D01*
X148960575Y-90285801D01*
X149023015Y-90279651D01*
X149033749Y-90276395D01*
X149033749Y-90480700D01*
X149039541Y-90539510D01*
X149055161Y-90590999D01*
X149039541Y-90642489D01*
X149033749Y-90701299D01*
X149033749Y-90980699D01*
X149039541Y-91039509D01*
X149055161Y-91091000D01*
X149039541Y-91142491D01*
X149033749Y-91201301D01*
X149033749Y-91480701D01*
X149039541Y-91539511D01*
X149055161Y-91591000D01*
X149039541Y-91642490D01*
X149033749Y-91701300D01*
X149033749Y-91980700D01*
X149039541Y-92039510D01*
X149055161Y-92091000D01*
X149039541Y-92142489D01*
X149033749Y-92201299D01*
X149033749Y-92480699D01*
X149039541Y-92539509D01*
X149055161Y-92591000D01*
X149039541Y-92642490D01*
X149033749Y-92701300D01*
X149033749Y-92980700D01*
X149039541Y-93039510D01*
X149055161Y-93091000D01*
X149039541Y-93142490D01*
X149033749Y-93201300D01*
X149033749Y-93448228D01*
X148963237Y-93485917D01*
X148898523Y-93539027D01*
X148885218Y-93555239D01*
X147933946Y-94506512D01*
X147932600Y-93203500D01*
X147845100Y-93116000D01*
X145855000Y-93116000D01*
X145855000Y-95106100D01*
X145942500Y-95193600D01*
X147245512Y-95194946D01*
X146853458Y-95587000D01*
X146070867Y-95587000D01*
X146050000Y-95584945D01*
X146029133Y-95587000D01*
X144829041Y-95587000D01*
X144436963Y-95194923D01*
X145717500Y-95193600D01*
X145805000Y-95106100D01*
X145805000Y-93116000D01*
X143814900Y-93116000D01*
X143727400Y-93203500D01*
X143727323Y-93278412D01*
X143698748Y-93235646D01*
X143631000Y-93167898D01*
X143631000Y-92745912D01*
X143632814Y-92727496D01*
X143631000Y-92709078D01*
X143625574Y-92653984D01*
X143604131Y-92583297D01*
X143569309Y-92518150D01*
X143522448Y-92461049D01*
X143508139Y-92449306D01*
X142647698Y-91588866D01*
X142635951Y-91574552D01*
X142615036Y-91557388D01*
X142620459Y-91539511D01*
X142626251Y-91480701D01*
X142626251Y-91201301D01*
X142620459Y-91142491D01*
X142604839Y-91091000D01*
X142620459Y-91039509D01*
X142626251Y-90980699D01*
X142626251Y-90701299D01*
X142620459Y-90642489D01*
X142604839Y-90590999D01*
X142620459Y-90539510D01*
X142626251Y-90480700D01*
X142626251Y-90201300D01*
X142620459Y-90142490D01*
X142603304Y-90085940D01*
X142575447Y-90033823D01*
X142537958Y-89988142D01*
X142492277Y-89950653D01*
X142440160Y-89922796D01*
X142383610Y-89905641D01*
X142324800Y-89899849D01*
X142250443Y-89899849D01*
X142280095Y-89828263D01*
X142302000Y-89718140D01*
X142302000Y-89622330D01*
X142305138Y-89619192D01*
X142319447Y-89607449D01*
X142337213Y-89585800D01*
X142588606Y-89585800D01*
X142595364Y-89654412D01*
X142615377Y-89720387D01*
X142647877Y-89781191D01*
X142691615Y-89834485D01*
X142744909Y-89878223D01*
X142805713Y-89910723D01*
X142871688Y-89930736D01*
X142940300Y-89937494D01*
X142967500Y-89935800D01*
X143055000Y-89848300D01*
X143055000Y-88937700D01*
X142677800Y-88937700D01*
X142590300Y-89025200D01*
X142588606Y-89585800D01*
X142337213Y-89585800D01*
X142366308Y-89550348D01*
X142396679Y-89493529D01*
X142401129Y-89485203D01*
X142401130Y-89485201D01*
X142422573Y-89414514D01*
X142427999Y-89359420D01*
X142427999Y-89359418D01*
X142429813Y-89341002D01*
X142427999Y-89322586D01*
X142427999Y-88899166D01*
X142590109Y-88737056D01*
X142590300Y-88800200D01*
G36*
X136047719Y-93910762D02*
G01*
X136061024Y-93926974D01*
X136125738Y-93980084D01*
X136199571Y-94019548D01*
X136255381Y-94036478D01*
X136279683Y-94043850D01*
X136287325Y-94044603D01*
X136342124Y-94050000D01*
X136342131Y-94050000D01*
X136362998Y-94052055D01*
X136383865Y-94050000D01*
X137208011Y-94050000D01*
X137211341Y-94083810D01*
X137228496Y-94140360D01*
X137256353Y-94192477D01*
X137293842Y-94238158D01*
X137339523Y-94275647D01*
X137391640Y-94303504D01*
X137448190Y-94320659D01*
X137507000Y-94326451D01*
X137668835Y-94326451D01*
X137660664Y-94353388D01*
X137653906Y-94422000D01*
X137655600Y-94629500D01*
X137743100Y-94717000D01*
X138275600Y-94717000D01*
X138275600Y-94697000D01*
X138325600Y-94697000D01*
X138325600Y-94717000D01*
X138345600Y-94717000D01*
X138345600Y-94767000D01*
X138325600Y-94767000D01*
X138325600Y-94787000D01*
X138275600Y-94787000D01*
X138275600Y-94767000D01*
X137743100Y-94767000D01*
X137655600Y-94854500D01*
X137653906Y-95062000D01*
X137660664Y-95130612D01*
X137680677Y-95196587D01*
X137713177Y-95257391D01*
X137739156Y-95289046D01*
X137731477Y-95303413D01*
X137711464Y-95369388D01*
X137704706Y-95438000D01*
X137705368Y-95519038D01*
X137387395Y-95201066D01*
X137375648Y-95186752D01*
X137318547Y-95139891D01*
X137253400Y-95105069D01*
X137182713Y-95083626D01*
X137127619Y-95078200D01*
X137127616Y-95078200D01*
X137109200Y-95076386D01*
X137090784Y-95078200D01*
X136441815Y-95078200D01*
X136423399Y-95076386D01*
X136404983Y-95078200D01*
X136404981Y-95078200D01*
X136349887Y-95083626D01*
X136279200Y-95105069D01*
X136276030Y-95106763D01*
X136276030Y-94867419D01*
X136277844Y-94849003D01*
X136275881Y-94829070D01*
X136270604Y-94775491D01*
X136249161Y-94704804D01*
X136233814Y-94676091D01*
X136214339Y-94639657D01*
X136207770Y-94631653D01*
X136167478Y-94582556D01*
X136153170Y-94570814D01*
X134880501Y-93298146D01*
X134880501Y-92743543D01*
X136047719Y-93910762D01*
G37*
X136047719Y-93910762D02*
X136061024Y-93926974D01*
X136125738Y-93980084D01*
X136199571Y-94019548D01*
X136255381Y-94036478D01*
X136279683Y-94043850D01*
X136287325Y-94044603D01*
X136342124Y-94050000D01*
X136342131Y-94050000D01*
X136362998Y-94052055D01*
X136383865Y-94050000D01*
X137208011Y-94050000D01*
X137211341Y-94083810D01*
X137228496Y-94140360D01*
X137256353Y-94192477D01*
X137293842Y-94238158D01*
X137339523Y-94275647D01*
X137391640Y-94303504D01*
X137448190Y-94320659D01*
X137507000Y-94326451D01*
X137668835Y-94326451D01*
X137660664Y-94353388D01*
X137653906Y-94422000D01*
X137655600Y-94629500D01*
X137743100Y-94717000D01*
X138275600Y-94717000D01*
X138275600Y-94697000D01*
X138325600Y-94697000D01*
X138325600Y-94717000D01*
X138345600Y-94717000D01*
X138345600Y-94767000D01*
X138325600Y-94767000D01*
X138325600Y-94787000D01*
X138275600Y-94787000D01*
X138275600Y-94767000D01*
X137743100Y-94767000D01*
X137655600Y-94854500D01*
X137653906Y-95062000D01*
X137660664Y-95130612D01*
X137680677Y-95196587D01*
X137713177Y-95257391D01*
X137739156Y-95289046D01*
X137731477Y-95303413D01*
X137711464Y-95369388D01*
X137704706Y-95438000D01*
X137705368Y-95519038D01*
X137387395Y-95201066D01*
X137375648Y-95186752D01*
X137318547Y-95139891D01*
X137253400Y-95105069D01*
X137182713Y-95083626D01*
X137127619Y-95078200D01*
X137127616Y-95078200D01*
X137109200Y-95076386D01*
X137090784Y-95078200D01*
X136441815Y-95078200D01*
X136423399Y-95076386D01*
X136404983Y-95078200D01*
X136404981Y-95078200D01*
X136349887Y-95083626D01*
X136279200Y-95105069D01*
X136276030Y-95106763D01*
X136276030Y-94867419D01*
X136277844Y-94849003D01*
X136275881Y-94829070D01*
X136270604Y-94775491D01*
X136249161Y-94704804D01*
X136233814Y-94676091D01*
X136214339Y-94639657D01*
X136207770Y-94631653D01*
X136167478Y-94582556D01*
X136153170Y-94570814D01*
X134880501Y-93298146D01*
X134880501Y-92743543D01*
X136047719Y-93910762D01*
G36*
X156780500Y-92050000D02*
G01*
X157328000Y-92050000D01*
X157328000Y-92030000D01*
X157378000Y-92030000D01*
X157378000Y-92050000D01*
X157398000Y-92050000D01*
X157398000Y-92100000D01*
X157378000Y-92100000D01*
X157378000Y-92120000D01*
X157328000Y-92120000D01*
X157328000Y-92100000D01*
X156780500Y-92100000D01*
X156693000Y-92187500D01*
X156691306Y-92375000D01*
X156698064Y-92443612D01*
X156718077Y-92509587D01*
X156750577Y-92570391D01*
X156794315Y-92623685D01*
X156847609Y-92667423D01*
X156908413Y-92699923D01*
X156974388Y-92719936D01*
X157043000Y-92726694D01*
X157240500Y-92725000D01*
X157327998Y-92637502D01*
X157327998Y-92712672D01*
X154874661Y-95166010D01*
X154093451Y-95166010D01*
X154093451Y-94929878D01*
X154430139Y-94593191D01*
X154444448Y-94581448D01*
X154471597Y-94548367D01*
X154491309Y-94524348D01*
X154526130Y-94459202D01*
X154526131Y-94459200D01*
X154547574Y-94388513D01*
X154553000Y-94333419D01*
X154553000Y-94333417D01*
X154554814Y-94315001D01*
X154553000Y-94296585D01*
X154553000Y-93905451D01*
X154708000Y-93905451D01*
X154766810Y-93899659D01*
X154823360Y-93882504D01*
X154875477Y-93854647D01*
X154921158Y-93817158D01*
X154958647Y-93771477D01*
X154986504Y-93719360D01*
X155003659Y-93662810D01*
X155009451Y-93604000D01*
X155009451Y-92954000D01*
X155003659Y-92895190D01*
X154992642Y-92858872D01*
X155000423Y-92849391D01*
X155032923Y-92788587D01*
X155052936Y-92722612D01*
X155059694Y-92654000D01*
X155058000Y-92441500D01*
X154970500Y-92354000D01*
X154203000Y-92354000D01*
X154203000Y-92374000D01*
X154153000Y-92374000D01*
X154153000Y-92354000D01*
X154133000Y-92354000D01*
X154133000Y-92304000D01*
X154153000Y-92304000D01*
X154153000Y-92284000D01*
X154203000Y-92284000D01*
X154203000Y-92304000D01*
X154970500Y-92304000D01*
X155058000Y-92216500D01*
X155058365Y-92170695D01*
X155080599Y-92203970D01*
X155192030Y-92315401D01*
X155323058Y-92402951D01*
X155468649Y-92463257D01*
X155623207Y-92494000D01*
X155780793Y-92494000D01*
X155935351Y-92463257D01*
X156080942Y-92402951D01*
X156211970Y-92315401D01*
X156323401Y-92203970D01*
X156380176Y-92119000D01*
X156388239Y-92119000D01*
X156409106Y-92121055D01*
X156429973Y-92119000D01*
X156429980Y-92119000D01*
X156492420Y-92112850D01*
X156572533Y-92088548D01*
X156646366Y-92049084D01*
X156711080Y-91995974D01*
X156718019Y-91987519D01*
X156780500Y-92050000D01*
G37*
X156780500Y-92050000D02*
X157328000Y-92050000D01*
X157328000Y-92030000D01*
X157378000Y-92030000D01*
X157378000Y-92050000D01*
X157398000Y-92050000D01*
X157398000Y-92100000D01*
X157378000Y-92100000D01*
X157378000Y-92120000D01*
X157328000Y-92120000D01*
X157328000Y-92100000D01*
X156780500Y-92100000D01*
X156693000Y-92187500D01*
X156691306Y-92375000D01*
X156698064Y-92443612D01*
X156718077Y-92509587D01*
X156750577Y-92570391D01*
X156794315Y-92623685D01*
X156847609Y-92667423D01*
X156908413Y-92699923D01*
X156974388Y-92719936D01*
X157043000Y-92726694D01*
X157240500Y-92725000D01*
X157327998Y-92637502D01*
X157327998Y-92712672D01*
X154874661Y-95166010D01*
X154093451Y-95166010D01*
X154093451Y-94929878D01*
X154430139Y-94593191D01*
X154444448Y-94581448D01*
X154471597Y-94548367D01*
X154491309Y-94524348D01*
X154526130Y-94459202D01*
X154526131Y-94459200D01*
X154547574Y-94388513D01*
X154553000Y-94333419D01*
X154553000Y-94333417D01*
X154554814Y-94315001D01*
X154553000Y-94296585D01*
X154553000Y-93905451D01*
X154708000Y-93905451D01*
X154766810Y-93899659D01*
X154823360Y-93882504D01*
X154875477Y-93854647D01*
X154921158Y-93817158D01*
X154958647Y-93771477D01*
X154986504Y-93719360D01*
X155003659Y-93662810D01*
X155009451Y-93604000D01*
X155009451Y-92954000D01*
X155003659Y-92895190D01*
X154992642Y-92858872D01*
X155000423Y-92849391D01*
X155032923Y-92788587D01*
X155052936Y-92722612D01*
X155059694Y-92654000D01*
X155058000Y-92441500D01*
X154970500Y-92354000D01*
X154203000Y-92354000D01*
X154203000Y-92374000D01*
X154153000Y-92374000D01*
X154153000Y-92354000D01*
X154133000Y-92354000D01*
X154133000Y-92304000D01*
X154153000Y-92304000D01*
X154153000Y-92284000D01*
X154203000Y-92284000D01*
X154203000Y-92304000D01*
X154970500Y-92304000D01*
X155058000Y-92216500D01*
X155058365Y-92170695D01*
X155080599Y-92203970D01*
X155192030Y-92315401D01*
X155323058Y-92402951D01*
X155468649Y-92463257D01*
X155623207Y-92494000D01*
X155780793Y-92494000D01*
X155935351Y-92463257D01*
X156080942Y-92402951D01*
X156211970Y-92315401D01*
X156323401Y-92203970D01*
X156380176Y-92119000D01*
X156388239Y-92119000D01*
X156409106Y-92121055D01*
X156429973Y-92119000D01*
X156429980Y-92119000D01*
X156492420Y-92112850D01*
X156572533Y-92088548D01*
X156646366Y-92049084D01*
X156711080Y-91995974D01*
X156718019Y-91987519D01*
X156780500Y-92050000D01*
G36*
X153323077Y-92788587D02*
G01*
X153355577Y-92849391D01*
X153363358Y-92858872D01*
X153352341Y-92895190D01*
X153346549Y-92954000D01*
X153346549Y-93604000D01*
X153352341Y-93662810D01*
X153369496Y-93719360D01*
X153397353Y-93771477D01*
X153434842Y-93817158D01*
X153480523Y-93854647D01*
X153532640Y-93882504D01*
X153589190Y-93899659D01*
X153648000Y-93905451D01*
X153803001Y-93905451D01*
X153803001Y-94159669D01*
X153588121Y-94374549D01*
X153349500Y-94374549D01*
X153261914Y-94383175D01*
X153177694Y-94408723D01*
X153100076Y-94450211D01*
X153032044Y-94506044D01*
X153012000Y-94530467D01*
X152991956Y-94506044D01*
X152923924Y-94450211D01*
X152846306Y-94408723D01*
X152762086Y-94383175D01*
X152674500Y-94374549D01*
X152379500Y-94374549D01*
X152353000Y-94377159D01*
X152353000Y-93905451D01*
X152508000Y-93905451D01*
X152566810Y-93899659D01*
X152623360Y-93882504D01*
X152675477Y-93854647D01*
X152721158Y-93817158D01*
X152758647Y-93771477D01*
X152786504Y-93719360D01*
X152803659Y-93662810D01*
X152809451Y-93604000D01*
X152809451Y-92954000D01*
X152803659Y-92895190D01*
X152801794Y-92889041D01*
X152851860Y-92899000D01*
X152964140Y-92899000D01*
X153074263Y-92877095D01*
X153177996Y-92834127D01*
X153271354Y-92771748D01*
X153307120Y-92735982D01*
X153323077Y-92788587D01*
G37*
X153323077Y-92788587D02*
X153355577Y-92849391D01*
X153363358Y-92858872D01*
X153352341Y-92895190D01*
X153346549Y-92954000D01*
X153346549Y-93604000D01*
X153352341Y-93662810D01*
X153369496Y-93719360D01*
X153397353Y-93771477D01*
X153434842Y-93817158D01*
X153480523Y-93854647D01*
X153532640Y-93882504D01*
X153589190Y-93899659D01*
X153648000Y-93905451D01*
X153803001Y-93905451D01*
X153803001Y-94159669D01*
X153588121Y-94374549D01*
X153349500Y-94374549D01*
X153261914Y-94383175D01*
X153177694Y-94408723D01*
X153100076Y-94450211D01*
X153032044Y-94506044D01*
X153012000Y-94530467D01*
X152991956Y-94506044D01*
X152923924Y-94450211D01*
X152846306Y-94408723D01*
X152762086Y-94383175D01*
X152674500Y-94374549D01*
X152379500Y-94374549D01*
X152353000Y-94377159D01*
X152353000Y-93905451D01*
X152508000Y-93905451D01*
X152566810Y-93899659D01*
X152623360Y-93882504D01*
X152675477Y-93854647D01*
X152721158Y-93817158D01*
X152758647Y-93771477D01*
X152786504Y-93719360D01*
X152803659Y-93662810D01*
X152809451Y-93604000D01*
X152809451Y-92954000D01*
X152803659Y-92895190D01*
X152801794Y-92889041D01*
X152851860Y-92899000D01*
X152964140Y-92899000D01*
X153074263Y-92877095D01*
X153177996Y-92834127D01*
X153271354Y-92771748D01*
X153307120Y-92735982D01*
X153323077Y-92788587D01*
G36*
X150033300Y-94316000D02*
G01*
X150053300Y-94316000D01*
X150053300Y-94366000D01*
X150033300Y-94366000D01*
X150033300Y-94386000D01*
X149983300Y-94386000D01*
X149983300Y-94366000D01*
X149963300Y-94366000D01*
X149963300Y-94316000D01*
X149983300Y-94316000D01*
X149983300Y-94296000D01*
X150033300Y-94296000D01*
X150033300Y-94316000D01*
G37*
X150033300Y-94316000D02*
X150053300Y-94316000D01*
X150053300Y-94366000D01*
X150033300Y-94366000D01*
X150033300Y-94386000D01*
X149983300Y-94386000D01*
X149983300Y-94366000D01*
X149963300Y-94366000D01*
X149963300Y-94316000D01*
X149983300Y-94316000D01*
X149983300Y-94296000D01*
X150033300Y-94296000D01*
X150033300Y-94316000D01*
G36*
X140677149Y-91980700D02*
G01*
X140682941Y-92039510D01*
X140698561Y-92091000D01*
X140682941Y-92142489D01*
X140677149Y-92201299D01*
X140677149Y-92480699D01*
X140680650Y-92516249D01*
X140653677Y-92566713D01*
X140633664Y-92632688D01*
X140626906Y-92701300D01*
X140628600Y-92728500D01*
X140716100Y-92816000D01*
X141626700Y-92816000D01*
X141626700Y-92796000D01*
X141676700Y-92796000D01*
X141676700Y-92816000D01*
X142587300Y-92816000D01*
X142674800Y-92728500D01*
X142676494Y-92701300D01*
X142673983Y-92675810D01*
X142881001Y-92882828D01*
X142881000Y-93167898D01*
X142813252Y-93235646D01*
X142750873Y-93329004D01*
X142707905Y-93432737D01*
X142699435Y-93475320D01*
X142645428Y-93446453D01*
X142626251Y-93440636D01*
X142626251Y-93201300D01*
X142622750Y-93165751D01*
X142649723Y-93115287D01*
X142669736Y-93049312D01*
X142676494Y-92980700D01*
X142674800Y-92953500D01*
X142587300Y-92866000D01*
X141676700Y-92866000D01*
X141676700Y-92886000D01*
X141626700Y-92886000D01*
X141626700Y-92866000D01*
X140716100Y-92866000D01*
X140628600Y-92953500D01*
X140626906Y-92980700D01*
X140631524Y-93027586D01*
X140238193Y-92634255D01*
X140224883Y-92618037D01*
X140160169Y-92564927D01*
X140115748Y-92541184D01*
X140677149Y-91979783D01*
X140677149Y-91980700D01*
G37*
X140677149Y-91980700D02*
X140682941Y-92039510D01*
X140698561Y-92091000D01*
X140682941Y-92142489D01*
X140677149Y-92201299D01*
X140677149Y-92480699D01*
X140680650Y-92516249D01*
X140653677Y-92566713D01*
X140633664Y-92632688D01*
X140626906Y-92701300D01*
X140628600Y-92728500D01*
X140716100Y-92816000D01*
X141626700Y-92816000D01*
X141626700Y-92796000D01*
X141676700Y-92796000D01*
X141676700Y-92816000D01*
X142587300Y-92816000D01*
X142674800Y-92728500D01*
X142676494Y-92701300D01*
X142673983Y-92675810D01*
X142881001Y-92882828D01*
X142881000Y-93167898D01*
X142813252Y-93235646D01*
X142750873Y-93329004D01*
X142707905Y-93432737D01*
X142699435Y-93475320D01*
X142645428Y-93446453D01*
X142626251Y-93440636D01*
X142626251Y-93201300D01*
X142622750Y-93165751D01*
X142649723Y-93115287D01*
X142669736Y-93049312D01*
X142676494Y-92980700D01*
X142674800Y-92953500D01*
X142587300Y-92866000D01*
X141676700Y-92866000D01*
X141676700Y-92886000D01*
X141626700Y-92886000D01*
X141626700Y-92866000D01*
X140716100Y-92866000D01*
X140628600Y-92953500D01*
X140626906Y-92980700D01*
X140631524Y-93027586D01*
X140238193Y-92634255D01*
X140224883Y-92618037D01*
X140160169Y-92564927D01*
X140115748Y-92541184D01*
X140677149Y-91979783D01*
X140677149Y-91980700D01*
G36*
X136701640Y-87830504D02*
G01*
X136758190Y-87847659D01*
X136817000Y-87853451D01*
X137190549Y-87853451D01*
X137190549Y-88227000D01*
X137196341Y-88285810D01*
X137204400Y-88312376D01*
X137177646Y-88330252D01*
X137098252Y-88409646D01*
X137035873Y-88503004D01*
X136992905Y-88606737D01*
X136971000Y-88716860D01*
X136971000Y-88829140D01*
X136992905Y-88939263D01*
X137035873Y-89042996D01*
X137098252Y-89136354D01*
X137177646Y-89215748D01*
X137271004Y-89278127D01*
X137374737Y-89321095D01*
X137484860Y-89343000D01*
X137511566Y-89343000D01*
X137500905Y-89368737D01*
X137479000Y-89478860D01*
X137479000Y-89591140D01*
X137500905Y-89701263D01*
X137530805Y-89773446D01*
X137507000Y-89773306D01*
X137438388Y-89780064D01*
X137372413Y-89800077D01*
X137311609Y-89832577D01*
X137258315Y-89876315D01*
X137214577Y-89929609D01*
X137182077Y-89990413D01*
X137162064Y-90056388D01*
X137155306Y-90125000D01*
X137157000Y-90412500D01*
X137244500Y-90500000D01*
X137882000Y-90500000D01*
X137882000Y-90480000D01*
X137932000Y-90480000D01*
X137932000Y-90500000D01*
X137952000Y-90500000D01*
X137952000Y-90550000D01*
X137932000Y-90550000D01*
X137932000Y-91187500D01*
X138019500Y-91275000D01*
X138182001Y-91275957D01*
X138182001Y-91548574D01*
X138180186Y-91567000D01*
X138186700Y-91633134D01*
X138187427Y-91640513D01*
X138207410Y-91706388D01*
X138208870Y-91711200D01*
X138243691Y-91776346D01*
X138248456Y-91782152D01*
X138290553Y-91833448D01*
X138304862Y-91845191D01*
X138456605Y-91996934D01*
X138468352Y-92011248D01*
X138525453Y-92058109D01*
X138544992Y-92068553D01*
X138571452Y-92108154D01*
X138650846Y-92187548D01*
X138662000Y-92195001D01*
X137047451Y-92195001D01*
X137047451Y-91663000D01*
X137041659Y-91604190D01*
X137024504Y-91547640D01*
X136996647Y-91495523D01*
X136959158Y-91449842D01*
X136913477Y-91412353D01*
X136861360Y-91384496D01*
X136804810Y-91367341D01*
X136746000Y-91361549D01*
X136023492Y-91361549D01*
X136120590Y-91264451D01*
X136746000Y-91264451D01*
X136804810Y-91258659D01*
X136861360Y-91241504D01*
X136913477Y-91213647D01*
X136959158Y-91176158D01*
X136996647Y-91130477D01*
X137024504Y-91078360D01*
X137041659Y-91021810D01*
X137047451Y-90963000D01*
X137047451Y-90925000D01*
X137155306Y-90925000D01*
X137162064Y-90993612D01*
X137182077Y-91059587D01*
X137214577Y-91120391D01*
X137258315Y-91173685D01*
X137311609Y-91217423D01*
X137372413Y-91249923D01*
X137438388Y-91269936D01*
X137507000Y-91276694D01*
X137794500Y-91275000D01*
X137882000Y-91187500D01*
X137882000Y-90550000D01*
X137244500Y-90550000D01*
X137157000Y-90637500D01*
X137155306Y-90925000D01*
X137047451Y-90925000D01*
X137047451Y-90063000D01*
X137041659Y-90004190D01*
X137024504Y-89947640D01*
X136996647Y-89895523D01*
X136959158Y-89849842D01*
X136913477Y-89812353D01*
X136861360Y-89784496D01*
X136804810Y-89767341D01*
X136746000Y-89761549D01*
X135796000Y-89761549D01*
X135737190Y-89767341D01*
X135732425Y-89768787D01*
X135738575Y-89748512D01*
X135744001Y-89693418D01*
X135744001Y-89693416D01*
X135745815Y-89675000D01*
X135744001Y-89656584D01*
X135744001Y-88716726D01*
X136633729Y-87827000D01*
X136695084Y-87827000D01*
X136701640Y-87830504D01*
G37*
X136701640Y-87830504D02*
X136758190Y-87847659D01*
X136817000Y-87853451D01*
X137190549Y-87853451D01*
X137190549Y-88227000D01*
X137196341Y-88285810D01*
X137204400Y-88312376D01*
X137177646Y-88330252D01*
X137098252Y-88409646D01*
X137035873Y-88503004D01*
X136992905Y-88606737D01*
X136971000Y-88716860D01*
X136971000Y-88829140D01*
X136992905Y-88939263D01*
X137035873Y-89042996D01*
X137098252Y-89136354D01*
X137177646Y-89215748D01*
X137271004Y-89278127D01*
X137374737Y-89321095D01*
X137484860Y-89343000D01*
X137511566Y-89343000D01*
X137500905Y-89368737D01*
X137479000Y-89478860D01*
X137479000Y-89591140D01*
X137500905Y-89701263D01*
X137530805Y-89773446D01*
X137507000Y-89773306D01*
X137438388Y-89780064D01*
X137372413Y-89800077D01*
X137311609Y-89832577D01*
X137258315Y-89876315D01*
X137214577Y-89929609D01*
X137182077Y-89990413D01*
X137162064Y-90056388D01*
X137155306Y-90125000D01*
X137157000Y-90412500D01*
X137244500Y-90500000D01*
X137882000Y-90500000D01*
X137882000Y-90480000D01*
X137932000Y-90480000D01*
X137932000Y-90500000D01*
X137952000Y-90500000D01*
X137952000Y-90550000D01*
X137932000Y-90550000D01*
X137932000Y-91187500D01*
X138019500Y-91275000D01*
X138182001Y-91275957D01*
X138182001Y-91548574D01*
X138180186Y-91567000D01*
X138186700Y-91633134D01*
X138187427Y-91640513D01*
X138207410Y-91706388D01*
X138208870Y-91711200D01*
X138243691Y-91776346D01*
X138248456Y-91782152D01*
X138290553Y-91833448D01*
X138304862Y-91845191D01*
X138456605Y-91996934D01*
X138468352Y-92011248D01*
X138525453Y-92058109D01*
X138544992Y-92068553D01*
X138571452Y-92108154D01*
X138650846Y-92187548D01*
X138662000Y-92195001D01*
X137047451Y-92195001D01*
X137047451Y-91663000D01*
X137041659Y-91604190D01*
X137024504Y-91547640D01*
X136996647Y-91495523D01*
X136959158Y-91449842D01*
X136913477Y-91412353D01*
X136861360Y-91384496D01*
X136804810Y-91367341D01*
X136746000Y-91361549D01*
X136023492Y-91361549D01*
X136120590Y-91264451D01*
X136746000Y-91264451D01*
X136804810Y-91258659D01*
X136861360Y-91241504D01*
X136913477Y-91213647D01*
X136959158Y-91176158D01*
X136996647Y-91130477D01*
X137024504Y-91078360D01*
X137041659Y-91021810D01*
X137047451Y-90963000D01*
X137047451Y-90925000D01*
X137155306Y-90925000D01*
X137162064Y-90993612D01*
X137182077Y-91059587D01*
X137214577Y-91120391D01*
X137258315Y-91173685D01*
X137311609Y-91217423D01*
X137372413Y-91249923D01*
X137438388Y-91269936D01*
X137507000Y-91276694D01*
X137794500Y-91275000D01*
X137882000Y-91187500D01*
X137882000Y-90550000D01*
X137244500Y-90550000D01*
X137157000Y-90637500D01*
X137155306Y-90925000D01*
X137047451Y-90925000D01*
X137047451Y-90063000D01*
X137041659Y-90004190D01*
X137024504Y-89947640D01*
X136996647Y-89895523D01*
X136959158Y-89849842D01*
X136913477Y-89812353D01*
X136861360Y-89784496D01*
X136804810Y-89767341D01*
X136746000Y-89761549D01*
X135796000Y-89761549D01*
X135737190Y-89767341D01*
X135732425Y-89768787D01*
X135738575Y-89748512D01*
X135744001Y-89693418D01*
X135744001Y-89693416D01*
X135745815Y-89675000D01*
X135744001Y-89656584D01*
X135744001Y-88716726D01*
X136633729Y-87827000D01*
X136695084Y-87827000D01*
X136701640Y-87830504D01*
G36*
X139829873Y-91328996D02*
G01*
X139892252Y-91422354D01*
X139971646Y-91501748D01*
X140045307Y-91550966D01*
X139401272Y-92195001D01*
X139366400Y-92195001D01*
X139377554Y-92187548D01*
X139456948Y-92108154D01*
X139519327Y-92014796D01*
X139562295Y-91911063D01*
X139584200Y-91800940D01*
X139584200Y-91688660D01*
X139562295Y-91578537D01*
X139519327Y-91474804D01*
X139456948Y-91381446D01*
X139377554Y-91302052D01*
X139337224Y-91275104D01*
X139607000Y-91276694D01*
X139675612Y-91269936D01*
X139741587Y-91249923D01*
X139787053Y-91225621D01*
X139829873Y-91328996D01*
G37*
X139829873Y-91328996D02*
X139892252Y-91422354D01*
X139971646Y-91501748D01*
X140045307Y-91550966D01*
X139401272Y-92195001D01*
X139366400Y-92195001D01*
X139377554Y-92187548D01*
X139456948Y-92108154D01*
X139519327Y-92014796D01*
X139562295Y-91911063D01*
X139584200Y-91800940D01*
X139584200Y-91688660D01*
X139562295Y-91578537D01*
X139519327Y-91474804D01*
X139456948Y-91381446D01*
X139377554Y-91302052D01*
X139337224Y-91275104D01*
X139607000Y-91276694D01*
X139675612Y-91269936D01*
X139741587Y-91249923D01*
X139787053Y-91225621D01*
X139829873Y-91328996D01*
G36*
X152677341Y-87387810D02*
G01*
X152694496Y-87444360D01*
X152722353Y-87496477D01*
X152759842Y-87542158D01*
X152805523Y-87579647D01*
X152857640Y-87607504D01*
X152914190Y-87624659D01*
X152973000Y-87630451D01*
X153358409Y-87630451D01*
X154268959Y-88541001D01*
X153892239Y-88917721D01*
X153876027Y-88931026D01*
X153822917Y-88995740D01*
X153788757Y-89059650D01*
X153783453Y-89069573D01*
X153759150Y-89149686D01*
X153750945Y-89233000D01*
X153753001Y-89253877D01*
X153753000Y-90752549D01*
X153648000Y-90752549D01*
X153589190Y-90758341D01*
X153532640Y-90775496D01*
X153480523Y-90803353D01*
X153434842Y-90840842D01*
X153397353Y-90886523D01*
X153369496Y-90938640D01*
X153352341Y-90995190D01*
X153346549Y-91054000D01*
X153346549Y-91704000D01*
X153352341Y-91762810D01*
X153363358Y-91799128D01*
X153355577Y-91808609D01*
X153323077Y-91869413D01*
X153307120Y-91922018D01*
X153271354Y-91886252D01*
X153177996Y-91823873D01*
X153074263Y-91780905D01*
X152964140Y-91759000D01*
X152851860Y-91759000D01*
X152801794Y-91768959D01*
X152803659Y-91762810D01*
X152809451Y-91704000D01*
X152809451Y-91054000D01*
X152803659Y-90995190D01*
X152786504Y-90938640D01*
X152758647Y-90886523D01*
X152721158Y-90840842D01*
X152675477Y-90803353D01*
X152623360Y-90775496D01*
X152566810Y-90758341D01*
X152508000Y-90752549D01*
X152365000Y-90752549D01*
X152365000Y-89756632D01*
X152425413Y-89788923D01*
X152491388Y-89808936D01*
X152560000Y-89815694D01*
X152747500Y-89814000D01*
X152835000Y-89726500D01*
X152835000Y-89179000D01*
X152885000Y-89179000D01*
X152885000Y-89726500D01*
X152972500Y-89814000D01*
X153160000Y-89815694D01*
X153228612Y-89808936D01*
X153294587Y-89788923D01*
X153355391Y-89756423D01*
X153408685Y-89712685D01*
X153452423Y-89659391D01*
X153484923Y-89598587D01*
X153504936Y-89532612D01*
X153511694Y-89464000D01*
X153510000Y-89266500D01*
X153422500Y-89179000D01*
X152885000Y-89179000D01*
X152835000Y-89179000D01*
X152815000Y-89179000D01*
X152815000Y-89129000D01*
X152835000Y-89129000D01*
X152835000Y-88581500D01*
X152885000Y-88581500D01*
X152885000Y-89129000D01*
X153422500Y-89129000D01*
X153510000Y-89041500D01*
X153511694Y-88844000D01*
X153504936Y-88775388D01*
X153484923Y-88709413D01*
X153452423Y-88648609D01*
X153408685Y-88595315D01*
X153355391Y-88551577D01*
X153294587Y-88519077D01*
X153228612Y-88499064D01*
X153160000Y-88492306D01*
X152972500Y-88494000D01*
X152885000Y-88581500D01*
X152835000Y-88581500D01*
X152747500Y-88494000D01*
X152643231Y-88493058D01*
X152663699Y-88425584D01*
X152666450Y-88416515D01*
X152668528Y-88395418D01*
X152672600Y-88354074D01*
X152672600Y-88354068D01*
X152674655Y-88333201D01*
X152672600Y-88312334D01*
X152672600Y-87339671D01*
X152677341Y-87387810D01*
G37*
X152677341Y-87387810D02*
X152694496Y-87444360D01*
X152722353Y-87496477D01*
X152759842Y-87542158D01*
X152805523Y-87579647D01*
X152857640Y-87607504D01*
X152914190Y-87624659D01*
X152973000Y-87630451D01*
X153358409Y-87630451D01*
X154268959Y-88541001D01*
X153892239Y-88917721D01*
X153876027Y-88931026D01*
X153822917Y-88995740D01*
X153788757Y-89059650D01*
X153783453Y-89069573D01*
X153759150Y-89149686D01*
X153750945Y-89233000D01*
X153753001Y-89253877D01*
X153753000Y-90752549D01*
X153648000Y-90752549D01*
X153589190Y-90758341D01*
X153532640Y-90775496D01*
X153480523Y-90803353D01*
X153434842Y-90840842D01*
X153397353Y-90886523D01*
X153369496Y-90938640D01*
X153352341Y-90995190D01*
X153346549Y-91054000D01*
X153346549Y-91704000D01*
X153352341Y-91762810D01*
X153363358Y-91799128D01*
X153355577Y-91808609D01*
X153323077Y-91869413D01*
X153307120Y-91922018D01*
X153271354Y-91886252D01*
X153177996Y-91823873D01*
X153074263Y-91780905D01*
X152964140Y-91759000D01*
X152851860Y-91759000D01*
X152801794Y-91768959D01*
X152803659Y-91762810D01*
X152809451Y-91704000D01*
X152809451Y-91054000D01*
X152803659Y-90995190D01*
X152786504Y-90938640D01*
X152758647Y-90886523D01*
X152721158Y-90840842D01*
X152675477Y-90803353D01*
X152623360Y-90775496D01*
X152566810Y-90758341D01*
X152508000Y-90752549D01*
X152365000Y-90752549D01*
X152365000Y-89756632D01*
X152425413Y-89788923D01*
X152491388Y-89808936D01*
X152560000Y-89815694D01*
X152747500Y-89814000D01*
X152835000Y-89726500D01*
X152835000Y-89179000D01*
X152885000Y-89179000D01*
X152885000Y-89726500D01*
X152972500Y-89814000D01*
X153160000Y-89815694D01*
X153228612Y-89808936D01*
X153294587Y-89788923D01*
X153355391Y-89756423D01*
X153408685Y-89712685D01*
X153452423Y-89659391D01*
X153484923Y-89598587D01*
X153504936Y-89532612D01*
X153511694Y-89464000D01*
X153510000Y-89266500D01*
X153422500Y-89179000D01*
X152885000Y-89179000D01*
X152835000Y-89179000D01*
X152815000Y-89179000D01*
X152815000Y-89129000D01*
X152835000Y-89129000D01*
X152835000Y-88581500D01*
X152885000Y-88581500D01*
X152885000Y-89129000D01*
X153422500Y-89129000D01*
X153510000Y-89041500D01*
X153511694Y-88844000D01*
X153504936Y-88775388D01*
X153484923Y-88709413D01*
X153452423Y-88648609D01*
X153408685Y-88595315D01*
X153355391Y-88551577D01*
X153294587Y-88519077D01*
X153228612Y-88499064D01*
X153160000Y-88492306D01*
X152972500Y-88494000D01*
X152885000Y-88581500D01*
X152835000Y-88581500D01*
X152747500Y-88494000D01*
X152643231Y-88493058D01*
X152663699Y-88425584D01*
X152666450Y-88416515D01*
X152668528Y-88395418D01*
X152672600Y-88354074D01*
X152672600Y-88354068D01*
X152674655Y-88333201D01*
X152672600Y-88312334D01*
X152672600Y-87339671D01*
X152677341Y-87387810D01*
G36*
X158248001Y-84737332D02*
G01*
X158248001Y-85813928D01*
X158234000Y-85812549D01*
X157234000Y-85812549D01*
X157175190Y-85818341D01*
X157118640Y-85835496D01*
X157066523Y-85863353D01*
X157020842Y-85900842D01*
X156983353Y-85946523D01*
X156955496Y-85998640D01*
X156938341Y-86055190D01*
X156932549Y-86114000D01*
X156932549Y-87114000D01*
X156938341Y-87172810D01*
X156955496Y-87229360D01*
X156983353Y-87281477D01*
X157020842Y-87327158D01*
X157066523Y-87364647D01*
X157118640Y-87392504D01*
X157175190Y-87409659D01*
X157234000Y-87415451D01*
X158234000Y-87415451D01*
X158248001Y-87414072D01*
X158248000Y-88988928D01*
X158234000Y-88987549D01*
X157234000Y-88987549D01*
X157175190Y-88993341D01*
X157118640Y-89010496D01*
X157066523Y-89038353D01*
X157020842Y-89075842D01*
X156983353Y-89121523D01*
X156955496Y-89173640D01*
X156938341Y-89230190D01*
X156932549Y-89289000D01*
X156932549Y-90289000D01*
X156938341Y-90347810D01*
X156955496Y-90404360D01*
X156983353Y-90456477D01*
X157020842Y-90502158D01*
X157066523Y-90539647D01*
X157092532Y-90553549D01*
X157043000Y-90553549D01*
X156984190Y-90559341D01*
X156927640Y-90576496D01*
X156875523Y-90604353D01*
X156829842Y-90641842D01*
X156792353Y-90687523D01*
X156764496Y-90739640D01*
X156753055Y-90777355D01*
X156710846Y-90799916D01*
X156646132Y-90853026D01*
X156632827Y-90869238D01*
X156551031Y-90951034D01*
X156553694Y-90924000D01*
X156552000Y-90536500D01*
X156464500Y-90449000D01*
X155727000Y-90449000D01*
X155727000Y-90469000D01*
X155677000Y-90469000D01*
X155677000Y-90449000D01*
X154939500Y-90449000D01*
X154852000Y-90536500D01*
X154850891Y-90790211D01*
X154823360Y-90775496D01*
X154766810Y-90758341D01*
X154708000Y-90752549D01*
X154603000Y-90752549D01*
X154603000Y-89924000D01*
X154850306Y-89924000D01*
X154852000Y-90311500D01*
X154939500Y-90399000D01*
X155677000Y-90399000D01*
X155677000Y-89661500D01*
X155727000Y-89661500D01*
X155727000Y-90399000D01*
X156464500Y-90399000D01*
X156552000Y-90311500D01*
X156553694Y-89924000D01*
X156546936Y-89855388D01*
X156526923Y-89789413D01*
X156494423Y-89728609D01*
X156450685Y-89675315D01*
X156397391Y-89631577D01*
X156336587Y-89599077D01*
X156270612Y-89579064D01*
X156202000Y-89572306D01*
X155814500Y-89574000D01*
X155727000Y-89661500D01*
X155677000Y-89661500D01*
X155589500Y-89574000D01*
X155202000Y-89572306D01*
X155133388Y-89579064D01*
X155067413Y-89599077D01*
X155006609Y-89631577D01*
X154953315Y-89675315D01*
X154909577Y-89728609D01*
X154877077Y-89789413D01*
X154857064Y-89855388D01*
X154850306Y-89924000D01*
X154603000Y-89924000D01*
X154603000Y-89409040D01*
X154939590Y-89072451D01*
X155250000Y-89072451D01*
X155308810Y-89066659D01*
X155365360Y-89049504D01*
X155417477Y-89021647D01*
X155463158Y-88984158D01*
X155500647Y-88938477D01*
X155528504Y-88886360D01*
X155545659Y-88829810D01*
X155551451Y-88771000D01*
X155551451Y-88171000D01*
X155545659Y-88112190D01*
X155530212Y-88061270D01*
X155542423Y-88046391D01*
X155574923Y-87985587D01*
X155594936Y-87919612D01*
X155601694Y-87851000D01*
X155600000Y-87663500D01*
X155512500Y-87576000D01*
X154965000Y-87576000D01*
X154965000Y-87596000D01*
X154915000Y-87596000D01*
X154915000Y-87576000D01*
X154895000Y-87576000D01*
X154895000Y-87526000D01*
X154915000Y-87526000D01*
X154915000Y-86988500D01*
X154965000Y-86988500D01*
X154965000Y-87526000D01*
X155512500Y-87526000D01*
X155600000Y-87438500D01*
X155601694Y-87251000D01*
X155594936Y-87182388D01*
X155574923Y-87116413D01*
X155542423Y-87055609D01*
X155498685Y-87002315D01*
X155445391Y-86958577D01*
X155384587Y-86926077D01*
X155318612Y-86906064D01*
X155250000Y-86899306D01*
X155052500Y-86901000D01*
X154965000Y-86988500D01*
X154915000Y-86988500D01*
X154827500Y-86901000D01*
X154674632Y-86899689D01*
X154673001Y-86883132D01*
X154673001Y-86479000D01*
X154850306Y-86479000D01*
X154857064Y-86547612D01*
X154877077Y-86613587D01*
X154909577Y-86674391D01*
X154953315Y-86727685D01*
X155006609Y-86771423D01*
X155067413Y-86803923D01*
X155133388Y-86823936D01*
X155202000Y-86830694D01*
X155589500Y-86829000D01*
X155677000Y-86741500D01*
X155677000Y-86004000D01*
X155727000Y-86004000D01*
X155727000Y-86741500D01*
X155814500Y-86829000D01*
X156202000Y-86830694D01*
X156270612Y-86823936D01*
X156336587Y-86803923D01*
X156397391Y-86771423D01*
X156450685Y-86727685D01*
X156494423Y-86674391D01*
X156526923Y-86613587D01*
X156546936Y-86547612D01*
X156553694Y-86479000D01*
X156552000Y-86091500D01*
X156464500Y-86004000D01*
X155727000Y-86004000D01*
X155677000Y-86004000D01*
X154939500Y-86004000D01*
X154852000Y-86091500D01*
X154850306Y-86479000D01*
X154673001Y-86479000D01*
X154673001Y-85074868D01*
X154675056Y-85054001D01*
X154673001Y-85033135D01*
X154673001Y-85033127D01*
X154666851Y-84970687D01*
X154642549Y-84890574D01*
X154603085Y-84816741D01*
X154549975Y-84752027D01*
X154536243Y-84740758D01*
X154524974Y-84727026D01*
X154460260Y-84673916D01*
X154386427Y-84634452D01*
X154306314Y-84610150D01*
X154272264Y-84606796D01*
X154268659Y-84570190D01*
X154251504Y-84513640D01*
X154223647Y-84461523D01*
X154186158Y-84415842D01*
X154140477Y-84378353D01*
X154088360Y-84350496D01*
X154031810Y-84333341D01*
X153973000Y-84327549D01*
X152973000Y-84327549D01*
X152914190Y-84333341D01*
X152857640Y-84350496D01*
X152805523Y-84378353D01*
X152759842Y-84415842D01*
X152722353Y-84461523D01*
X152694496Y-84513640D01*
X152677341Y-84570190D01*
X152672600Y-84618329D01*
X152672600Y-83742040D01*
X153847800Y-82566840D01*
X154209739Y-82928780D01*
X154209745Y-82928785D01*
X155277001Y-83996041D01*
X155277001Y-84030823D01*
X155192030Y-84087599D01*
X155080599Y-84199030D01*
X154993049Y-84330058D01*
X154932743Y-84475649D01*
X154902000Y-84630207D01*
X154902000Y-84787793D01*
X154932743Y-84942351D01*
X154993049Y-85087942D01*
X155045179Y-85165961D01*
X155006609Y-85186577D01*
X154953315Y-85230315D01*
X154909577Y-85283609D01*
X154877077Y-85344413D01*
X154857064Y-85410388D01*
X154850306Y-85479000D01*
X154852000Y-85866500D01*
X154939500Y-85954000D01*
X155677000Y-85954000D01*
X155677000Y-85934000D01*
X155727000Y-85934000D01*
X155727000Y-85954000D01*
X156464500Y-85954000D01*
X156552000Y-85866500D01*
X156553694Y-85479000D01*
X156546936Y-85410388D01*
X156526923Y-85344413D01*
X156494423Y-85283609D01*
X156450685Y-85230315D01*
X156397391Y-85186577D01*
X156358821Y-85165961D01*
X156410951Y-85087942D01*
X156471257Y-84942351D01*
X156502000Y-84787793D01*
X156502000Y-84630207D01*
X156471257Y-84475649D01*
X156410951Y-84330058D01*
X156323401Y-84199030D01*
X156211970Y-84087599D01*
X156127000Y-84030824D01*
X156127000Y-83840867D01*
X156129055Y-83820000D01*
X156127000Y-83799133D01*
X156127000Y-83799126D01*
X156120850Y-83736686D01*
X156096548Y-83656573D01*
X156057084Y-83582740D01*
X156003974Y-83518026D01*
X155987756Y-83504716D01*
X154810785Y-82327745D01*
X154810780Y-82327739D01*
X154163084Y-81680044D01*
X154163080Y-81680039D01*
X154163078Y-81680037D01*
X154149774Y-81663826D01*
X154133563Y-81650522D01*
X153659451Y-81176411D01*
X153659451Y-80700999D01*
X154211670Y-80700999D01*
X158248001Y-84737332D01*
G37*
X158248001Y-84737332D02*
X158248001Y-85813928D01*
X158234000Y-85812549D01*
X157234000Y-85812549D01*
X157175190Y-85818341D01*
X157118640Y-85835496D01*
X157066523Y-85863353D01*
X157020842Y-85900842D01*
X156983353Y-85946523D01*
X156955496Y-85998640D01*
X156938341Y-86055190D01*
X156932549Y-86114000D01*
X156932549Y-87114000D01*
X156938341Y-87172810D01*
X156955496Y-87229360D01*
X156983353Y-87281477D01*
X157020842Y-87327158D01*
X157066523Y-87364647D01*
X157118640Y-87392504D01*
X157175190Y-87409659D01*
X157234000Y-87415451D01*
X158234000Y-87415451D01*
X158248001Y-87414072D01*
X158248000Y-88988928D01*
X158234000Y-88987549D01*
X157234000Y-88987549D01*
X157175190Y-88993341D01*
X157118640Y-89010496D01*
X157066523Y-89038353D01*
X157020842Y-89075842D01*
X156983353Y-89121523D01*
X156955496Y-89173640D01*
X156938341Y-89230190D01*
X156932549Y-89289000D01*
X156932549Y-90289000D01*
X156938341Y-90347810D01*
X156955496Y-90404360D01*
X156983353Y-90456477D01*
X157020842Y-90502158D01*
X157066523Y-90539647D01*
X157092532Y-90553549D01*
X157043000Y-90553549D01*
X156984190Y-90559341D01*
X156927640Y-90576496D01*
X156875523Y-90604353D01*
X156829842Y-90641842D01*
X156792353Y-90687523D01*
X156764496Y-90739640D01*
X156753055Y-90777355D01*
X156710846Y-90799916D01*
X156646132Y-90853026D01*
X156632827Y-90869238D01*
X156551031Y-90951034D01*
X156553694Y-90924000D01*
X156552000Y-90536500D01*
X156464500Y-90449000D01*
X155727000Y-90449000D01*
X155727000Y-90469000D01*
X155677000Y-90469000D01*
X155677000Y-90449000D01*
X154939500Y-90449000D01*
X154852000Y-90536500D01*
X154850891Y-90790211D01*
X154823360Y-90775496D01*
X154766810Y-90758341D01*
X154708000Y-90752549D01*
X154603000Y-90752549D01*
X154603000Y-89924000D01*
X154850306Y-89924000D01*
X154852000Y-90311500D01*
X154939500Y-90399000D01*
X155677000Y-90399000D01*
X155677000Y-89661500D01*
X155727000Y-89661500D01*
X155727000Y-90399000D01*
X156464500Y-90399000D01*
X156552000Y-90311500D01*
X156553694Y-89924000D01*
X156546936Y-89855388D01*
X156526923Y-89789413D01*
X156494423Y-89728609D01*
X156450685Y-89675315D01*
X156397391Y-89631577D01*
X156336587Y-89599077D01*
X156270612Y-89579064D01*
X156202000Y-89572306D01*
X155814500Y-89574000D01*
X155727000Y-89661500D01*
X155677000Y-89661500D01*
X155589500Y-89574000D01*
X155202000Y-89572306D01*
X155133388Y-89579064D01*
X155067413Y-89599077D01*
X155006609Y-89631577D01*
X154953315Y-89675315D01*
X154909577Y-89728609D01*
X154877077Y-89789413D01*
X154857064Y-89855388D01*
X154850306Y-89924000D01*
X154603000Y-89924000D01*
X154603000Y-89409040D01*
X154939590Y-89072451D01*
X155250000Y-89072451D01*
X155308810Y-89066659D01*
X155365360Y-89049504D01*
X155417477Y-89021647D01*
X155463158Y-88984158D01*
X155500647Y-88938477D01*
X155528504Y-88886360D01*
X155545659Y-88829810D01*
X155551451Y-88771000D01*
X155551451Y-88171000D01*
X155545659Y-88112190D01*
X155530212Y-88061270D01*
X155542423Y-88046391D01*
X155574923Y-87985587D01*
X155594936Y-87919612D01*
X155601694Y-87851000D01*
X155600000Y-87663500D01*
X155512500Y-87576000D01*
X154965000Y-87576000D01*
X154965000Y-87596000D01*
X154915000Y-87596000D01*
X154915000Y-87576000D01*
X154895000Y-87576000D01*
X154895000Y-87526000D01*
X154915000Y-87526000D01*
X154915000Y-86988500D01*
X154965000Y-86988500D01*
X154965000Y-87526000D01*
X155512500Y-87526000D01*
X155600000Y-87438500D01*
X155601694Y-87251000D01*
X155594936Y-87182388D01*
X155574923Y-87116413D01*
X155542423Y-87055609D01*
X155498685Y-87002315D01*
X155445391Y-86958577D01*
X155384587Y-86926077D01*
X155318612Y-86906064D01*
X155250000Y-86899306D01*
X155052500Y-86901000D01*
X154965000Y-86988500D01*
X154915000Y-86988500D01*
X154827500Y-86901000D01*
X154674632Y-86899689D01*
X154673001Y-86883132D01*
X154673001Y-86479000D01*
X154850306Y-86479000D01*
X154857064Y-86547612D01*
X154877077Y-86613587D01*
X154909577Y-86674391D01*
X154953315Y-86727685D01*
X155006609Y-86771423D01*
X155067413Y-86803923D01*
X155133388Y-86823936D01*
X155202000Y-86830694D01*
X155589500Y-86829000D01*
X155677000Y-86741500D01*
X155677000Y-86004000D01*
X155727000Y-86004000D01*
X155727000Y-86741500D01*
X155814500Y-86829000D01*
X156202000Y-86830694D01*
X156270612Y-86823936D01*
X156336587Y-86803923D01*
X156397391Y-86771423D01*
X156450685Y-86727685D01*
X156494423Y-86674391D01*
X156526923Y-86613587D01*
X156546936Y-86547612D01*
X156553694Y-86479000D01*
X156552000Y-86091500D01*
X156464500Y-86004000D01*
X155727000Y-86004000D01*
X155677000Y-86004000D01*
X154939500Y-86004000D01*
X154852000Y-86091500D01*
X154850306Y-86479000D01*
X154673001Y-86479000D01*
X154673001Y-85074868D01*
X154675056Y-85054001D01*
X154673001Y-85033135D01*
X154673001Y-85033127D01*
X154666851Y-84970687D01*
X154642549Y-84890574D01*
X154603085Y-84816741D01*
X154549975Y-84752027D01*
X154536243Y-84740758D01*
X154524974Y-84727026D01*
X154460260Y-84673916D01*
X154386427Y-84634452D01*
X154306314Y-84610150D01*
X154272264Y-84606796D01*
X154268659Y-84570190D01*
X154251504Y-84513640D01*
X154223647Y-84461523D01*
X154186158Y-84415842D01*
X154140477Y-84378353D01*
X154088360Y-84350496D01*
X154031810Y-84333341D01*
X153973000Y-84327549D01*
X152973000Y-84327549D01*
X152914190Y-84333341D01*
X152857640Y-84350496D01*
X152805523Y-84378353D01*
X152759842Y-84415842D01*
X152722353Y-84461523D01*
X152694496Y-84513640D01*
X152677341Y-84570190D01*
X152672600Y-84618329D01*
X152672600Y-83742040D01*
X153847800Y-82566840D01*
X154209739Y-82928780D01*
X154209745Y-82928785D01*
X155277001Y-83996041D01*
X155277001Y-84030823D01*
X155192030Y-84087599D01*
X155080599Y-84199030D01*
X154993049Y-84330058D01*
X154932743Y-84475649D01*
X154902000Y-84630207D01*
X154902000Y-84787793D01*
X154932743Y-84942351D01*
X154993049Y-85087942D01*
X155045179Y-85165961D01*
X155006609Y-85186577D01*
X154953315Y-85230315D01*
X154909577Y-85283609D01*
X154877077Y-85344413D01*
X154857064Y-85410388D01*
X154850306Y-85479000D01*
X154852000Y-85866500D01*
X154939500Y-85954000D01*
X155677000Y-85954000D01*
X155677000Y-85934000D01*
X155727000Y-85934000D01*
X155727000Y-85954000D01*
X156464500Y-85954000D01*
X156552000Y-85866500D01*
X156553694Y-85479000D01*
X156546936Y-85410388D01*
X156526923Y-85344413D01*
X156494423Y-85283609D01*
X156450685Y-85230315D01*
X156397391Y-85186577D01*
X156358821Y-85165961D01*
X156410951Y-85087942D01*
X156471257Y-84942351D01*
X156502000Y-84787793D01*
X156502000Y-84630207D01*
X156471257Y-84475649D01*
X156410951Y-84330058D01*
X156323401Y-84199030D01*
X156211970Y-84087599D01*
X156127000Y-84030824D01*
X156127000Y-83840867D01*
X156129055Y-83820000D01*
X156127000Y-83799133D01*
X156127000Y-83799126D01*
X156120850Y-83736686D01*
X156096548Y-83656573D01*
X156057084Y-83582740D01*
X156003974Y-83518026D01*
X155987756Y-83504716D01*
X154810785Y-82327745D01*
X154810780Y-82327739D01*
X154163084Y-81680044D01*
X154163080Y-81680039D01*
X154163078Y-81680037D01*
X154149774Y-81663826D01*
X154133563Y-81650522D01*
X153659451Y-81176411D01*
X153659451Y-80700999D01*
X154211670Y-80700999D01*
X158248001Y-84737332D01*
G36*
X139232000Y-90500000D02*
G01*
X139252000Y-90500000D01*
X139252000Y-90550000D01*
X139232000Y-90550000D01*
X139232000Y-90570000D01*
X139182000Y-90570000D01*
X139182000Y-90550000D01*
X139162000Y-90550000D01*
X139162000Y-90500000D01*
X139182000Y-90500000D01*
X139182000Y-90480000D01*
X139232000Y-90480000D01*
X139232000Y-90500000D01*
G37*
X139232000Y-90500000D02*
X139252000Y-90500000D01*
X139252000Y-90550000D01*
X139232000Y-90550000D01*
X139232000Y-90570000D01*
X139182000Y-90570000D01*
X139182000Y-90550000D01*
X139162000Y-90550000D01*
X139162000Y-90500000D01*
X139182000Y-90500000D01*
X139182000Y-90480000D01*
X139232000Y-90480000D01*
X139232000Y-90500000D01*
G36*
X149393728Y-75152565D02*
G01*
X149384101Y-75210870D01*
X149386035Y-75269933D01*
X149399454Y-75327484D01*
X149423843Y-75381312D01*
X149458264Y-75429347D01*
X149501395Y-75469743D01*
X149551579Y-75500949D01*
X149606886Y-75521765D01*
X150476220Y-75754702D01*
X150534525Y-75764329D01*
X150593588Y-75762395D01*
X150651139Y-75748976D01*
X150704966Y-75724587D01*
X150753001Y-75690166D01*
X150793398Y-75647035D01*
X150824604Y-75596851D01*
X150845420Y-75541544D01*
X150864444Y-75470546D01*
X150893646Y-75499748D01*
X150987004Y-75562127D01*
X151090737Y-75605095D01*
X151200860Y-75627000D01*
X151313140Y-75627000D01*
X151337940Y-75622067D01*
X151280405Y-75721721D01*
X151256016Y-75775549D01*
X151242597Y-75833100D01*
X151240663Y-75892163D01*
X151250290Y-75950468D01*
X151271106Y-76005775D01*
X151302312Y-76055959D01*
X151342708Y-76099090D01*
X151390743Y-76133511D01*
X152170165Y-76583511D01*
X152223993Y-76607900D01*
X152281544Y-76621319D01*
X152340607Y-76623253D01*
X152398912Y-76613626D01*
X152454219Y-76592810D01*
X152504403Y-76561604D01*
X152547534Y-76521207D01*
X152581955Y-76473173D01*
X152991765Y-75763361D01*
X153103884Y-75763361D01*
X152666045Y-76521721D01*
X152641656Y-76575549D01*
X152628237Y-76633100D01*
X152626303Y-76692163D01*
X152635930Y-76750468D01*
X152656746Y-76805775D01*
X152687952Y-76855959D01*
X152728348Y-76899090D01*
X152776383Y-76933511D01*
X153555805Y-77383511D01*
X153609633Y-77407900D01*
X153667184Y-77421319D01*
X153726247Y-77423253D01*
X153784552Y-77413626D01*
X153839859Y-77392810D01*
X153890043Y-77361604D01*
X153930574Y-77323642D01*
X153956722Y-77331574D01*
X153999705Y-77335807D01*
X154068646Y-77404748D01*
X154162004Y-77467127D01*
X154265737Y-77510095D01*
X154370070Y-77530848D01*
X154341126Y-77559792D01*
X154303637Y-77605473D01*
X154275780Y-77657590D01*
X154258625Y-77714140D01*
X154252833Y-77772950D01*
X154258625Y-77831760D01*
X154275780Y-77888310D01*
X154303637Y-77940427D01*
X154341126Y-77986108D01*
X154977522Y-78622504D01*
X155023203Y-78659993D01*
X155075320Y-78687850D01*
X155131870Y-78705005D01*
X155190680Y-78710797D01*
X155249490Y-78705005D01*
X155306040Y-78687850D01*
X155358157Y-78659993D01*
X155403838Y-78622504D01*
X155846070Y-78180272D01*
X155983386Y-78180272D01*
X155472496Y-78691162D01*
X155435007Y-78736843D01*
X155407150Y-78788960D01*
X155389995Y-78845510D01*
X155384203Y-78904320D01*
X155389995Y-78963130D01*
X155407150Y-79019680D01*
X155435007Y-79071797D01*
X155472496Y-79117478D01*
X156108892Y-79753874D01*
X156154573Y-79791363D01*
X156206690Y-79819220D01*
X156263240Y-79836375D01*
X156289893Y-79839000D01*
X155956102Y-79839000D01*
X155938354Y-79821252D01*
X155844996Y-79758873D01*
X155741263Y-79715905D01*
X155631140Y-79694000D01*
X155518860Y-79694000D01*
X155408737Y-79715905D01*
X155305004Y-79758873D01*
X155211646Y-79821252D01*
X155132252Y-79900646D01*
X155069873Y-79994004D01*
X155026905Y-80097737D01*
X155005000Y-80207860D01*
X155005000Y-80320140D01*
X155026905Y-80430263D01*
X155044804Y-80473475D01*
X154645194Y-80073865D01*
X154633447Y-80059551D01*
X154576346Y-80012690D01*
X154511199Y-79977868D01*
X154440512Y-79956425D01*
X154385418Y-79950999D01*
X154385415Y-79950999D01*
X154366999Y-79949185D01*
X154348583Y-79950999D01*
X152026417Y-79950999D01*
X152008001Y-79949185D01*
X151989585Y-79950999D01*
X151989582Y-79950999D01*
X151934488Y-79956425D01*
X151863801Y-79977868D01*
X151798654Y-80012690D01*
X151741553Y-80059551D01*
X151729810Y-80073860D01*
X151554121Y-80249549D01*
X150858000Y-80249549D01*
X150799190Y-80255341D01*
X150742640Y-80272496D01*
X150690523Y-80300353D01*
X150644842Y-80337842D01*
X150607353Y-80383523D01*
X150579496Y-80435640D01*
X150562341Y-80492190D01*
X150556549Y-80551000D01*
X150556549Y-81501000D01*
X150562341Y-81559810D01*
X150579496Y-81616360D01*
X150607353Y-81668477D01*
X150644842Y-81714158D01*
X150690523Y-81751647D01*
X150742640Y-81779504D01*
X150799190Y-81796659D01*
X150858000Y-81802451D01*
X151758000Y-81802451D01*
X151816810Y-81796659D01*
X151873360Y-81779504D01*
X151925477Y-81751647D01*
X151971158Y-81714158D01*
X152008647Y-81668477D01*
X152036504Y-81616360D01*
X152053659Y-81559810D01*
X152059451Y-81501000D01*
X152059451Y-80804879D01*
X152156549Y-80707781D01*
X152156549Y-81501000D01*
X152162341Y-81559810D01*
X152179496Y-81616360D01*
X152207353Y-81668477D01*
X152244842Y-81714158D01*
X152290523Y-81751647D01*
X152342640Y-81779504D01*
X152399190Y-81796659D01*
X152458000Y-81802451D01*
X153083410Y-81802451D01*
X153246760Y-81965800D01*
X151961839Y-83250721D01*
X151945627Y-83264026D01*
X151892517Y-83328740D01*
X151867132Y-83376233D01*
X151853053Y-83402573D01*
X151830996Y-83475282D01*
X151780996Y-83441873D01*
X151677263Y-83398905D01*
X151567140Y-83377000D01*
X151454860Y-83377000D01*
X151344737Y-83398905D01*
X151241004Y-83441873D01*
X151147646Y-83504252D01*
X151068252Y-83583646D01*
X151005873Y-83677004D01*
X150962905Y-83780737D01*
X150941000Y-83890860D01*
X150941000Y-84003140D01*
X150962905Y-84113263D01*
X151005873Y-84216996D01*
X151068252Y-84310354D01*
X151085447Y-84327549D01*
X150573000Y-84327549D01*
X150514190Y-84333341D01*
X150457640Y-84350496D01*
X150405523Y-84378353D01*
X150359842Y-84415842D01*
X150322353Y-84461523D01*
X150294496Y-84513640D01*
X150277341Y-84570190D01*
X150271549Y-84629000D01*
X150271549Y-85429000D01*
X150274657Y-85460555D01*
X150223354Y-85409252D01*
X150129996Y-85346873D01*
X150026263Y-85303905D01*
X149916140Y-85282000D01*
X149803860Y-85282000D01*
X149693737Y-85303905D01*
X149590004Y-85346873D01*
X149496646Y-85409252D01*
X149465534Y-85440364D01*
X149446423Y-85404609D01*
X149402685Y-85351315D01*
X149349391Y-85307577D01*
X149288587Y-85275077D01*
X149222612Y-85255064D01*
X149154000Y-85248306D01*
X148956500Y-85250000D01*
X148869000Y-85337500D01*
X148869000Y-85875000D01*
X148889000Y-85875000D01*
X148889000Y-85925000D01*
X148869000Y-85925000D01*
X148869000Y-85945000D01*
X148819000Y-85945000D01*
X148819000Y-85925000D01*
X148271500Y-85925000D01*
X148184000Y-86012500D01*
X148182306Y-86200000D01*
X148189064Y-86268612D01*
X148209077Y-86334587D01*
X148241368Y-86395000D01*
X147934799Y-86395000D01*
X147948504Y-86369360D01*
X147965659Y-86312810D01*
X147971451Y-86254000D01*
X147971451Y-85704000D01*
X147965659Y-85645190D01*
X147951951Y-85600000D01*
X148182306Y-85600000D01*
X148184000Y-85787500D01*
X148271500Y-85875000D01*
X148819000Y-85875000D01*
X148819000Y-85337500D01*
X148731500Y-85250000D01*
X148534000Y-85248306D01*
X148465388Y-85255064D01*
X148399413Y-85275077D01*
X148338609Y-85307577D01*
X148285315Y-85351315D01*
X148241577Y-85404609D01*
X148209077Y-85465413D01*
X148189064Y-85531388D01*
X148182306Y-85600000D01*
X147951951Y-85600000D01*
X147948504Y-85588640D01*
X147929989Y-85554000D01*
X147948504Y-85519360D01*
X147965659Y-85462810D01*
X147971451Y-85404000D01*
X147971451Y-84854000D01*
X147965659Y-84795190D01*
X147948504Y-84738640D01*
X147920647Y-84686523D01*
X147883158Y-84640842D01*
X147837477Y-84603353D01*
X147785360Y-84575496D01*
X147728810Y-84558341D01*
X147670000Y-84552549D01*
X147650000Y-84552549D01*
X147650000Y-76122201D01*
X148537088Y-75235114D01*
X148930738Y-75340592D01*
X148989043Y-75350219D01*
X149048106Y-75348285D01*
X149105657Y-75334866D01*
X149159484Y-75310477D01*
X149207519Y-75276056D01*
X149247916Y-75232925D01*
X149279122Y-75182741D01*
X149299938Y-75127434D01*
X149491384Y-74412947D01*
X149591908Y-74412947D01*
X149393728Y-75152565D01*
G37*
X149393728Y-75152565D02*
X149384101Y-75210870D01*
X149386035Y-75269933D01*
X149399454Y-75327484D01*
X149423843Y-75381312D01*
X149458264Y-75429347D01*
X149501395Y-75469743D01*
X149551579Y-75500949D01*
X149606886Y-75521765D01*
X150476220Y-75754702D01*
X150534525Y-75764329D01*
X150593588Y-75762395D01*
X150651139Y-75748976D01*
X150704966Y-75724587D01*
X150753001Y-75690166D01*
X150793398Y-75647035D01*
X150824604Y-75596851D01*
X150845420Y-75541544D01*
X150864444Y-75470546D01*
X150893646Y-75499748D01*
X150987004Y-75562127D01*
X151090737Y-75605095D01*
X151200860Y-75627000D01*
X151313140Y-75627000D01*
X151337940Y-75622067D01*
X151280405Y-75721721D01*
X151256016Y-75775549D01*
X151242597Y-75833100D01*
X151240663Y-75892163D01*
X151250290Y-75950468D01*
X151271106Y-76005775D01*
X151302312Y-76055959D01*
X151342708Y-76099090D01*
X151390743Y-76133511D01*
X152170165Y-76583511D01*
X152223993Y-76607900D01*
X152281544Y-76621319D01*
X152340607Y-76623253D01*
X152398912Y-76613626D01*
X152454219Y-76592810D01*
X152504403Y-76561604D01*
X152547534Y-76521207D01*
X152581955Y-76473173D01*
X152991765Y-75763361D01*
X153103884Y-75763361D01*
X152666045Y-76521721D01*
X152641656Y-76575549D01*
X152628237Y-76633100D01*
X152626303Y-76692163D01*
X152635930Y-76750468D01*
X152656746Y-76805775D01*
X152687952Y-76855959D01*
X152728348Y-76899090D01*
X152776383Y-76933511D01*
X153555805Y-77383511D01*
X153609633Y-77407900D01*
X153667184Y-77421319D01*
X153726247Y-77423253D01*
X153784552Y-77413626D01*
X153839859Y-77392810D01*
X153890043Y-77361604D01*
X153930574Y-77323642D01*
X153956722Y-77331574D01*
X153999705Y-77335807D01*
X154068646Y-77404748D01*
X154162004Y-77467127D01*
X154265737Y-77510095D01*
X154370070Y-77530848D01*
X154341126Y-77559792D01*
X154303637Y-77605473D01*
X154275780Y-77657590D01*
X154258625Y-77714140D01*
X154252833Y-77772950D01*
X154258625Y-77831760D01*
X154275780Y-77888310D01*
X154303637Y-77940427D01*
X154341126Y-77986108D01*
X154977522Y-78622504D01*
X155023203Y-78659993D01*
X155075320Y-78687850D01*
X155131870Y-78705005D01*
X155190680Y-78710797D01*
X155249490Y-78705005D01*
X155306040Y-78687850D01*
X155358157Y-78659993D01*
X155403838Y-78622504D01*
X155846070Y-78180272D01*
X155983386Y-78180272D01*
X155472496Y-78691162D01*
X155435007Y-78736843D01*
X155407150Y-78788960D01*
X155389995Y-78845510D01*
X155384203Y-78904320D01*
X155389995Y-78963130D01*
X155407150Y-79019680D01*
X155435007Y-79071797D01*
X155472496Y-79117478D01*
X156108892Y-79753874D01*
X156154573Y-79791363D01*
X156206690Y-79819220D01*
X156263240Y-79836375D01*
X156289893Y-79839000D01*
X155956102Y-79839000D01*
X155938354Y-79821252D01*
X155844996Y-79758873D01*
X155741263Y-79715905D01*
X155631140Y-79694000D01*
X155518860Y-79694000D01*
X155408737Y-79715905D01*
X155305004Y-79758873D01*
X155211646Y-79821252D01*
X155132252Y-79900646D01*
X155069873Y-79994004D01*
X155026905Y-80097737D01*
X155005000Y-80207860D01*
X155005000Y-80320140D01*
X155026905Y-80430263D01*
X155044804Y-80473475D01*
X154645194Y-80073865D01*
X154633447Y-80059551D01*
X154576346Y-80012690D01*
X154511199Y-79977868D01*
X154440512Y-79956425D01*
X154385418Y-79950999D01*
X154385415Y-79950999D01*
X154366999Y-79949185D01*
X154348583Y-79950999D01*
X152026417Y-79950999D01*
X152008001Y-79949185D01*
X151989585Y-79950999D01*
X151989582Y-79950999D01*
X151934488Y-79956425D01*
X151863801Y-79977868D01*
X151798654Y-80012690D01*
X151741553Y-80059551D01*
X151729810Y-80073860D01*
X151554121Y-80249549D01*
X150858000Y-80249549D01*
X150799190Y-80255341D01*
X150742640Y-80272496D01*
X150690523Y-80300353D01*
X150644842Y-80337842D01*
X150607353Y-80383523D01*
X150579496Y-80435640D01*
X150562341Y-80492190D01*
X150556549Y-80551000D01*
X150556549Y-81501000D01*
X150562341Y-81559810D01*
X150579496Y-81616360D01*
X150607353Y-81668477D01*
X150644842Y-81714158D01*
X150690523Y-81751647D01*
X150742640Y-81779504D01*
X150799190Y-81796659D01*
X150858000Y-81802451D01*
X151758000Y-81802451D01*
X151816810Y-81796659D01*
X151873360Y-81779504D01*
X151925477Y-81751647D01*
X151971158Y-81714158D01*
X152008647Y-81668477D01*
X152036504Y-81616360D01*
X152053659Y-81559810D01*
X152059451Y-81501000D01*
X152059451Y-80804879D01*
X152156549Y-80707781D01*
X152156549Y-81501000D01*
X152162341Y-81559810D01*
X152179496Y-81616360D01*
X152207353Y-81668477D01*
X152244842Y-81714158D01*
X152290523Y-81751647D01*
X152342640Y-81779504D01*
X152399190Y-81796659D01*
X152458000Y-81802451D01*
X153083410Y-81802451D01*
X153246760Y-81965800D01*
X151961839Y-83250721D01*
X151945627Y-83264026D01*
X151892517Y-83328740D01*
X151867132Y-83376233D01*
X151853053Y-83402573D01*
X151830996Y-83475282D01*
X151780996Y-83441873D01*
X151677263Y-83398905D01*
X151567140Y-83377000D01*
X151454860Y-83377000D01*
X151344737Y-83398905D01*
X151241004Y-83441873D01*
X151147646Y-83504252D01*
X151068252Y-83583646D01*
X151005873Y-83677004D01*
X150962905Y-83780737D01*
X150941000Y-83890860D01*
X150941000Y-84003140D01*
X150962905Y-84113263D01*
X151005873Y-84216996D01*
X151068252Y-84310354D01*
X151085447Y-84327549D01*
X150573000Y-84327549D01*
X150514190Y-84333341D01*
X150457640Y-84350496D01*
X150405523Y-84378353D01*
X150359842Y-84415842D01*
X150322353Y-84461523D01*
X150294496Y-84513640D01*
X150277341Y-84570190D01*
X150271549Y-84629000D01*
X150271549Y-85429000D01*
X150274657Y-85460555D01*
X150223354Y-85409252D01*
X150129996Y-85346873D01*
X150026263Y-85303905D01*
X149916140Y-85282000D01*
X149803860Y-85282000D01*
X149693737Y-85303905D01*
X149590004Y-85346873D01*
X149496646Y-85409252D01*
X149465534Y-85440364D01*
X149446423Y-85404609D01*
X149402685Y-85351315D01*
X149349391Y-85307577D01*
X149288587Y-85275077D01*
X149222612Y-85255064D01*
X149154000Y-85248306D01*
X148956500Y-85250000D01*
X148869000Y-85337500D01*
X148869000Y-85875000D01*
X148889000Y-85875000D01*
X148889000Y-85925000D01*
X148869000Y-85925000D01*
X148869000Y-85945000D01*
X148819000Y-85945000D01*
X148819000Y-85925000D01*
X148271500Y-85925000D01*
X148184000Y-86012500D01*
X148182306Y-86200000D01*
X148189064Y-86268612D01*
X148209077Y-86334587D01*
X148241368Y-86395000D01*
X147934799Y-86395000D01*
X147948504Y-86369360D01*
X147965659Y-86312810D01*
X147971451Y-86254000D01*
X147971451Y-85704000D01*
X147965659Y-85645190D01*
X147951951Y-85600000D01*
X148182306Y-85600000D01*
X148184000Y-85787500D01*
X148271500Y-85875000D01*
X148819000Y-85875000D01*
X148819000Y-85337500D01*
X148731500Y-85250000D01*
X148534000Y-85248306D01*
X148465388Y-85255064D01*
X148399413Y-85275077D01*
X148338609Y-85307577D01*
X148285315Y-85351315D01*
X148241577Y-85404609D01*
X148209077Y-85465413D01*
X148189064Y-85531388D01*
X148182306Y-85600000D01*
X147951951Y-85600000D01*
X147948504Y-85588640D01*
X147929989Y-85554000D01*
X147948504Y-85519360D01*
X147965659Y-85462810D01*
X147971451Y-85404000D01*
X147971451Y-84854000D01*
X147965659Y-84795190D01*
X147948504Y-84738640D01*
X147920647Y-84686523D01*
X147883158Y-84640842D01*
X147837477Y-84603353D01*
X147785360Y-84575496D01*
X147728810Y-84558341D01*
X147670000Y-84552549D01*
X147650000Y-84552549D01*
X147650000Y-76122201D01*
X148537088Y-75235114D01*
X148930738Y-75340592D01*
X148989043Y-75350219D01*
X149048106Y-75348285D01*
X149105657Y-75334866D01*
X149159484Y-75310477D01*
X149207519Y-75276056D01*
X149247916Y-75232925D01*
X149279122Y-75182741D01*
X149299938Y-75127434D01*
X149491384Y-74412947D01*
X149591908Y-74412947D01*
X149393728Y-75152565D01*
G36*
X152672600Y-86041900D02*
G01*
X152672600Y-86004002D01*
X152710498Y-86004002D01*
X152672600Y-86041900D01*
G37*
X152672600Y-86041900D02*
X152672600Y-86004002D01*
X152710498Y-86004002D01*
X152672600Y-86041900D01*
G36*
X153498000Y-85954000D02*
G01*
X153518000Y-85954000D01*
X153518000Y-86004000D01*
X153498000Y-86004000D01*
X153498000Y-86024000D01*
X153448000Y-86024000D01*
X153448000Y-86004000D01*
X153428000Y-86004000D01*
X153428000Y-85954000D01*
X153448000Y-85954000D01*
X153448000Y-85934000D01*
X153498000Y-85934000D01*
X153498000Y-85954000D01*
G37*
X153498000Y-85954000D02*
X153518000Y-85954000D01*
X153518000Y-86004000D01*
X153498000Y-86004000D01*
X153498000Y-86024000D01*
X153448000Y-86024000D01*
X153448000Y-86004000D01*
X153428000Y-86004000D01*
X153428000Y-85954000D01*
X153448000Y-85954000D01*
X153448000Y-85934000D01*
X153498000Y-85934000D01*
X153498000Y-85954000D01*
G36*
X152710498Y-85953998D02*
G01*
X152672600Y-85953998D01*
X152672600Y-85916100D01*
X152710498Y-85953998D01*
G37*
X152710498Y-85953998D02*
X152672600Y-85953998D01*
X152672600Y-85916100D01*
X152710498Y-85953998D01*
G36*
X139217000Y-85827000D02*
G01*
X139237000Y-85827000D01*
X139237000Y-85877000D01*
X139217000Y-85877000D01*
X139217000Y-85897000D01*
X139167000Y-85897000D01*
X139167000Y-85877000D01*
X139147000Y-85877000D01*
X139147000Y-85827000D01*
X139167000Y-85827000D01*
X139167000Y-85807000D01*
X139217000Y-85807000D01*
X139217000Y-85827000D01*
G37*
X139217000Y-85827000D02*
X139237000Y-85827000D01*
X139237000Y-85877000D01*
X139217000Y-85877000D01*
X139217000Y-85897000D01*
X139167000Y-85897000D01*
X139167000Y-85877000D01*
X139147000Y-85877000D01*
X139147000Y-85827000D01*
X139167000Y-85827000D01*
X139167000Y-85807000D01*
X139217000Y-85807000D01*
X139217000Y-85827000D01*
G36*
X147956459Y-74334599D02*
G01*
X147854315Y-74715805D01*
X146939239Y-75630882D01*
X146923027Y-75644187D01*
X146869917Y-75708901D01*
X146866549Y-75715203D01*
X146830453Y-75782734D01*
X146806150Y-75862847D01*
X146797945Y-75946161D01*
X146800001Y-75967038D01*
X146800000Y-84552549D01*
X146780000Y-84552549D01*
X146721190Y-84558341D01*
X146664640Y-84575496D01*
X146612523Y-84603353D01*
X146566842Y-84640842D01*
X146529353Y-84686523D01*
X146501496Y-84738640D01*
X146484341Y-84795190D01*
X146478549Y-84854000D01*
X146478549Y-85404000D01*
X146484341Y-85462810D01*
X146501496Y-85519360D01*
X146520011Y-85554000D01*
X146518381Y-85557050D01*
X145338196Y-84376865D01*
X145326449Y-84362551D01*
X145269348Y-84315690D01*
X145204201Y-84280868D01*
X145133514Y-84259425D01*
X145078420Y-84253999D01*
X145078417Y-84253999D01*
X145060001Y-84252185D01*
X145041585Y-84253999D01*
X144012000Y-84253999D01*
X144012000Y-83076415D01*
X144013814Y-83057999D01*
X144012000Y-83039581D01*
X144006574Y-82984487D01*
X143985131Y-82913800D01*
X143982496Y-82908870D01*
X143950309Y-82848652D01*
X143928243Y-82821766D01*
X143903448Y-82791552D01*
X143889139Y-82779809D01*
X143384195Y-82274866D01*
X143372448Y-82260552D01*
X143315347Y-82213691D01*
X143250200Y-82178869D01*
X143179513Y-82157426D01*
X143124419Y-82152000D01*
X143124416Y-82152000D01*
X143106000Y-82150186D01*
X143087584Y-82152000D01*
X142289508Y-82152000D01*
X142277789Y-82130076D01*
X142272591Y-82123742D01*
X142300685Y-82100685D01*
X142344423Y-82047391D01*
X142376923Y-81986587D01*
X142396936Y-81920612D01*
X142403694Y-81852000D01*
X142402000Y-81669500D01*
X142314500Y-81582000D01*
X141757000Y-81582000D01*
X141757000Y-81602000D01*
X141707000Y-81602000D01*
X141707000Y-81582000D01*
X141687000Y-81582000D01*
X141687000Y-81532000D01*
X141707000Y-81532000D01*
X141707000Y-80999500D01*
X141757000Y-80999500D01*
X141757000Y-81532000D01*
X142314500Y-81532000D01*
X142402000Y-81444500D01*
X142403694Y-81262000D01*
X142396936Y-81193388D01*
X142376923Y-81127413D01*
X142344423Y-81066609D01*
X142300685Y-81013315D01*
X142247391Y-80969577D01*
X142186587Y-80937077D01*
X142120612Y-80917064D01*
X142052000Y-80910306D01*
X141844500Y-80912000D01*
X141757000Y-80999500D01*
X141707000Y-80999500D01*
X141619500Y-80912000D01*
X141561990Y-80911530D01*
X141561990Y-79681424D01*
X141563804Y-79663008D01*
X141561990Y-79644589D01*
X141561990Y-77357539D01*
X143233530Y-75686000D01*
X145502584Y-75686000D01*
X145521000Y-75687814D01*
X145539416Y-75686000D01*
X145539419Y-75686000D01*
X145594513Y-75680574D01*
X145665200Y-75659131D01*
X145730347Y-75624309D01*
X145787448Y-75577448D01*
X145799195Y-75563134D01*
X146383879Y-74978451D01*
X147080000Y-74978451D01*
X147138810Y-74972659D01*
X147195360Y-74955504D01*
X147247477Y-74927647D01*
X147293158Y-74890158D01*
X147330647Y-74844477D01*
X147358504Y-74792360D01*
X147375659Y-74735810D01*
X147381451Y-74677000D01*
X147381451Y-73826999D01*
X147448860Y-73826999D01*
X147956459Y-74334599D01*
G37*
X147956459Y-74334599D02*
X147854315Y-74715805D01*
X146939239Y-75630882D01*
X146923027Y-75644187D01*
X146869917Y-75708901D01*
X146866549Y-75715203D01*
X146830453Y-75782734D01*
X146806150Y-75862847D01*
X146797945Y-75946161D01*
X146800001Y-75967038D01*
X146800000Y-84552549D01*
X146780000Y-84552549D01*
X146721190Y-84558341D01*
X146664640Y-84575496D01*
X146612523Y-84603353D01*
X146566842Y-84640842D01*
X146529353Y-84686523D01*
X146501496Y-84738640D01*
X146484341Y-84795190D01*
X146478549Y-84854000D01*
X146478549Y-85404000D01*
X146484341Y-85462810D01*
X146501496Y-85519360D01*
X146520011Y-85554000D01*
X146518381Y-85557050D01*
X145338196Y-84376865D01*
X145326449Y-84362551D01*
X145269348Y-84315690D01*
X145204201Y-84280868D01*
X145133514Y-84259425D01*
X145078420Y-84253999D01*
X145078417Y-84253999D01*
X145060001Y-84252185D01*
X145041585Y-84253999D01*
X144012000Y-84253999D01*
X144012000Y-83076415D01*
X144013814Y-83057999D01*
X144012000Y-83039581D01*
X144006574Y-82984487D01*
X143985131Y-82913800D01*
X143982496Y-82908870D01*
X143950309Y-82848652D01*
X143928243Y-82821766D01*
X143903448Y-82791552D01*
X143889139Y-82779809D01*
X143384195Y-82274866D01*
X143372448Y-82260552D01*
X143315347Y-82213691D01*
X143250200Y-82178869D01*
X143179513Y-82157426D01*
X143124419Y-82152000D01*
X143124416Y-82152000D01*
X143106000Y-82150186D01*
X143087584Y-82152000D01*
X142289508Y-82152000D01*
X142277789Y-82130076D01*
X142272591Y-82123742D01*
X142300685Y-82100685D01*
X142344423Y-82047391D01*
X142376923Y-81986587D01*
X142396936Y-81920612D01*
X142403694Y-81852000D01*
X142402000Y-81669500D01*
X142314500Y-81582000D01*
X141757000Y-81582000D01*
X141757000Y-81602000D01*
X141707000Y-81602000D01*
X141707000Y-81582000D01*
X141687000Y-81582000D01*
X141687000Y-81532000D01*
X141707000Y-81532000D01*
X141707000Y-80999500D01*
X141757000Y-80999500D01*
X141757000Y-81532000D01*
X142314500Y-81532000D01*
X142402000Y-81444500D01*
X142403694Y-81262000D01*
X142396936Y-81193388D01*
X142376923Y-81127413D01*
X142344423Y-81066609D01*
X142300685Y-81013315D01*
X142247391Y-80969577D01*
X142186587Y-80937077D01*
X142120612Y-80917064D01*
X142052000Y-80910306D01*
X141844500Y-80912000D01*
X141757000Y-80999500D01*
X141707000Y-80999500D01*
X141619500Y-80912000D01*
X141561990Y-80911530D01*
X141561990Y-79681424D01*
X141563804Y-79663008D01*
X141561990Y-79644589D01*
X141561990Y-77357539D01*
X143233530Y-75686000D01*
X145502584Y-75686000D01*
X145521000Y-75687814D01*
X145539416Y-75686000D01*
X145539419Y-75686000D01*
X145594513Y-75680574D01*
X145665200Y-75659131D01*
X145730347Y-75624309D01*
X145787448Y-75577448D01*
X145799195Y-75563134D01*
X146383879Y-74978451D01*
X147080000Y-74978451D01*
X147138810Y-74972659D01*
X147195360Y-74955504D01*
X147247477Y-74927647D01*
X147293158Y-74890158D01*
X147330647Y-74844477D01*
X147358504Y-74792360D01*
X147375659Y-74735810D01*
X147381451Y-74677000D01*
X147381451Y-73826999D01*
X147448860Y-73826999D01*
X147956459Y-74334599D01*
%TD*%
M02*
