%TF.GenerationSoftware,KiCad,Pcbnew,(5.1.6)-1*%
%TF.CreationDate,2023-04-03T22:04:13-07:00*%
%TF.ProjectId,Watch,57617463-682e-46b6-9963-61645f706362,rev?*%
%TF.SameCoordinates,Original*%
%TF.FileFunction,Copper,L2,Bot*%
%TF.FilePolarity,Positive*%
%FSLAX46Y46*%
G04 Gerber Fmt 4.6, Leading zero omitted, Abs format (unit mm)*
G04 Created by KiCad (PCBNEW (5.1.6)-1) date 2023-04-03 22:04:13*
%MOMM*%
%LPD*%
G01*
G04 APERTURE LIST*
%TA.AperFunction,SMDPad,CuDef*%
%ADD10R,1.700000X4.000000*%
%TD*%
%TA.AperFunction,SMDPad,CuDef*%
%ADD11R,2.000000X5.000000*%
%TD*%
%TA.AperFunction,SMDPad,CuDef*%
%ADD12R,0.800000X1.500000*%
%TD*%
%TA.AperFunction,SMDPad,CuDef*%
%ADD13R,1.550000X0.700000*%
%TD*%
%TA.AperFunction,SMDPad,CuDef*%
%ADD14R,1.050000X0.500000*%
%TD*%
%TA.AperFunction,SMDPad,CuDef*%
%ADD15R,0.620000X0.600000*%
%TD*%
%TA.AperFunction,SMDPad,CuDef*%
%ADD16R,0.600000X0.620000*%
%TD*%
%TA.AperFunction,SMDPad,CuDef*%
%ADD17C,1.000000*%
%TD*%
%TA.AperFunction,ComponentPad*%
%ADD18R,1.000000X1.000000*%
%TD*%
%TA.AperFunction,ComponentPad*%
%ADD19O,1.000000X1.000000*%
%TD*%
%TA.AperFunction,SMDPad,CuDef*%
%ADD20R,2.400000X0.740000*%
%TD*%
%TA.AperFunction,ViaPad*%
%ADD21C,0.540000*%
%TD*%
%TA.AperFunction,ViaPad*%
%ADD22C,0.500000*%
%TD*%
%TA.AperFunction,Conductor*%
%ADD23C,0.150000*%
%TD*%
%TA.AperFunction,Conductor*%
%ADD24C,0.250000*%
%TD*%
%TA.AperFunction,Conductor*%
%ADD25C,0.254000*%
%TD*%
G04 APERTURE END LIST*
%TO.P,R103,2*%
%TO.N,/SDA*%
%TA.AperFunction,SMDPad,CuDef*%
G36*
G01*
X138638500Y-79946000D02*
X138983500Y-79946000D01*
G75*
G02*
X139131000Y-80093500I0J-147500D01*
G01*
X139131000Y-80388500D01*
G75*
G02*
X138983500Y-80536000I-147500J0D01*
G01*
X138638500Y-80536000D01*
G75*
G02*
X138491000Y-80388500I0J147500D01*
G01*
X138491000Y-80093500D01*
G75*
G02*
X138638500Y-79946000I147500J0D01*
G01*
G37*
%TD.AperFunction*%
%TO.P,R103,1*%
%TO.N,+3V3*%
%TA.AperFunction,SMDPad,CuDef*%
G36*
G01*
X138638500Y-78976000D02*
X138983500Y-78976000D01*
G75*
G02*
X139131000Y-79123500I0J-147500D01*
G01*
X139131000Y-79418500D01*
G75*
G02*
X138983500Y-79566000I-147500J0D01*
G01*
X138638500Y-79566000D01*
G75*
G02*
X138491000Y-79418500I0J147500D01*
G01*
X138491000Y-79123500D01*
G75*
G02*
X138638500Y-78976000I147500J0D01*
G01*
G37*
%TD.AperFunction*%
%TD*%
D10*
%TO.P,C106,2*%
%TO.N,GND*%
X151003000Y-79883000D03*
D11*
%TO.P,C106,1*%
%TO.N,Net-(C106-Pad1)*%
X140853000Y-79883000D03*
%TD*%
D12*
%TO.P,Y101,2*%
%TO.N,Net-(IC102-Pad1)*%
X135902000Y-94361000D03*
%TO.P,Y101,1*%
%TO.N,Net-(IC102-Pad2)*%
X137402000Y-94361000D03*
%TD*%
D13*
%TO.P,IC102,8*%
%TO.N,Net-(C105-Pad2)*%
X141732000Y-92202000D03*
%TO.P,IC102,7*%
%TO.N,Net-(IC102-Pad7)*%
X141732000Y-90932000D03*
%TO.P,IC102,6*%
%TO.N,/SCL*%
X141732000Y-89662000D03*
%TO.P,IC102,5*%
%TO.N,/SDA*%
X141732000Y-88392000D03*
%TO.P,IC102,4*%
%TO.N,GND*%
X136282000Y-88392000D03*
%TO.P,IC102,3*%
%TO.N,Net-(IC102-Pad3)*%
X136282000Y-89662000D03*
%TO.P,IC102,2*%
%TO.N,Net-(IC102-Pad2)*%
X136282000Y-90932000D03*
%TO.P,IC102,1*%
%TO.N,Net-(IC102-Pad1)*%
X136282000Y-92202000D03*
%TD*%
D14*
%TO.P,D101,2*%
%TO.N,+3V3*%
X150490000Y-84836000D03*
%TO.P,D101,1*%
%TO.N,Net-(C105-Pad2)*%
X148214000Y-84836000D03*
%TD*%
D15*
%TO.P,C202,2*%
%TO.N,GND*%
X137668000Y-80216000D03*
%TO.P,C202,1*%
%TO.N,+3V3*%
X137668000Y-79296000D03*
%TD*%
D16*
%TO.P,C201,2*%
%TO.N,GND*%
X138605000Y-86106000D03*
%TO.P,C201,1*%
%TO.N,+3V3*%
X139525000Y-86106000D03*
%TD*%
%TO.P,C105,2*%
%TO.N,Net-(C105-Pad2)*%
X146558000Y-84836000D03*
%TO.P,C105,1*%
%TO.N,GND*%
X145638000Y-84836000D03*
%TD*%
%TO.P,R203,2*%
%TO.N,Net-(IC201-Pad33)*%
%TA.AperFunction,SMDPad,CuDef*%
G36*
G01*
X141541000Y-87167500D02*
X141541000Y-86822500D01*
G75*
G02*
X141688500Y-86675000I147500J0D01*
G01*
X141983500Y-86675000D01*
G75*
G02*
X142131000Y-86822500I0J-147500D01*
G01*
X142131000Y-87167500D01*
G75*
G02*
X141983500Y-87315000I-147500J0D01*
G01*
X141688500Y-87315000D01*
G75*
G02*
X141541000Y-87167500I0J147500D01*
G01*
G37*
%TD.AperFunction*%
%TO.P,R203,1*%
%TO.N,GND*%
%TA.AperFunction,SMDPad,CuDef*%
G36*
G01*
X140571000Y-87167500D02*
X140571000Y-86822500D01*
G75*
G02*
X140718500Y-86675000I147500J0D01*
G01*
X141013500Y-86675000D01*
G75*
G02*
X141161000Y-86822500I0J-147500D01*
G01*
X141161000Y-87167500D01*
G75*
G02*
X141013500Y-87315000I-147500J0D01*
G01*
X140718500Y-87315000D01*
G75*
G02*
X140571000Y-87167500I0J147500D01*
G01*
G37*
%TD.AperFunction*%
%TD*%
%TO.P,R112,2*%
%TO.N,/JTAG_TDI*%
%TA.AperFunction,SMDPad,CuDef*%
G36*
G01*
X144589000Y-91485500D02*
X144589000Y-91140500D01*
G75*
G02*
X144736500Y-90993000I147500J0D01*
G01*
X145031500Y-90993000D01*
G75*
G02*
X145179000Y-91140500I0J-147500D01*
G01*
X145179000Y-91485500D01*
G75*
G02*
X145031500Y-91633000I-147500J0D01*
G01*
X144736500Y-91633000D01*
G75*
G02*
X144589000Y-91485500I0J147500D01*
G01*
G37*
%TD.AperFunction*%
%TO.P,R112,1*%
%TO.N,+3V3*%
%TA.AperFunction,SMDPad,CuDef*%
G36*
G01*
X143619000Y-91485500D02*
X143619000Y-91140500D01*
G75*
G02*
X143766500Y-90993000I147500J0D01*
G01*
X144061500Y-90993000D01*
G75*
G02*
X144209000Y-91140500I0J-147500D01*
G01*
X144209000Y-91485500D01*
G75*
G02*
X144061500Y-91633000I-147500J0D01*
G01*
X143766500Y-91633000D01*
G75*
G02*
X143619000Y-91485500I0J147500D01*
G01*
G37*
%TD.AperFunction*%
%TD*%
%TO.P,R111,2*%
%TO.N,/JTAG_TDO*%
%TA.AperFunction,SMDPad,CuDef*%
G36*
G01*
X144589000Y-89961500D02*
X144589000Y-89616500D01*
G75*
G02*
X144736500Y-89469000I147500J0D01*
G01*
X145031500Y-89469000D01*
G75*
G02*
X145179000Y-89616500I0J-147500D01*
G01*
X145179000Y-89961500D01*
G75*
G02*
X145031500Y-90109000I-147500J0D01*
G01*
X144736500Y-90109000D01*
G75*
G02*
X144589000Y-89961500I0J147500D01*
G01*
G37*
%TD.AperFunction*%
%TO.P,R111,1*%
%TO.N,+3V3*%
%TA.AperFunction,SMDPad,CuDef*%
G36*
G01*
X143619000Y-89961500D02*
X143619000Y-89616500D01*
G75*
G02*
X143766500Y-89469000I147500J0D01*
G01*
X144061500Y-89469000D01*
G75*
G02*
X144209000Y-89616500I0J-147500D01*
G01*
X144209000Y-89961500D01*
G75*
G02*
X144061500Y-90109000I-147500J0D01*
G01*
X143766500Y-90109000D01*
G75*
G02*
X143619000Y-89961500I0J147500D01*
G01*
G37*
%TD.AperFunction*%
%TD*%
%TO.P,R110,2*%
%TO.N,/JTAG_TMS*%
%TA.AperFunction,SMDPad,CuDef*%
G36*
G01*
X144589000Y-87294500D02*
X144589000Y-86949500D01*
G75*
G02*
X144736500Y-86802000I147500J0D01*
G01*
X145031500Y-86802000D01*
G75*
G02*
X145179000Y-86949500I0J-147500D01*
G01*
X145179000Y-87294500D01*
G75*
G02*
X145031500Y-87442000I-147500J0D01*
G01*
X144736500Y-87442000D01*
G75*
G02*
X144589000Y-87294500I0J147500D01*
G01*
G37*
%TD.AperFunction*%
%TO.P,R110,1*%
%TO.N,+3V3*%
%TA.AperFunction,SMDPad,CuDef*%
G36*
G01*
X143619000Y-87294500D02*
X143619000Y-86949500D01*
G75*
G02*
X143766500Y-86802000I147500J0D01*
G01*
X144061500Y-86802000D01*
G75*
G02*
X144209000Y-86949500I0J-147500D01*
G01*
X144209000Y-87294500D01*
G75*
G02*
X144061500Y-87442000I-147500J0D01*
G01*
X143766500Y-87442000D01*
G75*
G02*
X143619000Y-87294500I0J147500D01*
G01*
G37*
%TD.AperFunction*%
%TD*%
%TO.P,R109,2*%
%TO.N,/JTAG_TCK*%
%TA.AperFunction,SMDPad,CuDef*%
G36*
G01*
X144589000Y-88564500D02*
X144589000Y-88219500D01*
G75*
G02*
X144736500Y-88072000I147500J0D01*
G01*
X145031500Y-88072000D01*
G75*
G02*
X145179000Y-88219500I0J-147500D01*
G01*
X145179000Y-88564500D01*
G75*
G02*
X145031500Y-88712000I-147500J0D01*
G01*
X144736500Y-88712000D01*
G75*
G02*
X144589000Y-88564500I0J147500D01*
G01*
G37*
%TD.AperFunction*%
%TO.P,R109,1*%
%TO.N,+3V3*%
%TA.AperFunction,SMDPad,CuDef*%
G36*
G01*
X143619000Y-88564500D02*
X143619000Y-88219500D01*
G75*
G02*
X143766500Y-88072000I147500J0D01*
G01*
X144061500Y-88072000D01*
G75*
G02*
X144209000Y-88219500I0J-147500D01*
G01*
X144209000Y-88564500D01*
G75*
G02*
X144061500Y-88712000I-147500J0D01*
G01*
X143766500Y-88712000D01*
G75*
G02*
X143619000Y-88564500I0J147500D01*
G01*
G37*
%TD.AperFunction*%
%TD*%
%TO.P,R108,2*%
%TO.N,/SW1*%
%TA.AperFunction,SMDPad,CuDef*%
G36*
G01*
X155615000Y-87675500D02*
X155615000Y-87330500D01*
G75*
G02*
X155762500Y-87183000I147500J0D01*
G01*
X156057500Y-87183000D01*
G75*
G02*
X156205000Y-87330500I0J-147500D01*
G01*
X156205000Y-87675500D01*
G75*
G02*
X156057500Y-87823000I-147500J0D01*
G01*
X155762500Y-87823000D01*
G75*
G02*
X155615000Y-87675500I0J147500D01*
G01*
G37*
%TD.AperFunction*%
%TO.P,R108,1*%
%TO.N,+3V3*%
%TA.AperFunction,SMDPad,CuDef*%
G36*
G01*
X154645000Y-87675500D02*
X154645000Y-87330500D01*
G75*
G02*
X154792500Y-87183000I147500J0D01*
G01*
X155087500Y-87183000D01*
G75*
G02*
X155235000Y-87330500I0J-147500D01*
G01*
X155235000Y-87675500D01*
G75*
G02*
X155087500Y-87823000I-147500J0D01*
G01*
X154792500Y-87823000D01*
G75*
G02*
X154645000Y-87675500I0J147500D01*
G01*
G37*
%TD.AperFunction*%
%TD*%
%TO.P,R107,2*%
%TO.N,/SW2*%
%TA.AperFunction,SMDPad,CuDef*%
G36*
G01*
X155615000Y-88945500D02*
X155615000Y-88600500D01*
G75*
G02*
X155762500Y-88453000I147500J0D01*
G01*
X156057500Y-88453000D01*
G75*
G02*
X156205000Y-88600500I0J-147500D01*
G01*
X156205000Y-88945500D01*
G75*
G02*
X156057500Y-89093000I-147500J0D01*
G01*
X155762500Y-89093000D01*
G75*
G02*
X155615000Y-88945500I0J147500D01*
G01*
G37*
%TD.AperFunction*%
%TO.P,R107,1*%
%TO.N,+3V3*%
%TA.AperFunction,SMDPad,CuDef*%
G36*
G01*
X154645000Y-88945500D02*
X154645000Y-88600500D01*
G75*
G02*
X154792500Y-88453000I147500J0D01*
G01*
X155087500Y-88453000D01*
G75*
G02*
X155235000Y-88600500I0J-147500D01*
G01*
X155235000Y-88945500D01*
G75*
G02*
X155087500Y-89093000I-147500J0D01*
G01*
X154792500Y-89093000D01*
G75*
G02*
X154645000Y-88945500I0J147500D01*
G01*
G37*
%TD.AperFunction*%
%TD*%
%TO.P,R105,2*%
%TO.N,Net-(C105-Pad2)*%
%TA.AperFunction,SMDPad,CuDef*%
G36*
G01*
X144335000Y-85008500D02*
X144335000Y-84663500D01*
G75*
G02*
X144482500Y-84516000I147500J0D01*
G01*
X144777500Y-84516000D01*
G75*
G02*
X144925000Y-84663500I0J-147500D01*
G01*
X144925000Y-85008500D01*
G75*
G02*
X144777500Y-85156000I-147500J0D01*
G01*
X144482500Y-85156000D01*
G75*
G02*
X144335000Y-85008500I0J147500D01*
G01*
G37*
%TD.AperFunction*%
%TO.P,R105,1*%
%TO.N,Net-(C106-Pad1)*%
%TA.AperFunction,SMDPad,CuDef*%
G36*
G01*
X143365000Y-85008500D02*
X143365000Y-84663500D01*
G75*
G02*
X143512500Y-84516000I147500J0D01*
G01*
X143807500Y-84516000D01*
G75*
G02*
X143955000Y-84663500I0J-147500D01*
G01*
X143955000Y-85008500D01*
G75*
G02*
X143807500Y-85156000I-147500J0D01*
G01*
X143512500Y-85156000D01*
G75*
G02*
X143365000Y-85008500I0J147500D01*
G01*
G37*
%TD.AperFunction*%
%TD*%
%TO.P,R104,2*%
%TO.N,/SCL*%
%TA.AperFunction,SMDPad,CuDef*%
G36*
G01*
X138898000Y-84663500D02*
X138898000Y-85008500D01*
G75*
G02*
X138750500Y-85156000I-147500J0D01*
G01*
X138455500Y-85156000D01*
G75*
G02*
X138308000Y-85008500I0J147500D01*
G01*
X138308000Y-84663500D01*
G75*
G02*
X138455500Y-84516000I147500J0D01*
G01*
X138750500Y-84516000D01*
G75*
G02*
X138898000Y-84663500I0J-147500D01*
G01*
G37*
%TD.AperFunction*%
%TO.P,R104,1*%
%TO.N,+3V3*%
%TA.AperFunction,SMDPad,CuDef*%
G36*
G01*
X139868000Y-84663500D02*
X139868000Y-85008500D01*
G75*
G02*
X139720500Y-85156000I-147500J0D01*
G01*
X139425500Y-85156000D01*
G75*
G02*
X139278000Y-85008500I0J147500D01*
G01*
X139278000Y-84663500D01*
G75*
G02*
X139425500Y-84516000I147500J0D01*
G01*
X139720500Y-84516000D01*
G75*
G02*
X139868000Y-84663500I0J-147500D01*
G01*
G37*
%TD.AperFunction*%
%TD*%
D17*
%TO.P,TP103,1*%
%TO.N,+3V3*%
X153416000Y-88138000D03*
%TD*%
D18*
%TO.P,J103,1*%
%TO.N,/SW1*%
X157734000Y-86614000D03*
%TD*%
%TO.P,J102,1*%
%TO.N,/SW2*%
X157734000Y-89789000D03*
%TD*%
D19*
%TO.P,J105,2*%
%TO.N,+5V*%
X155702000Y-84709000D03*
D18*
%TO.P,J105,1*%
%TO.N,GND*%
X155702000Y-85979000D03*
%TD*%
D19*
%TO.P,J101,2*%
%TO.N,+BATT*%
X155702000Y-91694000D03*
D18*
%TO.P,J101,1*%
%TO.N,GND*%
X155702000Y-90424000D03*
%TD*%
D20*
%TO.P,J104,10*%
%TO.N,/JTAG_RESET*%
X146812000Y-92202000D03*
%TO.P,J104,9*%
%TO.N,GND*%
X150712000Y-92202000D03*
%TO.P,J104,8*%
%TO.N,/JTAG_TDI*%
X146812000Y-90932000D03*
%TO.P,J104,7*%
%TO.N,Net-(J104-Pad7)*%
X150712000Y-90932000D03*
%TO.P,J104,6*%
%TO.N,/JTAG_TDO*%
X146812000Y-89662000D03*
%TO.P,J104,5*%
%TO.N,GND*%
X150712000Y-89662000D03*
%TO.P,J104,4*%
%TO.N,/JTAG_TCK*%
X146812000Y-88392000D03*
%TO.P,J104,3*%
%TO.N,GND*%
X150712000Y-88392000D03*
%TO.P,J104,2*%
%TO.N,/JTAG_TMS*%
X146812000Y-87122000D03*
%TO.P,J104,1*%
%TO.N,+3V3*%
X150712000Y-87122000D03*
%TD*%
D21*
%TO.N,Net-(IC201-Pad33)*%
X142748000Y-85344000D03*
%TO.N,GND*%
X149733000Y-76581000D03*
X149860000Y-96901000D03*
D22*
%TO.N,+3V3*%
X135509000Y-81026000D03*
D21*
X149860000Y-85852000D03*
X155575000Y-80264000D03*
X142240000Y-86106000D03*
X144145000Y-90551000D03*
X141097000Y-97282000D03*
X137287000Y-81661000D03*
%TO.N,/leds/OUT24*%
X140449000Y-90170000D03*
X151257000Y-75057000D03*
%TO.N,/leds/OUT23*%
X154432000Y-76962000D03*
X140335000Y-91059000D03*
%TO.N,/leds/OUT22*%
X139192000Y-89535000D03*
X157063915Y-79629000D03*
%TO.N,/leds/OUT21*%
X139065000Y-92075000D03*
X159004000Y-82804000D03*
%TO.N,/leds/OUT20*%
X138049000Y-89535000D03*
X159893000Y-86360000D03*
%TO.N,/leds/OUT19*%
X137541000Y-88773000D03*
X159893000Y-90043000D03*
%TO.N,/leds/OUT18*%
X134874000Y-90170000D03*
X158877000Y-93599000D03*
%TO.N,/leds/OUT17*%
X156972000Y-96774000D03*
X134874000Y-89027000D03*
%TO.N,/leds/OUT16*%
X154432000Y-99441000D03*
X134874000Y-87503000D03*
%TO.N,/leds/OUT15*%
X135636000Y-86487000D03*
X151257000Y-101346000D03*
%TO.N,/leds/OUT14*%
X135636000Y-85598000D03*
X147701000Y-102235000D03*
%TO.N,/SCL*%
X141732000Y-89662000D03*
X142113000Y-83820000D03*
%TO.N,/SDA*%
X142875000Y-84328000D03*
X145542000Y-85852000D03*
%TO.N,+BATT*%
X151257000Y-97155000D03*
%TO.N,/SW2*%
X152908000Y-92329000D03*
%TO.N,/SW1*%
X151511000Y-83947000D03*
%TO.N,/JTAG_RESET*%
X143256000Y-93599000D03*
%TO.N,/JTAG_TDI*%
X146812000Y-90918398D03*
%TO.N,/JTAG_TDO*%
X148463001Y-90932000D03*
%TO.N,/JTAG_TCK*%
X143383000Y-95758000D03*
%TO.N,/JTAG_TMS*%
X141859000Y-96901000D03*
%TD*%
D23*
%TO.N,Net-(IC201-Pad33)*%
X142748000Y-86378000D02*
X142748000Y-85344000D01*
X142131000Y-86995000D02*
X142748000Y-86378000D01*
X141836000Y-86995000D02*
X142131000Y-86995000D01*
D24*
%TO.N,+3V3*%
X152400000Y-87122000D02*
X153416000Y-88138000D01*
X150712000Y-87122000D02*
X152400000Y-87122000D01*
X150712000Y-85058000D02*
X150490000Y-84836000D01*
X150712000Y-87122000D02*
X150712000Y-85058000D01*
X154305000Y-88138000D02*
X154940000Y-87503000D01*
X154305000Y-88138000D02*
X154940000Y-88773000D01*
X153416000Y-88138000D02*
X154305000Y-88138000D01*
X139485166Y-84836000D02*
X139573000Y-84836000D01*
X150712000Y-87122000D02*
X150066999Y-86476999D01*
X149860000Y-86466998D02*
X149849999Y-86476999D01*
X149860000Y-85852000D02*
X149860000Y-86466998D01*
X150066999Y-86476999D02*
X149849999Y-86476999D01*
X150490000Y-84836000D02*
X150490000Y-84161398D01*
X154387398Y-80264000D02*
X155575000Y-80264000D01*
X150490000Y-84161398D02*
X154387398Y-80264000D01*
D23*
X139525000Y-86106000D02*
X140462000Y-86106000D01*
X140462000Y-86106000D02*
X140589000Y-86233000D01*
X142113000Y-86233000D02*
X142240000Y-86106000D01*
X140589000Y-86233000D02*
X142113000Y-86233000D01*
D24*
X139573000Y-86058000D02*
X139525000Y-86106000D01*
X139573000Y-84836000D02*
X139573000Y-86058000D01*
X143914000Y-87122000D02*
X143914000Y-91313000D01*
X143914000Y-90320000D02*
X144145000Y-90551000D01*
X143914000Y-89789000D02*
X143914000Y-90320000D01*
X141097000Y-94951398D02*
X141097000Y-97282000D01*
X143914000Y-91313000D02*
X143914000Y-92134398D01*
X143914000Y-92134398D02*
X141097000Y-94951398D01*
X137239000Y-79296000D02*
X137668000Y-79296000D01*
X135509000Y-81026000D02*
X137239000Y-79296000D01*
X138786000Y-79296000D02*
X138811000Y-79271000D01*
X137668000Y-79296000D02*
X138786000Y-79296000D01*
X139573000Y-84836000D02*
X139573000Y-83947000D01*
X139573000Y-83947000D02*
X137287000Y-81661000D01*
D23*
%TO.N,/leds/OUT24*%
X135033999Y-80797999D02*
X140774998Y-75057000D01*
X135033999Y-83725999D02*
X135033999Y-80797999D01*
X140449000Y-89898988D02*
X137679989Y-87129977D01*
X136271000Y-84963000D02*
X135033999Y-83725999D01*
X137679989Y-87129977D02*
X137675977Y-87129977D01*
X140449000Y-90170000D02*
X140449000Y-89898988D01*
X140774998Y-75057000D02*
X151257000Y-75057000D01*
X137675977Y-87129977D02*
X136271000Y-85725000D01*
X136271000Y-85725000D02*
X136271000Y-84963000D01*
%TO.N,/leds/OUT23*%
X154432000Y-77978000D02*
X154432000Y-76962000D01*
X149233094Y-97813950D02*
X151608382Y-97813950D01*
X158497969Y-91548317D02*
X158497969Y-83817268D01*
X140335000Y-97997990D02*
X149049054Y-97997990D01*
X155580342Y-94465944D02*
X158497969Y-91548317D01*
X158068990Y-83388289D02*
X158068990Y-81614990D01*
X158068990Y-81614990D02*
X154432000Y-77978000D01*
X151608382Y-97813950D02*
X154956388Y-94465944D01*
X158497969Y-83817268D02*
X158068990Y-83388289D01*
X149049054Y-97997990D02*
X149233094Y-97813950D01*
X154956388Y-94465944D02*
X155580342Y-94465944D01*
X140335000Y-91567000D02*
X140335000Y-97997990D01*
X140335000Y-91567000D02*
X140335000Y-91059000D01*
%TO.N,/leds/OUT22*%
X139560001Y-89903001D02*
X139560001Y-98285001D01*
X139192000Y-89535000D02*
X139560001Y-89903001D01*
X149173322Y-98298000D02*
X149357362Y-98113960D01*
X139560001Y-98285001D02*
X139573000Y-98298000D01*
X139573000Y-98298000D02*
X149173322Y-98298000D01*
X151732650Y-98113960D02*
X155080656Y-94765954D01*
X149357362Y-98113960D02*
X151732650Y-98113960D01*
X155080656Y-94765954D02*
X155704610Y-94765954D01*
X155704610Y-94765954D02*
X158797979Y-91672585D01*
X158797979Y-91672585D02*
X158797979Y-83693000D01*
X158797979Y-83693000D02*
X158369000Y-83264021D01*
X158369000Y-83264021D02*
X158369000Y-80934085D01*
X158369000Y-80934085D02*
X157063915Y-79629000D01*
%TO.N,/leds/OUT21*%
X139065000Y-92075000D02*
X138730010Y-92409990D01*
X138730010Y-92409990D02*
X138730010Y-98621960D01*
X149273640Y-98621960D02*
X149481630Y-98413970D01*
X138730010Y-98621960D02*
X149273640Y-98621960D01*
X149481630Y-98413970D02*
X151856918Y-98413970D01*
X151856918Y-98413970D02*
X152186444Y-98084444D01*
X152018898Y-98251990D02*
X152186444Y-98084444D01*
X152186444Y-98084444D02*
X154853443Y-95417445D01*
X155204924Y-95065964D02*
X155828878Y-95065964D01*
X154853443Y-95417445D02*
X155204924Y-95065964D01*
X155828878Y-95065964D02*
X159097989Y-91796853D01*
X159097989Y-91796853D02*
X159097989Y-82897989D01*
X159097989Y-82897989D02*
X159004000Y-82804000D01*
%TO.N,/leds/OUT20*%
X159795398Y-86457602D02*
X159893000Y-86360000D01*
X138430000Y-98921970D02*
X149397908Y-98921970D01*
X149605898Y-98713980D02*
X151981186Y-98713980D01*
X149397908Y-98921970D02*
X149605898Y-98713980D01*
X138049000Y-89535000D02*
X138430000Y-89916000D01*
X138430000Y-89916000D02*
X138430000Y-98921970D01*
X151981186Y-98713980D02*
X155329193Y-95365973D01*
X159795398Y-89408000D02*
X159795398Y-86457602D01*
X155329193Y-95365973D02*
X155953147Y-95365973D01*
X155953147Y-95365973D02*
X159397999Y-91921121D01*
X159397999Y-91921121D02*
X159397999Y-89805399D01*
X159397999Y-89805399D02*
X159795398Y-89408000D01*
%TO.N,/leds/OUT19*%
X152105454Y-99013990D02*
X155453462Y-95665982D01*
X137541000Y-91391010D02*
X138049000Y-91899010D01*
X138049000Y-91899010D02*
X138049000Y-99221980D01*
X149730166Y-99013990D02*
X152105454Y-99013990D01*
X138049000Y-99221980D02*
X149522176Y-99221980D01*
X149522176Y-99221980D02*
X149730166Y-99013990D01*
X137541000Y-88773000D02*
X137541000Y-91391010D01*
X159893000Y-91850398D02*
X159893000Y-90043000D01*
X156077416Y-95665982D02*
X159893000Y-91850398D01*
X155453462Y-95665982D02*
X156077416Y-95665982D01*
%TO.N,/leds/OUT18*%
X155577731Y-95965991D02*
X156510009Y-95965991D01*
X156510009Y-95965991D02*
X158877000Y-93599000D01*
X152229722Y-99314000D02*
X155577731Y-95965991D01*
X132645040Y-92002206D02*
X133742030Y-93099196D01*
X132645040Y-90170000D02*
X132645040Y-92002206D01*
X133742030Y-93099196D02*
X133742030Y-95468918D01*
X134874000Y-90170000D02*
X132645040Y-90170000D01*
X133742030Y-95468918D02*
X137587112Y-99314000D01*
X137587112Y-99314000D02*
X137795102Y-99521990D01*
X137795102Y-99521990D02*
X149646444Y-99521990D01*
X149854434Y-99314000D02*
X152229722Y-99314000D01*
X149646444Y-99521990D02*
X149854434Y-99314000D01*
X152229722Y-99314000D02*
X152314861Y-99228861D01*
%TO.N,/leds/OUT17*%
X155194000Y-96774000D02*
X156972000Y-96774000D01*
X149930723Y-99661989D02*
X152306011Y-99661989D01*
X137670834Y-99822000D02*
X149770712Y-99822000D01*
X133442020Y-95593186D02*
X137670834Y-99822000D01*
X132356060Y-89027000D02*
X132345030Y-89038030D01*
X149770712Y-99822000D02*
X149930723Y-99661989D01*
X134874000Y-89027000D02*
X132356060Y-89027000D01*
X152306011Y-99661989D02*
X155194000Y-96774000D01*
X132345030Y-89038030D02*
X132345030Y-92126474D01*
X132345030Y-92126474D02*
X133442020Y-93223464D01*
X133442020Y-93223464D02*
X133442020Y-95593186D01*
%TO.N,/leds/OUT16*%
X133142010Y-93347732D02*
X132045020Y-92250742D01*
X132045020Y-92250742D02*
X132045020Y-87503000D01*
X133142010Y-95717454D02*
X133142010Y-93347732D01*
X132045020Y-87503000D02*
X134874000Y-87503000D01*
X137581546Y-100156990D02*
X133142010Y-95717454D01*
X153416000Y-99441000D02*
X152895001Y-99961999D01*
X154432000Y-99441000D02*
X153416000Y-99441000D01*
X150054991Y-99961999D02*
X149860000Y-100156990D01*
X152895001Y-99961999D02*
X150054991Y-99961999D01*
X149860000Y-100156990D02*
X137581546Y-100156990D01*
%TO.N,/leds/OUT15*%
X150876000Y-100965000D02*
X151257000Y-101346000D01*
X150876000Y-100457000D02*
X150876000Y-100965000D01*
X137457278Y-100457000D02*
X150876000Y-100457000D01*
X131745010Y-86487000D02*
X131745010Y-92375010D01*
X135636000Y-86487000D02*
X131745010Y-86487000D01*
X131745010Y-92375010D02*
X132842000Y-93472000D01*
X132842000Y-93472000D02*
X132842000Y-95841722D01*
X132842000Y-95841722D02*
X137457278Y-100457000D01*
%TO.N,/leds/OUT14*%
X135636000Y-85598000D02*
X131445000Y-85598000D01*
X131445000Y-85598000D02*
X131445000Y-92583000D01*
X131445000Y-92583000D02*
X132461000Y-93599000D01*
X132461001Y-95885001D02*
X137333009Y-100757009D01*
X132461000Y-93599000D02*
X132461001Y-95885001D01*
X137333009Y-100757009D02*
X147366009Y-100757009D01*
X147366009Y-101900009D02*
X147701000Y-102235000D01*
X147366009Y-100757009D02*
X147366009Y-101900009D01*
%TO.N,/SCL*%
X138079999Y-85359001D02*
X138603000Y-84836000D01*
X138079999Y-86934999D02*
X138079999Y-85359001D01*
X140807000Y-89662000D02*
X138079999Y-86934999D01*
X141732000Y-89662000D02*
X140807000Y-89662000D01*
X138603000Y-84836000D02*
X138726190Y-84836000D01*
X138603000Y-84836000D02*
X138603000Y-84247000D01*
X138603000Y-84247000D02*
X136525000Y-82169000D01*
X136525000Y-82169000D02*
X136525000Y-81407000D01*
X136525000Y-81407000D02*
X136906000Y-81026000D01*
X140460720Y-83820000D02*
X142113000Y-83820000D01*
X137666720Y-81026000D02*
X140460720Y-83820000D01*
X136906000Y-81026000D02*
X137666720Y-81026000D01*
%TO.N,/SDA*%
X142875000Y-84328000D02*
X142875000Y-83185000D01*
X142875000Y-83185000D02*
X140249998Y-83185000D01*
X142033001Y-77157999D02*
X139672999Y-77157999D01*
X148964001Y-84088999D02*
X142033001Y-77157999D01*
X148964001Y-85266001D02*
X148964001Y-84088999D01*
X148378002Y-85852000D02*
X148964001Y-85266001D01*
X145542000Y-85852000D02*
X148378002Y-85852000D01*
X144867001Y-86526999D02*
X145542000Y-85852000D01*
X141859000Y-88265000D02*
X143383000Y-88265000D01*
X141732000Y-88392000D02*
X141859000Y-88265000D01*
X143383000Y-88265000D02*
X143383000Y-86806190D01*
X143383000Y-86806190D02*
X143662191Y-86526999D01*
X143662191Y-86526999D02*
X144867001Y-86526999D01*
X139627999Y-77202999D02*
X139672999Y-77157999D01*
X140249998Y-83185000D02*
X139627999Y-82563001D01*
X138906001Y-80336001D02*
X138811000Y-80241000D01*
X139627999Y-80336001D02*
X138906001Y-80336001D01*
X139627999Y-80336001D02*
X139627999Y-77202999D01*
X139627999Y-82563001D02*
X139627999Y-80336001D01*
%TO.N,+BATT*%
X155702000Y-92710000D02*
X155702000Y-91694000D01*
X151257000Y-97155000D02*
X155702000Y-92710000D01*
%TO.N,Net-(C105-Pad2)*%
X146118001Y-84300999D02*
X146558000Y-84740998D01*
X144845001Y-84300999D02*
X146118001Y-84300999D01*
X144630000Y-84516000D02*
X144845001Y-84300999D01*
X146558000Y-84740998D02*
X146558000Y-84836000D01*
X144630000Y-84836000D02*
X144630000Y-84516000D01*
X146558000Y-84836000D02*
X148214000Y-84836000D01*
X141053988Y-87540010D02*
X142137800Y-87540010D01*
X140731999Y-88922001D02*
X140731999Y-87861999D01*
X140776999Y-88967001D02*
X140731999Y-88922001D01*
X142567003Y-88967001D02*
X140776999Y-88967001D01*
X140731999Y-87861999D02*
X141053988Y-87540010D01*
X142732001Y-92126999D02*
X142732001Y-89131999D01*
X142732001Y-89131999D02*
X142567003Y-88967001D01*
X142657000Y-92202000D02*
X142732001Y-92126999D01*
X141732000Y-92202000D02*
X142657000Y-92202000D01*
X144630000Y-85047810D02*
X144630000Y-84836000D01*
X142137800Y-87540010D02*
X144630000Y-85047810D01*
D24*
%TO.N,Net-(C106-Pad1)*%
X140853000Y-81163000D02*
X140853000Y-79883000D01*
X143279000Y-82309000D02*
X140853000Y-79883000D01*
X143660000Y-82690000D02*
X143279000Y-82309000D01*
X143660000Y-84836000D02*
X143660000Y-82690000D01*
%TO.N,Net-(IC102-Pad2)*%
X136587002Y-90932000D02*
X136282000Y-90932000D01*
X137402000Y-91746998D02*
X136587002Y-90932000D01*
X137402000Y-94361000D02*
X137402000Y-91746998D01*
%TO.N,Net-(IC102-Pad1)*%
X135902000Y-92582000D02*
X136282000Y-92202000D01*
X135902000Y-94361000D02*
X135902000Y-92582000D01*
%TO.N,/SW2*%
X156718000Y-88773000D02*
X157734000Y-89789000D01*
X155910000Y-88773000D02*
X156718000Y-88773000D01*
D23*
X155910000Y-88810998D02*
X155910000Y-88773000D01*
X152908000Y-91812998D02*
X155910000Y-88810998D01*
X152908000Y-92329000D02*
X152908000Y-91812998D01*
D24*
%TO.N,/SW1*%
X156845000Y-87503000D02*
X157734000Y-86614000D01*
X155910000Y-87503000D02*
X156845000Y-87503000D01*
D23*
X155786810Y-87503000D02*
X155910000Y-87503000D01*
X152230810Y-83947000D02*
X155786810Y-87503000D01*
X151511000Y-83947000D02*
X152230810Y-83947000D01*
%TO.N,/JTAG_RESET*%
X146812000Y-92202000D02*
X144653000Y-92202000D01*
X144653000Y-92202000D02*
X143256000Y-93599000D01*
%TO.N,/JTAG_TDI*%
X146812000Y-90932000D02*
X146812000Y-90918398D01*
X145011000Y-90932000D02*
X144630000Y-91313000D01*
X146812000Y-90932000D02*
X145011000Y-90932000D01*
D24*
%TO.N,/JTAG_TDO*%
X146812000Y-89662000D02*
X144653000Y-89662000D01*
D23*
X148463001Y-89963001D02*
X148463001Y-90932000D01*
X146812000Y-89662000D02*
X148162000Y-89662000D01*
X148162000Y-89662000D02*
X148463001Y-89963001D01*
D24*
%TO.N,/JTAG_TCK*%
X146812000Y-88392000D02*
X144653000Y-88392000D01*
D23*
X148958001Y-92031001D02*
X148958001Y-89188001D01*
X148958001Y-89188001D02*
X148162000Y-88392000D01*
X145231002Y-95758000D02*
X148958001Y-92031001D01*
X148162000Y-88392000D02*
X146812000Y-88392000D01*
X143383000Y-95758000D02*
X145231002Y-95758000D01*
D24*
%TO.N,/JTAG_TMS*%
X146812000Y-87122000D02*
X144653000Y-87122000D01*
D23*
X147517002Y-87122000D02*
X146812000Y-87122000D01*
X149258011Y-92155269D02*
X149258011Y-88863009D01*
X149258011Y-88863009D02*
X147517002Y-87122000D01*
X144512280Y-96901000D02*
X149258011Y-92155269D01*
X141859000Y-96901000D02*
X144512280Y-96901000D01*
%TD*%
D25*
%TO.N,GND*%
G36*
X147737432Y-73044051D02*
G01*
X149243471Y-73309606D01*
X150715585Y-73723795D01*
X152139144Y-74282500D01*
X153500000Y-74980170D01*
X154784628Y-75809871D01*
X155980261Y-76763356D01*
X157075016Y-77831150D01*
X158058013Y-79002640D01*
X158919482Y-80266184D01*
X159650862Y-81609223D01*
X160244885Y-83018411D01*
X160695646Y-84479742D01*
X160998665Y-85978692D01*
X161150931Y-87500364D01*
X161150931Y-89029636D01*
X160998665Y-90551308D01*
X160695646Y-92050258D01*
X160244885Y-93511589D01*
X159650862Y-94920777D01*
X158919482Y-96263816D01*
X158058013Y-97527360D01*
X157075016Y-98698850D01*
X155980261Y-99766644D01*
X154784628Y-100720129D01*
X153500000Y-101549830D01*
X152139144Y-102247500D01*
X150715585Y-102806205D01*
X149243471Y-103220394D01*
X147737432Y-103485949D01*
X146212437Y-103600232D01*
X144683640Y-103562106D01*
X143166237Y-103371951D01*
X141675307Y-103031656D01*
X140225669Y-102544603D01*
X138831729Y-101915634D01*
X138054687Y-101467009D01*
X146656010Y-101467009D01*
X146656010Y-101865125D01*
X146652574Y-101900009D01*
X146666283Y-102039193D01*
X146706881Y-102173028D01*
X146740006Y-102235000D01*
X146772810Y-102296372D01*
X146796130Y-102324787D01*
X146830779Y-102498979D01*
X146898999Y-102663678D01*
X146998041Y-102811904D01*
X147124096Y-102937959D01*
X147272322Y-103037001D01*
X147437021Y-103105221D01*
X147611865Y-103140000D01*
X147790135Y-103140000D01*
X147964979Y-103105221D01*
X148129678Y-103037001D01*
X148277904Y-102937959D01*
X148403959Y-102811904D01*
X148503001Y-102663678D01*
X148571221Y-102498979D01*
X148606000Y-102324135D01*
X148606000Y-102145865D01*
X148571221Y-101971021D01*
X148503001Y-101806322D01*
X148403959Y-101658096D01*
X148277904Y-101532041D01*
X148129678Y-101432999D01*
X148076009Y-101410769D01*
X148076009Y-101167000D01*
X150195328Y-101167000D01*
X150216872Y-101238020D01*
X150282800Y-101361363D01*
X150354769Y-101449057D01*
X150386779Y-101609979D01*
X150454999Y-101774678D01*
X150554041Y-101922904D01*
X150680096Y-102048959D01*
X150828322Y-102148001D01*
X150993021Y-102216221D01*
X151167865Y-102251000D01*
X151346135Y-102251000D01*
X151520979Y-102216221D01*
X151685678Y-102148001D01*
X151833904Y-102048959D01*
X151959959Y-101922904D01*
X152059001Y-101774678D01*
X152127221Y-101609979D01*
X152162000Y-101435135D01*
X152162000Y-101256865D01*
X152127221Y-101082021D01*
X152059001Y-100917322D01*
X151959959Y-100769096D01*
X151862862Y-100671999D01*
X152860126Y-100671999D01*
X152895001Y-100675434D01*
X152929876Y-100671999D01*
X152929878Y-100671999D01*
X153034185Y-100661726D01*
X153168021Y-100621127D01*
X153291364Y-100555199D01*
X153399476Y-100466474D01*
X153421713Y-100439378D01*
X153710091Y-100151000D01*
X153865634Y-100151000D01*
X154003322Y-100243001D01*
X154168021Y-100311221D01*
X154342865Y-100346000D01*
X154521135Y-100346000D01*
X154695979Y-100311221D01*
X154860678Y-100243001D01*
X155008904Y-100143959D01*
X155134959Y-100017904D01*
X155234001Y-99869678D01*
X155302221Y-99704979D01*
X155337000Y-99530135D01*
X155337000Y-99351865D01*
X155302221Y-99177021D01*
X155234001Y-99012322D01*
X155134959Y-98864096D01*
X155008904Y-98738041D01*
X154860678Y-98638999D01*
X154695979Y-98570779D01*
X154521135Y-98536000D01*
X154436092Y-98536000D01*
X155488092Y-97484000D01*
X156405634Y-97484000D01*
X156543322Y-97576001D01*
X156708021Y-97644221D01*
X156882865Y-97679000D01*
X157061135Y-97679000D01*
X157235979Y-97644221D01*
X157400678Y-97576001D01*
X157548904Y-97476959D01*
X157674959Y-97350904D01*
X157774001Y-97202678D01*
X157842221Y-97037979D01*
X157877000Y-96863135D01*
X157877000Y-96684865D01*
X157842221Y-96510021D01*
X157774001Y-96345322D01*
X157674959Y-96197096D01*
X157548904Y-96071041D01*
X157465068Y-96015023D01*
X158978563Y-94501528D01*
X159140979Y-94469221D01*
X159305678Y-94401001D01*
X159453904Y-94301959D01*
X159579959Y-94175904D01*
X159679001Y-94027678D01*
X159747221Y-93862979D01*
X159782000Y-93688135D01*
X159782000Y-93509865D01*
X159747221Y-93335021D01*
X159679001Y-93170322D01*
X159638212Y-93109277D01*
X160370383Y-92377106D01*
X160397474Y-92354873D01*
X160486200Y-92246761D01*
X160552128Y-92123418D01*
X160592727Y-91989582D01*
X160603000Y-91885275D01*
X160603000Y-91885273D01*
X160606435Y-91850398D01*
X160603000Y-91815523D01*
X160603000Y-90609366D01*
X160695001Y-90471678D01*
X160763221Y-90306979D01*
X160798000Y-90132135D01*
X160798000Y-89953865D01*
X160763221Y-89779021D01*
X160695001Y-89614322D01*
X160595959Y-89466096D01*
X160505661Y-89375798D01*
X160505398Y-89373126D01*
X160505398Y-87027465D01*
X160595959Y-86936904D01*
X160695001Y-86788678D01*
X160763221Y-86623979D01*
X160798000Y-86449135D01*
X160798000Y-86270865D01*
X160763221Y-86096021D01*
X160695001Y-85931322D01*
X160595959Y-85783096D01*
X160469904Y-85657041D01*
X160321678Y-85557999D01*
X160156979Y-85489779D01*
X159982135Y-85455000D01*
X159807989Y-85455000D01*
X159807989Y-83227879D01*
X159874221Y-83067979D01*
X159909000Y-82893135D01*
X159909000Y-82714865D01*
X159874221Y-82540021D01*
X159806001Y-82375322D01*
X159706959Y-82227096D01*
X159580904Y-82101041D01*
X159432678Y-82001999D01*
X159267979Y-81933779D01*
X159093135Y-81899000D01*
X159079000Y-81899000D01*
X159079000Y-80968960D01*
X159082435Y-80934085D01*
X159078814Y-80897324D01*
X159068727Y-80794901D01*
X159028128Y-80661065D01*
X158962200Y-80537722D01*
X158873475Y-80429610D01*
X158846379Y-80407373D01*
X157966443Y-79527437D01*
X157934136Y-79365021D01*
X157865916Y-79200322D01*
X157766874Y-79052096D01*
X157640819Y-78926041D01*
X157492593Y-78826999D01*
X157327894Y-78758779D01*
X157153050Y-78724000D01*
X156974780Y-78724000D01*
X156799936Y-78758779D01*
X156635237Y-78826999D01*
X156487011Y-78926041D01*
X156435572Y-78977481D01*
X155142000Y-77683909D01*
X155142000Y-77528366D01*
X155234001Y-77390678D01*
X155302221Y-77225979D01*
X155337000Y-77051135D01*
X155337000Y-76872865D01*
X155302221Y-76698021D01*
X155234001Y-76533322D01*
X155134959Y-76385096D01*
X155008904Y-76259041D01*
X154860678Y-76159999D01*
X154695979Y-76091779D01*
X154521135Y-76057000D01*
X154342865Y-76057000D01*
X154168021Y-76091779D01*
X154003322Y-76159999D01*
X153855096Y-76259041D01*
X153729041Y-76385096D01*
X153629999Y-76533322D01*
X153561779Y-76698021D01*
X153527000Y-76872865D01*
X153527000Y-77051135D01*
X153561779Y-77225979D01*
X153629999Y-77390678D01*
X153722000Y-77528367D01*
X153722000Y-77943125D01*
X153718565Y-77978000D01*
X153722000Y-78012875D01*
X153722000Y-78012876D01*
X153732273Y-78117183D01*
X153772872Y-78251019D01*
X153838800Y-78374362D01*
X153927525Y-78482474D01*
X153954617Y-78504708D01*
X154953909Y-79504000D01*
X154424720Y-79504000D01*
X154387397Y-79500324D01*
X154350074Y-79504000D01*
X154350065Y-79504000D01*
X154238412Y-79514997D01*
X154095151Y-79558454D01*
X153963121Y-79629026D01*
X153928962Y-79657060D01*
X153847397Y-79723999D01*
X153823599Y-79752997D01*
X152489645Y-81086951D01*
X152488000Y-80168750D01*
X152329250Y-80010000D01*
X151130000Y-80010000D01*
X151130000Y-82359250D01*
X151173673Y-82402923D01*
X149978998Y-83597599D01*
X149950000Y-83621397D01*
X149926202Y-83650395D01*
X149926201Y-83650396D01*
X149855026Y-83737122D01*
X149784454Y-83869152D01*
X149769317Y-83919053D01*
X149748359Y-83988144D01*
X149720820Y-83996498D01*
X149670951Y-84023154D01*
X149663728Y-83949815D01*
X149623129Y-83815979D01*
X149557201Y-83692636D01*
X149468476Y-83584524D01*
X149441385Y-83562291D01*
X147762094Y-81883000D01*
X149514928Y-81883000D01*
X149527188Y-82007482D01*
X149563498Y-82127180D01*
X149622463Y-82237494D01*
X149701815Y-82334185D01*
X149798506Y-82413537D01*
X149908820Y-82472502D01*
X150028518Y-82508812D01*
X150153000Y-82521072D01*
X150717250Y-82518000D01*
X150876000Y-82359250D01*
X150876000Y-80010000D01*
X149676750Y-80010000D01*
X149518000Y-80168750D01*
X149514928Y-81883000D01*
X147762094Y-81883000D01*
X143762094Y-77883000D01*
X149514928Y-77883000D01*
X149518000Y-79597250D01*
X149676750Y-79756000D01*
X150876000Y-79756000D01*
X150876000Y-77406750D01*
X151130000Y-77406750D01*
X151130000Y-79756000D01*
X152329250Y-79756000D01*
X152488000Y-79597250D01*
X152491072Y-77883000D01*
X152478812Y-77758518D01*
X152442502Y-77638820D01*
X152383537Y-77528506D01*
X152304185Y-77431815D01*
X152207494Y-77352463D01*
X152097180Y-77293498D01*
X151977482Y-77257188D01*
X151853000Y-77244928D01*
X151288750Y-77248000D01*
X151130000Y-77406750D01*
X150876000Y-77406750D01*
X150717250Y-77248000D01*
X150153000Y-77244928D01*
X150028518Y-77257188D01*
X149908820Y-77293498D01*
X149798506Y-77352463D01*
X149701815Y-77431815D01*
X149622463Y-77528506D01*
X149563498Y-77638820D01*
X149527188Y-77758518D01*
X149514928Y-77883000D01*
X143762094Y-77883000D01*
X142559713Y-76680620D01*
X142537476Y-76653524D01*
X142429364Y-76564799D01*
X142306021Y-76498871D01*
X142172185Y-76458272D01*
X142067878Y-76447999D01*
X142067876Y-76447999D01*
X142033001Y-76444564D01*
X141998126Y-76447999D01*
X140388090Y-76447999D01*
X141069089Y-75767000D01*
X150690634Y-75767000D01*
X150828322Y-75859001D01*
X150993021Y-75927221D01*
X151167865Y-75962000D01*
X151346135Y-75962000D01*
X151520979Y-75927221D01*
X151685678Y-75859001D01*
X151833904Y-75759959D01*
X151959959Y-75633904D01*
X152059001Y-75485678D01*
X152127221Y-75320979D01*
X152162000Y-75146135D01*
X152162000Y-74967865D01*
X152127221Y-74793021D01*
X152059001Y-74628322D01*
X151959959Y-74480096D01*
X151833904Y-74354041D01*
X151685678Y-74254999D01*
X151520979Y-74186779D01*
X151346135Y-74152000D01*
X151167865Y-74152000D01*
X150993021Y-74186779D01*
X150828322Y-74254999D01*
X150690634Y-74347000D01*
X140809873Y-74347000D01*
X140774998Y-74343565D01*
X140740123Y-74347000D01*
X140740121Y-74347000D01*
X140635814Y-74357273D01*
X140501978Y-74397872D01*
X140378635Y-74463800D01*
X140270523Y-74552525D01*
X140248286Y-74579621D01*
X134556616Y-80271291D01*
X134529525Y-80293524D01*
X134507292Y-80320615D01*
X134440800Y-80401636D01*
X134374871Y-80524980D01*
X134334273Y-80658815D01*
X134320564Y-80797999D01*
X134324000Y-80832884D01*
X134323999Y-83691124D01*
X134320564Y-83725999D01*
X134323999Y-83760874D01*
X134323999Y-83760875D01*
X134334272Y-83865182D01*
X134374871Y-83999018D01*
X134440799Y-84122361D01*
X134529524Y-84230473D01*
X134556616Y-84252707D01*
X135142932Y-84839023D01*
X135069634Y-84888000D01*
X131479877Y-84888000D01*
X131445000Y-84884565D01*
X131410123Y-84888000D01*
X131305816Y-84898273D01*
X131171980Y-84938872D01*
X131048637Y-85004800D01*
X130940525Y-85093525D01*
X130851800Y-85201637D01*
X130785872Y-85324980D01*
X130772512Y-85369020D01*
X130794154Y-85225438D01*
X131171513Y-83743456D01*
X131694555Y-82306410D01*
X132358081Y-80928584D01*
X133155497Y-79623670D01*
X134078878Y-78404638D01*
X135119047Y-77283603D01*
X136265666Y-76271705D01*
X137507340Y-75379002D01*
X138831729Y-74614366D01*
X140225669Y-73985397D01*
X141675307Y-73498344D01*
X143166237Y-73158049D01*
X144683640Y-72967894D01*
X146212437Y-72929768D01*
X147737432Y-73044051D01*
G37*
X147737432Y-73044051D02*
X149243471Y-73309606D01*
X150715585Y-73723795D01*
X152139144Y-74282500D01*
X153500000Y-74980170D01*
X154784628Y-75809871D01*
X155980261Y-76763356D01*
X157075016Y-77831150D01*
X158058013Y-79002640D01*
X158919482Y-80266184D01*
X159650862Y-81609223D01*
X160244885Y-83018411D01*
X160695646Y-84479742D01*
X160998665Y-85978692D01*
X161150931Y-87500364D01*
X161150931Y-89029636D01*
X160998665Y-90551308D01*
X160695646Y-92050258D01*
X160244885Y-93511589D01*
X159650862Y-94920777D01*
X158919482Y-96263816D01*
X158058013Y-97527360D01*
X157075016Y-98698850D01*
X155980261Y-99766644D01*
X154784628Y-100720129D01*
X153500000Y-101549830D01*
X152139144Y-102247500D01*
X150715585Y-102806205D01*
X149243471Y-103220394D01*
X147737432Y-103485949D01*
X146212437Y-103600232D01*
X144683640Y-103562106D01*
X143166237Y-103371951D01*
X141675307Y-103031656D01*
X140225669Y-102544603D01*
X138831729Y-101915634D01*
X138054687Y-101467009D01*
X146656010Y-101467009D01*
X146656010Y-101865125D01*
X146652574Y-101900009D01*
X146666283Y-102039193D01*
X146706881Y-102173028D01*
X146740006Y-102235000D01*
X146772810Y-102296372D01*
X146796130Y-102324787D01*
X146830779Y-102498979D01*
X146898999Y-102663678D01*
X146998041Y-102811904D01*
X147124096Y-102937959D01*
X147272322Y-103037001D01*
X147437021Y-103105221D01*
X147611865Y-103140000D01*
X147790135Y-103140000D01*
X147964979Y-103105221D01*
X148129678Y-103037001D01*
X148277904Y-102937959D01*
X148403959Y-102811904D01*
X148503001Y-102663678D01*
X148571221Y-102498979D01*
X148606000Y-102324135D01*
X148606000Y-102145865D01*
X148571221Y-101971021D01*
X148503001Y-101806322D01*
X148403959Y-101658096D01*
X148277904Y-101532041D01*
X148129678Y-101432999D01*
X148076009Y-101410769D01*
X148076009Y-101167000D01*
X150195328Y-101167000D01*
X150216872Y-101238020D01*
X150282800Y-101361363D01*
X150354769Y-101449057D01*
X150386779Y-101609979D01*
X150454999Y-101774678D01*
X150554041Y-101922904D01*
X150680096Y-102048959D01*
X150828322Y-102148001D01*
X150993021Y-102216221D01*
X151167865Y-102251000D01*
X151346135Y-102251000D01*
X151520979Y-102216221D01*
X151685678Y-102148001D01*
X151833904Y-102048959D01*
X151959959Y-101922904D01*
X152059001Y-101774678D01*
X152127221Y-101609979D01*
X152162000Y-101435135D01*
X152162000Y-101256865D01*
X152127221Y-101082021D01*
X152059001Y-100917322D01*
X151959959Y-100769096D01*
X151862862Y-100671999D01*
X152860126Y-100671999D01*
X152895001Y-100675434D01*
X152929876Y-100671999D01*
X152929878Y-100671999D01*
X153034185Y-100661726D01*
X153168021Y-100621127D01*
X153291364Y-100555199D01*
X153399476Y-100466474D01*
X153421713Y-100439378D01*
X153710091Y-100151000D01*
X153865634Y-100151000D01*
X154003322Y-100243001D01*
X154168021Y-100311221D01*
X154342865Y-100346000D01*
X154521135Y-100346000D01*
X154695979Y-100311221D01*
X154860678Y-100243001D01*
X155008904Y-100143959D01*
X155134959Y-100017904D01*
X155234001Y-99869678D01*
X155302221Y-99704979D01*
X155337000Y-99530135D01*
X155337000Y-99351865D01*
X155302221Y-99177021D01*
X155234001Y-99012322D01*
X155134959Y-98864096D01*
X155008904Y-98738041D01*
X154860678Y-98638999D01*
X154695979Y-98570779D01*
X154521135Y-98536000D01*
X154436092Y-98536000D01*
X155488092Y-97484000D01*
X156405634Y-97484000D01*
X156543322Y-97576001D01*
X156708021Y-97644221D01*
X156882865Y-97679000D01*
X157061135Y-97679000D01*
X157235979Y-97644221D01*
X157400678Y-97576001D01*
X157548904Y-97476959D01*
X157674959Y-97350904D01*
X157774001Y-97202678D01*
X157842221Y-97037979D01*
X157877000Y-96863135D01*
X157877000Y-96684865D01*
X157842221Y-96510021D01*
X157774001Y-96345322D01*
X157674959Y-96197096D01*
X157548904Y-96071041D01*
X157465068Y-96015023D01*
X158978563Y-94501528D01*
X159140979Y-94469221D01*
X159305678Y-94401001D01*
X159453904Y-94301959D01*
X159579959Y-94175904D01*
X159679001Y-94027678D01*
X159747221Y-93862979D01*
X159782000Y-93688135D01*
X159782000Y-93509865D01*
X159747221Y-93335021D01*
X159679001Y-93170322D01*
X159638212Y-93109277D01*
X160370383Y-92377106D01*
X160397474Y-92354873D01*
X160486200Y-92246761D01*
X160552128Y-92123418D01*
X160592727Y-91989582D01*
X160603000Y-91885275D01*
X160603000Y-91885273D01*
X160606435Y-91850398D01*
X160603000Y-91815523D01*
X160603000Y-90609366D01*
X160695001Y-90471678D01*
X160763221Y-90306979D01*
X160798000Y-90132135D01*
X160798000Y-89953865D01*
X160763221Y-89779021D01*
X160695001Y-89614322D01*
X160595959Y-89466096D01*
X160505661Y-89375798D01*
X160505398Y-89373126D01*
X160505398Y-87027465D01*
X160595959Y-86936904D01*
X160695001Y-86788678D01*
X160763221Y-86623979D01*
X160798000Y-86449135D01*
X160798000Y-86270865D01*
X160763221Y-86096021D01*
X160695001Y-85931322D01*
X160595959Y-85783096D01*
X160469904Y-85657041D01*
X160321678Y-85557999D01*
X160156979Y-85489779D01*
X159982135Y-85455000D01*
X159807989Y-85455000D01*
X159807989Y-83227879D01*
X159874221Y-83067979D01*
X159909000Y-82893135D01*
X159909000Y-82714865D01*
X159874221Y-82540021D01*
X159806001Y-82375322D01*
X159706959Y-82227096D01*
X159580904Y-82101041D01*
X159432678Y-82001999D01*
X159267979Y-81933779D01*
X159093135Y-81899000D01*
X159079000Y-81899000D01*
X159079000Y-80968960D01*
X159082435Y-80934085D01*
X159078814Y-80897324D01*
X159068727Y-80794901D01*
X159028128Y-80661065D01*
X158962200Y-80537722D01*
X158873475Y-80429610D01*
X158846379Y-80407373D01*
X157966443Y-79527437D01*
X157934136Y-79365021D01*
X157865916Y-79200322D01*
X157766874Y-79052096D01*
X157640819Y-78926041D01*
X157492593Y-78826999D01*
X157327894Y-78758779D01*
X157153050Y-78724000D01*
X156974780Y-78724000D01*
X156799936Y-78758779D01*
X156635237Y-78826999D01*
X156487011Y-78926041D01*
X156435572Y-78977481D01*
X155142000Y-77683909D01*
X155142000Y-77528366D01*
X155234001Y-77390678D01*
X155302221Y-77225979D01*
X155337000Y-77051135D01*
X155337000Y-76872865D01*
X155302221Y-76698021D01*
X155234001Y-76533322D01*
X155134959Y-76385096D01*
X155008904Y-76259041D01*
X154860678Y-76159999D01*
X154695979Y-76091779D01*
X154521135Y-76057000D01*
X154342865Y-76057000D01*
X154168021Y-76091779D01*
X154003322Y-76159999D01*
X153855096Y-76259041D01*
X153729041Y-76385096D01*
X153629999Y-76533322D01*
X153561779Y-76698021D01*
X153527000Y-76872865D01*
X153527000Y-77051135D01*
X153561779Y-77225979D01*
X153629999Y-77390678D01*
X153722000Y-77528367D01*
X153722000Y-77943125D01*
X153718565Y-77978000D01*
X153722000Y-78012875D01*
X153722000Y-78012876D01*
X153732273Y-78117183D01*
X153772872Y-78251019D01*
X153838800Y-78374362D01*
X153927525Y-78482474D01*
X153954617Y-78504708D01*
X154953909Y-79504000D01*
X154424720Y-79504000D01*
X154387397Y-79500324D01*
X154350074Y-79504000D01*
X154350065Y-79504000D01*
X154238412Y-79514997D01*
X154095151Y-79558454D01*
X153963121Y-79629026D01*
X153928962Y-79657060D01*
X153847397Y-79723999D01*
X153823599Y-79752997D01*
X152489645Y-81086951D01*
X152488000Y-80168750D01*
X152329250Y-80010000D01*
X151130000Y-80010000D01*
X151130000Y-82359250D01*
X151173673Y-82402923D01*
X149978998Y-83597599D01*
X149950000Y-83621397D01*
X149926202Y-83650395D01*
X149926201Y-83650396D01*
X149855026Y-83737122D01*
X149784454Y-83869152D01*
X149769317Y-83919053D01*
X149748359Y-83988144D01*
X149720820Y-83996498D01*
X149670951Y-84023154D01*
X149663728Y-83949815D01*
X149623129Y-83815979D01*
X149557201Y-83692636D01*
X149468476Y-83584524D01*
X149441385Y-83562291D01*
X147762094Y-81883000D01*
X149514928Y-81883000D01*
X149527188Y-82007482D01*
X149563498Y-82127180D01*
X149622463Y-82237494D01*
X149701815Y-82334185D01*
X149798506Y-82413537D01*
X149908820Y-82472502D01*
X150028518Y-82508812D01*
X150153000Y-82521072D01*
X150717250Y-82518000D01*
X150876000Y-82359250D01*
X150876000Y-80010000D01*
X149676750Y-80010000D01*
X149518000Y-80168750D01*
X149514928Y-81883000D01*
X147762094Y-81883000D01*
X143762094Y-77883000D01*
X149514928Y-77883000D01*
X149518000Y-79597250D01*
X149676750Y-79756000D01*
X150876000Y-79756000D01*
X150876000Y-77406750D01*
X151130000Y-77406750D01*
X151130000Y-79756000D01*
X152329250Y-79756000D01*
X152488000Y-79597250D01*
X152491072Y-77883000D01*
X152478812Y-77758518D01*
X152442502Y-77638820D01*
X152383537Y-77528506D01*
X152304185Y-77431815D01*
X152207494Y-77352463D01*
X152097180Y-77293498D01*
X151977482Y-77257188D01*
X151853000Y-77244928D01*
X151288750Y-77248000D01*
X151130000Y-77406750D01*
X150876000Y-77406750D01*
X150717250Y-77248000D01*
X150153000Y-77244928D01*
X150028518Y-77257188D01*
X149908820Y-77293498D01*
X149798506Y-77352463D01*
X149701815Y-77431815D01*
X149622463Y-77528506D01*
X149563498Y-77638820D01*
X149527188Y-77758518D01*
X149514928Y-77883000D01*
X143762094Y-77883000D01*
X142559713Y-76680620D01*
X142537476Y-76653524D01*
X142429364Y-76564799D01*
X142306021Y-76498871D01*
X142172185Y-76458272D01*
X142067878Y-76447999D01*
X142067876Y-76447999D01*
X142033001Y-76444564D01*
X141998126Y-76447999D01*
X140388090Y-76447999D01*
X141069089Y-75767000D01*
X150690634Y-75767000D01*
X150828322Y-75859001D01*
X150993021Y-75927221D01*
X151167865Y-75962000D01*
X151346135Y-75962000D01*
X151520979Y-75927221D01*
X151685678Y-75859001D01*
X151833904Y-75759959D01*
X151959959Y-75633904D01*
X152059001Y-75485678D01*
X152127221Y-75320979D01*
X152162000Y-75146135D01*
X152162000Y-74967865D01*
X152127221Y-74793021D01*
X152059001Y-74628322D01*
X151959959Y-74480096D01*
X151833904Y-74354041D01*
X151685678Y-74254999D01*
X151520979Y-74186779D01*
X151346135Y-74152000D01*
X151167865Y-74152000D01*
X150993021Y-74186779D01*
X150828322Y-74254999D01*
X150690634Y-74347000D01*
X140809873Y-74347000D01*
X140774998Y-74343565D01*
X140740123Y-74347000D01*
X140740121Y-74347000D01*
X140635814Y-74357273D01*
X140501978Y-74397872D01*
X140378635Y-74463800D01*
X140270523Y-74552525D01*
X140248286Y-74579621D01*
X134556616Y-80271291D01*
X134529525Y-80293524D01*
X134507292Y-80320615D01*
X134440800Y-80401636D01*
X134374871Y-80524980D01*
X134334273Y-80658815D01*
X134320564Y-80797999D01*
X134324000Y-80832884D01*
X134323999Y-83691124D01*
X134320564Y-83725999D01*
X134323999Y-83760874D01*
X134323999Y-83760875D01*
X134334272Y-83865182D01*
X134374871Y-83999018D01*
X134440799Y-84122361D01*
X134529524Y-84230473D01*
X134556616Y-84252707D01*
X135142932Y-84839023D01*
X135069634Y-84888000D01*
X131479877Y-84888000D01*
X131445000Y-84884565D01*
X131410123Y-84888000D01*
X131305816Y-84898273D01*
X131171980Y-84938872D01*
X131048637Y-85004800D01*
X130940525Y-85093525D01*
X130851800Y-85201637D01*
X130785872Y-85324980D01*
X130772512Y-85369020D01*
X130794154Y-85225438D01*
X131171513Y-83743456D01*
X131694555Y-82306410D01*
X132358081Y-80928584D01*
X133155497Y-79623670D01*
X134078878Y-78404638D01*
X135119047Y-77283603D01*
X136265666Y-76271705D01*
X137507340Y-75379002D01*
X138831729Y-74614366D01*
X140225669Y-73985397D01*
X141675307Y-73498344D01*
X143166237Y-73158049D01*
X144683640Y-72967894D01*
X146212437Y-72929768D01*
X147737432Y-73044051D01*
G36*
X154612498Y-91168180D02*
G01*
X154656888Y-91251226D01*
X154610617Y-91362933D01*
X154567000Y-91582212D01*
X154567000Y-91805788D01*
X154610617Y-92025067D01*
X154696176Y-92231624D01*
X154820388Y-92417520D01*
X154905388Y-92502520D01*
X151155437Y-96252472D01*
X150993021Y-96284779D01*
X150828322Y-96352999D01*
X150680096Y-96452041D01*
X150554041Y-96578096D01*
X150454999Y-96726322D01*
X150386779Y-96891021D01*
X150352000Y-97065865D01*
X150352000Y-97103950D01*
X149267969Y-97103950D01*
X149233094Y-97100515D01*
X149198219Y-97103950D01*
X149198217Y-97103950D01*
X149093910Y-97114223D01*
X148960074Y-97154822D01*
X148836731Y-97220750D01*
X148754799Y-97287990D01*
X145129381Y-97287990D01*
X149260032Y-93157339D01*
X149267820Y-93161502D01*
X149387518Y-93197812D01*
X149512000Y-93210072D01*
X150426250Y-93207000D01*
X150585000Y-93048250D01*
X150585000Y-92329000D01*
X150565000Y-92329000D01*
X150565000Y-92075000D01*
X150585000Y-92075000D01*
X150585000Y-92055000D01*
X150839000Y-92055000D01*
X150839000Y-92075000D01*
X150859000Y-92075000D01*
X150859000Y-92329000D01*
X150839000Y-92329000D01*
X150839000Y-93048250D01*
X150997750Y-93207000D01*
X151912000Y-93210072D01*
X152036482Y-93197812D01*
X152156180Y-93161502D01*
X152266494Y-93102537D01*
X152342891Y-93039840D01*
X152479322Y-93131001D01*
X152644021Y-93199221D01*
X152818865Y-93234000D01*
X152997135Y-93234000D01*
X153171979Y-93199221D01*
X153336678Y-93131001D01*
X153484904Y-93031959D01*
X153610959Y-92905904D01*
X153710001Y-92757678D01*
X153778221Y-92592979D01*
X153813000Y-92418135D01*
X153813000Y-92239865D01*
X153778221Y-92065021D01*
X153743615Y-91981474D01*
X154599560Y-91125529D01*
X154612498Y-91168180D01*
G37*
X154612498Y-91168180D02*
X154656888Y-91251226D01*
X154610617Y-91362933D01*
X154567000Y-91582212D01*
X154567000Y-91805788D01*
X154610617Y-92025067D01*
X154696176Y-92231624D01*
X154820388Y-92417520D01*
X154905388Y-92502520D01*
X151155437Y-96252472D01*
X150993021Y-96284779D01*
X150828322Y-96352999D01*
X150680096Y-96452041D01*
X150554041Y-96578096D01*
X150454999Y-96726322D01*
X150386779Y-96891021D01*
X150352000Y-97065865D01*
X150352000Y-97103950D01*
X149267969Y-97103950D01*
X149233094Y-97100515D01*
X149198219Y-97103950D01*
X149198217Y-97103950D01*
X149093910Y-97114223D01*
X148960074Y-97154822D01*
X148836731Y-97220750D01*
X148754799Y-97287990D01*
X145129381Y-97287990D01*
X149260032Y-93157339D01*
X149267820Y-93161502D01*
X149387518Y-93197812D01*
X149512000Y-93210072D01*
X150426250Y-93207000D01*
X150585000Y-93048250D01*
X150585000Y-92329000D01*
X150565000Y-92329000D01*
X150565000Y-92075000D01*
X150585000Y-92075000D01*
X150585000Y-92055000D01*
X150839000Y-92055000D01*
X150839000Y-92075000D01*
X150859000Y-92075000D01*
X150859000Y-92329000D01*
X150839000Y-92329000D01*
X150839000Y-93048250D01*
X150997750Y-93207000D01*
X151912000Y-93210072D01*
X152036482Y-93197812D01*
X152156180Y-93161502D01*
X152266494Y-93102537D01*
X152342891Y-93039840D01*
X152479322Y-93131001D01*
X152644021Y-93199221D01*
X152818865Y-93234000D01*
X152997135Y-93234000D01*
X153171979Y-93199221D01*
X153336678Y-93131001D01*
X153484904Y-93031959D01*
X153610959Y-92905904D01*
X153710001Y-92757678D01*
X153778221Y-92592979D01*
X153813000Y-92418135D01*
X153813000Y-92239865D01*
X153778221Y-92065021D01*
X153743615Y-91981474D01*
X154599560Y-91125529D01*
X154612498Y-91168180D01*
G36*
X150839000Y-88265000D02*
G01*
X150859000Y-88265000D01*
X150859000Y-88519000D01*
X150839000Y-88519000D01*
X150839000Y-89535000D01*
X152388250Y-89535000D01*
X152547000Y-89376250D01*
X152550072Y-89292000D01*
X152537812Y-89167518D01*
X152501502Y-89047820D01*
X152490373Y-89027000D01*
X152501502Y-89006180D01*
X152537812Y-88886482D01*
X152539743Y-88866875D01*
X152692480Y-89019612D01*
X152878376Y-89143824D01*
X153084933Y-89229383D01*
X153304212Y-89273000D01*
X153527788Y-89273000D01*
X153747067Y-89229383D01*
X153953624Y-89143824D01*
X154021964Y-89098160D01*
X154022023Y-89098757D01*
X154066726Y-89246125D01*
X154139321Y-89381940D01*
X154227509Y-89489397D01*
X152550072Y-91166835D01*
X152550072Y-90562000D01*
X152537812Y-90437518D01*
X152501502Y-90317820D01*
X152490373Y-90297000D01*
X152501502Y-90276180D01*
X152537812Y-90156482D01*
X152550072Y-90032000D01*
X152547000Y-89947750D01*
X152388250Y-89789000D01*
X150839000Y-89789000D01*
X150839000Y-89809000D01*
X150585000Y-89809000D01*
X150585000Y-89789000D01*
X150565000Y-89789000D01*
X150565000Y-89535000D01*
X150585000Y-89535000D01*
X150585000Y-88519000D01*
X150565000Y-88519000D01*
X150565000Y-88265000D01*
X150585000Y-88265000D01*
X150585000Y-88245000D01*
X150839000Y-88245000D01*
X150839000Y-88265000D01*
G37*
X150839000Y-88265000D02*
X150859000Y-88265000D01*
X150859000Y-88519000D01*
X150839000Y-88519000D01*
X150839000Y-89535000D01*
X152388250Y-89535000D01*
X152547000Y-89376250D01*
X152550072Y-89292000D01*
X152537812Y-89167518D01*
X152501502Y-89047820D01*
X152490373Y-89027000D01*
X152501502Y-89006180D01*
X152537812Y-88886482D01*
X152539743Y-88866875D01*
X152692480Y-89019612D01*
X152878376Y-89143824D01*
X153084933Y-89229383D01*
X153304212Y-89273000D01*
X153527788Y-89273000D01*
X153747067Y-89229383D01*
X153953624Y-89143824D01*
X154021964Y-89098160D01*
X154022023Y-89098757D01*
X154066726Y-89246125D01*
X154139321Y-89381940D01*
X154227509Y-89489397D01*
X152550072Y-91166835D01*
X152550072Y-90562000D01*
X152537812Y-90437518D01*
X152501502Y-90317820D01*
X152490373Y-90297000D01*
X152501502Y-90276180D01*
X152537812Y-90156482D01*
X152550072Y-90032000D01*
X152547000Y-89947750D01*
X152388250Y-89789000D01*
X150839000Y-89789000D01*
X150839000Y-89809000D01*
X150585000Y-89809000D01*
X150585000Y-89789000D01*
X150565000Y-89789000D01*
X150565000Y-89535000D01*
X150585000Y-89535000D01*
X150585000Y-88519000D01*
X150565000Y-88519000D01*
X150565000Y-88265000D01*
X150585000Y-88265000D01*
X150585000Y-88245000D01*
X150839000Y-88245000D01*
X150839000Y-88265000D01*
G36*
X155829000Y-90297000D02*
G01*
X155849000Y-90297000D01*
X155849000Y-90551000D01*
X155829000Y-90551000D01*
X155829000Y-90562026D01*
X155813788Y-90559000D01*
X155590212Y-90559000D01*
X155575000Y-90562026D01*
X155575000Y-90551000D01*
X155555000Y-90551000D01*
X155555000Y-90297000D01*
X155575000Y-90297000D01*
X155575000Y-90277000D01*
X155829000Y-90277000D01*
X155829000Y-90297000D01*
G37*
X155829000Y-90297000D02*
X155849000Y-90297000D01*
X155849000Y-90551000D01*
X155829000Y-90551000D01*
X155829000Y-90562026D01*
X155813788Y-90559000D01*
X155590212Y-90559000D01*
X155575000Y-90562026D01*
X155575000Y-90551000D01*
X155555000Y-90551000D01*
X155555000Y-90297000D01*
X155575000Y-90297000D01*
X155575000Y-90277000D01*
X155829000Y-90277000D01*
X155829000Y-90297000D01*
G36*
X136946531Y-87404622D02*
G01*
X136567750Y-87407000D01*
X136409000Y-87565750D01*
X136409000Y-88265000D01*
X136429000Y-88265000D01*
X136429000Y-88519000D01*
X136409000Y-88519000D01*
X136409000Y-88539000D01*
X136155000Y-88539000D01*
X136155000Y-88519000D01*
X136135000Y-88519000D01*
X136135000Y-88265000D01*
X136155000Y-88265000D01*
X136155000Y-87565750D01*
X135996250Y-87407000D01*
X135777361Y-87405626D01*
X135772766Y-87382525D01*
X135899979Y-87357221D01*
X136064678Y-87289001D01*
X136212904Y-87189959D01*
X136338959Y-87063904D01*
X136438001Y-86915678D01*
X136443738Y-86901829D01*
X136946531Y-87404622D01*
G37*
X136946531Y-87404622D02*
X136567750Y-87407000D01*
X136409000Y-87565750D01*
X136409000Y-88265000D01*
X136429000Y-88265000D01*
X136429000Y-88519000D01*
X136409000Y-88519000D01*
X136409000Y-88539000D01*
X136155000Y-88539000D01*
X136155000Y-88519000D01*
X136135000Y-88519000D01*
X136135000Y-88265000D01*
X136155000Y-88265000D01*
X136155000Y-87565750D01*
X135996250Y-87407000D01*
X135777361Y-87405626D01*
X135772766Y-87382525D01*
X135899979Y-87357221D01*
X136064678Y-87289001D01*
X136212904Y-87189959D01*
X136338959Y-87063904D01*
X136438001Y-86915678D01*
X136443738Y-86901829D01*
X136946531Y-87404622D01*
G36*
X155829000Y-85852000D02*
G01*
X155849000Y-85852000D01*
X155849000Y-86106000D01*
X155829000Y-86106000D01*
X155829000Y-86126000D01*
X155575000Y-86126000D01*
X155575000Y-86106000D01*
X155555000Y-86106000D01*
X155555000Y-85852000D01*
X155575000Y-85852000D01*
X155575000Y-85840974D01*
X155590212Y-85844000D01*
X155813788Y-85844000D01*
X155829000Y-85840974D01*
X155829000Y-85852000D01*
G37*
X155829000Y-85852000D02*
X155849000Y-85852000D01*
X155849000Y-86106000D01*
X155829000Y-86106000D01*
X155829000Y-86126000D01*
X155575000Y-86126000D01*
X155575000Y-86106000D01*
X155555000Y-86106000D01*
X155555000Y-85852000D01*
X155575000Y-85852000D01*
X155575000Y-85840974D01*
X155590212Y-85844000D01*
X155813788Y-85844000D01*
X155829000Y-85840974D01*
X155829000Y-85852000D01*
G36*
X137815000Y-80329032D02*
G01*
X137805904Y-80326273D01*
X137701597Y-80316000D01*
X137701595Y-80316000D01*
X137666720Y-80312565D01*
X137631845Y-80316000D01*
X137521000Y-80316000D01*
X137521000Y-80234072D01*
X137815000Y-80234072D01*
X137815000Y-80329032D01*
G37*
X137815000Y-80329032D02*
X137805904Y-80326273D01*
X137701597Y-80316000D01*
X137701595Y-80316000D01*
X137666720Y-80312565D01*
X137631845Y-80316000D01*
X137521000Y-80316000D01*
X137521000Y-80234072D01*
X137815000Y-80234072D01*
X137815000Y-80329032D01*
%TD*%
M02*
